<?xml version="1.0" standalone="no"?>
<!DOCTYPE svg PUBLIC "-//W3C//DTD SVG 1.1//EN" "http://www.w3.org/Graphics/SVG/1.1/DTD/svg11.dtd" >
<svg xmlns="http://www.w3.org/2000/svg" xmlns:xlink="http://www.w3.org/1999/xlink" version="1.1">
<metadata></metadata>
<defs>
<font id="ariadne_sansregular" horiz-adv-x="983" >
<font-face units-per-em="2048" ascent="1638" descent="-410" />
<missing-glyph horiz-adv-x="716" />
<glyph horiz-adv-x="0" />
<glyph horiz-adv-x="682" />
<glyph unicode=" "  horiz-adv-x="716" />
<glyph unicode="&#x09;" horiz-adv-x="716" />
<glyph unicode="&#xa0;" horiz-adv-x="716" />
<glyph unicode="!" horiz-adv-x="796" d="M295 98q0 47 24 64q29 16 50 16q44 0 84 -49q16 -22 16 -55q0 -38 -23 -58q-14 -18 -59 -18q-56 0 -72 29q-20 36 -20 71zM307 1100q0 30 1.5 44.5t9.5 30t25.5 21.5t47.5 6q59 0 78.5 -16.5t19.5 -61.5q0 -48 -4 -144.5t-4 -115.5q-3 -81 -8.5 -149t-15.5 -157t-15 -146 q-5 -68 -15 -86.5t-42 -18.5q-31 0 -43 14.5t-12 49.5q0 16 -1.5 61.5t-5.5 170t-8 259.5q0 18 -4 106t-4 132z" />
<glyph unicode="&#x22;" horiz-adv-x="608" d="M61 1153q-1 19 19.5 34t48.5 17q44 3 68 -7.5t24 -31.5l12 -305q1 -19 -11.5 -31.5t-35.5 -15.5q-78 -6 -84 37zM330 856l12 305q2 18 25.5 30t52.5 9q43 -3 64.5 -16.5t19.5 -34.5l-41 -301q-3 -20 -19.5 -31.5t-40.5 -9.5q-41 4 -57 15.5t-16 33.5z" />
<glyph unicode="#" horiz-adv-x="1228" d="M84 483q7 49 51 49h123q37 0 43 41q7 57 2 87.5t-13.5 40.5t-23.5 10q-33 0 -64.5 2t-33.5 2q-33 0 -39.5 17t0.5 54q7 52 51 52h96q82 0 97 75q34 159 39 193q11 58 34.5 79t81.5 21q15 0 26.5 -2t19 -4t11.5 -8.5t6.5 -9t1.5 -12.5t-1.5 -12t-4 -15t-3.5 -15 q-44 -218 -45 -229q-6 -42 1.5 -52.5t45.5 -10.5h98q25 0 38.5 8.5t16.5 18t7 37.5q1 2 1 3.5t0.5 3.5t0.5 4q6 24 20 98t23 107q11 52 34 71t78 19q60 0 70 -9t2 -42q-3 -12 -21.5 -83t-29.5 -118q-4 -10 -11 -49.5t-4 -50.5q0 -8 12.5 -15.5t36.5 -7.5h105 q14 0 27.5 -13.5t13.5 -31.5q0 -4 1 -13t1 -13q2 -19 -15.5 -27.5t-62.5 -9.5q-41 1 -79 -0.5t-46 -1.5q-13 0 -18.5 -1t-13 -5.5t-11 -16t-4.5 -30.5q0 -4 -4 -27.5t-9 -50.5t-5 -29q-3 -16 2.5 -24.5t19 -10.5t27 -1t35.5 3t36 2h21q51 0 70.5 -8.5t15.5 -32.5 q-4 -25 -8 -38.5t-15.5 -21t-20.5 -9.5t-34 -6q-12 -4 -60 -2t-50 2q-83 -3 -101 -76l-31 -148q-3 -19 -10 -50t-13 -52l-5 -22q-10 -52 -33.5 -70.5t-79.5 -18.5q-51 0 -57 25q-3 22 2 45l33 127q4 19 28 117q1 7 5.5 22t5.5 23q8 34 1 54t-34 20h-133q-22 0 -34 -18.5 t-20 -59.5l-30 -142q-3 -19 -10 -50t-13 -52l-6 -22q-10 -52 -33.5 -70.5t-79.5 -18.5q-51 0 -57 25q-3 22 2 45l33 127q4 21 13.5 59t12.5 54q2 5 6.5 24.5t6.5 24.5q16 70 -58 70q-73 0 -92 14t-12 63zM463 569q-4 -23 4 -30t29 -7h143q12 0 23 9.5t12 21.5q18 103 20 117 q3 19 -7.5 26t-35.5 7h-133q-10 0 -21 -9t-14 -20q-7 -30 -13 -69t-7 -46z" />
<glyph unicode="$" horiz-adv-x="909" d="M93 240.5q-2 17.5 1 29.5q7 91 41 146q11 16 30 17t32.5 -9.5t11.5 -22.5q-1 -5 -10.5 -29t-16 -54t-6.5 -66q0 -35 7.5 -61.5t29.5 -56t69 -52t117 -35.5q67 -12 123 0v16q2 51 7 175.5t6 187.5q0 88 -3 182q-15 12 -58 44t-66 50t-59 50.5t-56 57.5t-38 58t-22 64 q-14 110 68.5 191.5t222.5 90.5v25q0 62 12.5 100t51.5 52q11 4 14.5 -0.5t4 -20t3.5 -24.5q6 -12 6 -50q0 -24 -4 -86q103 -14 166.5 -70t67.5 -106q2 -42 -25 -104q-13 -23 -50 -18q-28 4 -29 19l3 9q14 20 19 29t8 25t2 42q-2 40 -44.5 71t-121.5 32q-6 -64 -6 -125v-279 q16 -16 34.5 -33t37 -33.5t26.5 -23.5q8 -8 34 -30.5t39 -36.5t36 -39.5t35.5 -50t26 -57.5t18 -72.5t2.5 -84.5q-6 -91 -84.5 -174.5t-200.5 -119.5q7 -59 2 -115.5t-30 -65.5q-11 -4 -27.5 8.5t-24.5 36.5t-8 64l2 55q-65 -6 -125 2q-55 7 -100.5 22t-75.5 34t-54 42 t-36 46.5t-21.5 47.5t-11 45t-3.5 38.5zM420 956q19 -60 108 -149q-2 59 -2 180q2 44 -2 143q-65 -19 -94.5 -69t-9.5 -105zM598 82q52 32 83.5 85t37.5 109q9 78 -21.5 143t-97.5 130v-250l-2 -211v-6z" />
<glyph unicode="%" horiz-adv-x="1382" d="M141.5 1141.5q5.5 48.5 24.5 89.5q27 56 89.5 87.5t137.5 31.5q81 0 130 -50t63 -178q6 -52 -6 -94.5t-32 -67t-47.5 -42t-47.5 -24.5t-37 -9q-140 -12 -215 63q-36 39 -50.5 92t-9 101.5zM242 1081q6 -67 37 -98q56 -59 116 -51q14 1 35.5 11.5t44.5 30t37 54t10 76.5 q-20 171 -145 174q-43 0 -71 -23t-50 -67q-20 -40 -14 -107zM342 -51q0 33 14 65l66 158q24 58 75.5 181t77.5 186q32 84 95.5 245t103.5 263q18 41 48.5 130t45.5 126q27 66 54 99.5t75 33.5q25 0 39.5 -2t20 -8.5t6.5 -10.5t-0.5 -16t-1.5 -17q0 -18 -14 -53 q-17 -46 -61.5 -142.5t-61.5 -139.5l-271 -660l-84 -215l-59 -158q-7 -17 -13.5 -41.5t-11.5 -37t-16 -26t-32.5 -19t-55.5 -5.5q-12 0 -25.5 18.5t-13.5 45.5zM813 173q6 48 25 89q27 56 89.5 87.5t137.5 31.5q81 0 129.5 -49.5t62.5 -177.5q6 -52 -6 -94.5t-32 -67.5 t-47 -42.5t-47.5 -24.5t-37.5 -9q-139 -12 -215 64q-36 39 -50.5 92t-8.5 101zM908 111q6 -68 38 -99q57 -57 117 -49q14 1 36 11.5t46 30t38.5 53.5t10.5 75q-20 171 -150 174q-43 0 -70.5 -22t-51.5 -66q-20 -40 -14 -108z" />
<glyph unicode="&#x26;" horiz-adv-x="1064" d="M125 324q-4 55 8 103.5t29.5 81t49.5 62t52.5 44t55.5 30t40.5 17.5t24.5 8q25 9 26 13q0 6 -22 18q-1 0 -2 1q-109 56 -100 205q6 84 82 150.5t188 66.5q59 0 101.5 -27.5t56.5 -66.5q5 -27 -11 -28q-14 -1 -32 24q-16 23 -25.5 32.5t-31.5 18t-54 6.5q-57 -3 -96.5 -40 t-53.5 -79t-14 -81q0 -116 64 -162q18 -11 35.5 -14.5t40.5 -4t36 -2.5q28 -4 33 -25q4 -18 -14 -21q-3 -1 -6 -1q-6 0 -40.5 3t-72.5 0.5t-72 -15.5q-34 -14 -60.5 -32.5t-56 -53t-43.5 -92t-10 -133.5q4 -78 30.5 -136.5t67.5 -92t89 -50t102 -16.5q98 -1 176 74.5 t80 160.5q1 53 -24 91.5t-56 50.5q-39 13 -94 -25q-14 -11 -23.5 -64t-13.5 -63q-15 -45 -67 -57q-16 -5 -29 0.5t-15 13.5t1 14q2 4 12.5 13.5t21 22.5t15.5 28q4 10 7 34t11 44t27 39q24 21 63 36.5t79 26.5t52 17q197 94 156 192q-12 34 -35 43t-43.5 -1.5t-29.5 -29.5 q-4 -10 -4.5 -20.5t2 -17.5t4.5 -13t1.5 -9.5t-6.5 -4.5q-4 0 -16 -4.5t-19 -5.5t-16.5 9t-15.5 34q-12 43 30 77.5t99 26.5t82 -70q9 -22 8.5 -43t-5 -37t-22 -35t-29 -30.5t-39.5 -30t-41.5 -26.5t-45.5 -27q-27 -14 -30.5 -21t13.5 -18q26 -13 47.5 -52.5t24.5 -103.5 q6 -104 -78 -186.5t-213 -85.5q-47 -1 -95 6t-101 29t-95 56.5t-71.5 94t-34.5 136.5z" />
<glyph unicode="'" horiz-adv-x="446" d="M143 1163q0 17 21.5 31t50.5 14q43 0 66.5 -12t21.5 -33l-14 -305q-2 -19 -16 -31t-37 -12q-75 0 -78 43z" />
<glyph unicode="(" horiz-adv-x="567" d="M106 598q0 236 72 393t180 240q37 28 66 9t29 -66v-5q0 -47 -41 -98q-125 -147 -125 -446q0 -360 125 -519q22 -29 31.5 -49.5t9.5 -48.5v-4q0 -48 -29 -66t-66 9q-50 38 -92 91.5t-79.5 131t-59 187.5t-21.5 241z" />
<glyph unicode=")" horiz-adv-x="567" d="M125 4v4q0 28 9.5 48.5t31.5 49.5q125 159 125 519q0 299 -125 446q-41 51 -41 98v5q0 47 28.5 66t65.5 -9q108 -83 180 -240t72 -393q0 -131 -21.5 -241t-59 -187.5t-79.5 -131t-92 -91.5q-37 -27 -65.5 -9t-28.5 66z" />
<glyph unicode="*" horiz-adv-x="806" d="M188 997q0 5 5 15q6 26 40 26q21 0 39 -6q23 -7 56 -20q15 -6 22 -6q15 0 25 11.5t10 29.5q0 15 -2 33t-2 34q0 70 45 70q22 0 34.5 -14.5t12.5 -39.5v-14q-6 -32 -12 -80q-3 -23 15.5 -34.5t39.5 -2.5q22 9 68 33q18 12 32 12q36 0 46 -32q2 -4 2 -15q0 -19 -16 -32.5 t-42 -16.5q-46 -3 -76 -8q-15 -4 -24.5 -15.5t-9.5 -25.5t10 -27q32 -32 57 -55q27 -27 27 -51q0 -20 -19 -33q-13 -10 -26 -10q-34 0 -53 43q-18 44 -31 63q-6 25 -35 25q-24 0 -33 -18l-33 -72q-7 -19 -21.5 -30t-29.5 -11q-11 0 -24 10q-19 13 -19 35q0 27 25 49 q44 40 51 51q12 15 12 31q0 13 -10.5 25.5t-24.5 15.5q-3 0 -28.5 3.5t-42.5 4.5q-26 3 -43 16.5t-17 32.5z" />
<glyph unicode="+" horiz-adv-x="823" d="M127 594q0 28 18 48t41 20h238l-2 102q-2 39 10 64.5t33 25.5q27 0 47 -17.5t20 -41.5v-136h130q25 0 44 -15.5t19 -35.5q0 -51 -78 -51q-29 0 -64 1.5t-51 0.5q-2 -78 -2 -240q0 -25 -15.5 -44t-35.5 -19q-51 0 -51 78q0 33 1.5 70.5t0.5 58.5l-2 94l-211 -6 q-39 -2 -64.5 10t-25.5 33z" />
<glyph unicode="," horiz-adv-x="350" d="M86 10q0 44 25.5 69t68.5 25q45 0 70.5 -24t25.5 -66q0 -48 -10 -74t-37 -61q-12 -15 -33.5 -29.5t-37.5 -19.5q-25 -6 -37 10q-1 2 -1.5 4t-1 3.5t0.5 4t1.5 4.5t2.5 6t3 7t4 8.5t5 9.5q14 30 -18 62q-31 31 -31 61z" />
<glyph unicode="-" horiz-adv-x="823" d="M127 594q0 28 18 48t41 20q118 0 258 -1.5t218 -1.5q25 0 44 -15.5t19 -35.5q0 -51 -78 -51q-33 0 -70.5 1.5t-58.5 0.5l-301 -8q-39 -2 -64.5 10t-25.5 33z" />
<glyph unicode="." horiz-adv-x="337" d="M82 98q0 47 24 64q29 16 50 16q44 0 84 -49q16 -22 16 -55q0 -38 -23 -58q-14 -18 -59 -18q-56 0 -72 29q-20 36 -20 71z" />
<glyph unicode="/" horiz-adv-x="851" d="M193 -205q0 27 12 62l55 145q105 275 129 340q24 67 78.5 218t89.5 251q13 34 39 116.5t41 121.5q21 59 44.5 90.5t63.5 31.5q21 0 33.5 -2t17 -7.5t5.5 -9t-0.5 -14.5t-1.5 -16q0 -10 -13 -49q-15 -43 -52.5 -133t-51.5 -129l-227 -610l-70 -199l-51 -145 q-5 -15 -11 -38.5t-10 -35t-13.5 -24.5t-27.5 -18t-47 -5q-10 0 -21 17t-11 42z" />
<glyph unicode="0" d="M45 518q13 113 45 213.5t74.5 172.5t89.5 130t95 95.5t85.5 59t65.5 28.5q38 9 71 10.5t58 -5.5t45 -17t37 -25.5t27.5 -28.5t21.5 -29q12 -19 6 -36t-21 -18.5t-30 11.5q-14 14 -20.5 21t-25.5 19.5t-35.5 16.5t-44 3.5t-57.5 -11.5q-89 -31 -179 -203t-109 -405 q-17 -197 62 -326.5t198 -132.5q43 -1 84 27.5t71 73t55.5 100.5t41 105.5t24.5 93.5q62 315 17 409q-15 30 -29 37.5t-36 9t-42 13.5q-31 18 -1 41q33 26 85 22q16 -1 29 -6q22 -8 40.5 -27t35.5 -58.5t24.5 -94t3.5 -141.5t-24 -193q-43 -231 -147 -364.5t-247 -141.5 q-60 -3 -124 13.5t-128 58.5t-111 103.5t-70.5 159.5t-10.5 216z" />
<glyph unicode="1" d="M62 603q9 -26 37 -32q17 -3 30 7q22 15 88 69t94 86q23 26 71.5 74.5t63.5 64.5q28 32 31 22q1 -4 0 -22q-3 -43 10 -299q2 -41 2.5 -203.5t8 -263t28.5 -104.5q35 -8 77 -1.5t56 24.5q3 4 5.5 15.5t4.5 31t3.5 40t2 51.5t1 55.5t0.5 61.5v60.5v62v56.5q0 114 -12 371 t-21 348q-3 28 -12.5 45t-24.5 20.5t-28 3.5t-30 -8t-23 -11.5t-15 -8.5q-16 -9 -20.5 -25t-2.5 -36.5t-2 -49.5q-9 -66 -198 -260q-135 -138 -185 -170q-55 -34 -40 -75z" />
<glyph unicode="2" d="M99 99.5q12 -34.5 40 -57t62 -24.5q125 -3 213 -0.5t183 7t114 4.5q147 0 225 -19q23 -6 37.5 8.5t11 33.5t-23.5 26q-39 13 -113.5 24.5t-134.5 10.5q-367 -8 -416 -7q-53 1 -27 57q23 49 88 107q14 13 62.5 49t95 71t104 90t99.5 108.5t71 122t29 135.5q0 152 -75 245 t-203 119q-110 23 -205.5 -17.5t-149.5 -127.5q-32 -52 -36 -120t8 -115.5t30 -81.5q34 -36 62.5 -14.5t7.5 71.5q-53 123 12 225q39 62 102.5 95.5t133.5 13.5q65 -19 95 -59t31.5 -95.5t-1.5 -130.5q-2 -47 -21 -98t-43.5 -93t-67.5 -92.5t-74.5 -84t-85 -80.5 t-79.5 -68.5t-76 -61.5q-56 -45 -76.5 -93.5t-8.5 -83z" />
<glyph unicode="3" d="M152 264q0 -103 82 -185t192 -91q46 -4 106 8t126 43.5t120.5 77t90 118t34.5 158.5q-1 85 -32.5 156.5t-73 113.5t-95.5 74.5t-85.5 44.5t-57.5 19q-10 2 -24 6q-18 4 -20 6t3 10q2 5 4 8q5 9 27 40.5t61.5 89.5t77.5 116q64 100 -40 116q-40 7 -161 1q-32 -2 -82 -5 t-73 -4t-55 0t-60 5q-25 -3 -35 -22.5t2.5 -39t44.5 -22.5q49 -3 98 -2.5t118 2.5t77 2q11 0 27 2q17 2 18 -2q0 -3 -4 -12q-18 -35 -112 -119q-30 -26 -61 -56.5t-71.5 -72.5t-62.5 -76t-16 -49q14 -33 50.5 -45t65.5 8q3 2 16.5 12t18.5 12.5t18.5 9.5t24 7.5t26.5 1 t34.5 -5t40.5 -14.5q81 -35 131 -124.5t41 -199.5q-9 -119 -91.5 -217.5t-187.5 -97.5q-51 1 -91 23t-61.5 55t-32 66t-10.5 62q0 31 -27 50q-28 20 -44 -8q-10 -18 -10 -54z" />
<glyph unicode="4" d="M53 483q8 15 46 64.5t75.5 109t56.5 111.5q24 67 63.5 212.5t53.5 188.5q8 25 26 40t38.5 17t39 -3.5t30.5 -21.5t10 -38q-3 -34 -14 -83t-34.5 -133.5t-29.5 -106.5q-46 -175 -146 -295q-45 -54 3 -65q23 -6 142 -3h19h139q2 46 6 95t10.5 94.5t11.5 77t11.5 69.5 t7.5 47q6 26 18 40t27 15t29 -3.5t29 -14.5q13 -8 17.5 -21t3.5 -27.5t-4 -50.5t-3 -71q0 -50 4 -250h9q49 2 59.5 -13t-9.5 -32t-48 -20h-9q4 -173 0 -236q-1 -25 -1.5 -60.5t-1.5 -49.5t-5 -32t-12.5 -25t-24.5 -11q-113 -26 -108 43q1 19 -9 148t-10 233q-12 2 -37 2 q-55 0 -206 -5t-189 -5q-63 2 -83.5 17.5t-0.5 51.5z" />
<glyph unicode="5" d="M131 211q-3 40 21 50.5t49.5 -6.5t27.5 -44q4 -48 44.5 -95t119.5 -67q29 -10 66 -4.5t76 16.5t78 39.5t70 64.5t52.5 91t26.5 119q6 84 -9 156.5t-44.5 120.5t-66 78t-75.5 38q-68 14 -138.5 -31t-106.5 -104q-19 -30 -56 -34.5t-65.5 9t-28.5 27.5q0 94 -2 184 q-1 34 9 140.5t5 183.5q-1 25 5 42t14.5 25t23.5 12t25.5 3.5t29 -1.5t25.5 -1q5 0 99 -1t185 -1t138 2q66 3 78 -34q7 -24 -14 -39q-10 -7 -21 -7q-13 0 -65.5 -4t-90 -5t-94.5 5q-47 7 -92 7.5t-76 -9t-28 -27.5q15 -98 10 -211q-6 -138 5 -139q2 0 5 4q17 22 78.5 47 t142.5 25q49 0 96.5 -11t99.5 -42t89 -78.5t58 -128.5t14 -185q-6 -82 -28.5 -150t-57 -113t-78 -80t-92 -52t-99 -28.5t-97.5 -9.5t-89 5q-68 9 -119 36.5t-78 65.5t-39.5 74t-15.5 72z" />
<glyph unicode="6" d="M92 659q31 185 124.5 322t234.5 199q161 71 266 26q32 -14 22.5 -35.5t-45.5 -21.5q-41 0 -90 -12t-80 -27q-103 -52 -176.5 -183.5t-73.5 -285.5q0 -74 11 -74q7 0 26 23q43 54 76 78q102 76 258 55q77 -10 131.5 -71t75.5 -141t18.5 -166.5t-30.5 -149.5 q-45 -103 -119 -159t-155.5 -61.5t-161 19t-148.5 74.5q-234 172 -164 591zM289 258q10 -82 55 -121q47 -40 107.5 -59.5t121 -14.5t114.5 46.5t83 115.5q38 106 26.5 196t-60 151t-113.5 69q-77 10 -132 -7.5t-120 -82.5q-45 -45 -68.5 -128t-13.5 -165z" />
<glyph unicode="7" d="M122.5 1155q-6.5 -23 5.5 -45.5t22 -22.5l35 3q35 2 87 2q236 0 361 -11q48 -4 59 -18t-4 -35q-6 -11 -21.5 -27.5t-49 -56.5t-74.5 -96q-75 -103 -140 -248.5t-92 -282.5q-58 -293 8 -317q41 -18 105.5 -4t64.5 55q0 55 33.5 241.5t75.5 293.5q31 80 103.5 199 t101.5 198q17 46 24 77.5t7 50t-9.5 30t-20 16t-30.5 8.5q-56 12 -242 15q-70 1 -211 -0.5t-159 -1.5q-33 0 -39.5 -23z" />
<glyph unicode="8" d="M57 338q5 74 29.5 136.5t58 103t77 72t80.5 47.5t75 26q-135 73 -135 235q0 73 35.5 126.5t91 79.5t112.5 36t111 6q132 -11 187 -84t55 -200t-107 -193q94 -22 163 -117t68 -256q0 -96 -34 -171.5t-91.5 -121t-128.5 -69t-151 -23.5q-45 0 -87.5 3t-96 13t-98 26t-88 44 t-72 65.5t-44 93t-10.5 122.5zM268 319q14 -126 94 -195t187 -69q128 0 218 87.5t87 197.5q-3 199 -87 285t-232 43q-56 -18 -57 5l3 11q-108 -20 -168 -126t-45 -239zM432 956q0 -106 50.5 -155t121.5 -51q73 -2 120.5 46.5t47.5 135.5q0 86 -39.5 143t-105.5 64 q-33 5 -65.5 -2.5t-62.5 -27t-48.5 -59.5t-18.5 -94z" />
<glyph unicode="9" d="M67 145.5q23 22.5 62 -4.5q43 -29 109.5 -52t126.5 -23q28 0 65.5 16.5t80.5 55.5t78.5 93.5t59.5 140t23 185.5q0 23 -1.5 34.5t-6.5 14t-9.5 0.5t-16 -8.5t-20.5 -9.5q-4 -1 -40.5 -20t-78 -29t-96.5 -7q-40 2 -78 11.5t-78.5 32t-70 56.5t-49.5 90.5t-21 127.5 q-1 72 22.5 133.5t62.5 103.5t88.5 70.5t101.5 39t100 3.5q28 0 57 -5t67 -21.5t72 -43t68 -74t58.5 -110t39.5 -155.5t15 -205t-22 -204.5t-57 -153t-82.5 -107t-93 -71.5t-95 -40t-82 -19.5t-59.5 -4.5q-79 0 -169.5 29.5t-121.5 68.5q-32 39 -9 61.5zM195 874 q0 -71 23 -124t61 -82.5t82 -43.5t92 -14q96 0 158.5 70t62.5 182q0 226 -187 246q-49 6 -98 -4t-93.5 -35t-72.5 -75.5t-28 -119.5z" />
<glyph unicode=":" horiz-adv-x="307" d="M90 268q0 46 25 64q29 16 49 16q44 0 84 -49q16 -22 16 -55q0 -39 -22 -58q-14 -18 -60 -18q-55 0 -71 29q-21 37 -21 71zM90 846q0 45 25 63q31 17 49 17q44 0 84 -49q16 -22 16 -56q0 -38 -22 -57q-15 -19 -60 -19q-55 0 -71 29q-21 38 -21 72z" />
<glyph unicode=";" horiz-adv-x="331" d="M68 236q0 44 25.5 69t68.5 25q45 0 70.5 -24t25.5 -66q0 -48 -10 -74.5t-37 -61.5q-12 -14 -34 -29t-38 -20q-24 -6 -37 11q-1 2 -1.5 5t-0.5 5t2 6.5t3.5 7.5l5 10l6.5 13q14 28 -19 61q-30 30 -30 62zM84 700q0 46 25 64q29 16 49 16q44 0 84 -49q16 -22 16 -55 q0 -39 -22 -58q-14 -18 -60 -18q-56 0 -72 29q-20 36 -20 71z" />
<glyph unicode="&#x3c;" horiz-adv-x="737" d="M254 532q0 29 13 47t46 39q153 83 258 125q10 5 25 5q12 0 18.5 -1t11.5 -6t6.5 -7t5 -13t5.5 -16q0 -18 -10 -30t-35 -26q-1 -1 -28 -11.5t-62 -27.5t-57 -32q-56 -35 -56 -54q0 -21 51 -55l134 -84q3 -3 16.5 -12.5t23 -18.5t9.5 -14q0 -4 -0.5 -8t-1 -7t-2.5 -6t-3 -5 t-4.5 -4.5t-5 -4t-6 -4t-6.5 -3.5t-8 -4.5t-8 -4.5q-9 -6 -30 -3t-30 11q-8 7 -106.5 77.5t-114.5 86.5q-4 4 -13.5 14t-12.5 13.5l-9 10.5t-8 11.5t-4 10t-2 11.5z" />
<glyph unicode="=" horiz-adv-x="1343" d="M156 651q0 35 23.5 51.5t56.5 16.5q234 0 419 -1t240 -1q39 0 61.5 -13.5t22.5 -37.5q0 -25 -18 -37.5t-70 -22.5q-31 -6 -55.5 -7t-49 1t-34.5 2l-486 -8q-110 0 -110 57zM174 299q0 35 23.5 51.5t56.5 16.5q234 0 419 -1t240 -1q39 0 61.5 -14t22.5 -38 q0 -25 -17.5 -36.5t-70.5 -22.5q-31 -6 -55.5 -7t-49 1t-34.5 2l-485 -8q-111 0 -111 57z" />
<glyph unicode="&#x3e;" horiz-adv-x="499" d="M70 705q2 5 5 13.5t4 11.5t4 8t7 6t10.5 2.5t16.5 1.5q14 0 24 -5q105 -42 258 -125q33 -21 46.5 -39.5t13.5 -46.5q0 -6 -2 -11.5t-4 -10t-8 -11.5l-9 -10.5t-12.5 -13.5t-13.5 -14q-16 -16 -114.5 -86.5t-107.5 -77.5q-9 -8 -29.5 -11t-29.5 3q-2 1 -8 4.5t-8 4.5 t-6.5 3.5t-6 4t-5 4t-4.5 4.5t-3 5t-2.5 6t-1 7t-0.5 8q0 5 9.5 14t23 18.5t16.5 12.5l133 84q51 34 51 55q0 20 -55 54q-22 15 -57 32t-62 27.5t-28 11.5q-25 14 -35 26t-10 30z" />
<glyph unicode="?" horiz-adv-x="980" d="M102 942q0 -53 20.5 -129.5t47.5 -122.5q24 -57 84 -41q15 4 21 8t6 11.5t-3.5 14.5t-10.5 22t-11 30q-45 88 -45 160q0 59 17.5 104.5t44 71t63 42t69 21.5t68.5 5q99 0 161 -67.5t62 -186.5q0 -78 -14 -125q-18 -50 -52.5 -99.5t-69 -86.5t-66.5 -74.5t-52 -78.5 t-20 -83q0 -35 14 -48.5t47 -13.5q35 0 65 19t40 49q3 8 7 21t6.5 19.5t8 18.5t15 27t24.5 35q16 22 49.5 53.5t61.5 61t57 69.5t45.5 97.5t16.5 127.5q0 83 -26 147.5t-67 103.5t-96.5 64t-108 34.5t-108.5 9.5q-66 0 -128.5 -15.5t-118.5 -48t-90 -91t-34 -136.5zM414 98 q0 47 24 64q29 16 49 16q44 0 84 -49q17 -24 17 -55q0 -38 -23 -58q-14 -18 -59 -18q-56 0 -72 29q-20 36 -20 71z" />
<glyph unicode="@" horiz-adv-x="1228" d="M164 442q0 92 30 169.5t79.5 130.5t114.5 90.5t133 55t136 17.5q102 1 189.5 -44t138.5 -123t58.5 -181.5t-50.5 -220.5q-15 -31 -41 -51t-54.5 -26.5t-55 -5.5t-47.5 9q-35 13 -57.5 48.5t-28.5 64.5q-1 6 -2.5 10.5t-2.5 8t-2.5 5t-3 1.5t-3.5 -1.5t-4 -5t-5 -8.5 q-16 -33 -47.5 -72t-60.5 -39q-20 0 -39.5 6t-41 21.5t-35.5 48t-16 78.5q-4 92 42 163t108 97q86 36 149 -16q16 -13 5 -17.5t-35 9.5q-25 15 -42 16t-50 -14q-45 -22 -65.5 -95t-20.5 -149q0 -61 9.5 -84t33.5 -23q6 0 12.5 2.5t12.5 8.5t11 11.5t11.5 16t10.5 17t10.5 19 t10.5 18.5q37 63 58 147q10 38 32 21q21 -18 23 -48q0 -40 15.5 -123.5t37.5 -107.5q17 -19 43.5 -21t55.5 17.5t47 58.5q64 148 34 264t-127 187.5t-221 73.5q-185 0 -295.5 -113t-107.5 -332q1 -173 95.5 -276.5t260.5 -118.5q99 -9 189.5 22t128.5 80q18 22 35 14t1 -33 q-3 -3 -6 -7q-47 -57 -136 -88t-216 -25q-136 6 -238.5 70t-153 161t-50.5 211z" />
<glyph unicode="A" horiz-adv-x="1193" d="M68 53q13 41 224.5 563.5t221.5 552.5q10 27 52 39q22 6 44 6q21 0 43 -5q44 -11 58 -40q9 -22 72.5 -194.5t132.5 -363t135 -374t71 -196.5q2 -6 2 -12q0 -23 -40 -35q-24 -7 -47 -7q-27 0 -53 10t-32 28q-6 29 -87.5 238t-82.5 212q-6 15 -9 19.5t-12 2t-13 -2.5 q-6 -1 -132.5 -4t-136.5 -5q-31 0 -35 -16q-1 -4 -40.5 -104t-78.5 -203t-42 -119q-5 -35 -73 -48q-28 -5 -52 -5q-38 0 -66 13q-35 18 -24 50zM504 610q-4 -15 4 -21.5t27 -4.5l167 8q14 0 21 9t4 20l-72 313q-5 19 -28 19t-29 -19z" />
<glyph unicode="B" horiz-adv-x="1325" d="M158 63q-1 11 -1 42q-1 58 3 187q6 199 14 273q2 14 2 53q0 40 -2 102q-3 126 -7.5 253t-4.5 141q0 5 -1 14.5t7 19.5t25 13q134 23 368 23q124 0 225 -30t163.5 -90t62.5 -140q0 -61 -14.5 -104.5t-41.5 -68.5t-52.5 -38t-61.5 -23q34 -2 75 -10.5t101.5 -32t108 -59 t82 -98.5t34.5 -142q0 -63 -25 -115.5t-63 -87.5t-92.5 -62.5t-104 -43t-107.5 -26.5t-93 -15t-70 -6q-44 -2 -99 -2q-62 0 -139 2q-145 4 -198 14q-53 8 -72 19t-22 38zM334 1063q3 -8 9 -84t11.5 -156.5t5.5 -85.5q4 -37 41 -32q2 0 51 5t115 15q12 2 40 5t44 5.5 t43.5 7.5t45 12t40 17t36.5 24.5t27.5 33t20 43.5t6.5 55q0 38 -15.5 68t-44 48t-60 30.5t-69.5 18t-65 7.5t-55 2q-116 0 -219 -25q-4 0 -7.5 -3.5t-0.5 -10.5zM340 1077h2q4 2 4 1t-6 -1zM366.5 159q-1.5 -19 0.5 -40q2 -10 3 -13.5t4 -8.5t8.5 -7.5t14.5 -3.5 q43 -4 110 -4h6q66 0 169 10q11 2 46 6t55 7t55 11.5t57 19t49.5 29.5t43.5 43t27.5 60t12.5 80v10q0 135 -76 195q-75 59 -253 59h-17q-247 -2 -283 -26q-18 -10 -21 -39q0 -7 -5 -219q0 -45 -2.5 -97.5t-4 -71.5z" />
<glyph unicode="C" horiz-adv-x="1142" d="M113 582q0 130 38.5 236.5t103.5 178.5t153 120t184 68q77 16 158 16q20 0 41 -1q74 -3 135 -38.5t61 -86.5t-34 -91q-27 -32 -63 -32q-9 0 -18 2q-31 7 -37 29t15 35q12 8 22 2t19.5 4.5t13.5 44.5q2 12 -8.5 23.5t-39 19.5t-69.5 8q-85 0 -157 -32t-121 -83.5t-84 -119 t-52.5 -136.5t-21.5 -139q-3 -17 -3 -41q1 -21 3 -47q4 -55 9.5 -118t27 -127.5t49.5 -116t78 -83.5q47 -30 106 -30h7q92 3 158.5 22.5t92.5 39t54.5 50t36.5 36.5q24 17 47 16.5t30 -16t-6 -41.5q-12 -21 -46 -52t-86.5 -65.5t-128 -58t-152.5 -23.5q-516 0 -516 627z" />
<glyph unicode="D" horiz-adv-x="1335" d="M160 16v40q0 110 4 518q6 532 10 573q-1 43 44 51q36 7 186 6h77q65 -1 119 -5t128.5 -18t132.5 -37t120.5 -66t104.5 -100t71.5 -144t34.5 -195q1 -16 1 -33q1 -88 -23 -165q-28 -91 -73.5 -153.5t-108.5 -113t-122.5 -79.5t-123 -50t-100.5 -28.5t-64 -10.5 q-90 -14 -324 -14h-16.5h-18.5t-17 0.5t-17 2t-12.5 4t-9.5 7t-3 10.5zM354 1079q-2 -7 -2 -26q0 -26 4 -76q6 -87 12 -197q5 -86 5 -138v-28q-1 -49 -7 -175.5t-10 -214.5q-2 -48 -1 -72q0 -21 1 -25q9 -23 43 -23q78 2 140.5 8.5t127.5 22.5t113 41.5t91.5 67t70 96.5 t40.5 133q10 60 10 131q0 21 -1 43q-4 83 -20.5 151.5t-42.5 115t-60 83.5t-71.5 57t-78.5 35.5t-80 18.5q-39 2 -76 6q-17 2 -33 2q-18 0 -35 -2q-40 -1 -67 -3.5t-41 -4t-21 -5.5t-8.5 -6t-1.5 -7.5t-1 -8.5z" />
<glyph unicode="E" horiz-adv-x="1040" d="M136 377.5q0 112.5 3 181.5q2 89 2.5 336.5t1.5 267.5q6 27 58 27q17 0 344 -7q283 -6 335 -5h11q15 1 26 -18.5t7 -40t-27 -21.5q-25 -2 -257 -2q-77 0 -130 -1q-107 0 -119 1q-17 2 -23 -4.5t-8 -26.5v-6q0 -27 6 -148q7 -138 7 -145q0 -39 45 -39q38 0 225 -3.5 t215 -6.5q20 -6 20 -24t-14 -37.5t-28 -18.5h-5q-27 0 -201 -7q-143 -6 -189 -6q-17 0 -21 1q-20 3 -40.5 -7.5t-19.5 -25.5v-16q0 -46 -2 -202q-4 -202 -6 -227.5t2.5 -31t28.5 -4.5q10 1 31 1q31 0 86 -2q91 -3 207 -7t170 -5q64 0 78 -21t-12 -42.5t-60 -22.5 q-45 -1 -365 -6.5t-336 -5.5q-13 2 -19.5 3.5t-15 13t-8.5 32.5q0 2 -1.5 109t-1.5 219.5z" />
<glyph unicode="F" horiz-adv-x="1034" d="M160 496q0 98 26 657q0 27 41 27h17q36 0 137 -2q31 -1 161 -4.5t246.5 -7t141.5 -3.5q36 1 37 -27q1 -24 -17 -35q-6 -3 -12 -3h-4q-32 0 -252 -9q-202 -8 -248 -8h-12q-25 4 -32 -1.5t-7 -26.5q0 -287 6 -310q6 -16 12.5 -19t30.5 -3q15 0 180 -6t183 -6q17 0 25 -17 t1 -34.5t-24 -18.5q-367 -21 -377 -21q-8 0 -15.5 1t-10.5 1t-6 1.5t-3.5 -0.5t-1 -3t-0.5 -7v-11q-1 -10 -11 -260t-12 -283q-5 -65 -101 -65h-11q-40 3 -58 13t-24 36q-6 39 -6 455z" />
<glyph unicode="G" horiz-adv-x="1214" d="M113 582q11 135 62 244.5t123.5 179.5t165 117t183.5 66q82 17 165 17h17q74 -2 135.5 -38t61.5 -87t-34 -91q-27 -31 -63 -31q-9 0 -18 2q-31 7 -37 28.5t15 34.5q12 8 22 2.5t19.5 4.5t13.5 44q2 12 -8.5 23.5t-39 19.5t-69.5 8q-85 0 -157.5 -31t-122.5 -80 t-90.5 -118.5t-64.5 -138.5t-40 -148q-8 -34 -8 -87t8 -116.5t29 -126.5t52 -114.5t82 -83.5q48 -29 107 -29h7q51 2 92 9.5t67.5 18t46 27.5t29.5 30.5t16.5 33.5t8 31t3.5 28q1 8 1 11q13 177 37 207q10 13 40 18.5t59 -1.5t34 -28q8 -30 11 -142q1 -51 1 -84 q0 -39 -2 -52q-6 -61 -19 -162t-14 -115q-6 -56 -20 -75.5t-57 -20.5q-30 -2 -50.5 -0.5t-31.5 9.5t-13 24q-2 7 -2 25q0 41 8 139q-107 -29 -245 -29q-85 0 -159 16t-147 59t-122 111t-75 181q-17 77 -17 169q0 44 4 91z" />
<glyph unicode="H" horiz-adv-x="1282" d="M156 451q0 76 5 379.5t5 310.5q0 35 82 35q36 0 61.5 -8.5t26.5 -22.5q3 -25 9.5 -191.5t6.5 -191.5q0 -9 -0.5 -21t-0.5 -16t1 -9.5t3.5 -7t7 -2.5t12.5 -1l504 -9q18 0 24.5 4.5t14.5 20.5q5 10 15 200t11 197q6 30 84 37q13 2 24 2q64 0 64 -55q0 -829 -12 -987 q-2 -39 -8 -65t-12 -40t-19 -20.5t-20 -7.5t-26.5 -0.5t-27.5 0.5q-9 -1 -17 -1q-75 0 -75 52v538q-1 12 -6 14.5t-25 4.5q-13 1 -40.5 1.5t-67.5 1t-68 1.5q-105 6 -289 6q-2 0 -6 0.5t-6 0.5t-5.5 -1.5t-5 -4t-3.5 -8.5t-2 -14q-2 -43 -12.5 -266t-10.5 -250 q0 -33 -18.5 -53.5t-54.5 -19.5q-43 0 -80 7t-37 21q0 5 -1.5 89t-3 189t-1.5 161z" />
<glyph unicode="I" horiz-adv-x="665" d="M209 35q0 12 3 244.5t3 267.5q0 93 3 333t7 265q4 12 19.5 18.5t31.5 8t48 2.5q15 1 28 1q70 0 76 -32q4 -21 9 -187.5t5 -285.5t-4 -368.5t-8 -278.5q-1 -8 -6 -14.5t-14.5 -10t-18 -6.5t-23 -4.5t-22 -2t-22.5 -1t-19 -0.5h-10l-54 13q-32 16 -32 38z" />
<glyph unicode="J" horiz-adv-x="880" d="M68 197q2 43 6 70t10 50q7 30 43 36q34 5 46 -18q5 -11 1 -26q-9 -25 -9 -70v-17q2 -59 23 -79q39 -37 81 -51q31 -9 70 -9q14 0 30 1q114 9 120 113q2 36 5.5 225.5t5.5 241.5q1 17 1 42q0 69 -5 202q-3 117 -3 170q0 28 1 38q4 37 46 54q32 13 63 13q9 0 18 -1 q33 -3 56.5 -19t24.5 -41q0 -5 4 -57.5t7.5 -106.5t6.5 -131t3 -139q0 -96 -2 -233t-2 -160q0 -75 -27 -133t-66 -90.5t-91 -53t-93 -27t-80 -7.5h-25q-145 0 -216 65q-28 25 -41 65q-12 36 -12 74v9z" />
<glyph unicode="K" horiz-adv-x="1370" d="M158 530q1 48 2.5 209.5t3 279.5t2.5 130q-1 8 6 13.5t20 8t24.5 3t27.5 0.5h11.5h12t11.5 -0.5t12 -1t10.5 -2t10 -4t7.5 -5.5t6 -7.5t3 -10.5q3 -27 17 -551q13 -489 13 -554v-7q0 -11 -4.5 -18.5t-13.5 -12t-17 -7.5t-22.5 -4t-22 -1.5t-22.5 0t-18 0.5q-30 0 -49 11 t-19 26q0 5 -3.5 102.5t-6.5 217.5q-2 90 -2 149v36zM361 626.5q-9 27.5 2.5 57.5t44.5 37q62 14 143.5 70t140.5 118q42 45 88 133t58 129q10 22 37.5 13t27.5 -35q0 -40 -28.5 -134.5t-73.5 -146.5q-23 -28 -55 -55.5t-56 -44t-53.5 -35.5t-36.5 -24q83 -8 162 -66 q16 -12 28.5 -23t24.5 -25t19.5 -22t17 -27t13.5 -26t13.5 -32t12.5 -33.5t15 -42t16 -45.5q42 -121 100 -205q57 -84 105 -84h1q33 2 66 16t47 37q11 14 28 14.5t27.5 -17.5t1.5 -42q-12 -30 -28 -48.5t-57.5 -33t-108.5 -14.5q-72 0 -128 21t-97 64t-67 86.5t-56 108.5 q-24 51 -44.5 130t-44 124.5t-73.5 71.5q-46 20 -71 20h-7q-24 -4 -62 -14q-25 -7 -46 -8q-10 0 -19 2q-19 3 -28 30.5z" />
<glyph unicode="L" horiz-adv-x="976" d="M158 35q-2 8 -2 66q0 123 10 470q9 203 37 570q-2 15 11.5 24.5t32.5 10.5t40 0q6 -1 23.5 -2t26.5 -2.5t21.5 -5t19 -11t7.5 -18.5q2 -17 2 -90t-1 -177.5t-1 -140.5q0 -75 -9 -310t-11 -263q-6 -19 -1 -34.5t33 -15.5q10 0 208 -6q172 -6 228 -6h15h2q45 0 52 -37 q6 -29 -12 -44q-5 -5 -11 -5q-71 -9 -289 -12h-74h-85q-90 1 -150 3t-64 3q-1 0 -16.5 2.5t-27 9.5t-15.5 21z" />
<glyph unicode="M" horiz-adv-x="1437" d="M160 35q-1 8 -1 59q1 122 7 486q10 518 12 561q1 5 3 9.5t6.5 7.5t9.5 5t12 3t13 2t15.5 1h15.5h16.5h15.5q44 0 86.5 -17t54.5 -38q47 -89 157 -374.5t187 -444.5q10 -20 21.5 -23t19.5 19q33 92 81 251.5t91 307.5t51 174q14 44 35.5 76t44.5 46.5t47.5 23.5t44.5 8 t37 -2q41 -7 58 -17.5t20 -40.5q1 -14 9.5 -507t10.5 -527v-6q0 -36 -34 -54q-37 -20 -78 -22q-36 -3 -62.5 6.5t-29.5 36.5q-2 23 -2 196q1 87 1 211q2 372 3 410q2 34 -3 34q-2 0 -14 -7q-7 -3 -66 -179.5t-122 -361t-78 -201.5q-24 -27 -88 -31q-12 -1 -23 0 q-45 0 -61 15q-15 13 -141 316.5t-135 318.5q-20 32 -27.5 31.5t-7.5 -33.5l6 -685q-1 -59 -37 -83q-31 -21 -67 -22q-7 0 -15 1q-92 7 -100 60z" />
<glyph unicode="N" horiz-adv-x="1366" d="M158 547q0 23 2 180.5t4.5 281.5t5.5 140q5 15 56 17q15 1 27 1q30 0 44 -4q17 -5 24.5 -8.5t19.5 -13t26 -27.5q9 -11 289 -419t296 -421q15 -12 24 -12q17 0 17 39q0 12 9.5 370t9.5 402q0 51 22.5 70.5t52.5 19.5q10 -1 25 -0.5t32 -1t31 -4t23.5 -11.5t9.5 -22 q0 -44 -7 -492.5t-11 -527.5q-1 -42 -11 -70.5t-26.5 -42t-28.5 -18.5t-28 -8q-24 -4 -56.5 9.5t-54.5 37.5q-24 24 -295.5 409.5t-283.5 412.5q-12 29 -25.5 23t-11.5 -36q5 -35 15 -381q8 -270 8 -358q0 -25 -1 -35q-1 -18 -8 -31.5t-13.5 -20t-24.5 -11.5t-23.5 -5.5 l-27.5 -2.5q-6 -1 -9 -1q-27 -4 -48 -4q-63 0 -63 35q0 4 -8 244q-8 215 -8 283v14z" />
<glyph unicode="O" horiz-adv-x="1357" d="M144 642q21 126 71 232q68 146 205 228t299 82q85 0 155 -15.5t136 -56t111 -105.5t73.5 -170t30.5 -243v-19q0 -125 -24 -225q-26 -107 -68.5 -173t-103 -109.5t-121 -61.5t-130.5 -22q-58 -4 -101 -4h-6q-42 0 -108 6q-71 6 -124 22.5t-109 52t-92 86.5q-71 98 -93 234 q-11 70 -11 136q0 64 10 125zM382 544q0 -10 1 -20q0 -153 49 -254q60 -101 137 -146q75 -44 196 -44h5q52 1 99.5 17.5t91.5 55t76 95t51 142.5q18 82 18 181v11q-1 267 -94.5 386.5t-274.5 121.5h-6q-93 0 -171 -60q-80 -62 -124 -182q-50 -138 -54 -304z" />
<glyph unicode="P" horiz-adv-x="1171" d="M160 220v36q0 141 4 252q2 43 9 215t13.5 290t10.5 142q4 12 6.5 16t16.5 8t42 5h5q29 0 59 -10q32 -12 41 -11q132 23 227 23q157 0 246 -28q213 -66 213 -284q0 -67 -29 -119t-76 -82.5t-107 -51t-120.5 -28.5t-117.5 -11q-38 -2 -69 -2h-28q-40 2 -62 3q-8 1 -10 1 q-14 1 -22 1t-11.5 -2.5t-4.5 -6.5t-1 -10v-15q-4 -27 -7 -243q-1 -72 -1 -126q0 -107 4 -141q4 -21 -6.5 -35.5t-34 -21t-40.5 -8.5t-42 -3h-14q-84 0 -90 47q-4 36 -4 200zM374 975.5q0 -76.5 2 -162.5l3 -86q0 -19 8 -26t25 -9q85 -9 155 -9q355 0 355 222 q0 42 -12.5 74.5t-33.5 53.5t-49 36.5t-59 21.5t-63.5 11t-62.5 4t-56 0q-207 0 -207 -35q-5 -19 -5 -95.5z" />
<glyph unicode="Q" horiz-adv-x="1214" d="M144 642q21 126 71 232q68 146 205 228t299 82q90 0 152 -26t109.5 -90.5t71.5 -181.5t27 -292v-12q0 -265 -129 -428q16 -34 34.5 -105.5t39 -121.5t53.5 -66q48 -24 71 -31t44 -6q22 2 22 -10q-1 -13 -30 -19q-15 -5 -42 -5q-19 0 -44 2q-62 6 -101 28 q-54 31 -102 95.5t-61 131.5q-83 -54 -158 -63q-34 -6 -72 -7h-9q-34 0 -79 6q-52 7 -98.5 24t-95 53t-84.5 87q-71 98 -93 234q-11 70 -11 136q0 64 10 125zM395 517v-28q0 -179 49 -278q52 -93 112 -129q51 -30 99 -30q10 0 19 1q54 9 135 84q-19 39 -54.5 66.5 t-97.5 48.5q-57 21 -33 34q15 8 50 7q6 -1 55 -10t87 -21.5t69 -32.5q98 153 98 359q-2 277 -67 408t-207 132h-3q-160 0 -257 -274q-50 -137 -54 -337z" />
<glyph unicode="R" horiz-adv-x="1378" d="M160 220v36q0 141 4 252q2 43 9 215t13.5 290t10.5 142q4 12 6.5 16t16.5 8t42 5h5q29 0 59 -10q32 -12 41 -11q132 23 227 23q167 0 258 -25q201 -54 201 -225q0 -79 -26.5 -140t-73.5 -98t-100 -57.5t-116 -28.5q22 -13 33 -22q68 -50 101 -99.5t59 -125.5 q46 -131 104 -230q57 -98 104 -98h1q27 1 62 24t50 48q9 16 26.5 20t28 -8.5t1.5 -36.5q-18 -47 -58 -71.5t-137 -24.5q-58 0 -106 16.5t-81 39.5t-65 64t-51 74t-45 86q-14 29 -32.5 97.5t-44.5 121t-73 82.5q-34 24 -138 24q-19 0 -40 -1q-18 -4 -27.5 -11t-11 -11.5 t-2.5 -14.5q-5 -23 -8 -245q-1 -67 -1 -117q0 -119 5 -152q4 -21 -6.5 -35.5t-34 -21t-40.5 -8.5t-42 -3h-14q-84 0 -90 47q-4 36 -4 200zM374 968q0 -68 2.5 -145t2.5 -78q0 -19 8 -25.5t25 -8.5q16 -2 75.5 -2t144.5 5t132 17q41 10 64 20t47.5 30.5t35.5 56.5t11 90 q0 48 -21.5 82t-55.5 49t-76 24q-36 8 -72 8q-7 -1 -13 -1q-26 -1 -49 0h-30h-19q-207 0 -207 -35q-5 -19 -5 -87z" />
<glyph unicode="S" horiz-adv-x="999" d="M93 240.5q-2 17.5 1 29.5q7 91 41 146q11 16 30 17t32.5 -9.5t11.5 -22.5q-1 -5 -10.5 -29t-16 -54t-6.5 -66q0 -35 7.5 -61.5t29.5 -56t69 -52t117 -35.5q32 -6 62 -7q35 0 68 10q60 16 98.5 52.5t62.5 81.5t29 92q2 18 2 36q1 62 -27 116q-36 68 -114 141 q-23 21 -70.5 56.5t-89 67.5t-84 70.5t-70 82t-33.5 86.5q-2 16 -2 31q1 94 75 165q86 82 231 86h16q123 0 203 -57q86 -61 90 -123v-6q0 -40 -25 -98q-13 -23 -50 -18q-28 4 -29 19l3 9q14 20 19 29t8 25t2 42q-2 46 -58 78q-43 25 -114 25q-21 0 -45 -2q-81 -9 -120 -64 q-25 -35 -25 -73q0 -21 8 -44t28 -53t41.5 -55t56 -59.5t55.5 -53.5t56 -51t43 -39q8 -8 34 -30.5t39 -36.5t36 -39.5t35.5 -50t26 -57.5t17.5 -73q3 -27 3 -57v-27q-4 -62 -44 -123t-104.5 -107t-156.5 -69q-59 -15 -120 -15q-35 0 -71 5q-55 7 -100.5 22t-75.5 34t-54 42 t-36 46.5t-21.5 47.5t-11 45t-3.5 38.5z" />
<glyph unicode="T" horiz-adv-x="1128" d="M69.5 1149q3.5 20 16.5 25q357 10 520 16q103 4 214 4h28q126 0 174 -6q29 -2 36 -20t-7 -35.5t-35 -18.5q-86 -10 -338 -14q-2 -100 -7 -350.5t-9.5 -454t-4.5 -223.5q0 -42 -28 -65t-72 -23q-50 2 -87 16t-38 37q-1 11 -1 53q0 63 2 196q3 222 7 343q1 38 6 221t7 246 q-305 0 -342 -2q-23 -1 -34 17t-7.5 38z" />
<glyph unicode="U" horiz-adv-x="1175" d="M158 527v23q0 26 1 62q1 54 1 74q0 191 24 461q4 18 28 31q20 11 56 11q8 0 17 -1q72 0 87 -8q16 -9 17 -33q0 -9 -10 -188t-10 -254q0 -302 37 -461q17 -74 73.5 -108t122.5 -38q23 -2 44 -2q136 0 181 84q29 58 53 269q19 174 20 279q0 22 -1 42q-2 54 -2.5 146.5 t-1 162t-2.5 86.5q-2 19 22.5 25.5t51 -1.5t30.5 -24q7 -24 14 -157.5t7 -233.5q0 -153 -15 -333t-53 -265q-37 -82 -129.5 -126.5t-191.5 -47.5q-26 -2 -51 -2t-50 2q-50 3 -94 12t-87 35.5t-79 69.5q-27 32 -47 70t-31.5 83t-19 82t-10 89.5t-2.5 83.5z" />
<glyph unicode="V" horiz-adv-x="1269" d="M113 1094q-2 9 -2 18q-1 26 17 48q24 30 65 36q8 1 17 1q34 -1 66 -17q40 -20 50 -64q1 -3 68.5 -206.5t134.5 -409.5t71 -224q3 -20 15 -29t25 -4.5t19 17.5q2 3 199 442t207 455q7 14 37.5 17.5t56 -6.5t19.5 -29q-8 -32 -119 -290t-162 -360q-63 -132 -157.5 -311 t-112.5 -192t-40 -13q-13 0 -28 5q-39 13 -61 45q-42 61 -189 430q-44 112 -110 334.5t-86 306.5z" />
<glyph unicode="W" horiz-adv-x="1701" d="M90 1110q-1 6 -1 11q0 33 20 51q23 22 65 24q14 1 27 1q43 0 65 -11q28 -14 35 -45q1 -3 113 -388t116 -409q3 -20 16.5 -29t27.5 -4.5t18 17.5l211 643q6 16 12.5 45.5t11.5 40.5q7 19 44 27q22 5 44 5q15 -1 29 -3q36 -6 45 -19q7 -14 102.5 -378.5t102.5 -377.5 q10 -23 29 -23t37 31q15 25 120 389t123 433q8 45 53 47q35 2 51 -19q7 -9 5 -18l-176 -664q-35 -130 -89.5 -282t-76.5 -182q-18 -27 -56 -35q-22 -5 -43 -4q-15 0 -28 2q-16 3 -67.5 179t-111.5 386t-87 266l-9 14l-6 -14q-27 -55 -91 -265.5t-119.5 -386.5t-71.5 -179 q-15 -2 -34 -2q-26 0 -60 4q-58 8 -76 35q-23 34 -78 173t-86 257q-40 154 -96 387.5t-60 269.5z" />
<glyph unicode="X" horiz-adv-x="1140" d="M111 -10q-23 7 -23 26q0 22 31 60q34 43 157.5 213t198.5 280q-23 45 -69 130.5t-81 151.5t-71 136t-56 114t-20 54q0 27 33 42t65 15q74 0 89 -22q6 -8 40 -70.5t93.5 -171.5t103.5 -188q79 116 190 269.5t128 170.5q18 13 42.5 10t43.5 -18t10 -29q-4 -6 -46 -70.5 t-92.5 -142.5t-84.5 -127l-123 -184q70 -125 94 -160q38 -57 102 -164.5t113 -191.5t61 -98q23 -23 -1 -44t-66 -30q-15 -4 -32 -4q-21 0 -45 6q-42 10 -69 29q-22 13 -112.5 163t-173.5 304q-202 -302 -289 -424q-31 -44 -86 -44q-25 0 -55 9z" />
<glyph unicode="Y" horiz-adv-x="1153" d="M96 1116q-11 23 18 39.5t79 30.5q17 2 26 3t21 -6.5t18.5 -13t18.5 -17.5t20 -19q14 -12 74 -103t132 -202.5t101 -151.5q47 48 133.5 174.5t98.5 140.5q16 19 46 58t53.5 66.5t39.5 39.5q26 20 51 20q5 0 9 -1q30 -4 8 -37q-3 -4 -7 -9q-12 -14 -85 -131t-159 -245 t-137 -179v-28q0 -85 -9 -281q-9 -213 -9 -238q0 -27 -32 -38q-33 -11 -81 -13q-9 -1 -18 -1q-29 0 -50 8q-28 10 -28 32q0 8 4 103t4 143q0 37 13 145.5t16 165.5q-66 77 -209 292t-160 253z" />
<glyph unicode="Z" horiz-adv-x="1206" d="M85 12.5q-13 28.5 7 53.5q3 3 63.5 88t159.5 222.5t185 254.5q-184 -8 -193 -8q-56 1 -65 31q-8 23 19 37q13 6 28 7q41 4 266 11q26 33 70 92t55 73q42 56 82 106t55.5 70t16.5 23q1 5 5 12q5 9 -4 11l-44 2q-496 0 -539 6q-20 3 -21.5 24t11.5 41.5t28 22.5 q44 -4 181 -4h36q167 0 254 6q42 2 117.5 4.5t121 4.5t50.5 5q6 5 21 1.5t22.5 -16t-8.5 -40.5q-9 -16 -307 -440h37q34 0 86 1t61 1q45 0 55 -26q8 -21 -16 -32q-7 -3 -16 -4l-258 -14q-69 -99 -156.5 -223.5t-137.5 -195.5t-57 -81q-13 -18 -18.5 -28.5t0.5 -17t9 -7.5 l18 -6q16 -4 144 -5q53 -1 127 1q248 2 304 8h9q35 0 60 -27q27 -31 4 -54q-14 -14 -44 -19q-25 -5 -77.5 -8t-109.5 -4.5t-131.5 -2.5t-124.5 -1t-109.5 0.5t-66.5 0.5q-22 0 -63 -0.5t-64.5 -1t-50 1.5t-41.5 6q-33 9 -46 37.5z" />
<glyph unicode="[" horiz-adv-x="645" d="M82 561q0 50 2 239.5t2 327.5q0 63 84 60h305q26 0 45 -8.5t19 -22.5q0 -33 -84 -33q-37 0 -84.5 -3t-65.5 -3h-19.5h-17.5t-13 -1t-11.5 -3.5t-8 -7t-6.5 -11.5t-2.5 -16.5t-1.5 -23.5q0 -38 3 -153t3 -154q0 -114 7.5 -354t7.5 -263q0 -18 3 -30t5 -19t12.5 -11.5 t14.5 -6t22 -4t25 -3.5q29 -4 133 -4q40 0 59 -5.5t19 -22.5q0 -31 -64 -31h-287q-57 -1 -79.5 13t-22.5 46q0 94 -2 253.5t-2 254.5z" />
<glyph unicode="\" horiz-adv-x="737" d="M-63 1152q1 4 5.5 9.5t16.5 7.5t33 2q40 0 63.5 -31.5t44.5 -90.5q15 -39 41 -121.5t39 -116.5q35 -100 89.5 -251t78.5 -218q24 -65 129 -340l55 -145q13 -37 13 -62t-11 -42t-22 -17q-29 0 -47 5t-27.5 18t-13.5 24.5t-10 35t-11 38.5q-35 92 -51 145l-69 199l-228 610 q-14 39 -51.5 129t-52.5 133q-12 36 -12 49q0 5 -1.5 15.5t-0.5 14.5z" />
<glyph unicode="]" horiz-adv-x="634" d="M106 25q0 17 19 22.5t59 5.5q104 0 133 4q7 1 25 3.5t22 4t14.5 6t12.5 11.5t5 19t3 30q0 23 7.5 263t7.5 354q0 39 3 154t3 153q0 14 -1.5 23.5t-2.5 16.5t-6.5 11.5t-8 7t-11.5 3.5t-13 1h-17.5h-19.5q-18 0 -65.5 3t-84.5 3q-84 0 -84 33q0 14 19 22.5t45 8.5h305 q84 3 84 -60q0 -138 2 -327.5t2 -239.5q0 -95 -2 -254.5t-2 -253.5q0 -32 -22.5 -46t-79.5 -13h-287q-64 0 -64 31z" />
<glyph unicode="^" horiz-adv-x="755" d="M6 1233l4 12q26 37 160 146q28 22 72 22q38 0 63 -20q22 -16 50.5 -36t45.5 -32t36 -27t27.5 -25t14 -22t1 -23.5t-16.5 -23.5q-4 -4 -19 -4q-10 0 -38 17q-10 8 -60 40t-57 37q-22 15 -41 15q-28 0 -49 -21q-24 -14 -93 -65q-29 -23 -49 -23q-12 0 -16 2q-10 4 -22.5 15 t-12.5 16z" />
<glyph unicode="_" horiz-adv-x="1228" d="M41 -236q0 -22 5 -34.5t14 -18t22.5 -7.5t31 -1t38.5 0l925 -14q60 -1 85.5 17t25.5 58q0 15 -5.5 24.5t-10.5 14.5t-20 7t-19.5 2h-24.5h-987q-33 0 -56.5 -12t-23.5 -36z" />
<glyph unicode="`" horiz-adv-x="696" d="M225 1425q0 14 20.5 24.5t53.5 10.5q64 0 83 -8q29 -14 52 -51q46 -81 49 -88q29 -50 29 -86q0 -22 -8 -25q-16 -4 -27 -4q-52 0 -82 27q-89 77 -155 170q-15 23 -15 30z" />
<glyph unicode="a" horiz-adv-x="942" d="M70 55q10 33 138 415t138 417q6 17 12.5 27t21 25.5t41.5 23.5t64 8q28 0 48 -3t31 -7.5t18.5 -12.5t10 -14t6 -17t5.5 -16q15 -35 136 -437t132 -433q3 -7 3 -13q0 -23 -36 -35q-20 -7 -40 -7q-24 0 -47 11q-21 9 -27 27q-5 26 -125 355q-7 13 -10.5 17t-12 1.5 t-12.5 -2.5q-5 0 -50 2t-77 3t-51 -1q-26 0 -33 -29q0 -1 -15 -51t-31 -104t-31 -106.5t-17 -65.5q-5 -35 -66 -45q-18 -3 -34 -3q-41 0 -70 18q-31 19 -20 52zM385 498q-6 -23 25 -23h143q11 0 15.5 8t2.5 17l-59 317q-3 15 -21 15t-22 -17z" />
<glyph unicode="b" horiz-adv-x="1187" d="M158 63q-1 12 -1 35q0 85 17 320q2 24 2 62t-2 90q-3 105 -7.5 203t-4.5 112q0 5 -1 14.5t7 19.5t25 13q128 22 368 22q65 0 122.5 -9t114.5 -30.5t90.5 -65t33.5 -104.5q0 -90 -60.5 -136.5t-146.5 -53.5q5 0 38 -1.5t53.5 -3.5t58 -9t62 -17.5t55.5 -31t49 -47.5 t31 -68.5t13 -93.5q0 -55 -24.5 -100.5t-67.5 -76t-93 -52.5t-109.5 -34.5t-108 -19t-97.5 -8.5q-51 -2 -96 -2q-137 0 -227 16q-53 8 -72 19t-22 38zM334 864q3 -9 8.5 -69t11.5 -128t6 -69q2 -18 11 -25.5t30 -7.5q110 0 183 10q155 19 155 164q0 88 -44 119t-134 31 q-173 0 -221 -10h4l1 -1q-15 -2 -11 -14zM365 117q2 -10 3 -13.5t4 -8.5t8.5 -7.5t14.5 -3.5q5 0 27 -3.5t44 -5.5t60 -3h19q29 0 57 2q45 4 77 10t66.5 20.5t56.5 36t37 57.5t17 85v10q0 87 -66 140q-70 56 -176 56q-93 0 -130 -2t-60 -7t-47 -7l-6 -151z" />
<glyph unicode="c" horiz-adv-x="1054" d="M135 436q0 83 20 162.5t65 152.5t110 125q64 50 162 74q58 14 123 14q44 0 92 -6q70 -9 116 -37q45 -27 45 -83q0 -48 -36 -82q-36 -33 -68 -35q-24 -1 -29 19.5t13 31.5q4 3 15 6.5t17 12.5t11 32q3 14 3 25q0 24 -14 36q-20 17 -75 17q-85 0 -152 -32.5t-106 -79.5 t-66 -110.5t-37.5 -115.5t-13.5 -104q-1 -15 -1 -32q0 -23 2 -51q4 -48 20.5 -104.5t43 -103.5t74.5 -78q45 -29 102 -29h7q73 2 127.5 10t86.5 22.5t49.5 26t34.5 28.5t23 22q31 21 53.5 8t5.5 -43q-9 -16 -23.5 -33t-47 -43t-72 -44.5t-102.5 -30.5q-50 -10 -107 -10 q-14 0 -28 1q-53 2 -92 6.5t-88.5 17t-84 32t-70.5 54t-58 81.5t-36 115.5t-14 154.5z" />
<glyph unicode="d" horiz-adv-x="1220" d="M133 16q-1 7 -1 38q0 93 5 402q6 412 10 451q-2 22 10 32.5t48 17.5t102 7t174 -1q68 -1 135 -10.5t140.5 -29t135 -55t111.5 -84t78.5 -120.5t28.5 -160q0 -108 -39 -194.5t-87 -135t-127.5 -87.5t-121 -51.5t-107.5 -28.5l-12 -3q-30 -8 -90 -12q-52 -3 -96 -3 q-6 1 -12 1q-48 0 -105 1t-59 1h-18h-22.5t-22.5 0.5t-22.5 2t-17.5 4t-13.5 7t-4.5 10.5zM352 284v-52q0 -120 4 -126q9 -20 43 -20q254 6 372 107.5t118 316.5q0 83 -25.5 149t-66 107t-93.5 68q-54 27 -106 37q-44 8 -87 8h-17q-34 -2 -59.5 -5t-40 -7.5t-24 -8.5 t-13 -11t-4.5 -10t0 -10.5t1 -9.5q0 -13 4 -123q3 -73 3 -116q0 -21 -1 -35q-7 -89 -8 -259z" />
<glyph unicode="e" d="M139 49q0 165 8 373q1 33 1 80q0 83 -2 212q-3 157 -3 203v17q6 27 58 27q18 0 322 -7q266 -6 314 -6h9q15 1 26 -16t7 -34.5t-27 -18.5q-25 -3 -234 -3h-118q-97 0 -109 1q-17 1 -23 -5t-8 -26v-10q0 -26 3 -104q4 -98 4 -105q0 -16 1 -22t7.5 -11.5t21.5 -5.5 q41 0 214.5 -5t201.5 -8q27 -3 18 -36q-9 -29 -30 -39l-10 -2h-4q-27 0 -191 -8q-149 -7 -186 -7h-11q-18 4 -26 -5t-6 -27v-8q0 -44 -15 -283q-1 -23 14 -31.5t37 -3.5q22 2 49 2q22 1 48 -1q56 -2 166.5 -8t164.5 -7q39 0 60.5 -10t22 -24.5t-8.5 -29t-28 -24.5t-39 -11 q-46 -1 -343.5 -6.5t-312.5 -5.5q-13 2 -19.5 3.5t-15 13t-8.5 32.5z" />
<glyph unicode="f" horiz-adv-x="944" d="M160 391q0 56 6 179t13 246l7 124q0 27 41 27h17q36 0 137 -2q34 -1 230.5 -8t228.5 -7q27 1 34.5 -16t-2.5 -34.5t-24 -16.5h-14q-41 0 -202 -3q-96 -1 -150 -1q-62 0 -68 2q-23 3 -30 -8t-7 -35q0 -32 4 -121.5t8 -104.5q6 -18 12.5 -21t30.5 -3q15 0 135 -6.5 t138 -6.5q17 0 25 -19.5t1 -38.5t-24 -19q-21 -1 -50 -1q-14 0 -31 1q-49 0 -120.5 1t-85.5 1q-13 0 -18 -0.5t-10 -0.5t-6 -3.5t-2 -5t-1 -10v-13.5q0 -2 -10.5 -189t-12.5 -221q-5 -65 -101 -65h-11q-40 3 -58 13t-24 36q-6 39 -6 350z" />
<glyph unicode="g" horiz-adv-x="1052" d="M135 436q0 83 17 157.5t56 142t97.5 116t147.5 77.5t200 29q96 0 157 -34q62 -35 62 -91t-32 -83q-32 -29 -68 -31q-24 -1 -29 19.5t13 31.5q6 2 14.5 3t17 1.5t16.5 14.5t11 42q2 16 -18 32t-61 24q-20 4 -42.5 4t-46.5 -4q-269 -44 -295 -428q-3 -15 -3 -35 q0 -14 1 -30q4 -40 8.5 -84.5t22 -88.5t41 -79t64.5 -56q39 -20 87 -20h5q118 0 173.5 40t57.5 82q13 130 29 148q12 14 49 14.5t45 -22.5q8 -31 8 -199q-3 -30 -8.5 -75.5t-9 -77.5t-4.5 -44q-6 -40 -16.5 -54t-41.5 -17q-38 0 -52 4t-15 20q-3 16 -1 63.5t5 76.5 q-36 -24 -101 -37t-118 -13q-51 0 -92 4t-88.5 15.5t-83.5 32t-71 55.5t-57.5 82.5t-36.5 116.5t-14 155z" />
<glyph unicode="h" horiz-adv-x="1183" d="M156 367q0 51 5 302.5t5 264.5q0 33 82 33q85 0 88 -31q0 -2 8.5 -87t16.5 -154t12 -79q3 -11 2 -19t2.5 -11t17.5 0q5 1 23 1q28 0 82 -2q92 -3 186.5 -6.5t101.5 -3.5q18 0 24.5 4.5t14.5 20.5q5 10 15.5 156.5t11.5 152.5q5 29 84 39q9 1 17 1q71 0 71 -56 q0 -620 -12 -778q-2 -39 -8 -65t-12 -40t-19 -20.5t-20 -7.5t-26.5 -0.5t-27.5 0.5q-9 -1 -17 -1q-75 0 -75 52v428q-1 12 -5.5 14t-25.5 4q-12 1 -74.5 2.5t-101.5 3.5l-199 4l-9 1q-8 0 -9.5 -1t-5 -7.5t-4.5 -18.5q-23 -403 -23 -406q0 -33 -18.5 -53.5t-54.5 -19.5 q-101 0 -101 28q0 5 -5.5 68t-11 146.5t-5.5 140.5z" />
<glyph unicode="i" horiz-adv-x="524" d="M168 35q0 12 3 244.5t3 267.5q0 69 3 208t7 165q2 7 7.5 11.5t16.5 7.5t20 4t26.5 2.5t28.5 2.5q29 4 54.5 -3t29.5 -27q14 -68 14 -248q0 -119 -4.5 -368.5t-7.5 -278.5q-1 -6 -3.5 -11.5t-7 -9t-9.5 -6.5t-13 -5t-13.5 -3t-15 -1.5t-15 -1t-15 -1t-13.5 -0.5h-10 l-54 13q-32 16 -32 38z" />
<glyph unicode="j" horiz-adv-x="856" d="M117 307q12 32 34.5 36.5t38 -11.5t11.5 -35q-9 -39 -9 -71q0 -60 30 -97q46 -57 116 -57q116 0 143 143q5 30 7 63v41v29v29q0 31 1 74v36q0 70 -5 208q-4 124 -4 176q0 23 1 32q5 38 46 55q31 12 61 12q9 0 18 -1q69 -6 72 -60q0 -4 4 -57t7 -106.5t6 -130.5t3 -140 q0 -46 -1 -120.5t-1 -100.5q0 -63 -25.5 -113t-62.5 -78t-85.5 -47t-87 -25t-73.5 -7h-20q-146 0 -211 84q-38 49 -38 118q0 54 24 121z" />
<glyph unicode="k" horiz-adv-x="1187" d="M158 510q5 385 8 422q-1 14 17 19t48 5h8q17 0 26.5 -0.5t22 -3t19.5 -9t8 -17.5q4 -32 19 -446q12 -345 12 -427v-22q0 -11 -4.5 -18.5t-13.5 -12t-17 -7.5t-22 -4t-22 -1.5t-23 0t-19 0.5q-55 0 -55 37q0 5 -3.5 97.5t-6.5 207.5q-2 86 -2 144v36zM368.5 567 q8.5 19 32.5 23q40 7 98 37t95 69q31 33 79 113.5t60 110.5q12 28 32 32.5t32 -11.5t4 -38q-51 -159 -99 -215q-61 -76 -122 -121q65 -4 110 -39q34 -24 60.5 -59t41.5 -66.5t44 -99.5q38 -94 81 -156q42 -61 77 -61h1q41 0 80 35q22 18 37 0.5t6 -47.5q-14 -33 -51 -58.5 t-94 -25.5q-178 0 -289 223q-17 36 -41.5 107.5t-47.5 115.5t-58 66q-26 16 -86 16q-20 0 -43 -2q-25 -2 -36.5 15t-3 36z" />
<glyph unicode="l" horiz-adv-x="880" d="M156 120q0 64 3 192.5t3 179.5v42q0 152 12 396q-5 22 20 30.5t60 6.5q8 -1 30.5 -3t34 -4t23.5 -10t14 -22q3 -33 9 -195q1 -40 1 -137v-95v-93q0 -90 -0.5 -173.5t-0.5 -84.5t-1 -12t-1 -13.5t1 -10.5t5 -10t11 -5t17 -3q13 0 165 -6q132 -6 182 -6h14q34 1 47 -22.5 t6 -48t-23 -25.5q-76 -10 -243 -13h-56q-43 1 -91 1q-80 2 -128 3.5t-53 2.5q-1 0 -16.5 2.5t-27 9t-15.5 20.5q-3 36 -3 89q1 8 1 17z" />
<glyph unicode="m" horiz-adv-x="1316" d="M156 35q-2 12 -2 94q0 113 4 359q6 424 8 450q1 5 4 8.5t9 6t12.5 4.5t16 3t17 2t18.5 1h17.5h17.5h15q58 0 82 -39q9 -16 142.5 -339.5t141.5 -351.5q8 -29 18.5 -41.5t22.5 -3.5t23 43l252 678q46 50 98 50q7 0 14 -1q27 -5 38 -8.5t21 -13.5t11 -29q1 -14 2.5 -408 t4.5 -427q0 -5 -1 -9q0 -35 -20 -52q-23 -19 -56 -21q-10 -1 -21 -1q-26 -1 -50 7q-34 10 -37 37q-1 13 -1 93v82v84v168l1 81q0 107 -2 125q-7 -4 -105.5 -277t-113.5 -291q-22 -24 -86 -28q-13 -1 -23 -1q-44 0 -59 13q-12 10 -120 295.5t-120 298.5q0 -34 3 -94t3 -76 q0 -154 6 -424v-5q0 -57 -21 -73q-17 -13 -47 -13q-9 0 -20 1q-6 1 -21 1.5t-23 1.5t-21 2.5t-20 4.5t-15 7t-12.5 10.5t-5.5 15.5z" />
<glyph unicode="n" horiz-adv-x="1198" d="M158 272v74v53q0 19 2 167t4.5 259t5.5 127q5 15 56 18q17 1 31 1q27 0 40 -4q17 -5 24.5 -8.5t19.5 -13t26 -27.5q11 -14 225.5 -358t230.5 -357q0 42 3 146.5t3 117.5q0 11 6.5 188t6.5 222q0 90 78 90q10 -1 24.5 0t31 -1t31 -4.5t24 -11.5t9.5 -22q0 -47 -8 -396.5 t-12 -427.5q-1 -32 -9 -54.5t-15.5 -32.5t-24 -15.5t-22.5 -5.5h-23q-81 0 -111 22q-23 20 -229.5 339t-220.5 350q0 -103 2 -142q3 -53 9 -263q5 -180 5 -239v-16q0 -8 -2.5 -15t-7.5 -12l-9 -9t-12.5 -6.5t-13.5 -4.5t-16 -3.5t-16 -2t-17 -1.5t-15 -1q-27 -4 -47 -4 q-63 0 -63 35q0 11 -1.5 87.5t-2.5 161.5z" />
<glyph unicode="o" horiz-adv-x="1148" d="M112 311q-10 55 -11 108q0 54 11 105q21 101 68 191q70 133 189 202.5t264 69.5q108 0 181 -21t129 -75.5t83.5 -153.5t30.5 -250v-17q-1 -70 -15 -133q-16 -70 -43.5 -119t-65.5 -89t-76 -65t-78.5 -42.5t-70 -25.5t-53.5 -10q-36 -4 -74 -5h-11q-34 0 -80 5 q-53 6 -100.5 20t-97.5 43t-87 70q-73 80 -93 192zM312 414v-6q0 -140 46 -218q42 -70 132 -100q75 -25 130 -25q11 0 21 1q35 2 73.5 18t77 50t69 80.5t50 116.5t19.5 152q0 203 -76.5 320t-185.5 119h-6q-221 0 -304 -234q-45 -130 -46 -274z" />
<glyph unicode="p" horiz-adv-x="1120" d="M164 31q-4 44 -4 115t4 169q22 569 33 627q4 12 6.5 16t16.5 8t42 5h5q30 0 59 -11q33 -11 41 -10q132 23 227 23q30 0 55.5 -1t70.5 -7t80.5 -16t76 -31t68 -49.5t45.5 -73.5t18 -101q0 -50 -19 -91t-47.5 -69t-73 -49.5t-84 -34t-93 -21t-87.5 -11.5t-79.5 -3.5 t-57.5 0t-33 1.5q-14 1 -22 1t-11.5 -2.5t-4.5 -6.5t-1 -10v-15q-4 -28 -7 -154q-1 -42 -1 -76q0 -68 4 -104q1 -6 1 -11q0 -54 -124 -54q-29 -1 -47.5 0.5t-36 13t-20.5 33.5zM374 800v-43v-64q2 -54 3.5 -107t1.5 -58q0 -17 7.5 -22.5t25.5 -7.5q7 -1 24 -1q32 0 98 3 q104 3 154 8q76 10 109.5 55.5t33.5 138.5q0 57 -20.5 97t-57 61t-77.5 30q-37 7 -80 7h-10q-207 0 -207 -31q-4 -13 -5 -66z" />
<glyph unicode="q" horiz-adv-x="1040" d="M100 528q18 101 60 187q59 119 177.5 185.5t256.5 66.5q55 0 98.5 -12.5t83.5 -45t66.5 -86t43.5 -138.5t19 -198v-16q0 -244 -145 -379q13 -28 28 -85.5t31.5 -97.5t42.5 -54q39 -19 56.5 -24.5t35.5 -4.5q20 1 20 -9q-3 -11 -26 -16q-12 -4 -33 -4q-16 0 -36 2 q-49 5 -82 23q-45 27 -85 81t-50 111q0 6 -3 9q-61 -30 -100 -33q-30 -4 -62 -5h-9q-29 0 -68 5q-44 6 -84.5 20t-82.5 43t-73 70q-61 81 -80 192q-9 56 -9 110q0 52 9 103zM316 429q-1 -8 -1 -16q0 -140 43 -218q44 -73 95 -101q43 -25 85 -25q8 0 15 1q30 4 76 36 q-34 40 -107 66q-35 12 -31 22q6 13 46 11q5 -1 39.5 -7t62 -14t51.5 -20q113 130 113 319q-1 208 -58.5 312t-162.5 106h-3q-72 0 -125 -54q-53 -55 -96 -159q-40 -107 -42 -259z" />
<glyph unicode="r" horiz-adv-x="1224" d="M164 39q-4 44 -4 113.5t4 162.5q22 569 33 627q4 12 6.5 16t16.5 8t42 5h5q29 -1 59 -11q32 -12 41 -10q132 23 227 23q30 0 55.5 -1t70.5 -6t80.5 -14t76 -27t68 -42.5t45.5 -63.5t18 -88q0 -78 -52 -143q-53 -64 -131 -96q-61 -24 -121 -25q-17 0 -34 2 q44 -21 75.5 -46t51.5 -57t28 -48.5t21 -51.5q38 -103 84 -176.5t84 -73.5q25 1 52 20.5t42 41.5q13 22 35.5 15t11.5 -36q-15 -39 -48 -60.5t-112 -21.5q-30 0 -57 4.5t-49.5 16t-40.5 21.5t-36 31t-29.5 34t-27.5 41t-23.5 41.5t-24.5 44.5q-19 35 -41 94t-42.5 95 t-54.5 57q-121 0 -135 2q-14 1 -22 1t-11.5 -2.5t-4.5 -6.5t-1 -10v-15q-4 -28 -7 -170q-1 -48 -1 -86q0 -75 4 -111q1 -6 1 -11q0 -54 -124 -54q-29 -1 -47.5 0.5t-36 13t-20.5 33.5zM374 788q0 -61 2.5 -129.5t2.5 -70.5q0 -28 33 -31q2 -2 41 -2q30 0 81 1q119 3 185 19 q65 15 88.5 51.5t23.5 112.5q0 44 -21 76.5t-57.5 50t-77.5 25.5t-89 8q-207 0 -207 -33q-5 -17 -5 -78z" />
<glyph unicode="s" horiz-adv-x="862" d="M94 213q7 74 35 119q23 36 56 36q4 0 9 -1q29 -4 32 -27q2 -13 -7 -27q-29 -43 -29 -123q0 -54 58 -106t153 -53q94 0 141.5 53t57.5 135q1 11 1 21q0 52 -29 98q-35 55 -107 121q-16 15 -54.5 46t-66.5 55.5t-60 57.5t-51 68t-24 70q-2 13 -2 25q-1 77 65 139 q76 72 195 75q3 0 7 1q54 0 98 -16q48 -16 76 -41t43.5 -51.5t15.5 -47.5q0 -42 -17 -76.5t-33 -46.5q-21 -16 -45.5 -4.5t-11.5 37.5q18 45 18 86v8q-2 39 -36 64q-27 20 -83 20q-16 0 -34 -2q-64 -7 -89 -52q-15 -26 -15 -55q0 -21 8 -43q13 -36 57.5 -83.5t113 -107.5 t76.5 -67q157 -142 157 -280q0 -11 -1 -21q-8 -106 -122 -186q-108 -76 -260 -76h-15q-73 1 -128.5 24t-84 53.5t-45 69.5t-20.5 64.5t-3 46.5z" />
<glyph unicode="t" horiz-adv-x="1038" d="M69.5 919q3.5 20 16.5 25q126 3 475 17q106 4 190 4q109 0 181 -7q29 -2 36 -19.5t-7 -35t-35 -18.5q-63 -8 -293 -15q-2 -86 -7 -278t-9.5 -346.5t-4.5 -173.5q0 -42 -28 -65t-72 -23q-49 2 -84.5 16t-36.5 37q-2 5 -2 108v79q1 180 10 290q3 34 9 352q-260 0 -297 -2 q-23 -1 -34 17t-7.5 38z" />
<glyph unicode="u" horiz-adv-x="1105" d="M158 502v20q0 138 24 408q4 18 28 31q20 11 56 11q8 0 17 -1q71 -2 83 -7q18 -10 21 -34q0 -11 -10 -162.5t-11 -226.5q0 -102 11.5 -175.5t44.5 -140.5q53 -108 156 -114q12 -1 24 -1q112 0 162 97q32 61 54 180q19 104 18 194v25q-2 53 -3 133t-1.5 135.5t-2.5 73.5 q-2 19 21 25.5t48.5 -1.5t29.5 -24q7 -24 13.5 -132.5t6.5 -205.5q0 -272 -67 -434q-19 -47 -54.5 -82.5t-80 -54t-88 -27.5t-87.5 -10h-13q-77 0 -139 22q-67 24 -153 95q-26 21 -45.5 46.5t-31 58.5t-18.5 59t-9.5 70.5t-3 70t-0.5 78.5z" />
<glyph unicode="v" horiz-adv-x="1087" d="M80 877q-1 23 8 39.5t28 25.5t34 12.5t36 6.5q9 1 19 1q25 0 49 -9q34 -13 39 -35q3 -17 107 -340.5t108 -341.5q3 -25 21.5 -28t27.5 17q7 15 178.5 353.5t186.5 367.5q15 27 38.5 29.5t38.5 -12.5t11 -33q-8 -27 -100 -239.5t-132 -295.5q-56 -115 -139 -261.5 t-104 -149.5q-12 -4 -33 -4q-18 0 -44 3q-54 7 -67 29q-19 25 -71 141t-87 214q-41 120 -96.5 301t-56.5 209z" />
<glyph unicode="w" horiz-adv-x="1441" d="M80 897q-5 31 28 49.5t72 20.5q14 1 26 1q32 0 49 -8q23 -11 30 -36q1 -2 87.5 -308t88.5 -327q4 -24 24.5 -26t24.5 16l152 540q3 10 6 26t6.5 27t7.5 19q9 24 71 30q16 1 28 1q37 0 44 -13q6 -12 87 -361.5t85 -359.5q11 -24 23 -23q12 0 24 21t110 358.5t108 379.5 q6 36 50 36h2q35 0 48 -18q4 -6 2 -12l-143 -539q-27 -103 -72.5 -229t-63.5 -152q-15 -23 -79 -34q-25 -4 -43 -4q-27 0 -35 10q-25 32 -62.5 171.5t-78.5 311.5t-60 231l-4 13q-1 -2 -2 -6.5t-2 -6.5q-57 -203 -139.5 -456.5t-102.5 -257.5q-13 -3 -31 -3q-20 -1 -45 3 q-48 6 -63 28q-19 31 -63.5 144.5t-69.5 207.5q-120 485 -125 535z" />
<glyph unicode="x" horiz-adv-x="993" d="M109 -16q-19 7 -19 23q0 18 25 48q61 76 282 418q-24 46 -93 174.5t-105.5 201t-36.5 85.5q0 7 3 13t9.5 10.5t12.5 8t15.5 6.5t15 4.5t15 3.5t11.5 3q23 4 42 5q43 0 60 -25q1 -1 170 -312q63 90 143 198.5t93 121.5q14 10 37.5 8t43.5 -14t13 -23q-13 -23 -180 -278 l-86 -129q59 -106 86 -148q31 -46 85 -135.5t95 -158t51 -79.5q18 -19 -13.5 -36t-72.5 -25q-16 -4 -33 -4q-16 -1 -34 3q-36 8 -52 25q-30 36 -102.5 154.5t-130.5 226.5q-94 -140 -236 -346q-6 -8 -12.5 -14t-12.5 -10t-13.5 -6.5t-13.5 -3.5t-13.5 -1h-12.5t-12 1.5 t-10 2t-8 2t-6 1.5z" />
<glyph unicode="y" horiz-adv-x="991" d="M69.5 956q5.5 10 23 19t33 14t38.5 12l27 3t21 -6t18.5 -12.5t18.5 -17t21 -18.5q13 -11 56 -86t97.5 -168.5t86.5 -136.5q29 31 209 244q14 17 61 81.5t68 82.5q29 23 59 20t9 -36q-3 -4 -7 -9q-45 -68 -161 -225t-187 -232q1 -27 1 -70q0 -74 -2 -193q-3 -147 -3 -186 v-13q1 -16 -17.5 -27t-42.5 -15.5t-53 -5.5q-10 -1 -19 -1q-29 0 -51 8q-28 10 -28 32q0 8 5 103t5 143q0 35 5.5 84t7.5 109q-63 75 -171 255t-128 226q-6 12 -0.5 22z" />
<glyph unicode="z" horiz-adv-x="991" d="M84.5 23q-9.5 15 5.5 36q260 364 307 428q-46 -1 -104 -4.5t-72 -3.5q-19 1 -21 27q-1 32 26 45l16 4q17 2 209 6l114 156q23 31 43.5 55t33 36t21.5 20t13 10.5t4 3.5q0 4 3 10.5t1.5 7.5t-10 2.5t-29.5 1.5q-383 0 -457 4q-35 2 -41 31q-6 30 25 50q19 11 45 12 q13 1 178.5 1t220.5 3q33 1 97 3t100.5 3.5t40.5 3.5q8 8 37 0q36 -9 14 -29q-22 -25 -262 -381h16q28 0 71.5 1t49.5 1q12 0 14 -21q2 -30 -23 -38q-4 -2 -9 -2q-31 -3 -166 -10q-243 -353 -264 -377q-27 -29 -27 -32q2 -4 12 -7q16 -4 139 -4h84q202 2 251 6 q27 3 46.5 -15.5t12.5 -41t-45 -29.5q-65 -12 -512 -12q-113 0 -172 16q-27 8 -36.5 23z" />
<glyph unicode="{" horiz-adv-x="716" d="M129 567.5q7 14.5 37 32.5q48 29 82.5 102t34.5 156q0 328 249 363q37 5 37 -23v-6q0 -6 -1.5 -11t-10.5 -11.5t-25 -12.5q-34 -9 -57 -35t-33.5 -56t-15 -71t-3.5 -70.5t3 -64.5t2 -43q0 -100 -57.5 -177.5t-137.5 -88.5q33 -16 64 -38t62 -53.5t50 -75t19 -91.5 q0 -5 -3 -53t-1 -82.5t9.5 -81t33 -78t65.5 -43.5q37 -11 37 -37v-4q0 -28 -37 -25q-74 10 -126 47t-77.5 92t-35.5 108.5t-10 115.5q0 101 -22.5 147t-94.5 113q-26 17 -35 29t-2 26.5z" />
<glyph unicode="|" horiz-adv-x="835" d="M354 -285q-19 165 21 967q11 251 41.5 529t52.5 356q18 59 74 51q14 -2 20 -9.5t6 -21t-2 -27t-5.5 -36t-4.5 -39.5l-78 -623q-31 -207 -55 -1081q-3 -67 -10.5 -85t-30.5 -18q-13 0 -20 9t-8 19z" />
<glyph unicode="}" horiz-adv-x="696" d="M147 -82q0 26 37 37q34 10 57.5 36t33.5 55.5t15 70.5t4 69.5t-3 63.5t-2 43q0 48 18.5 91.5t49.5 75t62 53.5t64 38q-80 11 -137 88t-57 178q0 8 2 43t3 64t-4 70.5t-15 71.5t-33.5 56t-57.5 35q-16 6 -25 12.5t-10.5 11.5t-1.5 11v6q0 28 37 23q60 -8 106 -35 t72.5 -62.5t43.5 -83t22.5 -90.5t5.5 -92q0 -83 34.5 -156t82.5 -102q30 -18 37 -32.5t-2 -26.5t-35 -29q-72 -67 -94.5 -113t-22.5 -147q0 -48 -5.5 -91t-22.5 -90.5t-43.5 -83.5t-72.5 -63t-106 -35q-37 -3 -37 25v4z" />
<glyph unicode="~" horiz-adv-x="872" d="M41 432q-2 25 16 39q3 3 6 4q48 32 139.5 66t159.5 26q72 -9 162.5 -49.5t130.5 -44.5q96 -9 148 19q20 11 27 -4q8 -17 -14 -30q-2 -2 -5 -3q-77 -37 -131 -46q-60 -9 -119 5q-53 13 -99.5 38.5t-85 42.5t-89.5 17q-30 0 -67.5 -13t-64.5 -28t-55 -32t-32 -19 q-26 -13 -27 12z" />
<glyph unicode="&#xa1;" horiz-adv-x="808" d="M307 1153q0 35 21 72q16 28 71 28q46 0 60 -18q22 -19 22 -57q0 -34 -16 -56q-40 -49 -84 -49q-18 0 -49 17q-25 18 -25 63zM319 152q0 44 4 129t5 108q14 468 14 492q0 35 12 49t43 14q33 0 43.5 -18.5t14.5 -85.5q5 -57 15 -146.5t15.5 -157.5t8.5 -149q0 -19 4 -115.5 t4 -144.5q0 -45 -20 -61.5t-79 -16.5q-30 0 -47.5 6t-25.5 21.5t-9.5 30.5t-1.5 45z" />
<glyph unicode="&#xa2;" horiz-adv-x="1054" d="M135 436q0 82 20.5 161t60.5 150t108 124.5t155 76.5v51q-4 129 60 152q11 5 14.5 0.5t5 -19.5t4.5 -24q1 -3 6 -49q0 -63 -2 -96q56 5 140 -5q70 -9 116 -37t45 -85q-1 -47 -36.5 -80t-67.5 -35q-24 -1 -29 19.5t13 31.5q4 3 15 6.5t17 12.5t11 32q9 44 -10.5 61 t-75.5 17q-73 0 -142 -27q0 -18 -1 -50.5t-1 -47.5v-381l4 -272q0 -12 4 -62h9q73 2 127.5 10t86.5 22.5t49.5 26t34.5 28.5t23 22q31 21 53.5 8t5.5 -43q-9 -16 -23.5 -33t-47 -43t-72 -44.5t-102.5 -30.5t-135 -9q11 -125 -29 -141q-9 -4 -25 8.5t-26 36.5q-8 20 -11 62 v41q-60 8 -107 22t-95 46t-79 79.5t-51 125.5t-20 181zM330 459q-5 -53 5.5 -123.5t50 -149t103.5 -108.5v18q5 319 3 424q-1 50 -1 70.5t-0.5 29t-0.5 14t-1 34t-2 80.5q0 50 -2 79q-77 -66 -113 -168t-42 -200z" />
<glyph unicode="&#xa3;" horiz-adv-x="1228" d="M104.5 3q-34.5 62 7 122.5t146.5 60.5q62 0 121 -12q9 38 16 121q5 87 -22 180l-117 -4q-39 -2 -64.5 9t-25.5 30q0 25 18 43t41 18h117q0 1 -23 66l-63 -2q-39 -2 -64.5 9t-25.5 30q0 25 18 43t41 18h70q-12 86 -12 148q0 78 25 144t64 108t88 72t95 42.5t86 12.5 q152 0 215 -115q22 -41 20 -88t-15 -84t-30 -55q-28 -26 -45 -12.5t0 48.5q1 2 5 13t5.5 15t5.5 15t5.5 16.5t3.5 16.5t2 18v16.5t-2.5 17.5t-6 16.5t-9.5 15.5q-21 26 -35 39t-43 24t-70 11q-78 0 -131.5 -86.5t-56.5 -220.5q0 -77 22 -148q70 -2 219 -2q25 0 44.5 -14 t19.5 -33q0 -45 -78 -45q-33 0 -70.5 1.5t-58.5 0.5l-45 -2l25 -72h163q25 0 44.5 -14t19.5 -33q0 -45 -78 -45q-31 0 -68 1.5t-55 0.5q22 -104 17 -198q-3 -91 -39 -162q60 -27 137.5 -72t127.5 -70.5t81 -25.5q94 0 112 100q9 43 -3 76.5t-44 46.5q-31 12 -23 36 q6 21 31 21q10 1 21 -4q47 -19 71.5 -67.5t14.5 -102.5q-13 -85 -61.5 -127t-128.5 -39q-37 0 -76 9t-64 16t-69 30t-56.5 30t-63 39t-54.5 34q-55 -60 -131 -87t-142 -25q-82 4 -116.5 66zM179 93q-21 -38 1 -66q16 -21 51 -21q89 0 129 111q-50 18 -102 18q-55 1 -79 -42z " />
<glyph unicode="&#xa7;" horiz-adv-x="1179" d="M248 -129q4 85 67 158q18 21 33 9t0 -34q-4 -6 -14 -19t-15 -21t-11 -23.5t-9 -34.5q-10 -66 9.5 -125.5t71.5 -98t126 -34.5q91 5 134 79t24 201q-8 57 -47 126t-90 134.5t-102.5 132t-90.5 139t-47 134.5q-17 154 84 274q-16 37 -23 82q-17 145 64.5 250t220.5 117 q55 5 97 -8.5t63 -33t35.5 -51.5t17.5 -49.5t6 -41.5q3 -28 -12 -32q-14 -4 -20 19l-3 21q0 21 -11.5 47.5t-32.5 52t-58 39.5t-82 8q-55 -7 -91 -59.5t-43 -119t5 -134.5q14 -63 55.5 -129.5t91.5 -124t99 -115.5t85.5 -125t43.5 -131q23 -195 -76 -311l10 -47 q23 -167 -62 -271t-245 -112q-58 -3 -105 13.5t-75.5 45t-47.5 65.5t-25.5 72t-4.5 66zM430 758q-3 -65 8 -140q9 -59 46.5 -124t80.5 -113t98.5 -113.5t86.5 -113.5q10 72 -15 168q-17 62 -68.5 134.5t-126 160t-110.5 141.5z" />
<glyph unicode="&#xa8;" horiz-adv-x="1228" d="M383 1317q0 45 25 63q31 17 49 17q44 0 84 -49q16 -22 16 -56q0 -38 -22 -57q-14 -18 -60 -18q-56 0 -72 28q-20 36 -20 72zM637 1325q0 46 25 64q29 16 49 16q44 0 84 -49q16 -22 16 -56q0 -37 -23 -57q-14 -18 -59 -18q-56 0 -72 28q-20 36 -20 72z" />
<glyph unicode="&#xa9;" horiz-adv-x="1396" d="M102.5 487q3.5 93 30 181t72.5 161q88 145 240.5 227.5t347.5 82.5q80 0 148.5 -16t133 -56.5t110.5 -104t75.5 -165t33.5 -232.5q1 -93 -20.5 -174t-56.5 -137.5t-82.5 -103t-95.5 -75.5t-98.5 -49.5t-87.5 -29.5t-67 -12q-44 -5 -91.5 -6t-112.5 5.5t-123.5 22.5 t-120 49.5t-107.5 81.5q-68 72 -100 164.5t-28.5 185.5zM287 520q-8 -240 123.5 -367t371.5 -104q40 4 88.5 24t102 62t96.5 99t71.5 142.5t28.5 184.5q-3 250 -111.5 387t-275.5 139q-128 2 -239.5 -75.5t-179.5 -208.5t-76 -283zM403 516q0 64 12.5 119.5t43.5 107 t77.5 88t118.5 58.5t164 22q41 0 75 -19t40 -48q3 -27 -21.5 -49.5t-46.5 -24.5q-19 -1 -23 14.5t9 24.5q8 5 16.5 2t17 3t11.5 26q2 13 -21.5 29t-58.5 16q-231 0 -256 -350q-4 -37 0.5 -87t19.5 -106.5t52 -95t92 -37.5q64 1 110 15.5t63.5 29.5t34.5 36t23 25 q22 15 38.5 6t4.5 -32q-18 -35 -93.5 -78t-180.5 -43q-53 0 -93.5 6t-85.5 27.5t-74.5 58t-49 102t-19.5 154.5z" />
<glyph unicode="&#xab;" horiz-adv-x="741" d="M61 565q0 53 45 90q8 6 52 42t82.5 65.5t58.5 40.5q17 10 29 10q34 0 51 -55q2 -6 2 -19q0 -38 -59 -77l-97 -91q-8 -12 -8 -14q0 -9 21 -33q6 -8 46 -57.5t56 -69.5q20 -26 20 -57q0 -25 -10 -35q-32 -37 -59 -37q-11 0 -19 8q-20 20 -89.5 97.5t-88.5 103.5 q-33 46 -33 88zM365 561q0 32 28 60q47 47 110 99.5t95 70.5q17 10 29 10q34 0 51 -56q2 -6 2 -18q0 -38 -57 -76l-86 -80q-9 -13 -9 -14q0 -9 21 -33q6 -7 40 -49.5l50 -62.5q20 -26 20 -58q0 -25 -10 -35q-31 -36 -59 -36q-11 0 -19 8q-19 19 -90.5 103.5t-91.5 113.5 q-1 2 -5 7.5t-7 9.5t-6 10t-4.5 12.5t-1.5 13.5z" />
<glyph unicode="&#xac;" horiz-adv-x="854" d="M108.5 623.5q14.5 17.5 53.5 17.5q25 0 251 5t253 5q5 0 17 0.5t16.5 0t14.5 -1.5t13.5 -3.5t10 -6.5t8.5 -11t4.5 -16.5t2 -23t-2.5 -30.5q-10 -74 -21 -217q-4 -28 -25 -38.5t-43.5 -5.5t-40.5 19t-18 29q12 135 12 191q0 6 -0.5 17t-0.5 14t-1.5 9t-4 6.5t-8 3t-12 3 t-18.5 0.5q-7 0 -85 -5t-145.5 -8.5t-135.5 -2t-82 11.5q-27 20 -12.5 37.5z" />
<glyph unicode="&#xad;" horiz-adv-x="823" d="M127 594q0 28 18 48t41 20q118 0 258 -1.5t218 -1.5q25 0 44 -15.5t19 -35.5q0 -51 -78 -51q-33 0 -70.5 1.5t-58.5 0.5l-301 -8q-39 -2 -64.5 10t-25.5 33z" />
<glyph unicode="&#xae;" horiz-adv-x="1396" d="M104 524q-2 99 21.5 188.5t77.5 168t134 135.5t197 90t259 33q80 0 148.5 -16t133 -56.5t110.5 -104t75.5 -165t33.5 -232.5q1 -93 -20.5 -173.5t-56 -137t-83 -102.5t-95.5 -74.5t-98.5 -49.5t-87.5 -30t-67 -14q-49 -10 -104.5 -6t-112 13.5t-112.5 33t-107 54 t-95.5 76.5t-77 99t-52 122.5t-21.5 147.5zM293 584q-5 -110 23 -204.5t78 -158t115 -106.5t135 -59t138 -7q41 5 88.5 25.5t101.5 62.5t97 98.5t71.5 141.5t28.5 184q-3 249 -111 385t-276 141q-100 3 -182.5 -25t-137 -77t-92.5 -116t-56 -138t-21 -147zM471 311v187 q0 246 23 370q1 9 2.5 11.5t10 6t25.5 3.5q20 1 41 -8t25 -9q67 19 137 19q28 0 52 -1.5t64 -9.5t67.5 -22.5t49 -44t21.5 -70.5q0 -53 -35.5 -92.5t-78 -57.5t-95.5 -30q59 -33 78 -52t27 -52q26 -102 44 -124q10 -13 23 -13q14 0 32 15.5t28 33.5q6 17 18 14q16 -4 10 -31 q-8 -21 -15 -32.5t-28 -22t-55 -10.5q-38 0 -61 5.5t-39 24t-24 35.5t-23 58q-8 20 -16 57t-20 56t-40 30q-17 -1 -34.5 -1t-32 0.5t-15.5 0.5q-5 0 -8 0.5t-5.5 -0.5t-4.5 -1t-3 -2t-1.5 -2.5t-1 -3.5t-0.5 -4.5t-0.5 -5t-0.5 -6.5t-2 -48.5t-2 -89.5t4 -66q2 -17 -4.5 -29 t-20.5 -17t-24.5 -7t-25.5 -3q-14 0 -23 1t-19.5 4.5t-16.5 12.5t-7 23zM600 762q0 -39 1 -81.5t1 -43.5q0 -27 21 -31q2 -4 75 -1t115 18q38 15 53 44.5t15 84.5q0 45 -46 71.5t-104 24.5q-129 -3 -129 -31q-2 -16 -2 -55z" />
<glyph unicode="&#xaf;" horiz-adv-x="823" d="M127 1470q0 28 18 48t41 20q118 0 258 -1t218 -1q25 0 44 -15.5t19 -35.5q0 -51 -78 -51q-33 0 -70.5 1.5t-58.5 0.5l-301 -9q-39 -2 -64.5 10t-25.5 33z" />
<glyph unicode="&#xb0;" horiz-adv-x="579" d="M69.5 1156q5.5 48 24.5 89q27 56 90 87.5t138 31.5q81 0 129.5 -49.5t62.5 -177.5q6 -52 -6 -94.5t-32 -67.5t-47 -42.5t-47.5 -24.5t-37.5 -9q-139 -12 -215 64q-36 39 -50.5 92t-9 101zM171.5 1100q5.5 -75 33.5 -107q6 -8 13.5 -14t15.5 -10t15.5 -6.5t17 -4 t15.5 -2.5t15.5 -0.5t13.5 0.5t13 1t10 1q15 2 33.5 10.5t41 26t35 51.5t9.5 78q-20 188 -136 191q-41 0 -77.5 -26.5t-55.5 -69.5q-18 -44 -12.5 -119z" />
<glyph unicode="&#xb1;" horiz-adv-x="802" d="M102 625q0 34 60 34h209l-4 97q-4 90 34 90q35 0 35 -60v-129h201q63 0 63 -20q0 -21 -17 -31t-60 -10q-33 0 -70.5 1.5t-58.5 0.5l-60 -2v-145q0 -64 -20 -64q-21 0 -31 17.5t-10 60.5q0 33 1.5 70.5t0.5 58.5l-182 -4q-91 -4 -91 35zM162 311q0 27 15 47.5t34 22.5 l405 4q20 2 37 -13.5t17 -35.5q2 -22 -13.5 -37t-50.5 -16q-22 0 -45.5 1t-36.5 1t-28 -2l-256 -13q-33 -3 -55 8t-23 33z" />
<glyph unicode="&#xb2;" horiz-adv-x="847" d="M185.5 1128q-3.5 -43 6 -74t23.5 -53q25 -21 46.5 -7t6.5 46q-43 77 8 142q30 38 78.5 59t100.5 10q50 -13 73 -39t24 -61t-1 -82q-3 -50 -33 -100t-68 -86.5t-95.5 -94.5t-94.5 -106q-40 -54 -48 -86t8 -44.5t54 -14.5q98 -1 192 3.5t99 4.5q110 0 172 -10q27 -6 35 13 q7 17 -13 26q-1 0 -3 1q-105 26 -189 23q-140 -4 -221 -4q-22 0 -22 8q-1 6 32 41q24 25 37 43q35 51 81 95t82.5 71.5t69.5 57t51.5 68t18.5 89.5q0 94 -58.5 153.5t-154.5 75.5q-85 13 -157.5 -12t-112.5 -80q-24 -33 -27.5 -76z" />
<glyph unicode="&#xb3;" horiz-adv-x="768" d="M102 670q0 -59 61.5 -106.5t143.5 -51.5q35 -2 81 6.5t95.5 30.5t91 54t68 80.5t25.5 104.5q-1 44 -25.5 82t-54.5 60.5t-72.5 42t-63 25.5t-42.5 12q-36 7 -36 8l5 8q2 2 14.5 15.5t27 30.5t38.5 54.5t47 85.5q13 28 9 44t-21.5 21t-43 6t-55.5 -1q-26 -2 -39 -2 q-20 -1 -83 -4t-64 -2.5t-57 2.5q-26 -1 -28.5 -19t22.5 -26l14 -2q23 -3 70 -3t96.5 1.5t52.5 1.5q10 0 23 1q14 1 13 -2q0 -1 -3 -5q-70 -101 -136 -158q-105 -86 -92 -113q22 -34 72 -8q4 2 17 8t21 8.5t22.5 5t32.5 0t40 -9.5q58 -22 96 -72t33 -100q-6 -88 -67 -157 t-142 -68q-71 0 -108 39.5t-37 79.5q0 16 -15.5 27.5t-31 3.5t-15.5 -39z" />
<glyph unicode="&#xb4;" horiz-adv-x="1228" d="M543 1214q0 33 26 78q22 45 49 94q5 8 10 15t9 12t10.5 9t10 7t11.5 4.5t10.5 2.5t12.5 1.5t12.5 0.5h15h15.5q27 0 44.5 -8t17.5 -19q0 -9 -11 -27q-34 -47 -79.5 -99.5t-63.5 -67.5q-32 -25 -72 -25q-10 0 -22 4q-6 3 -6 18z" />
<glyph unicode="&#xb6;" horiz-adv-x="835" d="M42.5 1101q-3.5 33 6.5 48q6 18 25 37q20 20 54 32t62 9q17 -1 122 -1t182.5 -12t126.5 -45q18 -12 26.5 -22t7.5 -20.5t-5.5 -19.5l-13 -26t-13.5 -32q-15 -21 -36.5 -150t-21.5 -223q0 -204 19 -684q1 -42 -5 -53t-30 -13q-13 -2 -23 14.5t-14 37.5t-4 42q0 7 -11 185 t-12 350q-1 127 12 297t13 203q4 25 0 80q-48 12 -154 26q-1 -5 -4 -19t-4 -22q0 -2 -7 -34t-14.5 -67.5t-18 -87t-19 -96.5t-15.5 -91.5t-10 -77.5q-1 -15 -9 -77.5t-14.5 -125t-15.5 -192.5t-16 -287q-3 -42 -10 -53t-31 -11q-13 0 -20 6t-8 12l-1 5q-19 104 21 610 q20 258 69 500q-14 -18 -22 -23q-35 -21 -74 -16.5t-65 30.5q-22 24 -25.5 57z" />
<glyph unicode="&#xb7;" horiz-adv-x="1228" d="M524 596q0 53 31 74q33 20 57 20q56 0 103 -59q18 -21 18 -66q0 -43 -26 -69q-17 -21 -72 -21q-66 0 -86 33q-25 48 -25 88z" />
<glyph unicode="&#xb8;" horiz-adv-x="438" d="M8 -338q0 15 10 26t23 11q7 0 22 -6q58 -10 68 -10q48 0 80.5 23t32.5 58q0 23 -10.5 38t-31.5 21t-37.5 7.5t-41.5 1.5q-37 0 -37 18q0 22 27 60l61 84h57l-28 -43q-19 -32 -19 -37q0 -20 33 -20q65 -2 106.5 -35.5t41.5 -85.5q0 -71 -58.5 -118.5t-146.5 -47.5 q-59 0 -121 20q-31 9 -31 35z" />
<glyph unicode="&#xb9;" horiz-adv-x="675" d="M106 886q12 -20 36 -18q7 1 12 4q2 2 22.5 17.5t42.5 33.5t37 33q18 20 55 51.5t47 41.5q21 24 22 13q0 -3 -1 -13q0 -60 8 -199q1 -25 1.5 -120.5t6.5 -148.5t23 -57q24 -5 55.5 -0.5t40.5 15.5q5 5 7.5 23.5t3.5 56t1.5 63t0 78.5t-0.5 69q0 252 -22 424 q-3 27 -16.5 38t-31.5 7.5t-30 -8.5t-20 -10q-12 -5 -15.5 -13.5t-3.5 -28.5t-2 -32q-4 -23 -28.5 -53t-71.5 -79q-9 -8 -13 -13q-104 -104 -137 -121q-46 -26 -29 -54z" />
<glyph unicode="&#xbb;" horiz-adv-x="741" d="M61 727q0 12 2 18q17 56 52 56q11 0 28 -10q32 -18 95 -70.5t110 -99.5q29 -29 29 -60q0 -9 -3 -17.5t-6 -13.5t-9 -12.5t-7 -9.5q-20 -29 -91.5 -113.5t-90.5 -103.5q-8 -8 -18 -8q-14 0 -31.5 11.5t-28.5 24.5q-10 10 -10 35q0 32 20 58q16 21 50.5 63t40.5 49 q20 23 20 33q0 2 -8 14q-68 66 -86 80q-58 39 -58 76zM360 739q0 13 2 19q17 55 52 55q11 0 28 -10q20 -11 58.5 -40.5t82.5 -65.5t52 -42q45 -37 45 -90q0 -42 -33 -88q-19 -26 -88.5 -103.5t-89.5 -97.5q-8 -8 -18 -8q-28 0 -60 37q-10 10 -10 35q0 31 20 57 q16 20 56.5 70t46.5 57q20 23 20 33q0 2 -8 14q-78 77 -96 91q-60 40 -60 77z" />
<glyph unicode="&#xbc;" horiz-adv-x="1959" d="M113 878q-24 20 0 45q8 9 22 17q33 17 137 121q82 84 99 112q12 18 14 33q2 12 2 32t3.5 28.5t15.5 13.5q8 5 20 10t30 8.5t31.5 -7.5t16.5 -38q22 -172 22 -424q0 -16 0.5 -69t0 -78.5t-1.5 -63t-3.5 -56t-7.5 -23.5q-9 -11 -40.5 -15.5t-55.5 0.5q-17 4 -23 57 t-6.5 148.5t-1.5 120.5q-8 139 -8 199q2 17 -2 18q-4 0 -19 -18q-10 -10 -47 -41.5t-55 -51.5q-15 -15 -37 -33t-42.5 -33.5t-22.5 -17.5q-21 -12 -41 6zM584 -59q0 27 12 61l55 145q105 275 129 340q24 67 78.5 218t89.5 251q13 34 39 116.5t41 121.5q21 59 45 91t64 32 q21 0 33 -2t16.5 -7.5t5.5 -9.5t-0.5 -14.5t-1.5 -15.5q0 -13 -12 -49q-15 -43 -53 -133.5t-52 -129.5l-227 -610l-70 -199l-51 -145q-5 -15 -11 -38.5t-10 -35t-13.5 -24.5t-27.5 -18t-47 -5q-10 0 -21 17t-11 43zM1098 309q6 9 42.5 56.5t73 103t58.5 104.5 q29 66 51.5 154.5t34.5 120.5t44 42t58.5 -4t24.5 -42q-3 -26 -13.5 -67t-24.5 -88.5t-17 -57.5q-42 -140 -123 -248q-34 -46 3 -54q18 -4 86 0q35 2 54 3q82 0 113 -2q0 224 6 258q15 64 84 26q7 -4 10.5 -8t6 -12.5t2.5 -19t1 -32t1 -45.5t2 -65t5 -86q0 -14 2 -20 q4 0 13 1t14 1q33 1 46 -10t8 -25t-20 -26.5t-32 -14.5h-22q3 -59 -2 -135q-1 -17 -1 -43t-0.5 -36t-4 -22.5t-11 -18t-20.5 -7.5q-93 -17 -88 30v240h-43q-48 0 -180 -3t-166 -3q-55 1 -73 14t-3 41z" />
<glyph unicode="&#xbd;" horiz-adv-x="1787" d="M106 886q12 -20 36 -18q7 1 12 4q2 2 22.5 17.5t42.5 33.5t37 33q18 20 55 51.5t47 41.5q21 24 22 13q0 -3 -1 -13q0 -60 8 -199q1 -25 1.5 -120.5t6.5 -148.5t23 -57q24 -5 55.5 -0.5t40.5 15.5q5 5 7.5 23.5t3.5 56t1.5 63t0 78.5t-0.5 69q0 252 -22 424 q-3 27 -16.5 38t-31.5 7.5t-30 -8.5t-20 -10q-12 -5 -15.5 -13.5t-3.5 -28.5t-2 -32q-4 -23 -28.5 -53t-71.5 -79q-9 -8 -13 -13q-104 -104 -137 -121q-46 -26 -29 -54zM528 -106q0 24 13 61l55 145q105 275 129 340q24 68 78.5 218.5t89.5 250.5q13 34 39 116.5t41 121.5 q21 60 44.5 91.5t63.5 31.5q21 0 33.5 -2t17 -7.5t5.5 -9t-0.5 -14.5t-1.5 -16q0 -11 -13 -50q-15 -43 -52.5 -133t-51.5 -129l-227 -610l-70 -199l-51 -145q-5 -15 -11 -38.5t-10 -35t-13.5 -24.5t-27.5 -18t-47 -5q-11 0 -22 17.5t-11 42.5zM1047.5 510q-3.5 -43 6 -74 t23.5 -53q25 -21 46.5 -7t6.5 46q-42 76 9 141q31 39 78.5 60t99.5 10q50 -13 73 -39t24 -61t-1 -82q-3 -50 -33 -100t-68 -87t-95.5 -95t-94.5 -106q-40 -53 -47.5 -85.5t8.5 -45t54 -14.5q98 -1 191.5 3.5t98.5 4.5q110 0 172 -10q26 -6 35 13q8 18 -13 27q-1 0 -3 1 q-105 26 -188 23q-175 -5 -222 -5q-23 0 -22 9q0 7 34 42q22 24 35 42q35 51 81.5 95t83 71.5t69.5 57t51.5 68t18.5 89.5q0 94 -58.5 153.5t-154.5 75.5q-85 13 -158 -12t-113 -80q-24 -33 -27.5 -76z" />
<glyph unicode="&#xbe;" horiz-adv-x="1814" d="M143 629q0 31 15.5 39t31 -3.5t15.5 -27.5q0 -40 37 -79.5t108 -39.5q81 -1 142 68t67 157q5 50 -33 100t-96 72q-22 7 -40 9.5t-32.5 0t-22.5 -5t-21 -8.5t-17 -8q-50 -26 -72 8q-13 27 92 113q29 25 63 64.5t54 66.5l19 27q6 7 0 7q-2 1 -10 0q-13 -1 -23 -1 q-3 0 -52.5 -1.5t-96.5 -1.5t-70 3q-35 3 -37 24q-2 16 20 22q4 1 9 1q20 -2 44 -2.5t42 0.5t55.5 3t62.5 3q13 0 39 2q88 4 109 -10q23 -16 2 -60q-23 -48 -47 -85.5t-38.5 -54.5t-27 -30.5t-14.5 -15.5q-6 -8 -4 -9q1 -1 35 -7q18 -5 33 -9.5t49.5 -17t60.5 -29.5t54 -40 t44 -55.5t17 -69.5q1 -69 -39 -126.5t-98.5 -89.5t-118.5 -48t-105 -13q-82 4 -143.5 51.5t-61.5 106.5zM590 -106q0 26 12 61l55 145q105 275 129 340q24 68 78.5 218.5t89.5 250.5q13 34 39 116.5t41 121.5q21 59 45 91t64 32q21 0 33 -2t16.5 -7.5t5.5 -9.5t-0.5 -14.5 t-1.5 -15.5q0 -14 -12 -50q-15 -43 -53 -133t-52 -129l-227 -610l-70 -199l-51 -145q-5 -15 -10.5 -38.5t-9.5 -35t-13.5 -24.5t-27.5 -18t-47 -5q-11 0 -22 17.5t-11 42.5zM1044 309q6 9 42.5 56.5t73.5 103t59 104.5q29 66 51.5 154.5t34.5 120.5t44 42t58.5 -4t24.5 -42 q-3 -26 -13.5 -67t-25 -88t-17.5 -58q-42 -140 -123 -248q-34 -46 3 -54q16 -3 115 2q14 1 26 1q81 0 112 -2q0 219 7 258q14 64 83 26q7 -4 10.5 -8t6 -12.5t3 -19t1 -32t1 -45.5t2.5 -65t5 -86q0 -14 2 -20q4 0 13 1t14 1q33 1 46 -10t8 -25t-20 -26.5t-32 -14.5h-23 q3 -59 -2 -135q-1 -17 -1 -43t-0.5 -36t-4 -22.5t-11 -18t-20.5 -7.5q-93 -17 -88 30v240h-43q-48 0 -180 -3t-166 -3q-55 1 -73 14t-3 41z" />
<glyph unicode="&#xbf;" horiz-adv-x="757" d="M-111 395q0 -83 26 -147.5t67 -103t96.5 -63.5t108 -34.5t108.5 -9.5q66 0 128.5 15.5t118.5 48t90 91t34 136.5q0 53 -20.5 129.5t-47.5 122.5q-24 57 -84 41q-15 -4 -21 -8t-6 -11.5t3.5 -14.5t10.5 -22t11 -30q45 -88 45 -160q0 -59 -17.5 -104.5t-44 -71t-63 -42 t-69 -21.5t-68.5 -5q-99 0 -161 67.5t-62 186.5q0 78 14 125q18 50 52.5 99.5t69 86.5t66.5 74.5t52 78.5t20 83q0 34 -14 47.5t-47 13.5q-35 0 -65 -18.5t-40 -48.5q-3 -8 -7 -21t-6.5 -19.5t-8 -18.5t-15 -27t-24.5 -35q-16 -22 -49.5 -53.5t-61.5 -61t-57 -70t-45.5 -98 t-16.5 -127.5zM180 1196q0 37 23 57q15 19 59 19q56 0 72 -29q20 -36 20 -72q0 -46 -24 -63q-29 -16 -49 -16q-44 0 -84 49q-17 24 -17 55z" />
<glyph unicode="&#xc0;" horiz-adv-x="1193" d="M68 53q13 41 224.5 563.5t221.5 552.5q10 28 52.5 39.5t86.5 0.5t58 -40q9 -22 72.5 -194.5t132.5 -363t135 -374t71 -196.5q12 -32 -38 -47q-53 -15 -100 3q-26 10 -32 28q-6 29 -87.5 238t-82.5 212q-6 15 -9 19.5t-12 2t-13 -2.5q-6 -1 -132.5 -4t-136.5 -5 q-31 0 -35 -16q-1 -4 -40.5 -104t-78.5 -203t-42 -119q-5 -35 -73 -48q-72 -14 -118 8q-35 18 -24 50zM381 1536q0 14 20.5 24.5t53.5 10.5h35.5t27 -3t27.5 -9t21 -17.5t24 -30.5q46 -81 49 -88q29 -50 29 -86q0 -21 -9 -24q-16 -4 -26 -4q-53 0 -82 26q-91 79 -156 170 q-14 21 -14 31zM504 610q-4 -15 4 -21.5t27 -4.5l167 8q14 0 21 9t4 20l-72 313q-5 19 -28 19t-29 -19z" />
<glyph unicode="&#xc1;" horiz-adv-x="1193" d="M68 53q13 41 224.5 563.5t221.5 552.5q10 28 52.5 39.5t86.5 0.5t58 -40q9 -22 72.5 -194.5t132.5 -363t135 -374t71 -196.5q12 -32 -38 -47q-53 -15 -100 3q-26 10 -32 28q-6 29 -87.5 238t-82.5 212q-6 15 -9 19.5t-12 2t-13 -2.5q-6 -1 -132.5 -4t-136.5 -5 q-31 0 -35 -16q-1 -4 -40.5 -104t-78.5 -203t-42 -119q-5 -35 -73 -48q-72 -14 -118 8q-35 18 -24 50zM504 610q-4 -15 4 -21.5t27 -4.5l167 8q14 0 21 9t4 20l-72 313q-5 19 -28 19t-29 -19zM551 1325q0 31 27 78q22 45 49 94q5 9 10.5 16.5t11.5 13t10 9t12 6t11.5 4 t13.5 2t13.5 0.5h16.5h17q27 0 44.5 -7.5t17.5 -18.5q0 -10 -10 -27q-34 -47 -80 -100t-64 -68q-31 -24 -71 -24q-11 0 -23 4q-6 3 -6 18z" />
<glyph unicode="&#xc2;" horiz-adv-x="1193" d="M68 53q13 41 224.5 563.5t221.5 552.5q10 28 52.5 39.5t86.5 0.5t58 -40q9 -22 72.5 -194.5t132.5 -363t135 -374t71 -196.5q12 -32 -38 -47q-53 -15 -100 3q-26 10 -32 28q-6 29 -87.5 238t-82.5 212q-6 15 -9 19.5t-12 2t-13 -2.5q-6 -1 -132.5 -4t-136.5 -5 q-31 0 -35 -16q-1 -4 -40.5 -104t-78.5 -203t-42 -119q-5 -35 -73 -48q-72 -14 -118 8q-35 18 -24 50zM369 1343q0 1 4 13q26 36 159 145q29 23 72 23q38 0 64 -21q22 -16 50.5 -36t45.5 -32t36 -26.5t27.5 -25t13.5 -22.5t0.5 -23t-16.5 -23q-4 -4 -18 -4q-12 0 -39 16 q-10 8 -60 40.5t-57 37.5q-21 14 -41 14q-29 0 -49 -20q-15 -9 -92 -66q-27 -22 -49 -22q-13 0 -17 2q-10 4 -22 14.5t-12 15.5zM504 610q-4 -15 4 -21.5t27 -4.5l167 8q14 0 21 9t4 20l-72 313q-5 19 -28 19t-29 -19z" />
<glyph unicode="&#xc3;" horiz-adv-x="1193" d="M68 53q13 41 224.5 563.5t221.5 552.5q10 28 52.5 39.5t86.5 0.5t58 -40q9 -22 72.5 -194.5t132.5 -363t135 -374t71 -196.5q12 -32 -38 -47q-53 -15 -100 3q-26 10 -32 28q-6 29 -87.5 238t-82.5 212q-6 15 -9 19.5t-12 2t-13 -2.5q-6 -1 -132.5 -4t-136.5 -5 q-31 0 -35 -16q-1 -4 -40.5 -104t-78.5 -203t-42 -119q-5 -35 -73 -48q-72 -14 -118 8q-35 18 -24 50zM358 1358q0 4 4 16q43 113 154 113q39 0 108 -25.5t97 -25.5q44 0 59 24q10 14 14 19t14.5 10.5t25.5 5.5q17 0 26.5 -8.5t9.5 -20.5q0 -4 -4 -16q-38 -100 -153 -100 q-37 0 -103 26.5t-102 26.5q-33 0 -59 -37q-12 -20 -22.5 -27.5t-31.5 -7.5q-37 0 -37 27zM504 610q-4 -15 4 -21.5t27 -4.5l167 8q14 0 21 9t4 20l-72 313q-5 19 -28 19t-29 -19z" />
<glyph unicode="&#xc4;" horiz-adv-x="1193" d="M68 53q13 41 224.5 563.5t221.5 552.5q10 28 52.5 39.5t86.5 0.5t58 -40q9 -22 72.5 -194.5t132.5 -363t135 -374t71 -196.5q12 -32 -38 -47q-53 -15 -100 3q-26 10 -32 28q-6 29 -87.5 238t-82.5 212q-6 15 -9 19.5t-12 2t-13 -2.5q-6 -1 -132.5 -4t-136.5 -5 q-31 0 -35 -16q-1 -4 -40.5 -104t-78.5 -203t-42 -119q-5 -35 -73 -48q-72 -14 -118 8q-35 18 -24 50zM385 1427q0 46 25 64q29 16 49 16q44 0 84 -49q16 -22 16 -55q0 -38 -22 -57q-15 -19 -60 -19q-55 0 -71 29q-21 38 -21 71zM504 610q-4 -15 4 -21.5t27 -4.5l167 8 q14 0 21 9t4 20l-72 313q-5 19 -28 19t-29 -19zM639 1436q0 45 25 63q31 17 49 17q43 0 84 -50q16 -22 16 -55q0 -38 -22 -57q-15 -19 -60 -19q-56 0 -72 29q-20 36 -20 72z" />
<glyph unicode="&#xc5;" horiz-adv-x="1193" d="M68 53q13 41 224.5 563.5t221.5 552.5q10 28 52.5 39.5t86.5 0.5t58 -40q9 -22 72.5 -194.5t132.5 -363t135 -374t71 -196.5q12 -32 -38 -47q-53 -15 -100 3q-26 10 -32 28q-6 29 -87.5 238t-82.5 212q-6 15 -9 19.5t-12 2t-13 -2.5q-6 -1 -132.5 -4t-136.5 -5 q-31 0 -35 -16q-1 -4 -40.5 -104t-78.5 -203t-42 -119q-5 -35 -73 -48q-72 -14 -118 8q-35 18 -24 50zM451 1456q0 54 31 102.5t71 59.5q12 4 39 4q36 0 92 -14q83 -42 94 -146q-6 -81 -59 -137q-45 -33 -103 -33q-57 0 -88 25q-77 51 -77 139zM504 610q-4 -15 4 -21.5 t27 -4.5l167 8q14 0 21 9t4 20l-72 313q-5 19 -28 19t-29 -19zM528 1460q12 -86 80 -86q37 0 60.5 24t23.5 62q0 31 -24.5 56.5t-55.5 25.5q-32 0 -58 -25.5t-26 -56.5z" />
<glyph unicode="&#xc6;" horiz-adv-x="1613" d="M68 53q11 34 110 281.5t203.5 506t114.5 283.5q6 16 19.5 28t35.5 19t40.5 11.5t49.5 6t46.5 2t47.5 0t39 -0.5q17 0 344 -6.5t346 -5.5q15 1 26 -18.5t7 -40t-27 -21.5q-25 -2 -256 -2.5t-249 0.5q-17 2 -23 -4.5t-8 -26.5q-1 -12 -1 -78.5t1 -143.5v-77q0 -39 45 -39 q39 0 232 -3.5t221 -6.5q20 -6 20 -24t-14.5 -37.5t-28.5 -18.5q-10 1 -212 -7t-216 -5q-19 3 -34.5 -7.5t-14.5 -25.5q1 -16 -1.5 -218t-4.5 -227q-2 -26 2 -31.5t28 -4.5q26 2 117 -1t207 -7t170 -5q64 0 78 -21t-12 -42.5t-60 -22.5q-45 -1 -364.5 -6.5t-335.5 -5.5 q-13 2 -19.5 3.5t-15 13t-8.5 32.5q0 200 6 443q-215 0 -240 -7q-31 0 -35 -16q-1 -4 -40.5 -104t-78.5 -203t-42 -119q-5 -35 -73 -48q-72 -14 -118 8q-35 18 -24 50zM504 610q-4 -15 4 -21.5t27 -4.5l186 8q2 97 -2 344v-2q-3 33 -22 47.5t-42 2t-37 -49.5z" />
<glyph unicode="&#xc7;" horiz-adv-x="1142" d="M113 582q0 130 38.5 236.5t103.5 178.5t152.5 120t184 68t199.5 15q74 -3 135 -38.5t61 -86.5t-34 -91t-81 -30q-31 7 -37 29t15 35q12 8 22 2.5t19.5 4.5t13.5 44q2 12 -8.5 23.5t-39 19.5t-69.5 8q-85 0 -157 -32t-121 -83.5t-84 -119t-52.5 -136.5t-21.5 -139 q-5 -33 -0.5 -88t10 -118t27 -127.5t49.5 -116t78 -83.5t113 -30q92 3 158.5 22.5t92.5 39t54.5 50t36.5 36.5q24 17 47 16.5t30 -16t-6 -41.5q-12 -21 -46 -52t-86.5 -65.5t-128 -58t-152.5 -23.5q-45 0 -68 2l-4 -6q-18 -30 -18 -37q0 -20 32 -20q65 -2 106.5 -35.5 t41.5 -85.5q0 -71 -58.5 -118.5t-146.5 -47.5q-59 0 -121 20q-31 9 -31 35q0 15 10 26t23 11q8 0 23 -6q58 -10 67 -10q48 0 80.5 23t32.5 58q0 23 -10.5 38t-31.5 21t-37.5 7.5t-41.5 1.5q-37 0 -37 18q0 22 27 60l41 55q-395 68 -395 617z" />
<glyph unicode="&#xc8;" horiz-adv-x="1040" d="M136 377.5q0 112.5 3 181.5q2 89 2.5 336.5t1.5 267.5q6 27 58 27q17 0 344 -6.5t346 -5.5q15 1 26 -18.5t7 -40t-27 -21.5q-25 -2 -256.5 -2.5t-249.5 0.5q-17 2 -23 -4.5t-8 -26.5q-1 -16 6 -154t7 -145q0 -39 45 -39q38 0 225 -3.5t215 -6.5q20 -6 20 -24t-14 -37.5 t-28 -18.5q-10 1 -206 -7t-210 -5q-20 3 -40.5 -7.5t-19.5 -25.5q1 -16 -2.5 -217.5t-5.5 -227.5t2.5 -31.5t28.5 -4.5q26 2 117 -1t207 -7t170 -5q64 0 78 -21t-12 -42.5t-60 -22.5q-45 -1 -365 -6.5t-336 -5.5q-13 2 -19.5 3.5t-15 13t-8.5 32.5q0 2 -1.5 109t-1.5 219.5z M281 1554q0 14 20.5 24.5t52.5 10.5q64 0 83 -8q29 -14 52 -51q15 -26 24 -41.5t11.5 -19t5.5 -9t9 -18.5q28 -48 28 -86q0 -22 -8 -25q-16 -4 -27 -4q-51 0 -81 27q-91 79 -156 170q-14 21 -14 30z" />
<glyph unicode="&#xc9;" horiz-adv-x="1040" d="M136 377.5q0 112.5 3 181.5q2 89 2.5 336.5t1.5 267.5q6 27 58 27q17 0 344 -6.5t346 -5.5q15 1 26 -18.5t7 -40t-27 -21.5q-25 -2 -256.5 -2.5t-249.5 0.5q-17 2 -23 -4.5t-8 -26.5q-1 -16 6 -154t7 -145q0 -39 45 -39q38 0 225 -3.5t215 -6.5q20 -6 20 -24t-14 -37.5 t-28 -18.5q-10 1 -206 -7t-210 -5q-20 3 -40.5 -7.5t-19.5 -25.5q1 -16 -2.5 -217.5t-5.5 -227.5t2.5 -31.5t28.5 -4.5q26 2 117 -1t207 -7t170 -5q64 0 78 -21t-12 -42.5t-60 -22.5q-45 -1 -365 -6.5t-336 -5.5q-13 2 -19.5 3.5t-15 13t-8.5 32.5q0 2 -1.5 109t-1.5 219.5z M451 1343q0 33 26 78q25 53 49 95q5 9 10.5 16.5t11.5 13t10.5 9t12.5 6t11.5 4t13.5 2t13.5 0.5h16.5h17q27 0 44.5 -8t17.5 -19q0 -9 -11 -27q-34 -47 -79.5 -99.5t-63.5 -67.5q-32 -25 -72 -25q-10 0 -22 4q-6 3 -6 18z" />
<glyph unicode="&#xca;" horiz-adv-x="1040" d="M136 377.5q0 112.5 3 181.5q2 89 2.5 336.5t1.5 267.5q6 27 58 27q17 0 344 -6.5t346 -5.5q15 1 26 -18.5t7 -40t-27 -21.5q-25 -2 -256.5 -2.5t-249.5 0.5q-17 2 -23 -4.5t-8 -26.5q-1 -16 6 -154t7 -145q0 -39 45 -39q38 0 225 -3.5t215 -6.5q20 -6 20 -24t-14 -37.5 t-28 -18.5q-10 1 -206 -7t-210 -5q-20 3 -40.5 -7.5t-19.5 -25.5q1 -16 -2.5 -217.5t-5.5 -227.5t2.5 -31.5t28.5 -4.5q26 2 117 -1t207 -7t170 -5q64 0 78 -21t-12 -42.5t-60 -22.5q-45 -1 -365 -6.5t-336 -5.5q-13 2 -19.5 3.5t-15 13t-8.5 32.5q0 2 -1.5 109t-1.5 219.5z M268 1362l4 12q26 37 160 146q28 22 72 22q38 0 63 -20q22 -16 50.5 -36t45.5 -32t36 -27t27.5 -25t14 -22t1 -23.5t-16.5 -23.5q-4 -4 -18 -4q-11 0 -39 17q-10 8 -60 40t-57 37q-23 15 -41 15q-28 0 -49 -21q-21 -11 -92 -65q-29 -23 -50 -23q-12 0 -16 2q-10 4 -22.5 15 t-12.5 16z" />
<glyph unicode="&#xcb;" horiz-adv-x="1040" d="M136 377.5q0 112.5 3 181.5q2 89 2.5 336.5t1.5 267.5q6 27 58 27q17 0 344 -6.5t346 -5.5q15 1 26 -18.5t7 -40t-27 -21.5q-25 -2 -256.5 -2.5t-249.5 0.5q-17 2 -23 -4.5t-8 -26.5q-1 -16 6 -154t7 -145q0 -39 45 -39q38 0 225 -3.5t215 -6.5q20 -6 20 -24t-14 -37.5 t-28 -18.5q-10 1 -206 -7t-210 -5q-20 3 -40.5 -7.5t-19.5 -25.5q1 -16 -2.5 -217.5t-5.5 -227.5t2.5 -31.5t28.5 -4.5q26 2 117 -1t207 -7t170 -5q64 0 78 -21t-12 -42.5t-60 -22.5q-45 -1 -365 -6.5t-336 -5.5q-13 2 -19.5 3.5t-15 13t-8.5 32.5q0 2 -1.5 109t-1.5 219.5z M285 1446q0 46 24 63q31 17 49 17q44 0 84 -49q17 -24 17 -56q0 -37 -23 -57q-14 -18 -59 -18q-56 0 -72 28q-20 36 -20 72zM539 1454q0 47 24 64q29 16 49 16q44 0 84 -49q17 -24 17 -55q0 -38 -23 -58q-14 -18 -59 -18q-56 0 -72 28q-20 36 -20 72z" />
<glyph unicode="&#xcc;" horiz-adv-x="665" d="M100 1556q0 14 20.5 24.5t53.5 10.5q64 0 83 -8q29 -14 52 -51q46 -81 49 -88q29 -50 29 -86q0 -22 -8 -25q-16 -4 -27 -4q-52 0 -82 27q-89 77 -155 170q-15 22 -15 30zM209 35q0 12 3 244.5t3 267.5q0 93 3 333t7 265q4 12 19.5 18.5t31.5 8t48 2.5q96 7 104 -31 q4 -21 9 -187.5t5 -285.5t-4.5 -368.5t-7.5 -278.5q-1 -8 -6 -14.5t-14.5 -10t-18 -6.5t-23 -4.5t-22 -2t-22.5 -1t-19 -0.5q-32 -3 -64 13t-32 38z" />
<glyph unicode="&#xcd;" horiz-adv-x="665" d="M209 35q0 12 3 244.5t3 267.5q0 93 3 333t7 265q4 12 19.5 18.5t31.5 8t48 2.5q96 7 104 -31q4 -21 9 -187.5t5 -285.5t-4.5 -368.5t-7.5 -278.5q-1 -8 -6 -14.5t-14.5 -10t-18 -6.5t-23 -4.5t-22 -2t-22.5 -1t-19 -0.5q-32 -3 -64 13t-32 38zM270 1346q0 30 27 77 q25 53 49 95q5 9 10.5 16.5t11.5 13t10.5 9t12.5 6t11.5 4t13.5 2t13.5 0.5h16.5h17q27 0 44 -8t17 -19q0 -9 -10 -26q-35 -47 -80 -100t-63 -68q-32 -25 -72 -25q-11 0 -23 4q-6 3 -6 19z" />
<glyph unicode="&#xce;" horiz-adv-x="665" d="M88 1364l4 12q26 37 160 146q28 22 72 22q38 0 63 -20q22 -16 50.5 -36t45.5 -32t36 -27t27.5 -25t14 -22t1 -23.5t-16.5 -23.5q-4 -4 -19 -4q-11 0 -39 17q-10 8 -59.5 40t-56.5 37q-23 15 -41 15q-28 0 -49 -21q-24 -14 -93 -65q-29 -23 -49 -23q-12 0 -16 2 q-10 4 -22.5 15t-12.5 16zM209 35q0 12 3 244.5t3 267.5q0 93 3 333t7 265q4 12 19.5 18.5t31.5 8t48 2.5q96 7 104 -31q4 -21 9 -187.5t5 -285.5t-4.5 -368.5t-7.5 -278.5q-1 -8 -6 -14.5t-14.5 -10t-18 -6.5t-23 -4.5t-22 -2t-22.5 -1t-19 -0.5q-32 -3 -64 13t-32 38z" />
<glyph unicode="&#xcf;" horiz-adv-x="665" d="M104 1448q0 45 25 63q31 17 49 17q44 0 84 -49q17 -24 17 -56q0 -37 -23 -57q-14 -18 -59 -18q-56 0 -72 28q-21 38 -21 72zM209 35q0 12 3 244.5t3 267.5q0 93 3 333t7 265q4 12 19.5 18.5t31.5 8t48 2.5q96 7 104 -31q4 -21 9 -187.5t5 -285.5t-4.5 -368.5t-7.5 -278.5 q-1 -8 -6 -14.5t-14.5 -10t-18 -6.5t-23 -4.5t-22 -2t-22.5 -1t-19 -0.5q-32 -3 -64 13t-32 38zM358 1456q0 46 25 64q29 16 49 16q44 0 84 -49q16 -22 16 -55q0 -39 -22 -58q-14 -18 -59 -18q-56 0 -72 28q-21 38 -21 72z" />
<glyph unicode="&#xd0;" horiz-adv-x="1335" d="M6 594q0 27 18 47.5t42 20.5h100q4 430 8 485q-1 42 44 50.5t263 6.5q65 -1 119 -5t128.5 -18t132.5 -37t120.5 -66t104.5 -100t71.5 -144t34.5 -195q5 -107 -22.5 -198t-73 -153.5t-108.5 -113t-122.5 -79.5t-123 -50t-100.5 -28.5t-64 -10.5q-90 -14 -324 -14h-16.5 h-18.5t-17 0.5t-17 2t-12.5 4t-9.5 7t-3 10.5l4 537l-68 -2q-39 -2 -64.5 10t-25.5 33zM354 1079q-3 -15 1 -86.5t10.5 -172.5t7.5 -161h168q25 0 44 -15.5t19 -35.5q0 -51 -78 -51q-33 0 -70.5 1.5t-58.5 0.5h-26q-2 -46 -8 -178t-7 -169.5t0 -84.5q9 -23 43 -23 q78 2 140.5 8.5t127.5 22.5t113 41.5t91.5 67t70 96.5t40 133t9.5 174q-4 83 -20.5 151.5t-42.5 115t-60 83.5t-71.5 57t-78.5 35.5t-80 18.5t-76 6.5t-68 -0.5q-40 -1 -67 -3.5t-41 -4t-21 -5.5t-8.5 -6t-1.5 -7.5t-1 -8.5z" />
<glyph unicode="&#xd1;" horiz-adv-x="1366" d="M158 547q0 23 2 180.5t4.5 281.5t5.5 140q5 15 56 17.5t71 -3.5q17 -5 24.5 -8.5t19.5 -13t26 -27.5q9 -11 289 -419t296 -421q41 -33 41 27q0 12 9.5 370t9.5 402q0 51 22.5 70.5t52.5 19.5q10 -1 25 -0.5t32 -1t31 -4t23.5 -11.5t9.5 -22q0 -44 -7.5 -492.5 t-10.5 -527.5q-1 -42 -11 -70.5t-26.5 -42t-28.5 -18.5t-28 -8q-24 -4 -56.5 9.5t-54.5 37.5q-24 24 -295.5 409.5t-283.5 412.5q-12 29 -25.5 23t-11.5 -36q4 -35 14.5 -381.5t7.5 -392.5q-1 -18 -8 -31.5t-13.5 -20t-24.5 -11.5t-23.5 -5.5l-27.5 -2.5q-6 -1 -9 -1 q-111 -15 -111 31q0 4 -8.5 244t-7.5 297zM428 1401q0 4 4 16q43 113 154 113q39 0 108 -25.5t97 -25.5q44 0 59 24q10 15 13.5 19.5t14 10t25.5 5.5q17 0 27 -8.5t10 -20.5q0 -4 -4 -16q-38 -100 -154 -100q-37 0 -102.5 26.5t-101.5 26.5q-34 0 -60 -37q-12 -20 -22 -27.5 t-31 -7.5q-37 0 -37 27z" />
<glyph unicode="&#xd2;" horiz-adv-x="1357" d="M144 642.5q21 125.5 71 231.5q68 146 205 228t299 82q85 0 155 -15.5t136 -56t111 -105.5t73.5 -170t30.5 -243q2 -137 -24 -244t-68.5 -173t-103 -109.5t-121 -61.5t-130.5 -22q-58 -3 -101 -3.5t-114 6t-124 22.5t-109 51.5t-92 86.5q-71 98 -93 234t-1 261.5z M382.5 544.5q-3.5 -166.5 49.5 -274.5q60 -101 137 -146t201 -44q52 1 99.5 17.5t91.5 55t76 95t51 142.5t18 192q-1 267 -94.5 386.5t-274.5 121.5q-97 2 -177 -59.5t-124 -182.5q-50 -137 -53.5 -303.5zM485 1585q0 14 20.5 24.5t53.5 10.5q64 0 83 -8q29 -14 52 -51 q46 -81 49 -88q29 -50 29 -87q0 -21 -8 -24q-16 -4 -27 -4q-53 0 -82 26q-89 77 -155 170q-15 22 -15 31z" />
<glyph unicode="&#xd3;" horiz-adv-x="1357" d="M144 642.5q21 125.5 71 231.5q68 146 205 228t299 82q85 0 155 -15.5t136 -56t111 -105.5t73.5 -170t30.5 -243q2 -137 -24 -244t-68.5 -173t-103 -109.5t-121 -61.5t-130.5 -22q-58 -3 -101 -3.5t-114 6t-124 22.5t-109 51.5t-92 86.5q-71 98 -93 234t-1 261.5z M382.5 544.5q-3.5 -166.5 49.5 -274.5q60 -101 137 -146t201 -44q52 1 99.5 17.5t91.5 55t76 95t51 142.5t18 192q-1 267 -94.5 386.5t-274.5 121.5q-97 2 -177 -59.5t-124 -182.5q-50 -137 -53.5 -303.5zM655 1374q0 32 27 78q22 45 49 94q5 9 10.5 16.5t11.5 13t10.5 9 t12.5 6t11.5 4t13.5 2t13.5 0.5h16.5h17q27 0 44 -7.5t17 -18.5q0 -10 -10 -27q-35 -47 -80 -100t-63 -68q-31 -24 -72 -24q-10 0 -22 4q-7 4 -7 18z" />
<glyph unicode="&#xd4;" horiz-adv-x="1357" d="M144 642.5q21 125.5 71 231.5q68 146 205 228t299 82q85 0 155 -15.5t136 -56t111 -105.5t73.5 -170t30.5 -243q2 -137 -24 -244t-68.5 -173t-103 -109.5t-121 -61.5t-130.5 -22q-58 -3 -101 -3.5t-114 6t-124 22.5t-109 51.5t-92 86.5q-71 98 -93 234t-1 261.5z M382.5 544.5q-3.5 -166.5 49.5 -274.5q60 -101 137 -146t201 -44q52 1 99.5 17.5t91.5 55t76 95t51 142.5t18 192q-1 267 -94.5 386.5t-274.5 121.5q-97 2 -177 -59.5t-124 -182.5q-50 -137 -53.5 -303.5zM473 1393l4 12q25 34 160 145q29 23 72 23q37 0 63 -21 q22 -16 50.5 -36t45.5 -32t36 -26.5t27.5 -25t14 -22.5t1 -23t-16.5 -23q-4 -4 -19 -4q-12 0 -39 16q-10 8 -60 41t-56 37q-21 14 -41 14q-29 0 -49 -20q-19 -11 -93 -66q-27 -22 -49 -22q-12 0 -16 2q-10 4 -22.5 15t-12.5 16z" />
<glyph unicode="&#xd5;" horiz-adv-x="1357" d="M144 642.5q21 125.5 71 231.5q68 146 205 228t299 82q85 0 155 -15.5t136 -56t111 -105.5t73.5 -170t30.5 -243q2 -137 -24 -244t-68.5 -173t-103 -109.5t-121 -61.5t-130.5 -22q-58 -3 -101 -3.5t-114 6t-124 22.5t-109 51.5t-92 86.5q-71 98 -93 234t-1 261.5z M382.5 544.5q-3.5 -166.5 49.5 -274.5q60 -101 137 -146t201 -44q52 1 99.5 17.5t91.5 55t76 95t51 142.5t18 192q-1 267 -94.5 386.5t-274.5 121.5q-97 2 -177 -59.5t-124 -182.5q-50 -137 -53.5 -303.5zM463 1407q0 4 4 16q43 113 154 113q39 0 107.5 -25.5t96.5 -25.5 q45 0 60 24q10 15 13.5 19.5t14 10t25.5 5.5q17 0 27 -8t10 -20q0 -5 -4 -17q-38 -100 -154 -100q-37 0 -103 26.5t-102 26.5q-33 0 -59 -37q-12 -20 -22 -27.5t-31 -7.5q-37 0 -37 27z" />
<glyph unicode="&#xd6;" horiz-adv-x="1357" d="M144 642.5q21 125.5 71 231.5q68 146 205 228t299 82q85 0 155 -15.5t136 -56t111 -105.5t73.5 -170t30.5 -243q2 -137 -24 -244t-68.5 -173t-103 -109.5t-121 -61.5t-130.5 -22q-58 -3 -101 -3.5t-114 6t-124 22.5t-109 51.5t-92 86.5q-71 98 -93 234t-1 261.5z M382.5 544.5q-3.5 -166.5 49.5 -274.5q60 -101 137 -146t201 -44q52 1 99.5 17.5t91.5 55t76 95t51 142.5t18 192q-1 267 -94.5 386.5t-274.5 121.5q-97 2 -177 -59.5t-124 -182.5q-50 -137 -53.5 -303.5zM489 1477q0 45 25 63q29 16 49 16q44 0 84 -49q17 -24 17 -55 q0 -37 -23 -57q-15 -19 -59 -19q-56 0 -72 29q-21 37 -21 72zM743 1485q0 45 25 63q31 17 49 17q44 0 84 -49q17 -24 17 -56q0 -37 -23 -57q-15 -19 -59 -19q-56 0 -72 29q-21 37 -21 72z" />
<glyph unicode="&#xd7;" horiz-adv-x="866" d="M205 250q-1 16 16 37l144 164q-14 16 -48 52.5t-45 49.5q-53 60 -39 113q10 37 44 39q33 2 69 -35q12 -13 52 -51t63 -60q96 103 143 150q30 30 44 -4q12 -28 1 -49q-1 -2 -2 -3q-51 -70 -127 -153q111 -124 139 -205q12 -36 -21 -52q-38 -20 -88 12q-21 14 -38 34 q-63 71 -94 104q-55 -55 -86 -94q-51 -69 -98 -71q-27 -1 -29 22z" />
<glyph unicode="&#xd8;" horiz-adv-x="1357" d="M144 642.5q21 125.5 71 231.5q68 146 205 228t299 82q68 0 141 -13q17 53 41.5 83t63.5 30q21 0 33 -2t16.5 -7.5t5.5 -9.5t-0.5 -14.5t-1.5 -15.5q0 -13 -12 -49q-1 -3 -23 -58q234 -125 242 -534q2 -137 -24 -244t-68.5 -173t-103 -109.5t-121 -61.5t-130.5 -22 q-117 -8 -219 2l-6 -17q-5 -15 -11 -38.5t-10 -35t-13.5 -24.5t-27.5 -18t-47 -5q-10 0 -21 17t-11 43t12 61l16 41q-135 39 -202 137q-71 98 -93 234t-1 261.5zM382.5 544.5q-3.5 -166.5 49.5 -274.5q35 -56 70 -94q24 60 106 279q24 67 78.5 218t89.5 251q22 58 51 157 q-61 9 -90 9q-97 2 -177 -59.5t-124 -182.5q-50 -137 -53.5 -303.5zM602 106q68 -26 168 -26q52 1 99.5 17.5t91.5 55t76 95t51 142.5t18 192q-3 343 -162 450q-6 -15 -21 -52t-22 -56l-227 -611l-70 -198q0 -1 -1 -4t-1 -5z" />
<glyph unicode="&#xd9;" horiz-adv-x="1175" d="M158.5 527q-0.5 31 0.5 85t1 74q0 191 24 461q4 18 28.5 31t72.5 10q72 0 87 -8q16 -9 17 -33q0 -9 -10 -188t-10 -254q0 -302 37 -461q17 -74 73.5 -108t122.5 -38q174 -15 225 82q30 58 53.5 269t18.5 321q-2 54 -2.5 146.5t-1 162t-2.5 86.5q-2 19 22.5 25.5t51 -1.5 t30.5 -24q7 -24 14 -157.5t7 -233.5q0 -153 -15 -333t-53 -265q-37 -82 -129.5 -126.5t-191.5 -47.5q-51 -3 -101 0t-94 12t-87 35.5t-79 69.5q-27 32 -47 70t-31.5 83t-19 82t-9.5 89.5t-2.5 83.5zM354 1595q0 14 20.5 24.5t53.5 10.5q64 0 83 -8q29 -14 52 -51 q46 -81 49 -88q29 -50 29 -86q0 -22 -8 -25q-16 -4 -27 -4q-52 0 -82 27q-89 77 -155 170q-15 23 -15 30z" />
<glyph unicode="&#xda;" horiz-adv-x="1175" d="M158.5 527q-0.5 31 0.5 85t1 74q0 191 24 461q4 18 28.5 31t72.5 10q72 0 87 -8q16 -9 17 -33q0 -9 -10 -188t-10 -254q0 -302 37 -461q17 -74 73.5 -108t122.5 -38q174 -15 225 82q30 58 53.5 269t18.5 321q-2 54 -2.5 146.5t-1 162t-2.5 86.5q-2 19 22.5 25.5t51 -1.5 t30.5 -24q7 -24 14 -157.5t7 -233.5q0 -153 -15 -333t-53 -265q-37 -82 -129.5 -126.5t-191.5 -47.5q-51 -3 -101 0t-94 12t-87 35.5t-79 69.5q-27 32 -47 70t-31.5 83t-19 82t-9.5 89.5t-2.5 83.5zM524 1384q0 32 27 78q22 45 49 94q5 8 10 15t9 12t10.5 9t10 7t11.5 4.5 t10.5 2.5t12.5 1.5t12.5 0.5h15h15.5q27 0 44 -8t17 -19q0 -10 -10 -27q-35 -47 -80 -100t-63 -68q-31 -24 -72 -24q-11 0 -23 4q-6 3 -6 18z" />
<glyph unicode="&#xdb;" horiz-adv-x="1175" d="M158.5 527q-0.5 31 0.5 85t1 74q0 191 24 461q4 18 28.5 31t72.5 10q72 0 87 -8q16 -9 17 -33q0 -9 -10 -188t-10 -254q0 -302 37 -461q17 -74 73.5 -108t122.5 -38q174 -15 225 82q30 58 53.5 269t18.5 321q-2 54 -2.5 146.5t-1 162t-2.5 86.5q-2 19 22.5 25.5t51 -1.5 t30.5 -24q7 -24 14 -157.5t7 -233.5q0 -153 -15 -333t-53 -265q-37 -82 -129.5 -126.5t-191.5 -47.5q-51 -3 -101 0t-94 12t-87 35.5t-79 69.5q-27 32 -47 70t-31.5 83t-19 82t-9.5 89.5t-2.5 83.5zM342 1403l4 12q26 37 160 146q28 22 72 22q38 0 63 -20q22 -16 50.5 -36 t45.5 -32t36 -27t27.5 -25t14 -22t1 -23.5t-16.5 -23.5q-4 -4 -19 -4q-12 0 -39 16q-10 8 -60 41t-56 37q-23 15 -41 15q-28 0 -49 -21q-24 -14 -93 -65q-29 -23 -49 -23q-12 0 -16 2q-10 4 -22.5 15t-12.5 16z" />
<glyph unicode="&#xdc;" horiz-adv-x="1175" d="M158.5 527q-0.5 31 0.5 85t1 74q0 191 24 461q4 18 28.5 31t72.5 10q72 0 87 -8q16 -9 17 -33q0 -9 -10 -188t-10 -254q0 -302 37 -461q17 -74 73.5 -108t122.5 -38q174 -15 225 82q30 58 53.5 269t18.5 321q-2 54 -2.5 146.5t-1 162t-2.5 86.5q-2 19 22.5 25.5t51 -1.5 t30.5 -24q7 -24 14 -157.5t7 -233.5q0 -153 -15 -333t-53 -265q-37 -82 -129.5 -126.5t-191.5 -47.5q-51 -3 -101 0t-94 12t-87 35.5t-79 69.5q-27 32 -47 70t-31.5 83t-19 82t-9.5 89.5t-2.5 83.5zM358 1487q0 45 25 63q31 17 49 17q44 0 84 -49q16 -22 16 -56 q0 -38 -22 -57q-15 -19 -59 -19q-56 0 -72 29q-21 37 -21 72zM612 1495q0 46 25 64q29 16 49 16q44 0 84 -49q16 -22 16 -56q0 -38 -22 -57q-14 -18 -59 -18q-56 0 -72 28q-21 37 -21 72z" />
<glyph unicode="&#xdd;" horiz-adv-x="1153" d="M96 1116q-11 23 18 39.5t79 30.5q17 2 26 3t21 -6.5t18.5 -13t18.5 -17.5t20 -19q14 -12 74 -103t132 -202.5t101 -151.5q47 48 133.5 174.5t98.5 140.5q16 19 46 58t53.5 66.5t39.5 39.5q31 23 60 19q30 -4 8 -37q-3 -4 -7 -9q-12 -14 -85 -131t-159 -245t-137 -179 q2 -76 -8.5 -309t-9.5 -241q1 -24 -32 -35t-81 -13q-41 -3 -68.5 7t-27.5 32q0 8 4 103t4 143q0 37 13 145.5t16 165.5q-66 77 -209 292t-160 253zM504 1327q0 33 26 78q15 32 50 94q5 9 10.5 16.5t11.5 13t10 9t12 6t11.5 4t13.5 2t13.5 0.5h16.5h17q27 0 44.5 -7.5 t17.5 -18.5q0 -10 -10 -27q-34 -47 -80 -100t-64 -68q-31 -24 -72 -24q-10 0 -22 4q-6 3 -6 18z" />
<glyph unicode="&#xde;" horiz-adv-x="1171" d="M160.5 220.5q-0.5 163.5 3.5 287.5q3 60 9.5 282.5t13 409t10.5 209.5q4 12 6.5 16t16.5 8t42 5q100 3 105 -21q2 -7 -0.5 -73t2.5 -121.5t24 -53.5q149 17 201 17q157 0 246 -28q213 -66 213 -284q0 -67 -29 -119t-76 -82.5t-107 -51t-120.5 -28.5t-117.5 -11 t-97.5 -1.5t-61.5 2.5q-8 1 -10 1q-14 1 -22 1t-11.5 -2.5t-4.5 -6.5t-1 -10v-15q-4 -27 -7 -243t3 -267q4 -21 -6.5 -35.5t-34 -21t-40.5 -8.5t-42 -3q-97 -4 -104 47q-3 37 -3.5 200.5zM374 975.5q0 -76.5 2 -162.5l3 -86q0 -19 8 -26t25 -9q510 -53 510 213 q0 42 -12.5 74.5t-33.5 53.5t-49 36.5t-59 21.5t-63.5 11t-62.5 4t-56 0q-207 0 -207 -35q-5 -19 -5 -95.5z" />
<glyph unicode="&#xdf;" horiz-adv-x="1724" d="M94 213q7 74 35 119q26 40 65 35q29 -4 32 -27q2 -13 -7 -27q-29 -43 -29 -123q0 -54 58 -106t153 -53q94 0 141.5 53t57.5 135q7 64 -28 119t-107 121q-16 15 -54.5 46t-66.5 55.5t-60 57.5t-51 68t-24 70q-12 93 63.5 164.5t194.5 74.5q57 1 104.5 -15t76 -41t44 -51.5 t15.5 -47.5q0 -42 -17 -76.5t-33 -46.5q-21 -16 -45.5 -4.5t-11.5 37.5q20 50 18 94q-2 39 -36.5 64t-116.5 18q-64 -7 -89 -52t-7 -98q13 -36 57.5 -83.5t113 -107.5t76.5 -67q169 -153 156 -301q-8 -106 -121.5 -186t-275.5 -76q-73 1 -128.5 24t-84 53.5t-45 69.5 t-20.5 64.5t-3 46.5zM956 213q7 74 35 119q26 40 65 35q29 -4 32 -27q2 -13 -7 -27q-28 -42 -28 -123q0 -54 58 -106t153 -53q94 0 141 53t57 135q7 64 -28 119t-107 121q-16 15 -54.5 46t-66.5 55.5t-60 57.5t-51 68t-24 70q-12 93 63.5 164.5t194.5 74.5q57 1 104.5 -15 t76 -41t44 -51.5t15.5 -47.5q0 -42 -16.5 -76.5t-32.5 -46.5q-21 -16 -46 -4.5t-12 37.5q21 53 19 94q-2 39 -37 64t-117 18q-64 -7 -89 -52t-7 -98q13 -36 58 -84t113.5 -107t76.5 -67q168 -152 155 -301q-8 -106 -121.5 -186t-275.5 -76q-73 1 -128.5 24t-84 53.5 t-45 69.5t-20.5 64.5t-3 46.5z" />
<glyph unicode="&#xe0;" horiz-adv-x="942" d="M70 55q10 33 138 415t138 417q6 17 12.5 27t21 25.5t41.5 23.5t64 8q28 0 48 -3t31 -7.5t18.5 -12.5t10 -14t6 -17t5.5 -16q15 -35 136 -437t132 -433q12 -33 -33 -48q-46 -15 -87 4q-21 9 -27 27q-5 26 -125 355q-7 13 -10.5 17t-12 1.5t-12.5 -2.5q-5 0 -50 2t-77 3 t-51 -1q-26 0 -33 -29q0 -1 -15 -51t-31 -104t-31 -106.5t-17 -65.5q-5 -35 -66 -45q-63 -10 -104 15q-31 19 -20 52zM252 1311q0 14 20.5 24.5t53.5 10.5h35.5t27 -3t27.5 -9t21 -17.5t24 -30.5q46 -81 49 -88q29 -50 29 -86q0 -22 -9 -25q-16 -4 -26 -4q-52 0 -82 27 q-91 79 -156 170q-14 21 -14 31zM385 498q-6 -23 25 -23h143q11 0 15.5 8t2.5 17l-59 317q-3 15 -21 15t-22 -17z" />
<glyph unicode="&#xe1;" horiz-adv-x="942" d="M70 55q10 33 138 415t138 417q6 17 12.5 27t21 25.5t41.5 23.5t64 8q28 0 48 -3t31 -7.5t18.5 -12.5t10 -14t6 -17t5.5 -16q15 -35 136 -437t132 -433q12 -33 -33 -48q-46 -15 -87 4q-21 9 -27 27q-5 26 -125 355q-7 13 -10.5 17t-12 1.5t-12.5 -2.5q-5 0 -50 2t-77 3 t-51 -1q-26 0 -33 -29q0 -1 -15 -51t-31 -104t-31 -106.5t-17 -65.5q-5 -35 -66 -45q-63 -10 -104 15q-31 19 -20 52zM385 498q-6 -23 25 -23h143q11 0 15.5 8t2.5 17l-59 317q-3 15 -21 15t-22 -17zM422 1100q0 32 27 78q22 45 49 94q5 9 10.5 16.5t11.5 13t10 9t12 6 t11.5 4t13.5 2t13.5 0.5h16.5h17q27 0 44.5 -8t17.5 -19q0 -9 -10 -26q-34 -47 -80 -100t-64 -68q-32 -25 -71 -25q-11 0 -23 4q-6 3 -6 19z" />
<glyph unicode="&#xe2;" horiz-adv-x="942" d="M70 55q10 33 138 415t138 417q6 17 12.5 27t21 25.5t41.5 23.5t64 8q28 0 48 -3t31 -7.5t18.5 -12.5t10 -14t6 -17t5.5 -16q15 -35 136 -437t132 -433q12 -33 -33 -48q-46 -15 -87 4q-21 9 -27 27q-5 26 -125 355q-7 13 -10.5 17t-12 1.5t-12.5 -2.5q-5 0 -50 2t-77 3 t-51 -1q-26 0 -33 -29q0 -1 -15 -51t-31 -104t-31 -106.5t-17 -65.5q-5 -35 -66 -45q-63 -10 -104 15q-31 19 -20 52zM240 1118l4 12q28 39 159 146q28 22 72 22q39 0 64 -20q22 -16 50.5 -36t45.5 -32t36 -26.5t27.5 -25t13.5 -22.5t0.5 -23t-16.5 -23q-5 -5 -18 -5 q-11 0 -39 17q-10 8 -60 40.5t-57 37.5q-21 14 -41 14q-29 0 -49 -20q-15 -9 -92 -66q-29 -23 -49 -23q-13 0 -17 2q-10 4 -22 15t-12 16zM385 498q-6 -23 25 -23h143q11 0 15.5 8t2.5 17l-59 317q-3 15 -21 15t-22 -17z" />
<glyph unicode="&#xe3;" horiz-adv-x="942" d="M70 55q10 33 138 415t138 417q6 17 12.5 27t21 25.5t41.5 23.5t64 8q28 0 48 -3t31 -7.5t18.5 -12.5t10 -14t6 -17t5.5 -16q15 -35 136 -437t132 -433q12 -33 -33 -48q-46 -15 -87 4q-21 9 -27 27q-5 26 -125 355q-7 13 -10.5 17t-12 1.5t-12.5 -2.5q-5 0 -50 2t-77 3 t-51 -1q-26 0 -33 -29q0 -1 -15 -51t-31 -104t-31 -106.5t-17 -65.5q-5 -35 -66 -45q-63 -10 -104 15q-31 19 -20 52zM229 1133q0 4 4 16q43 113 154 113q39 0 108 -26t97 -26q43 0 59 25q10 14 14 19t14.5 10.5t25.5 5.5q17 0 26.5 -8.5t9.5 -20.5q0 -4 -4 -16 q-38 -101 -153 -101q-37 0 -103 27t-102 27q-34 0 -60 -37q-12 -20 -22 -27.5t-31 -7.5q-37 0 -37 27zM385 498q-6 -23 25 -23h143q11 0 15.5 8t2.5 17l-59 317q-3 15 -21 15t-22 -17z" />
<glyph unicode="&#xe4;" horiz-adv-x="942" d="M70 55q10 33 138 415t138 417q6 17 12.5 27t21 25.5t41.5 23.5t64 8q28 0 48 -3t31 -7.5t18.5 -12.5t10 -14t6 -17t5.5 -16q15 -35 136 -437t132 -433q12 -33 -33 -48q-46 -15 -87 4q-21 9 -27 27q-5 26 -125 355q-7 13 -10.5 17t-12 1.5t-12.5 -2.5q-5 0 -50 2t-77 3 t-51 -1q-26 0 -33 -29q0 -1 -15 -51t-31 -104t-31 -106.5t-17 -65.5q-5 -35 -66 -45q-63 -10 -104 15q-31 19 -20 52zM256 1202q0 46 25 64q29 16 49 16q44 0 84 -49q16 -22 16 -55q0 -39 -22 -58q-14 -18 -60 -18q-56 0 -72 28q-20 36 -20 72zM385 498q-6 -23 25 -23h143 q11 0 15.5 8t2.5 17l-59 317q-3 15 -21 15t-22 -17zM510 1210q0 46 25 64q29 16 49 16q44 0 84 -49q16 -22 16 -55q0 -39 -22 -58q-14 -18 -60 -18q-56 0 -72 29q-20 36 -20 71z" />
<glyph unicode="&#xe5;" horiz-adv-x="942" d="M70 55q10 33 138 415t138 417q6 17 12.5 27t21 25.5t41.5 23.5t64 8q28 0 48 -3t31 -7.5t18.5 -12.5t10 -14t6 -17t5.5 -16q15 -35 136 -437t132 -433q12 -33 -33 -48q-46 -15 -87 4q-21 9 -27 27q-5 26 -125 355q-7 13 -10.5 17t-12 1.5t-12.5 -2.5q-5 0 -50 2t-77 3 t-51 -1q-26 0 -33 -29q0 -1 -15 -51t-31 -104t-31 -106.5t-17 -65.5q-5 -35 -66 -45q-63 -10 -104 15q-31 19 -20 52zM322 1231q0 54 31 102.5t71 59.5q12 4 39 4q32 0 92 -15q83 -42 94 -145q-6 -81 -59 -137q-45 -33 -103 -33q-57 0 -88 25q-77 51 -77 139zM385 498 q-6 -23 25 -23h143q11 0 15.5 8t2.5 17l-59 317q-3 15 -21 15t-22 -17zM399 1235q12 -86 80 -86q37 0 60.5 24t23.5 62q0 31 -24.5 56.5t-55.5 25.5q-32 0 -58 -25.5t-26 -56.5z" />
<glyph unicode="&#xe6;" horiz-adv-x="1398" d="M70 66q21 66 139.5 411.5t136.5 388.5q26 62 84.5 78.5t185.5 16.5q18 0 322.5 -7t323.5 -6q15 1 26 -16t7 -34.5t-27 -18.5q-25 -2 -234 -2.5t-227 0.5q-17 1 -23 -5t-8 -26q-1 -16 2.5 -115t3.5 -104q0 -15 1 -21.5t8 -12t22 -5.5q41 0 214.5 -4.5t201.5 -8.5 q27 -3 17 -36q-9 -29 -30 -39q-5 -2 -10 -2q-13 1 -195 -8t-196 -7q-18 4 -26.5 -5t-6.5 -27q3 -34 -14 -304q-1 -23 13.5 -31t37.5 -3q40 3 97 0t167 -8.5t164 -6.5q64 0 78 -21t-12 -42.5t-60 -22.5q-46 -1 -343 -6.5t-312 -5.5q-13 2 -19.5 3.5t-15 13t-8.5 32.5 q0 118 6 336q-155 -5 -174 -8q-29 0 -33 -17q-1 -2 -15.5 -49.5t-31 -100.5t-31 -103.5t-16.5 -63.5q-5 -35 -66 -44q-63 -11 -104 15q-31 19 -20 52zM385 498q-6 -23 25 -23h153q1 75 -4 342q-15 25 -47.5 18.5t-42.5 -40.5z" />
<glyph unicode="&#xe7;" horiz-adv-x="1054" d="M135 436q0 83 20 162.5t65 152.5t110 124.5t162.5 75t214.5 7.5q70 -9 116 -37t45 -85q-1 -47 -36.5 -80t-67.5 -35q-24 -1 -29 19.5t13 31.5q4 3 15 6.5t17 12.5t11 32q9 44 -10.5 61t-75.5 17q-85 0 -152 -32.5t-106 -79.5t-66 -110.5t-37.5 -115.5t-13.5 -104 q-3 -35 1 -82.5t20.5 -104.5t43 -104t74.5 -78t109 -29q73 2 127.5 10t86.5 22.5t49.5 26t34.5 28.5t23 22q31 21 53.5 8t5.5 -43q-9 -16 -23.5 -33t-47 -43t-72 -44.5t-102.5 -30.5t-135 -9q-7 0 -23 1t-23 1l-18 -26q-18 -30 -18 -37q0 -20 32 -20q65 -2 106.5 -35.5 t41.5 -85.5q0 -71 -58.5 -118.5t-146.5 -47.5q-59 0 -121 20q-31 9 -31 35q0 15 10 26t23 11q8 0 23 -6q57 -10 67 -10q48 0 80.5 23t32.5 58q0 23 -10.5 38t-31.5 21t-37.5 7.5t-41.5 1.5q-37 0 -37 18q0 22 27 60l53 74q-59 8 -104.5 22.5t-92 46.5t-77 80t-49.5 125 t-19 178z" />
<glyph unicode="&#xe8;" d="M139 49q0 165 8 373q2 90 -1.5 292t-2.5 220q6 27 58 27q18 0 322 -7t323 -6q15 1 26 -16t7 -34.5t-27 -18.5q-25 -2 -234 -2.5t-227 0.5q-17 1 -23 -5t-8 -26q-1 -16 3 -114.5t4 -104.5q0 -16 1 -22t7.5 -11.5t21.5 -5.5q41 0 214.5 -4.5t201.5 -8.5q27 -3 18 -36 q-9 -29 -30 -39l-10 -2q-13 1 -195.5 -8t-196.5 -7q-18 4 -26 -5t-6 -27q2 -23 -15 -291q-1 -23 14 -31.5t37 -3.5q41 3 97.5 0.5t166.5 -8t164 -6.5q39 0 60.5 -10t22 -24.5t-8.5 -29t-28 -24.5t-39 -11q-46 -1 -343.5 -6.5t-312.5 -5.5q-13 2 -19.5 3.5t-15 13t-8.5 32.5z M246 1333q0 14 20.5 24.5t52.5 10.5q64 0 83 -8q29 -13 53 -51q46 -81 49 -88q28 -48 28 -86q0 -22 -8 -25q-16 -4 -26 -4q-52 0 -82 27q-91 79 -156 170q-14 21 -14 30z" />
<glyph unicode="&#xe9;" d="M139 49q0 165 8 373q2 90 -1.5 292t-2.5 220q6 27 58 27q18 0 322 -7t323 -6q15 1 26 -16t7 -34.5t-27 -18.5q-25 -2 -234 -2.5t-227 0.5q-17 1 -23 -5t-8 -26q-1 -16 3 -114.5t4 -104.5q0 -16 1 -22t7.5 -11.5t21.5 -5.5q41 0 214.5 -4.5t201.5 -8.5q27 -3 18 -36 q-9 -29 -30 -39l-10 -2q-13 1 -195.5 -8t-196.5 -7q-18 4 -26 -5t-6 -27q2 -23 -15 -291q-1 -23 14 -31.5t37 -3.5q41 3 97.5 0.5t166.5 -8t164 -6.5q39 0 60.5 -10t22 -24.5t-8.5 -29t-28 -24.5t-39 -11q-46 -1 -343.5 -6.5t-312.5 -5.5q-13 2 -19.5 3.5t-15 13t-8.5 32.5z M416 1122q0 33 26 78q15 32 50 94q15 25 31.5 37t29.5 13.5t43 1.5h12q27 0 44.5 -8t17.5 -19q0 -9 -11 -27q-35 -47 -80 -100t-63 -68q-31 -24 -72 -24q-10 0 -22 4q-6 3 -6 18z" />
<glyph unicode="&#xea;" d="M139 49q0 165 8 373q2 90 -1.5 292t-2.5 220q6 27 58 27q18 0 322 -7t323 -6q15 1 26 -16t7 -34.5t-27 -18.5q-25 -2 -234 -2.5t-227 0.5q-17 1 -23 -5t-8 -26q-1 -16 3 -114.5t4 -104.5q0 -16 1 -22t7.5 -11.5t21.5 -5.5q41 0 214.5 -4.5t201.5 -8.5q27 -3 18 -36 q-9 -29 -30 -39l-10 -2q-13 1 -195.5 -8t-196.5 -7q-18 4 -26 -5t-6 -27q2 -23 -15 -291q-1 -23 14 -31.5t37 -3.5q41 3 97.5 0.5t166.5 -8t164 -6.5q39 0 60.5 -10t22 -24.5t-8.5 -29t-28 -24.5t-39 -11q-46 -1 -343.5 -6.5t-312.5 -5.5q-13 2 -19.5 3.5t-15 13t-8.5 32.5z M233 1141q0 1 1 2.5t2 4.5t2 5q26 36 159 145q29 23 72 23q37 0 63 -21q22 -16 50.5 -36t45.5 -32t36 -26.5t27.5 -25t14 -22.5t1 -23t-16.5 -23q-4 -4 -18 -4q-12 0 -39 16q-10 8 -60 40.5t-57 37.5q-22 15 -41 15q-28 0 -49 -21q-15 -9 -92 -66q-27 -22 -49 -22 q-13 0 -17 2q-10 4 -22.5 15t-12.5 16z" />
<glyph unicode="&#xeb;" d="M139 49q0 165 8 373q2 90 -1.5 292t-2.5 220q6 27 58 27q18 0 322 -7t323 -6q15 1 26 -16t7 -34.5t-27 -18.5q-25 -2 -234 -2.5t-227 0.5q-17 1 -23 -5t-8 -26q-1 -16 3 -114.5t4 -104.5q0 -16 1 -22t7.5 -11.5t21.5 -5.5q41 0 214.5 -4.5t201.5 -8.5q27 -3 18 -36 q-9 -29 -30 -39l-10 -2q-13 1 -195.5 -8t-196.5 -7q-18 4 -26 -5t-6 -27q2 -23 -15 -291q-1 -23 14 -31.5t37 -3.5q41 3 97.5 0.5t166.5 -8t164 -6.5q39 0 60.5 -10t22 -24.5t-8.5 -29t-28 -24.5t-39 -11q-46 -1 -343.5 -6.5t-312.5 -5.5q-13 2 -19.5 3.5t-15 13t-8.5 32.5z M250 1225q0 46 24 63q31 17 50 17q43 0 84 -50q16 -22 16 -55q0 -37 -23 -57q-15 -19 -59 -19q-56 0 -72 29q-20 36 -20 72zM504 1233q0 46 24 63q31 17 50 17q44 0 84 -49q16 -22 16 -56q0 -37 -23 -57q-14 -18 -59 -18q-56 0 -72 28q-20 36 -20 72z" />
<glyph unicode="&#xec;" horiz-adv-x="524" d="M49 1331q0 14 20.5 24.5t53.5 10.5q64 0 83 -8q29 -14 52 -51q46 -81 49 -88q29 -50 29 -86q0 -22 -8 -25q-16 -4 -27 -4q-53 0 -82 26q-91 79 -156 170q-14 21 -14 31zM168 35q0 12 3 244.5t3 267.5q0 69 3 208t7 165q2 7 7.5 11.5t16.5 7.5t20 4t26.5 2.5t28.5 2.5 q29 4 54.5 -3t29.5 -27q14 -68 14 -248q0 -119 -4.5 -368.5t-7.5 -278.5q-1 -6 -3.5 -11.5t-7 -9t-9.5 -6.5t-13 -5t-13.5 -3t-15 -1.5t-15 -1t-15 -1t-13.5 -0.5q-32 -3 -64 13t-32 38z" />
<glyph unicode="&#xed;" horiz-adv-x="524" d="M168 35q0 12 3 244.5t3 267.5q0 69 3 208t7 165q2 7 7.5 11.5t16.5 7.5t20 4t26.5 2.5t28.5 2.5q29 4 54.5 -3t29.5 -27q14 -68 14 -248q0 -119 -4.5 -368.5t-7.5 -278.5q-1 -6 -3.5 -11.5t-7 -9t-9.5 -6.5t-13 -5t-13.5 -3t-15 -1.5t-15 -1t-15 -1t-13.5 -0.5 q-32 -3 -64 13t-32 38zM219 1120q0 32 27 78q22 45 49 94q5 9 10.5 16.5t11.5 13t10.5 9t12.5 6t11.5 4t13.5 2t13.5 0.5h16.5h17q27 0 44 -7.5t17 -18.5q0 -10 -10 -27q-34 -47 -80 -100t-64 -68q-31 -24 -71 -24q-11 0 -23 4q-6 3 -6 18z" />
<glyph unicode="&#xee;" horiz-adv-x="524" d="M37 1139l4 12q25 34 160 145q29 23 71 23q38 0 64 -21q22 -16 50.5 -36t45.5 -32t36 -26.5t27.5 -25t14 -22.5t1 -23t-16.5 -23q-4 -4 -19 -4q-12 0 -39 16q-10 8 -60 40.5t-57 37.5q-21 14 -40 14q-30 0 -50 -20q-15 -9 -92 -66q-27 -22 -49 -22q-12 0 -16 2 q-10 4 -22.5 15t-12.5 16zM168 35q0 12 3 244.5t3 267.5q0 69 3 208t7 165q2 7 7.5 11.5t16.5 7.5t20 4t26.5 2.5t28.5 2.5q29 4 54.5 -3t29.5 -27q14 -68 14 -248q0 -119 -4.5 -368.5t-7.5 -278.5q-1 -6 -3.5 -11.5t-7 -9t-9.5 -6.5t-13 -5t-13.5 -3t-15 -1.5t-15 -1 t-15 -1t-13.5 -0.5q-32 -3 -64 13t-32 38z" />
<glyph unicode="&#xef;" horiz-adv-x="524" d="M53 1223q0 45 25 63q31 17 49 17q43 0 84 -50q16 -22 16 -55q0 -38 -22 -57q-15 -19 -60 -19q-55 0 -71 29q-21 37 -21 72zM168 35q0 12 3 244.5t3 267.5q0 69 3 208t7 165q2 7 7.5 11.5t16.5 7.5t20 4t26.5 2.5t28.5 2.5q29 4 54.5 -3t29.5 -27q14 -68 14 -248 q0 -119 -4.5 -368.5t-7.5 -278.5q-1 -6 -3.5 -11.5t-7 -9t-9.5 -6.5t-13 -5t-13.5 -3t-15 -1.5t-15 -1t-15 -1t-13.5 -0.5q-32 -3 -64 13t-32 38zM307 1231q0 45 25 63q31 17 49 17q44 0 84 -49q16 -22 16 -56q0 -38 -22 -57q-15 -19 -60 -19q-55 0 -71 29q-21 37 -21 72z " />
<glyph unicode="&#xf0;" horiz-adv-x="1261" d="M-10 485q0 28 18 48t41 20h90q3 297 8 354q-2 22 10 32.5t48 17.5t102 7t174 -1q68 -1 135 -10.5t140.5 -29t135 -55t111.5 -84t78.5 -120.5t28.5 -160q0 -108 -39 -194.5t-87 -135t-127.5 -87.5t-121 -51.5t-107.5 -28.5l-12 -3q-31 -8 -90.5 -11.5t-108 -3t-105 1.5 t-58.5 1h-18h-22.5t-22.5 0.5t-22.5 2t-17.5 4t-13.5 7t-4.5 10.5q0 219 4 428l-57 -2q-39 -2 -64.5 10t-25.5 33zM352.5 232q0.5 -114 3.5 -126q9 -20 43 -20q254 6 372 107.5t118 316.5q0 83 -25.5 149t-66 107t-93.5 68t-105.5 37t-104.5 8q-34 -2 -59.5 -5t-40 -7.5 t-24 -8.5t-13 -11t-4.5 -10t0 -10.5t1 -9.5q0 -13 4 -118t2 -148h164q25 0 44.5 -15.5t19.5 -35.5q0 -51 -78 -51q-33 0 -70.5 1.5t-58.5 0.5h-25q-4 -105 -3.5 -219z" />
<glyph unicode="&#xf1;" horiz-adv-x="1198" d="M158 272q-1 85 0 127q0 19 2 167t4.5 259t5.5 127q5 15 56 18t71 -3q17 -5 24.5 -8.5t19.5 -13t26 -27.5q11 -14 225.5 -358t230.5 -357q0 42 3 146.5t3 117.5q0 11 6.5 188t6.5 222q0 90 78 90q10 -1 24.5 0t31 -1t31 -4.5t24 -11.5t9.5 -22q0 -47 -8 -396.5t-12 -427.5 q-1 -32 -9 -54.5t-15.5 -32.5t-24 -15.5t-22.5 -5.5h-23q-81 0 -111 22q-23 20 -229.5 339t-220.5 350q0 -103 2 -142q3 -53 9 -263.5t5 -254.5q0 -8 -2.5 -15t-7.5 -12l-9 -9t-12.5 -6.5t-13.5 -4.5t-16 -3.5t-16 -2t-17 -1.5t-15 -1q-110 -15 -110 31q0 11 -1.5 87.5 t-2.5 161.5zM344 1118q0 5 4 17q42 112 154 112q39 0 108 -25.5t97 -25.5q43 0 59 25q17 25 29 30q11 4 24 4q17 0 27 -8t10 -20q0 -5 -4 -17q-38 -100 -154 -100q-37 0 -102.5 26.5t-101.5 26.5q-34 0 -60 -37q-12 -20 -21.5 -27t-31.5 -7q-37 0 -37 26z" />
<glyph unicode="&#xf2;" horiz-adv-x="1148" d="M111.5 311q-20.5 112 0.5 213t68 191q70 133 189 202.5t264 69.5q108 0 181 -21t129 -75.5t83.5 -153.5t30.5 -250q2 -80 -14.5 -150t-44 -119t-65.5 -89t-76 -65t-78.5 -42.5t-70 -25.5t-53.5 -10q-36 -4 -74 -5t-91 5t-100.5 20t-97.5 43t-87 70q-73 80 -93.5 192z M303 1343q0 14 20.5 24.5t53.5 10.5q64 0 83 -8q29 -14 52 -51q46 -81 49 -88q29 -50 29 -86q0 -22 -8 -25q-16 -4 -27 -4q-52 0 -82 27q-91 79 -156 170q-14 21 -14 30zM312 413.5q-1 -144.5 46 -223.5q42 -70 132.5 -100t150.5 -24q35 2 73.5 18t77 50t69 80.5t50 116.5 t19.5 152q0 203 -76.5 320t-185.5 119q-226 3 -310 -234q-45 -130 -46 -274.5z" />
<glyph unicode="&#xf3;" horiz-adv-x="1148" d="M111.5 311q-20.5 112 0.5 213t68 191q70 133 189 202.5t264 69.5q108 0 181 -21t129 -75.5t83.5 -153.5t30.5 -250q2 -80 -14.5 -150t-44 -119t-65.5 -89t-76 -65t-78.5 -42.5t-70 -25.5t-53.5 -10q-36 -4 -74 -5t-91 5t-100.5 20t-97.5 43t-87 70q-73 80 -93.5 192z M312 413.5q-1 -144.5 46 -223.5q42 -70 132.5 -100t150.5 -24q35 2 73.5 18t77 50t69 80.5t50 116.5t19.5 152q0 203 -76.5 320t-185.5 119q-226 3 -310 -234q-45 -130 -46 -274.5zM473 1133q0 31 27 77q25 53 49 95q5 9 10.5 16.5t11.5 13t10.5 9t12.5 6t11.5 4t13.5 2 t13.5 0.5h16.5h17q27 0 44 -8t17 -19q0 -9 -10 -26q-34 -47 -80 -100t-64 -68q-32 -25 -71 -25q-11 0 -23 4q-6 3 -6 19z" />
<glyph unicode="&#xf4;" horiz-adv-x="1148" d="M111.5 311q-20.5 112 0.5 213t68 191q70 133 189 202.5t264 69.5q108 0 181 -21t129 -75.5t83.5 -153.5t30.5 -250q2 -80 -14.5 -150t-44 -119t-65.5 -89t-76 -65t-78.5 -42.5t-70 -25.5t-53.5 -10q-36 -4 -74 -5t-91 5t-100.5 20t-97.5 43t-87 70q-73 80 -93.5 192z M291 1151l4 12q26 37 160 146q28 22 71 22q39 0 64 -20q22 -16 50.5 -36t45.5 -32t36 -27t27.5 -25t14 -22t1 -23.5t-16.5 -23.5q-4 -4 -19 -4q-11 0 -39 17q-10 8 -60 40t-57 37q-23 15 -41 15q-28 0 -49 -21q-21 -11 -92 -65q-29 -23 -49 -23q-12 0 -16 2q-10 4 -22.5 15 t-12.5 16zM312 413.5q-1 -144.5 46 -223.5q42 -70 132.5 -100t150.5 -24q35 2 73.5 18t77 50t69 80.5t50 116.5t19.5 152q0 203 -76.5 320t-185.5 119q-226 3 -310 -234q-45 -130 -46 -274.5z" />
<glyph unicode="&#xf5;" horiz-adv-x="1148" d="M111.5 311q-20.5 112 0.5 213t68 191q70 133 189 202.5t264 69.5q108 0 181 -21t129 -75.5t83.5 -153.5t30.5 -250q2 -80 -14.5 -150t-44 -119t-65.5 -89t-76 -65t-78.5 -42.5t-70 -25.5t-53.5 -10q-36 -4 -74 -5t-91 5t-100.5 20t-97.5 43t-87 70q-73 80 -93.5 192z M281 1165q0 5 4 17q42 112 153 112q39 0 108 -25.5t97 -25.5q43 0 59 25q10 14 14 19t14.5 10.5t25.5 5.5q17 0 27 -8.5t10 -20.5q0 -2 -5 -17q-38 -100 -153 -100q-37 0 -103 26.5t-102 26.5q-33 0 -59 -36q-12 -20 -22.5 -27.5t-31.5 -7.5q-36 0 -36 26zM312 413.5 q-1 -144.5 46 -223.5q42 -70 132.5 -100t150.5 -24q35 2 73.5 18t77 50t69 80.5t50 116.5t19.5 152q0 203 -76.5 320t-185.5 119q-226 3 -310 -234q-45 -130 -46 -274.5z" />
<glyph unicode="&#xf6;" horiz-adv-x="1148" d="M111.5 311q-20.5 112 0.5 213t68 191q70 133 189 202.5t264 69.5q108 0 181 -21t129 -75.5t83.5 -153.5t30.5 -250q2 -80 -14.5 -150t-44 -119t-65.5 -89t-76 -65t-78.5 -42.5t-70 -25.5t-53.5 -10q-36 -4 -74 -5t-91 5t-100.5 20t-97.5 43t-87 70q-73 80 -93.5 192z M307 1235q0 45 25 63q31 17 49 17q44 0 84 -49q16 -22 16 -56q0 -38 -22 -57q-14 -18 -60 -18q-55 0 -71 28q-21 37 -21 72zM312 413.5q-1 -144.5 46 -223.5q42 -70 132.5 -100t150.5 -24q35 2 73.5 18t77 50t69 80.5t50 116.5t19.5 152q0 203 -76.5 320t-185.5 119 q-226 3 -310 -234q-45 -130 -46 -274.5zM561 1243q0 46 25 64q29 16 49 16q44 0 84 -49q16 -22 16 -55q0 -39 -22 -58q-14 -18 -60 -18q-55 0 -71 28q-21 37 -21 72z" />
<glyph unicode="&#xf8;" horiz-adv-x="1148" d="M111.5 311q-20.5 112 0.5 213t68 191q70 133 189 202.5t264 69.5q55 0 104 -6q8 30 23 68q21 59 44.5 90.5t63.5 31.5q21 0 33.5 -2t17 -7.5t5.5 -9t-0.5 -14.5t-1.5 -16q0 -10 -13 -49q-20 -56 -49 -125q96 -44 144.5 -152.5t52.5 -308.5q2 -80 -14.5 -150t-44 -119 t-65.5 -89t-76 -65t-78.5 -42.5t-70 -25.5t-53.5 -10q-85 -9 -153 -2l-45 -127q-5 -15 -11 -38.5t-10 -35t-13.5 -24.5t-27.5 -18t-47 -5q-11 0 -22 17t-11 42t13 62l55 145l2 4q-108 33 -180 113q-73 80 -93.5 192zM312 413.5q-1 -144.5 46 -223.5q19 -35 70 -69 q20 50 84 221q24 67 78.5 218t89.5 251q12 32 35 104q-28 7 -47 7q-226 3 -310 -234q-45 -130 -46 -274.5zM535 76q60 -14 106 -10q35 2 73.5 18t77 50t69 80.5t50 116.5t19.5 152q0 244 -111 365q-5 -10 -14 -37l-227 -610z" />
<glyph unicode="&#xf9;" horiz-adv-x="1105" d="M158 502v20q0 138 24 408q4 18 28 31t73 10q71 -2 84 -7q18 -10 20 -34q0 -11 -10 -162.5t-10 -226.5q0 -102 11 -175.5t44 -140.5q53 -108 156 -114q130 -11 186 96q32 61 53.5 180t18.5 219q-2 53 -3 133t-1.5 135.5t-2.5 73.5q-2 19 21 25.5t48.5 -1.5t29.5 -24 q7 -24 13.5 -132.5t6.5 -205.5q0 -272 -67 -434q-19 -47 -54.5 -82.5t-80 -54t-88 -27.5t-87.5 -10q-85 -2 -152 22t-153 95q-26 21 -45.5 46.5t-31 58.5t-18.5 59t-9.5 70.5t-3 70t-0.5 78.5zM319 1364q0 14 20.5 24.5t53.5 10.5h35.5t27 -3t27.5 -9t21 -17.5t24 -30.5 q15 -26 24 -41.5t11.5 -19t5.5 -9t9 -18.5q28 -48 28 -86q0 -21 -8 -24q-16 -4 -27 -4q-53 0 -82 26q-89 77 -155 170q-15 22 -15 31z" />
<glyph unicode="&#xfa;" horiz-adv-x="1105" d="M158 502v20q0 138 24 408q4 18 28 31t73 10q71 -2 84 -7q18 -10 20 -34q0 -11 -10 -162.5t-10 -226.5q0 -102 11 -175.5t44 -140.5q53 -108 156 -114q130 -11 186 96q32 61 53.5 180t18.5 219q-2 53 -3 133t-1.5 135.5t-2.5 73.5q-2 19 21 25.5t48.5 -1.5t29.5 -24 q7 -24 13.5 -132.5t6.5 -205.5q0 -272 -67 -434q-19 -47 -54.5 -82.5t-80 -54t-88 -27.5t-87.5 -10q-85 -2 -152 22t-153 95q-26 21 -45.5 46.5t-31 58.5t-18.5 59t-9.5 70.5t-3 70t-0.5 78.5zM489 1153q0 31 27 78q22 45 49 94q5 9 10.5 16.5t11.5 13t10.5 9t12.5 6t11.5 4 t13.5 2t13.5 0.5h16.5h17q27 0 44 -7.5t17 -18.5q0 -10 -10 -27q-35 -47 -80 -100t-63 -68q-32 -25 -72 -25q-7 0 -22 5q-7 3 -7 18z" />
<glyph unicode="&#xfb;" horiz-adv-x="1105" d="M158 502v20q0 138 24 408q4 18 28 31t73 10q71 -2 84 -7q18 -10 20 -34q0 -11 -10 -162.5t-10 -226.5q0 -102 11 -175.5t44 -140.5q53 -108 156 -114q130 -11 186 96q32 61 53.5 180t18.5 219q-2 53 -3 133t-1.5 135.5t-2.5 73.5q-2 19 21 25.5t48.5 -1.5t29.5 -24 q7 -24 13.5 -132.5t6.5 -205.5q0 -272 -67 -434q-19 -47 -54.5 -82.5t-80 -54t-88 -27.5t-87.5 -10q-85 -2 -152 22t-153 95q-26 21 -45.5 46.5t-31 58.5t-18.5 59t-9.5 70.5t-3 70t-0.5 78.5zM307 1171q0 1 4 13q25 34 160 145q29 23 72 23q37 0 63 -21q22 -16 50.5 -36 t45.5 -32t36 -26.5t27.5 -25t14 -22.5t1 -23t-16.5 -23q-4 -4 -19 -4q-11 0 -38 16q-10 8 -60 40.5t-57 37.5q-21 14 -41 14q-29 0 -49 -20q-15 -9 -92 -66q-27 -22 -50 -22q-12 0 -16 2q-10 5 -22.5 15t-12.5 15z" />
<glyph unicode="&#xfc;" horiz-adv-x="1105" d="M158 502v20q0 138 24 408q4 18 28 31t73 10q71 -2 84 -7q18 -10 20 -34q0 -11 -10 -162.5t-10 -226.5q0 -102 11 -175.5t44 -140.5q53 -108 156 -114q130 -11 186 96q32 61 53.5 180t18.5 219q-2 53 -3 133t-1.5 135.5t-2.5 73.5q-2 19 21 25.5t48.5 -1.5t29.5 -24 q7 -24 13.5 -132.5t6.5 -205.5q0 -272 -67 -434q-19 -47 -54.5 -82.5t-80 -54t-88 -27.5t-87.5 -10q-85 -2 -152 22t-153 95q-26 21 -45.5 46.5t-31 58.5t-18.5 59t-9.5 70.5t-3 70t-0.5 78.5zM324 1255q0 47 24 64q29 16 49 16q44 0 84 -49q17 -24 17 -55q0 -37 -23 -57 q-15 -19 -59 -19q-56 0 -72 29q-20 36 -20 71zM578 1264q0 46 24 63q29 16 49 16q44 0 84 -49q17 -24 17 -55q0 -37 -23 -57q-15 -19 -59 -19q-56 0 -72 29q-20 36 -20 72z" />
<glyph unicode="&#xfd;" horiz-adv-x="991" d="M69.5 956q5.5 10 23 19t33 14t38.5 12l27 3t21 -6t18.5 -12.5t18.5 -17t21 -18.5q13 -11 56 -86t97.5 -168.5t86.5 -136.5q29 31 209 244q14 17 61 81.5t68 82.5q29 23 59 20t9 -36q-3 -4 -7 -9q-45 -68 -161 -225t-187 -232q2 -75 -1.5 -263.5t-2.5 -198.5 q1 -16 -17.5 -27t-42.5 -15.5t-53 -5.5q-42 -3 -70 7t-28 32q0 8 5 103t5 143q0 35 5.5 84t7.5 109q-63 75 -171 255t-128 226q-6 12 -0.5 22zM432 1130q0 32 27 78q25 53 49 95q5 9 10.5 16.5t11.5 13t10.5 9t12.5 6t11.5 4t13.5 2t13.5 0.5h16.5h17q27 0 44 -8t17 -19 q0 -10 -10 -27q-34 -46 -79.5 -99t-64.5 -68q-32 -25 -71 -25q-11 0 -23 4q-6 3 -6 18z" />
<glyph unicode="&#xfe;" horiz-adv-x="1120" d="M164 31v139q26 805 33 842q4 12 6.5 15.5t16.5 7.5t42 5q27 1 41 1t30.5 -1.5t24.5 -6.5t9 -13q2 -12 1 -32.5t-0.5 -45t2 -45.5t8.5 -34t19 -11q115 16 197 16q31 0 56 -1t70 -6.5t80.5 -16t76 -31t67.5 -49t45.5 -73.5t18.5 -101q0 -50 -19 -91t-47.5 -69t-72.5 -50 t-84 -34.5t-93 -20.5t-87.5 -11t-79.5 -4t-58 -0.5t-33 1.5q-14 1 -21.5 1t-11.5 -2t-4.5 -6t-1 -10t-0.5 -15q-5 -31 -7.5 -102.5t3.5 -127.5q13 -65 -123 -65q-29 -1 -47.5 0.5t-36 13t-20.5 33.5zM374 696q-1 -53 0.5 -107t3 -107t1.5 -58q0 -12 4.5 -18.5t11 -9 t17.5 -3.5q18 -2 122 1.5t154 8.5q76 10 109.5 56t33.5 139q0 57 -20.5 97t-57 61t-77.5 29.5t-90 7.5q-207 0 -207 -31q-4 -13 -5 -66z" />
<glyph unicode="&#xff;" horiz-adv-x="991" d="M69.5 956q5.5 10 23 19t33 14t38.5 12l27 3t21 -6t18.5 -12.5t18.5 -17t21 -18.5q13 -11 56 -86t97.5 -168.5t86.5 -136.5q29 31 209 244q14 17 61 81.5t68 82.5q29 23 59 20t9 -36q-3 -4 -7 -9q-45 -68 -161 -225t-187 -232q2 -75 -1.5 -263.5t-2.5 -198.5 q1 -16 -17.5 -27t-42.5 -15.5t-53 -5.5q-42 -3 -70 7t-28 32q0 8 5 103t5 143q0 35 5.5 84t7.5 109q-63 75 -171 255t-128 226q-6 12 -0.5 22zM266 1233q0 45 25 63q31 17 49 17q44 0 84 -49q16 -22 16 -56q0 -38 -22 -57q-14 -18 -60 -18q-55 0 -71 28q-21 37 -21 72z M520 1241q0 46 25 64q29 16 49 16q44 0 84 -49q16 -22 16 -55q0 -39 -22 -58q-14 -18 -60 -18q-55 0 -71 28q-21 37 -21 72z" />
<glyph unicode="&#x152;" horiz-adv-x="1933" d="M144 642.5q21 125.5 71 231.5q69 149 215 229.5t350 80.5q178 0 256 -109v88q6 27 58 27q17 0 344 -6.5t346 -5.5q15 1 26 -18.5t7 -40t-27 -21.5q-25 -2 -256.5 -2.5t-249.5 0.5q-17 2 -23.5 -4.5t-7.5 -26.5q-1 -16 6 -154t7 -145q0 -39 45 -39q38 0 225 -3.5t215 -6.5 q20 -6 20 -24t-14 -37.5t-28 -18.5q-10 1 -206 -7t-210 -5q-19 3 -34.5 -7.5t-14.5 -25.5t-7.5 -210.5t-11.5 -234.5q-2 -26 2.5 -31.5t28.5 -4.5q26 2 116.5 -1t206.5 -7t170 -5q64 0 78.5 -21t-11.5 -42.5t-60 -22.5q-45 -1 -365 -6.5t-336 -5.5q-13 2 -19.5 3.5t-15 13 t-8.5 32.5v133q-45 -66 -107 -112.5t-107.5 -64t-80.5 -21.5q-56 -6 -102 -7t-106 6t-108 24t-97.5 52.5t-85.5 87.5q-71 98 -93 234t-1 261.5zM383 510.5q-4 -200.5 49 -307.5q56 -94 125.5 -128t171.5 -28q19 1 51.5 18.5t73.5 55t78 88t67 127.5t39 164q0 10 1 30t1 27 v84q-8 246 -74 363t-202 118q-68 1 -120.5 -17.5t-91 -57t-65 -85.5t-51.5 -114q-49 -137 -53 -337.5z" />
<glyph unicode="&#x153;" horiz-adv-x="1789" d="M144.5 311q-20.5 112 0.5 213t68 191q70 133 189 202.5t264 69.5q190 0 284 -74v21q6 27 58 27q18 0 322 -7t323 -6q15 1 26 -16t7 -34.5t-27 -18.5q-25 -2 -234 -2.5t-227 0.5q-17 1 -23.5 -5t-7.5 -26q-1 -16 3 -114.5t4 -104.5q0 -16 1 -22t7.5 -11.5t21.5 -5.5 q41 0 214.5 -4.5t201.5 -8.5q27 -3 17 -36q-9 -29 -30 -39q-5 -2 -10 -2q-13 1 -195 -8t-196 -7q-18 4 -26 -5t-6 -27q2 -23 -15 -291q-1 -23 14 -31.5t37 -3.5q41 3 97.5 0.5t166.5 -8t164 -6.5q39 0 60.5 -10t22 -24.5t-8.5 -29t-28 -24.5t-39 -11q-46 -1 -343.5 -6.5 t-312.5 -5.5q-13 2 -19.5 3.5t-15 13t-8.5 32.5v62q-61 -59 -133 -89t-125 -36q-36 -4 -74 -5t-91 5t-100.5 20t-97.5 43t-87 70q-73 80 -93.5 192zM345 413.5q-1 -144.5 46 -223.5q42 -70 132.5 -100t150.5 -24q38 2 79 22t81 55.5t72 95t46 132.5q0 8 1 25.5t1 25.5 q3 76 0 178q-21 150 -92 235t-162 87q-225 3 -309 -234q-45 -130 -46 -274.5z" />
<glyph unicode="&#x178;" horiz-adv-x="1153" d="M96 1116q-11 23 18 39.5t79 30.5q17 2 26 3t21 -6.5t18.5 -13t18.5 -17.5t20 -19q14 -12 74 -103t132 -202.5t101 -151.5q47 48 133.5 174.5t98.5 140.5q16 19 46 58t53.5 66.5t39.5 39.5q31 23 60 19q30 -4 8 -37q-3 -4 -7 -9q-12 -14 -85 -131t-159 -245t-137 -179 q2 -76 -8.5 -309t-9.5 -241q1 -24 -32 -35t-81 -13q-41 -3 -68.5 7t-27.5 32q0 8 4 103t4 143q0 37 13 145.5t16 165.5q-66 77 -209 292t-160 253zM338 1430q0 46 24 63q29 16 50 16q44 0 84 -49q16 -22 16 -55q0 -37 -23 -57q-15 -19 -59 -19q-56 0 -72 29q-20 36 -20 72z M592 1438q0 46 24 63q31 17 50 17q43 0 84 -50q16 -22 16 -55q0 -37 -23 -57q-15 -19 -59 -19q-56 0 -72 29q-20 36 -20 72z" />
<glyph unicode="&#x2c6;" horiz-adv-x="1228" d="M334 1233l4 12q26 37 160 146q28 22 71 22q39 0 64 -20q22 -16 50.5 -36t45.5 -32t36 -27t27.5 -25t14 -22t1 -23.5t-16.5 -23.5q-4 -4 -19 -4q-11 0 -39 17q-10 8 -60 40t-57 37q-23 15 -41 15q-28 0 -49 -21q-21 -11 -92 -65q-29 -23 -49 -23q-12 0 -16 2 q-10 4 -22.5 15t-12.5 16z" />
<glyph unicode="&#x2dc;" horiz-adv-x="561" d="M25 1321q0 4 4 16q43 113 153 113q39 0 108 -25.5t97 -25.5q44 0 59 24q10 14 14 19t14.5 10.5t25.5 5.5q17 0 27 -8t10 -20q0 -2 -5 -17q-38 -100 -153 -100q-37 0 -103 26.5t-102 26.5q-33 0 -59 -37q-12 -20 -22.5 -27.5t-31.5 -7.5q-36 0 -36 27z" />
<glyph unicode="&#x2000;" horiz-adv-x="815" />
<glyph unicode="&#x2001;" horiz-adv-x="1630" />
<glyph unicode="&#x2002;" horiz-adv-x="815" />
<glyph unicode="&#x2003;" horiz-adv-x="1630" />
<glyph unicode="&#x2004;" horiz-adv-x="543" />
<glyph unicode="&#x2005;" horiz-adv-x="407" />
<glyph unicode="&#x2006;" horiz-adv-x="271" />
<glyph unicode="&#x2007;" horiz-adv-x="271" />
<glyph unicode="&#x2008;" horiz-adv-x="203" />
<glyph unicode="&#x2009;" horiz-adv-x="326" />
<glyph unicode="&#x200a;" horiz-adv-x="90" />
<glyph unicode="&#x2010;" horiz-adv-x="823" d="M127 594q0 28 18 48t41 20q118 0 258 -1.5t218 -1.5q25 0 44 -15.5t19 -35.5q0 -51 -78 -51q-33 0 -70.5 1.5t-58.5 0.5l-301 -8q-39 -2 -64.5 10t-25.5 33z" />
<glyph unicode="&#x2011;" horiz-adv-x="823" d="M127 594q0 28 18 48t41 20q118 0 258 -1.5t218 -1.5q25 0 44 -15.5t19 -35.5q0 -51 -78 -51q-33 0 -70.5 1.5t-58.5 0.5l-301 -8q-39 -2 -64.5 10t-25.5 33z" />
<glyph unicode="&#x2012;" horiz-adv-x="823" d="M127 594q0 28 18 48t41 20q118 0 258 -1.5t218 -1.5q25 0 44 -15.5t19 -35.5q0 -51 -78 -51q-33 0 -70.5 1.5t-58.5 0.5l-301 -8q-39 -2 -64.5 10t-25.5 33z" />
<glyph unicode="&#x2013;" horiz-adv-x="987" d="M82 524q0 35 23.5 51.5t56.5 16.5q234 0 419 -1t240 -1q39 0 61.5 -13.5t22.5 -37.5q0 -25 -18 -37.5t-70 -22.5q-31 -6 -55.5 -7t-49 1t-34.5 2l-485 -8q-111 0 -111 57z" />
<glyph unicode="&#x2014;" horiz-adv-x="1150" d="M82 524q0 35 23.5 51.5t56.5 16.5q272 0 523.5 -1t299.5 -1q39 0 61.5 -13.5t22.5 -37.5q0 -25 -18 -37.5t-70 -22.5q-31 -6 -55.5 -7t-49 1t-34.5 2l-649 -8q-111 0 -111 57z" />
<glyph unicode="&#x2018;" horiz-adv-x="317" d="M68 1012q0 48 10 74t37 61q12 15 33.5 29.5t37.5 19.5q25 6 37 -10q1 -2 1.5 -4t1 -3.5t-0.5 -4t-1.5 -4.5t-2.5 -6t-3 -7t-4 -8.5t-5 -9.5q-14 -30 18 -62q31 -31 31 -61q0 -44 -25.5 -69t-68.5 -25q-45 0 -70.5 24t-25.5 66z" />
<glyph unicode="&#x2019;" horiz-adv-x="317" d="M59 1124q0 44 26 69.5t69 25.5q44 0 70 -24t26 -67q0 -48 -10 -74t-37 -61q-12 -14 -34 -29t-38 -20q-25 -6 -37 10q-1 2 -1.5 5t-0.5 5t2 6.5t3.5 7.5l5 10l6.5 13q14 29 -19 62q-31 31 -31 61z" />
<glyph unicode="&#x201a;" horiz-adv-x="358" d="M80 10q0 44 25.5 69t68.5 25q45 0 70.5 -24t25.5 -66q0 -48 -10 -74t-37 -61q-12 -15 -33.5 -29.5t-37.5 -19.5q-25 -6 -37 10q-1 2 -1.5 4t-1 3.5t0.5 4t1.5 4.5t2.5 6t3 7t4 8.5t5 9.5q14 30 -18 62q-31 31 -31 61z" />
<glyph unicode="&#x201c;" horiz-adv-x="583" d="M68 981q0 48 10 74t37 61q12 15 33.5 29.5t37.5 19.5q25 6 37 -10q1 -2 1.5 -4t1 -3.5t-0.5 -4t-1.5 -4.5t-2.5 -6t-3 -7t-4 -8.5t-5 -9.5q-14 -29 18 -61q31 -31 31 -62q0 -44 -25.5 -69t-68.5 -25q-45 0 -70.5 24t-25.5 66zM334 981q0 48 10 74t37 61q12 14 34 29 t38 20q24 6 36 -10q1 -2 1.5 -4t1 -3.5t-0.5 -4t-1.5 -4.5t-2.5 -6t-3 -7t-4 -8.5t-5 -9.5q-14 -28 19 -61q30 -30 30 -62q0 -44 -25.5 -69t-68.5 -25q-45 0 -70.5 24t-25.5 66z" />
<glyph unicode="&#x201d;" horiz-adv-x="583" d="M59 1098q0 44 26 69t69 25q45 0 70.5 -24t25.5 -66q0 -48 -10 -74t-37 -61q-12 -14 -34 -29t-38 -20q-25 -6 -37 10q-1 2 -1.5 5t-0.5 5t2 6.5t3.5 7.5l5 10l6.5 13q14 28 -19 61q-31 31 -31 62zM326 1098q0 44 25.5 69t68.5 25q45 0 70.5 -24t25.5 -66q0 -48 -10 -74 t-37 -61q-12 -14 -34 -29t-38 -20q-25 -6 -37 10q-1 2 -1.5 5t-0.5 5t2 6.5t3.5 7.5l5 10l6.5 13q14 28 -19 61q-30 30 -30 62z" />
<glyph unicode="&#x201e;" horiz-adv-x="690" d="M86 10q0 44 25.5 69t68.5 25q45 0 70.5 -24t25.5 -66q0 -48 -10 -74t-37 -61q-12 -15 -33.5 -29.5t-37.5 -19.5q-25 -6 -37 10q-1 2 -1.5 4t-1 3.5t0.5 4t1.5 4.5t2.5 6t3 7t4 8.5t5 9.5q14 30 -18 62q-31 31 -31 61zM385 10q0 44 25.5 69t68.5 25q45 0 70.5 -24 t25.5 -66q0 -48 -10 -74t-37 -61q-12 -15 -33.5 -29.5t-37.5 -19.5q-25 -6 -37 10q-1 2 -1.5 4t-1 3.5t0.5 4t1.5 4.5t2.5 6t3 7t4 8.5t5 9.5q14 30 -18 62q-31 31 -31 61z" />
<glyph unicode="&#x2022;" horiz-adv-x="573" d="M170 592q0 29 11 55.5t26 38.5q49 27 74 27q66 0 127 -76q24 -31 24 -82q0 -55 -33 -88q-25 -25 -90 -25q-84 0 -108 41q-31 57 -31 109z" />
<glyph unicode="&#x2026;" horiz-adv-x="780" d="M20 96q0 -34 21 -69q20 -35 76 -35q46 0 65 22q23 23 23 62q0 32 -19 57q-39 49 -84 49q-28 0 -53 -18q-29 -22 -29 -68zM305 92q0 -29 19 -65q20 -35 69 -35q38 0 58 20q32 36 32 78q0 25 -16 41q-46 43 -88 43q-24 0 -45 -14q-29 -22 -29 -68zM573 98q0 -34 21 -69 q22 -37 80 -37q48 0 67 22t19 54q0 24 -15 71q-15 49 -73 49q-43 0 -68 -18q-31 -21 -31 -72z" />
<glyph unicode="&#x202f;" horiz-adv-x="326" />
<glyph unicode="&#x2039;" horiz-adv-x="438" d="M68 535q0 30 10 48.5t35 39.5q109 81 190 125q8 4 19 4q7 0 12 -1.5t8 -2.5t5 -6t3 -8t3 -11.5t3 -13.5q0 -31 -32 -56q-1 -1 -12.5 -11.5t-30.5 -27.5t-35 -32q-41 -34 -41 -56q0 -9 6 -18.5t19 -22t14 -14.5l65 -84q2 -3 12.5 -13.5t17.5 -19.5t7 -14q0 -7 -1.5 -13 t-2.5 -9.5t-5.5 -8.5t-5.5 -6t-9 -7t-9 -7q-8 -6 -22.5 -3t-22.5 11q-7 7 -79.5 78.5t-84.5 87.5l-11 16.5t-10.5 16t-7.5 13t-5.5 13.5t-1.5 13z" />
<glyph unicode="&#x203a;" horiz-adv-x="438" d="M82 709q1 4 3 13.5t3 11.5t3.5 7.5t5.5 6.5t8 2.5t12 1.5q10 0 18 -4q85 -47 191 -125q25 -21 35 -39.5t10 -48.5q0 -8 -3.5 -17t-7 -15t-13 -19.5t-13.5 -20.5q-12 -16 -84.5 -87.5t-79.5 -78.5q-8 -8 -22.5 -11t-22.5 3q-1 1 -9 7t-9 7t-5.5 6t-5.5 8.5t-2.5 9.5 t-1.5 13q0 5 7 14t17.5 19.5t12.5 13.5l66 84q3 3 11 11.5t13 14t9.5 14t4.5 15.5q0 23 -40 56q-16 15 -35 32t-30.5 27.5t-12.5 11.5q-33 26 -33 56z" />
<glyph unicode="&#x205f;" horiz-adv-x="407" />
<glyph unicode="&#x20ac;" horiz-adv-x="1142" d="M-137 498q0 27 23 47t53 20h174v17q0 33 2 49l-54 -2q-52 -2 -84 10t-32 33q0 27 22.5 47t52.5 20h109q25 121 91 214t157 147.5t196.5 79.5t217.5 20q74 -3 135 -38.5t61 -86.5t-34 -91t-81 -30q-31 7 -37 29t15 35q12 8 22 2.5t19.5 4.5t13.5 44q2 12 -8.5 23.5 t-39 19.5t-69.5 8q-70 0 -131 -21.5t-106 -57.5t-81.5 -86t-60 -104t-38.5 -114h268q32 0 57 -15.5t25 -35.5q0 -51 -100 -51q-42 0 -91.5 1.5t-76.5 0.5l-99 -2q0 -4 -1 -12.5t-1 -12.5q0 -5 -1 -21t-1 -26h207q32 0 57 -15.5t25 -35.5q0 -51 -100 -51q-42 0 -91.5 1.5 t-76.5 0.5h-17q5 -59 15.5 -112.5t31.5 -112t50.5 -99.5t75 -67.5t102.5 -24.5q92 3 158.5 22.5t92.5 39t54.5 50t36.5 36.5q24 17 47 16.5t30 -16t-6 -41.5q-12 -21 -46 -52t-86.5 -65.5t-128 -58t-152.5 -23.5q-461 0 -510 502l-139 -2q-52 -2 -84.5 10t-32.5 33z" />
<glyph unicode="&#x2122;" horiz-adv-x="1490" d="M22.5 1162q-4.5 16 10.5 24q248 9 340 16q175 10 264 -2q20 -3 24.5 -10.5t-5.5 -15t-25 -9.5q-62 -5 -207 -12q-16 -444 -16 -528q0 -42 -20 -65t-52 -21q-37 2 -63 15t-27 36q0 238 8 295q3 23 10 264q-186 0 -213 -2q-24 -1 -28.5 15zM700 588q-3 27 2 293.5t7 298.5 q1 8 7.5 13.5t19 7t21 2t25 0t19.5 -0.5q41 0 57 -37q11 -26 84 -143l92 -152q8 -14 20.5 -15t24.5 13q20 25 70 113q12 21 33.5 55.5t44.5 70.5t28 44q37 55 80 47q35 -9 42 -19q8 -11 9 -30q0 -435 3 -524q5 -74 -56 -82q-27 -2 -51 8t-25 35q-2 34 -1 94t2.5 139.5 t1.5 81.5q0 91 -3 143q-8 -5 -90 -129.5t-100 -156.5q-35 -47 -59 -17q-9 11 -85 145.5t-83 145.5q0 -32 3 -91t3 -75q0 -145 2 -233q1 -60 -14.5 -76t-47.5 -12q-5 1 -22 3t-24 3.5t-18 6t-16 12t-6 18.5z" />
<glyph unicode="&#x25fc;" d="M0 0v983h983v-983h-983z" />
</font>
</defs>
</svg>
