<?xml version="1.0" encoding="utf-8"?>
<!-- Generator: Adobe Illustrator 16.0.0, SVG Export Plug-In . SVG Version: 6.00 Build 0)  -->
<!DOCTYPE svg PUBLIC "-//W3C//DTD SVG 1.1//EN" "http://www.w3.org/Graphics/SVG/1.1/DTD/svg11.dtd">
<svg version="1.1" id="Layer_1" xmlns="http://www.w3.org/2000/svg" xmlns:xlink="http://www.w3.org/1999/xlink" x="0px" y="0px"
	 width="400px" height="115.852px" viewBox="0 0 400 115.852" enable-background="new 0 0 400 115.852" xml:space="preserve">
<g>
	<path fill-rule="evenodd" clip-rule="evenodd" fill="#5C6B2F" d="M42.216,93.565l-1.25,1.014l-4.048,1.723
		c-2.244-0.797-3.575-1.662-3.98-2.615c-1.041-2.433-0.75-3.994,0.865-4.683c0.689-0.291,1.541-0.325,2.588-0.142
		c0.892,0.264,1.622,0.27,2.169,0.041l51.864-22.111c41.187-14.204,67.568-21.786,79.144-22.719
		c10.508,1.433,22.489,1.832,35.95,1.203c8.636-0.332,18.752,1.108,30.328,4.304c15.069,4.285,23.78,6.555,26.131,6.818
		c25.063,5.602,44.464,9.393,58.243,11.346c24.118,3.446,48.762,2.439,73.887-3c2.318,0.933,3.446,1.324,3.386,1.196
		c2.183,5.136-4.055,8.264-18.725,9.413c-12.562,0.872-29.132,0.203-49.729-2.034c-9.812-0.933-20.435-2.473-31.882-4.608
		c-6.575-1.183-16.495-3.108-29.753-5.757c-4.095-0.642-13.549-2.764-28.328-6.366c-12.718-2.865-22.895-4.838-30.524-5.899
		c-18.218-2.291-39.923-0.385-65.095,5.71c-11.278,2.737-28.145,7.92-50.593,15.576L42.216,93.565z"/>
	<path fill-rule="evenodd" clip-rule="evenodd" fill="#5C6B2F" d="M384.721,73.292c2.203,8.96,0.547,17.813-4.967,26.537
		c-5.338,5.73-11.251,9.332-17.792,10.812l-0.209,0.088c0.378-11.873,5.196-22.178,14.468-30.949
		C378.612,77.171,381.451,75.009,384.721,73.292z"/>
	<path fill-rule="evenodd" clip-rule="evenodd" fill="#424D2B" d="M361.597,72.319l0.851,2.021
		c-2.507,14.319-10.515,24.368-24.03,30.125c-2.297,0.973-4.642,2.047-7,3.224c1.054-16.259,9.67-28.064,25.834-35.437
		C358.475,71.725,359.928,71.751,361.597,72.319z"/>
	<path fill-rule="evenodd" clip-rule="evenodd" fill="#798B42" d="M318.498,78.658c-3.967,13.508-11.454,24.043-22.456,31.592
		c-0.709,0.946-1.608,1.655-2.683,2.108c-3.142-11.109-0.852-21.665,6.859-31.652c4.176-5.933,9.528-10.38,16.104-13.339
		c0.594-0.088,0.926-0.068,0.986,0.067c0.885,1.689,1.372,3.406,1.473,5.116c0.128,1.061,0.135,2.02,0.014,2.872
		C318.795,76.543,318.7,77.61,318.498,78.658z"/>
	<path fill-rule="evenodd" clip-rule="evenodd" fill="#5C6B2F" d="M294.677,73.59c-2.555,11.46-10.407,20.637-23.577,27.537
		c-0.007-1.669,0.095-3.392,0.318-5.163c1.243-13.941,8.285-23.658,21.117-29.118l3.25,1.487
		C295.42,70.083,295.049,71.826,294.677,73.59z"/>
	<path fill-rule="evenodd" clip-rule="evenodd" fill="#424D2B" d="M240.813,91.653c2.041-15.61,12.887-25.767,32.497-30.504
		C268.559,74.678,257.72,84.841,240.813,91.653z"/>
	<path fill-rule="evenodd" clip-rule="evenodd" fill="#424D2B" d="M215.357,91.95c0.351-9.068,1.615-15.839,3.804-20.286
		c2.196-4.48,8.271-9.542,18.205-15.171C245.293,65.102,237.955,76.928,215.357,91.95z"/>
	<path fill-rule="evenodd" clip-rule="evenodd" fill="#B4B87E" d="M182.083,86.111c3.919-18.604,13.603-29.402,29.031-32.369
		c-0.804,15.435-8.873,25.753-24.206,30.977C185.32,85.199,183.718,85.672,182.083,86.111z"/>
	<path fill-rule="evenodd" clip-rule="evenodd" fill="#798B42" d="M183.165,49.54c0.473-0.358,0.973-0.507,1.5-0.398
		c-3.271,15.92-12.887,27.436-28.841,34.551c-2.439,1.041-5.23,1.433-8.366,1.176c0.527-3.264,1.237-6.433,2.156-9.542
		c1.169-4.007,3.345-7.724,6.5-11.144C163.567,56.203,172.589,51.331,183.165,49.54z"/>
	<path fill-rule="evenodd" clip-rule="evenodd" fill="#424D2B" d="M143.782,52.675l3.703,2.487
		c-0.737,3.514-1.663,6.94-2.798,10.285c-3.757,11.021-10.94,18.556-21.509,22.577c-0.297-1.46-0.433-2.913-0.426-4.352
		C123.441,69.157,130.462,58.831,143.782,52.675z"/>
	<path fill-rule="evenodd" clip-rule="evenodd" fill="#5C6B2F" d="M90.1,98.896c1.487-16.874,8.521-28.543,21.124-34.99l3.311-2.352
		c1.777,16.61-1.683,26.861-10.366,30.747C95.479,96.207,90.802,98.403,90.1,98.896z"/>
	<path fill-rule="evenodd" clip-rule="evenodd" fill="#616B4B" d="M75.125,76.421l2.088-0.168
		c4.906,13.386,0.656,24.543-12.785,33.463C58.535,96.261,62.097,85.166,75.125,76.421z"/>
	<path fill-rule="evenodd" clip-rule="evenodd" fill="#B4B87E" d="M35.431,115.852c-4.298-7.826-0.398-16.84,11.718-27.017
		l5.649-1.926C52.406,96.437,46.608,106.087,35.431,115.852z"/>
	<path fill-rule="evenodd" clip-rule="evenodd" fill="#798B42" d="M391.094,72.252l-2.663-0.061
		c-0.649-0.041-1.271-0.189-1.845-0.405c-15.272-7.71-23.787-20.05-25.591-36.984c17.752,5.677,28.301,17.536,31.679,35.572
		L391.094,72.252z"/>
	<path fill-rule="evenodd" clip-rule="evenodd" fill="#5C6B2F" d="M354.536,72.995l-2.365,1.23
		c-13.38-11.204-18.752-25.848-16.063-43.897l0.081,0.203C351.103,40.769,357.198,54.939,354.536,72.995z"/>
	<path fill-rule="evenodd" clip-rule="evenodd" fill="#616B4B" d="M306.111,33.531c15.029,9.082,23.003,22.522,23.888,40.335
		c-5.068-1.034-9.683-3.054-13.826-6.075c-13.177-9.555-17.961-21.712-14.38-36.498C303.347,31.923,304.78,32.666,306.111,33.531z"
		/>
	<path fill-rule="evenodd" clip-rule="evenodd" fill="#424D2B" d="M286.244,62.467c-4.223-1.5-7.805-12.63-10.758-33.362
		c20.097,8.98,27.462,20.84,22.117,35.585C294.218,64.751,290.44,64.007,286.244,62.467z"/>
	<path fill-rule="evenodd" clip-rule="evenodd" fill="#5C6B2F" d="M265.072,57.473l-1.649,1.196
		c-13.083-10.94-17.502-24.699-13.285-41.261C263.626,28.605,268.606,41.951,265.072,57.473z"/>
	<path fill-rule="evenodd" clip-rule="evenodd" fill="#798B42" d="M225.392,13.812c11.245,8.785,15.137,19.807,11.718,33.085
		l-1.865,2.939c-1.223-1.378-2.419-2.872-3.582-4.46c-7.994-10.15-11.474-21.671-10.427-34.564
		C222.757,11.751,224.149,12.745,225.392,13.812z"/>
	<path fill-rule="evenodd" clip-rule="evenodd" fill="#616B4B" d="M213.127,48.499l-4.264,0.122
		c-1.487-1.264-2.96-2.635-4.393-4.102c-9.859-9.684-13.474-21.712-10.825-36.092c0.926-0.067,1.689,0.007,2.257,0.243
		C210.877,15.691,216.607,28.97,213.127,48.499z"/>
	<path fill-rule="evenodd" clip-rule="evenodd" fill="#5C6B2F" d="M160.621,0c16.725,11.549,23.706,27.179,20.921,46.877
		c-16.38-7.697-23.935-20.381-22.665-37.998C159.067,5.933,159.642,2.974,160.621,0z"/>
	<path fill-rule="evenodd" clip-rule="evenodd" fill="#5C6B2F" d="M149.782,48.195l-3.034,2.98c-2.622-1.277-5.136-2.689-7.542-4.21
		c-8.899-5.879-14.67-13.792-17.306-23.752C136.612,27.983,145.91,36.302,149.782,48.195z"/>
	<path fill-rule="evenodd" clip-rule="evenodd" fill="#798B42" d="M121.644,61.393c-15.157-2.757-27.321-10.271-36.423-22.55
		c17.171,1.352,29.605,7.629,37.241,18.84L121.644,61.393z"/>
	<path fill-rule="evenodd" clip-rule="evenodd" fill="#B4B87E" d="M85.606,74.59c-13.67-0.236-23.78-5.987-30.334-17.238
		c12.508-4.379,22.428-0.933,29.78,10.305c1.007,1.628,1.994,3.209,2.96,4.71L85.606,74.59z"/>
	<path fill-rule="evenodd" clip-rule="evenodd" fill="#B4B87E" d="M51.609,85.26l-2.088,1.838c-2.405-0.406-4.777-1.061-7.082-2.014
		c-7.474-2.555-12.373-8.055-14.698-16.489C39.884,68.217,47.832,73.772,51.609,85.26z"/>
	<path fill-rule="evenodd" clip-rule="evenodd" fill="#616B4B" d="M34.397,90.267l1.5,1.473
		c-7.055,12.4-18.326,16.367-33.814,11.887C8.536,90.43,19.314,85.976,34.397,90.267z"/>
</g>
</svg>
