<?xml version="1.0" encoding="utf-8"?>
<!-- Generator: Adobe Illustrator 16.0.0, SVG Export Plug-In . SVG Version: 6.00 Build 0)  -->
<!DOCTYPE svg PUBLIC "-//W3C//DTD SVG 1.1//EN" "http://www.w3.org/Graphics/SVG/1.1/DTD/svg11.dtd">
<svg version="1.1" id="Layer_1" xmlns="http://www.w3.org/2000/svg" xmlns:xlink="http://www.w3.org/1999/xlink" x="0px" y="0px"
	 width="400px" height="115.852px" viewBox="0 0 400 115.852" enable-background="new 0 0 400 115.852" xml:space="preserve">
<g>
	<path fill-rule="evenodd" clip-rule="evenodd" fill="#5C6B2F" d="M358.867,22.287l1.25-1.014l4.048-1.723
		c2.244,0.797,3.575,1.662,3.98,2.615c1.041,2.433,0.75,3.994-0.865,4.683c-0.689,0.291-1.541,0.325-2.588,0.142
		c-0.892-0.264-1.622-0.27-2.169-0.041L310.659,49.06c-41.187,14.204-67.568,21.786-79.144,22.719
		c-10.508-1.433-22.489-1.832-35.95-1.203c-8.636,0.332-18.752-1.108-30.328-4.304c-15.069-4.285-23.78-6.555-26.131-6.818
		c-25.063-5.602-44.464-9.393-58.243-11.346c-24.118-3.446-48.762-2.439-73.887,3c-2.318-0.933-3.446-1.324-3.386-1.196
		c-2.183-5.136,4.055-8.264,18.725-9.413c12.562-0.872,29.132-0.203,49.729,2.034c9.812,0.933,20.435,2.473,31.882,4.608
		c6.575,1.183,16.495,3.108,29.753,5.757c4.095,0.642,13.549,2.764,28.328,6.366c12.718,2.865,22.895,4.838,30.524,5.899
		c18.218,2.291,39.923,0.385,65.095-5.71c11.278-2.737,28.145-7.92,50.593-15.576L358.867,22.287z"/>
	<path fill-rule="evenodd" clip-rule="evenodd" fill="#5C6B2F" d="M16.362,42.559c-2.203-8.96-0.547-17.813,4.967-26.537
		C26.667,10.292,32.58,6.69,39.121,5.21l0.209-0.088c-0.378,11.873-5.196,22.178-14.468,30.949
		C22.471,38.68,19.632,40.843,16.362,42.559z"/>
	<path fill-rule="evenodd" clip-rule="evenodd" fill="#424D2B" d="M39.486,43.532l-0.851-2.021
		c2.507-14.319,10.515-24.368,24.03-30.125c2.297-0.973,4.642-2.047,7-3.224c-1.054,16.259-9.67,28.064-25.834,35.437
		C42.608,44.127,41.155,44.1,39.486,43.532z"/>
	<path fill-rule="evenodd" clip-rule="evenodd" fill="#798B42" d="M82.585,37.194C86.552,23.686,94.04,13.15,105.041,5.602
		c0.709-0.946,1.608-1.655,2.683-2.108c3.142,11.109,0.852,21.665-6.859,31.652c-4.176,5.933-9.528,10.38-16.104,13.339
		c-0.594,0.088-0.926,0.068-0.986-0.067c-0.885-1.689-1.372-3.406-1.473-5.116c-0.128-1.061-0.135-2.02-0.014-2.872
		C82.288,39.309,82.383,38.241,82.585,37.194z"/>
	<path fill-rule="evenodd" clip-rule="evenodd" fill="#5C6B2F" d="M106.406,42.262c2.555-11.46,10.407-20.637,23.577-27.537
		c0.007,1.669-0.095,3.392-0.318,5.163c-1.243,13.941-8.285,23.658-21.117,29.118l-3.25-1.487
		C105.663,45.769,106.034,44.025,106.406,42.262z"/>
	<path fill-rule="evenodd" clip-rule="evenodd" fill="#424D2B" d="M160.27,24.199c-2.041,15.61-12.887,25.767-32.497,30.504
		C132.524,41.174,143.363,31.011,160.27,24.199z"/>
	<path fill-rule="evenodd" clip-rule="evenodd" fill="#424D2B" d="M185.726,23.902c-0.351,9.068-1.615,15.839-3.804,20.286
		c-2.196,4.48-8.271,9.542-18.205,15.171C155.79,50.75,163.128,38.924,185.726,23.902z"/>
	<path fill-rule="evenodd" clip-rule="evenodd" fill="#B4B87E" d="M219,29.74c-3.919,18.604-13.603,29.402-29.031,32.369
		c0.804-15.435,8.873-25.753,24.206-30.977C215.763,30.652,217.365,30.179,219,29.74z"/>
	<path fill-rule="evenodd" clip-rule="evenodd" fill="#798B42" d="M217.918,66.312c-0.473,0.358-0.973,0.507-1.5,0.398
		c3.271-15.92,12.887-27.436,28.841-34.551c2.439-1.041,5.23-1.433,8.366-1.176c-0.527,3.264-1.237,6.433-2.156,9.542
		c-1.169,4.007-3.345,7.724-6.5,11.144C237.516,59.649,228.494,64.521,217.918,66.312z"/>
	<path fill-rule="evenodd" clip-rule="evenodd" fill="#424D2B" d="M257.301,63.176l-3.703-2.487
		c0.737-3.514,1.663-6.94,2.798-10.285c3.757-11.021,10.94-18.556,21.509-22.577c0.297,1.46,0.433,2.913,0.426,4.352
		C277.642,46.695,270.621,57.021,257.301,63.176z"/>
	<path fill-rule="evenodd" clip-rule="evenodd" fill="#5C6B2F" d="M310.983,16.955c-1.487,16.874-8.521,28.543-21.124,34.99
		l-3.311,2.352c-1.777-16.61,1.683-26.861,10.366-30.747C305.604,19.645,310.281,17.448,310.983,16.955z"/>
	<path fill-rule="evenodd" clip-rule="evenodd" fill="#616B4B" d="M325.958,39.431l-2.088,0.168
		c-4.906-13.386-0.656-24.543,12.785-33.463C342.548,19.59,338.986,30.686,325.958,39.431z"/>
	<path fill-rule="evenodd" clip-rule="evenodd" fill="#B4B87E" d="M365.652,0c4.298,7.826,0.398,16.84-11.718,27.017l-5.649,1.926
		C348.677,19.415,354.475,9.765,365.652,0z"/>
	<path fill-rule="evenodd" clip-rule="evenodd" fill="#798B42" d="M9.989,43.6l2.663,0.061c0.649,0.041,1.271,0.189,1.845,0.405
		c15.272,7.71,23.787,20.05,25.591,36.984C22.335,75.374,11.787,63.514,8.408,45.479L9.989,43.6z"/>
	<path fill-rule="evenodd" clip-rule="evenodd" fill="#5C6B2F" d="M46.547,42.856l2.365-1.23
		c13.38,11.204,18.752,25.848,16.063,43.897l-0.081-0.203C49.98,75.083,43.885,60.913,46.547,42.856z"/>
	<path fill-rule="evenodd" clip-rule="evenodd" fill="#616B4B" d="M94.972,82.32c-15.029-9.082-23.003-22.522-23.888-40.335
		c5.068,1.034,9.683,3.054,13.826,6.075c13.177,9.555,17.961,21.712,14.38,36.498C97.736,83.929,96.303,83.186,94.972,82.32z"/>
	<path fill-rule="evenodd" clip-rule="evenodd" fill="#424D2B" d="M114.839,53.385c4.223,1.5,7.805,12.63,10.758,33.362
		c-20.097-8.98-27.462-20.84-22.117-35.585C106.865,51.101,110.643,51.844,114.839,53.385z"/>
	<path fill-rule="evenodd" clip-rule="evenodd" fill="#5C6B2F" d="M136.011,58.378l1.649-1.196
		c13.083,10.94,17.502,24.699,13.285,41.261C137.457,87.247,132.477,73.9,136.011,58.378z"/>
	<path fill-rule="evenodd" clip-rule="evenodd" fill="#798B42" d="M175.691,102.039c-11.245-8.785-15.137-19.807-11.718-33.085
		l1.865-2.939c1.223,1.378,2.419,2.872,3.582,4.46c7.994,10.15,11.474,21.671,10.427,34.564
		C178.326,104.1,176.934,103.106,175.691,102.039z"/>
	<path fill-rule="evenodd" clip-rule="evenodd" fill="#616B4B" d="M187.956,67.353l4.264-0.122c1.487,1.264,2.96,2.635,4.393,4.102
		c9.859,9.684,13.474,21.712,10.825,36.092c-0.926,0.067-1.689-0.007-2.257-0.243C190.206,100.16,184.476,86.882,187.956,67.353z"/>
	<path fill-rule="evenodd" clip-rule="evenodd" fill="#5C6B2F" d="M240.462,115.852c-16.725-11.549-23.706-27.179-20.921-46.877
		c16.38,7.697,23.935,20.381,22.665,37.998C242.016,109.918,241.441,112.878,240.462,115.852z"/>
	<path fill-rule="evenodd" clip-rule="evenodd" fill="#5C6B2F" d="M251.301,67.657l3.034-2.98c2.622,1.277,5.136,2.689,7.542,4.21
		c8.899,5.879,14.67,13.792,17.306,23.752C264.471,87.868,255.173,79.55,251.301,67.657z"/>
	<path fill-rule="evenodd" clip-rule="evenodd" fill="#798B42" d="M279.439,54.459c15.157,2.757,27.321,10.271,36.423,22.55
		c-17.171-1.352-29.605-7.629-37.241-18.84L279.439,54.459z"/>
	<path fill-rule="evenodd" clip-rule="evenodd" fill="#B4B87E" d="M315.477,41.262c13.67,0.236,23.78,5.987,30.334,17.238
		c-12.508,4.379-22.428,0.933-29.78-10.305c-1.007-1.628-1.994-3.209-2.96-4.71L315.477,41.262z"/>
	<path fill-rule="evenodd" clip-rule="evenodd" fill="#B4B87E" d="M349.474,30.592l2.088-1.838c2.405,0.406,4.777,1.061,7.082,2.014
		c7.474,2.555,12.373,8.055,14.698,16.489C361.199,47.634,353.251,42.08,349.474,30.592z"/>
	<path fill-rule="evenodd" clip-rule="evenodd" fill="#616B4B" d="M366.686,25.584l-1.5-1.473
		c7.055-12.4,18.326-16.367,33.814-11.887C392.547,25.422,381.769,29.875,366.686,25.584z"/>
</g>
</svg>
