<?xml version="1.0" encoding="utf-8"?>
<!-- Generator: Adobe Illustrator 16.0.0, SVG Export Plug-In . SVG Version: 6.00 Build 0)  -->
<!DOCTYPE svg PUBLIC "-//W3C//DTD SVG 1.1//EN" "http://www.w3.org/Graphics/SVG/1.1/DTD/svg11.dtd">
<svg version="1.1" id="Layer_1" xmlns="http://www.w3.org/2000/svg" xmlns:xlink="http://www.w3.org/1999/xlink" x="0px" y="0px"
	 width="217.629px" height="144.982px" viewBox="0 0 217.629 144.982" enable-background="new 0 0 217.629 144.982"
	 xml:space="preserve">
<g>
	<path fill-rule="evenodd" clip-rule="evenodd" fill="#8CB684" d="M161.997,102.876c-0.026,0.107-0.188,0.208-0.481,0.298
		c-0.239,0.074-3.32-0.833-9.244-2.718c-7.091-1.951-13.381-3-18.875-3.147c-6.484-0.166-11.022-0.154-13.618,0.038
		c-3.716,0.272-7.576,1.022-11.583,2.249c-1.324,0.405-3.35,1.177-6.078,2.312c-2.726,1.137-4.164,1.728-4.31,1.772
		c-0.975,0.298-1.811,0.523-2.508,0.676c-0.006-0.018-0.047-0.026-0.126-0.021c-0.103-0.07-0.195-0.243-0.279-0.518
		c-0.09-0.293-0.122-0.466-0.098-0.514l2.811-0.77c1.209-0.51,2.491-1.054,3.843-1.628c2.727-1.137,4.836-1.933,6.323-2.388
		c7.905-2.42,16.609-3.205,26.115-2.357c8.434,0.755,17.806,2.842,28.119,6.258C161.987,102.547,161.983,102.699,161.997,102.876z"
		/>
	<path fill-rule="evenodd" clip-rule="evenodd" fill="#8CB684" d="M152.639,71.518c1.205,0.195,1.458,1.121,0.762,2.783
		c-0.418,0.93-1.192,2.344-2.321,4.237c-0.545,0.91-1.351,2.283-2.418,4.117c-0.962,1.581-1.835,2.834-2.618,3.757
		c-3.715,4.414-7.683,7.97-11.901,10.669c-0.185-0.145-0.334-0.3-0.445-0.467c4.325-3.536,7.835-6.941,10.532-10.219
		C148.088,81.735,150.891,76.775,152.639,71.518z"/>
	<path fill-rule="evenodd" clip-rule="evenodd" fill="#8CB684" d="M165.833,48.724c2.321,0.294,4.361,1.017,6.122,2.167
		c3.169,2.083,3.877,5.084,2.121,8.999c-0.625,1.376-1.466,2.7-2.524,3.969c-0.92,1.066-1.629,1.705-2.126,1.917
		c-1.315,1.288-2.917,2.46-4.803,3.521c-1.714,0.966-3.444,1.718-5.19,2.252c-0.239,0.074-1.131,0.244-2.676,0.518
		c-1.563,0.277-2.455,0.45-2.676,0.519c-0.275,0.083-0.443,0.225-0.502,0.423c-0.085,0.248-0.138,0.375-0.156,0.381
		c-4.38-2.821-6.98-4.649-7.798-5.483c-0.795-0.822-1.575-2.483-2.34-4.983c-1.576-5.146-1.358-9.133,0.652-11.958
		c1.077-1.536,2.562-2.594,4.456-3.173c1.323-0.405,2.394-0.483,3.216-0.23c0.355,0.111,0.942,0.485,1.759,1.119
		c1.511,1.126,3.794,1.231,6.851,0.316C161.949,48.546,163.821,48.455,165.833,48.724z"/>
	<path fill-rule="evenodd" clip-rule="evenodd" fill="#A8BE9C" d="M150.13,62.335c0.11-0.033,0.253-0.027,0.428,0.02
		c0.218,0.054,0.379,0.156,0.484,0.305c0.475,1.945,0.708,3.492,0.697,4.641c-0.015,1.854-0.016,2.869-0.002,3.045l-0.345,0.347
		c-0.207-0.018-0.345-0.045-0.417-0.083c-0.169-0.089-0.297-0.28-0.388-0.575c-0.119-0.386-0.142-1.384-0.072-2.994
		c0.079-1.512-0.112-2.861-0.575-4.045C149.958,62.729,150.022,62.509,150.13,62.335z"/>
	<path fill-rule="evenodd" clip-rule="evenodd" fill="#A8BE9C" d="M151.752,70.885c0.084-0.247,0.547-1.002,1.387-2.264
		c0.706-1.041,1.072-1.947,1.097-2.718l0.606-0.186c0.512,0.688,0.402,1.706-0.331,3.057c-0.618,1.133-1.298,1.965-2.04,2.494
		C152.181,71.235,151.94,71.108,151.752,70.885z"/>
	<path fill-rule="evenodd" clip-rule="evenodd" fill="#A8BE9C" d="M154.192,72.158c-0.006-0.019-0.042-0.006-0.11,0.034
		c-0.085-0.014-0.169-0.159-0.254-0.435c-0.095-0.312,0.753-1.216,2.548-2.71c2.084-1.662,3.396-2.728,3.937-3.195
		c1.612-0.252,1.171,0.707-1.32,2.876c-1.237,1.083-2.663,2.204-4.278,3.361C154.254,72.23,154.079,72.252,154.192,72.158z"/>
	<path fill-rule="evenodd" clip-rule="evenodd" fill="#A8BE9C" d="M149.729,70.478c-0.157-0.051-0.28-0.224-0.371-0.519
		c-0.197-0.644-0.269-1.435-0.215-2.377c0.063-0.782-0.428-2.483-1.47-5.097c0.019-0.267,0.082-0.489,0.19-0.661
		c1.587,0.258,2.546,1.491,2.88,3.701c0.275,1.947,0.067,3.599-0.623,4.956C150.041,70.484,149.911,70.484,149.729,70.478z"/>
	<path fill-rule="evenodd" clip-rule="evenodd" fill="#779469" d="M152.598,71.681c0.829-1.561,1.646-3.49,2.451-5.785
		c1.621-4.618,2.162-9.417,1.623-14.398l0.03-0.1c0.031-0.089,0.186-0.177,0.462-0.262c1.268-0.388,1.698,0.917,1.289,3.918
		c-0.039,0.333-0.549,2.771-1.53,7.313c-0.633,2.726-1.058,4.454-1.277,5.184c-0.721,2.372-1.483,3.921-2.285,4.65
		c-0.08,0.003-0.21,0.003-0.393-0.002C152.812,72.148,152.688,71.976,152.598,71.681z"/>
	<path fill-rule="evenodd" clip-rule="evenodd" fill="#779469" d="M187.591,106.499c0.324,1.85,0.521,2.885,0.588,3.106
		c0.659,2.151,1.332,3.693,2.02,4.628c0.684,0.916,1.061,1.494,1.134,1.733c-1.086,0.392-2.695,0.916-4.827,1.568
		c-4.614,1.413-8.654,1.904-12.121,1.479c-7.14-0.869-11.905-5.2-14.29-12.993c-0.99-3.235-0.605-5.161,1.155-5.781
		c0.521-0.199,1.257-0.294,2.205-0.282c0.913,0.022,1.43,0.004,1.552-0.054c1.367-0.66,2.403-1.147,3.11-1.464
		c1.267-0.59,2.323-1.012,3.168-1.271c2.243-0.687,4.721-0.833,7.436-0.437c4.367,0.613,7.135,2.821,8.3,6.626
		C187.094,103.596,187.284,104.643,187.591,106.499z"/>
	<path fill-rule="evenodd" clip-rule="evenodd" fill="#A5B691" d="M178.997,105.511c-0.083,0.126-0.281,0.238-0.593,0.333
		c-1.011,0.31-5.79-1.545-14.337-5.561c-0.025-0.214-0.03-0.364-0.016-0.448c0.045-0.115,0.215-0.216,0.509-0.306
		c0.24-0.073,2.07,0.592,5.497,1.996c4.448,1.793,7.459,2.962,9.032,3.507C179.065,105.28,179.035,105.44,178.997,105.511z"/>
	<path fill-rule="evenodd" clip-rule="evenodd" fill="#A5B691" d="M174.854,110.398c-0.027,0.108-0.188,0.208-0.481,0.299
		c-0.441,0.134-2.422-1.18-5.94-3.941c-4.325-3.36-6.551-5.082-6.677-5.164c-0.025-0.214-0.03-0.363-0.016-0.446
		c0.045-0.115,0.215-0.217,0.509-0.308c0.129-0.039,2.036,1.298,5.719,4.007c3.958,2.951,6.257,4.649,6.896,5.097
		C174.844,110.069,174.838,110.221,174.854,110.398z"/>
	<path fill-rule="evenodd" clip-rule="evenodd" fill="#A5B691" d="M171.551,114.876c-2.499-2.25-4.209-3.868-5.133-4.851
		c-2.384-2.467-4.221-4.89-5.512-7.268l-0.591-1.929c-0.043-0.208-0.067-0.352-0.07-0.431c0.008-0.104,0.159-0.201,0.453-0.29
		c0.257-0.079,0.398-0.112,0.422-0.099c0.059,0.062,0.122,0.103,0.188,0.124c1.644,3.858,3.51,6.936,5.601,9.231
		c1.178,1.286,2.854,2.885,5.025,4.794C171.908,114.466,171.78,114.705,171.551,114.876z"/>
	<path fill-rule="evenodd" clip-rule="evenodd" fill="#8BB681" d="M180.192,75.144c-1.368,0.258-3.27,0.578-5.706,0.962
		c-2.101,0.362-3.959,0.791-5.577,1.287c-3.491,1.068-8.536,3.436-15.133,7.104c-6.152,3.411-10.414,6.103-12.785,8.075
		l-0.456-0.011c-0.091,0.228-0.208,0.113-0.347-0.346c-0.208-0.68,1.538-2.169,5.236-4.467c2.631-1.651,5.488-3.28,8.576-4.888
		c3.066-1.602,5.444-2.802,7.129-3.599c2.829-1.33,5.283-2.31,7.359-2.946c2.817-0.581,4.941-1.031,6.372-1.347
		c1.454-0.507,2.525-0.844,3.217-1.016c1.249-0.323,2.068-0.041,2.46,0.845L180.192,75.144z"/>
	<path fill-rule="evenodd" clip-rule="evenodd" fill="#688F7A" d="M205.131,82.043c-1.694,2.086-4.148,3.622-7.365,4.606
		c-3.309,1.014-7.541,0.318-12.699-2.082c-4.339-2.029-7.21-3.985-8.61-5.868l-1.014-3.308c1.864-3.305,3.75-5.681,5.658-7.13
		c1.351-1.037,3.277-1.937,5.777-2.702c7.957-2.437,12.446-0.122,13.463,6.944C206.18,75.621,207.776,78.802,205.131,82.043z"/>
	<path fill-rule="evenodd" clip-rule="evenodd" fill="#347465" d="M180.683,73.003c-2.518,1.756-4.125,2.912-4.819,3.466
		c-0.31,0.035-0.479,0.045-0.502,0.032c-0.133-0.039-0.247-0.215-0.343-0.528c-0.169-0.551,2.98-2.872,9.448-6.962
		c0.293-0.089,0.513-0.097,0.656-0.021c0.055,0.046,0.131,0.162,0.229,0.353C184.342,70.315,182.786,71.535,180.683,73.003z"/>
	<path fill-rule="evenodd" clip-rule="evenodd" fill="#347465" d="M176.713,74.611l0.085-0.117c0.069-0.101,0.241-0.194,0.518-0.279
		c0.532-0.163,2.191-0.259,4.977-0.288c2.968-0.024,4.796,0.109,5.49,0.4c-0.021,0.126-0.025,0.279-0.011,0.456
		c-0.028,0.108-0.188,0.208-0.482,0.298c-0.257,0.079-1.752,0.153-4.484,0.227c-2.993,0.071-4.879,0.147-5.659,0.226
		C176.986,75.341,176.842,75.033,176.713,74.611z"/>
	<path fill-rule="evenodd" clip-rule="evenodd" fill="#347465" d="M176.69,75.522l0.086-0.116c0.068-0.102,0.241-0.194,0.517-0.278
		c0.312-0.096,1.901,0.171,4.768,0.801c3.054,0.653,5.207,1.251,6.458,1.792c-0.024,0.248-0.055,0.409-0.093,0.481
		c-0.083,0.125-0.28,0.235-0.592,0.331c-0.845,0.26-2.687-0.041-5.522-0.901c-2.909-0.899-4.638-1.294-5.188-1.186
		C176.963,76.252,176.819,75.944,176.69,75.522z"/>
	<path fill-rule="evenodd" clip-rule="evenodd" fill="#347465" d="M175.49,76.131c0.045-0.115,0.215-0.217,0.509-0.307
		c0.551-0.168,4.695,1.678,12.431,5.542c-0.025,0.25-0.056,0.41-0.094,0.482c-0.082,0.125-0.28,0.235-0.591,0.331
		c-0.294,0.09-2.122-0.626-5.483-2.151c-3.367-1.542-5.619-2.692-6.756-3.449C175.48,76.365,175.476,76.217,175.49,76.131z"/>
	<path fill-rule="evenodd" clip-rule="evenodd" fill="#84AB7B" d="M158.734,89.461c-3.917,0.074-6.199,0.169-6.846,0.287
		c-1.588,0.265-3.641,0.682-6.16,1.251c-1.426,0.337-3.547,0.825-6.365,1.468c-0.186-0.146-0.334-0.301-0.445-0.468
		c0.215-0.347,0.551-0.63,1.007-0.85c0.208-0.104,0.589-0.242,1.14-0.41c1.268-0.388,3.431-0.871,6.493-1.445
		c3.102-0.567,5.011-0.931,5.728-1.09c0.484,0.011,2.664-0.062,6.535-0.223c2.763-0.101,4.764,0,6.003,0.304
		c-0.013,0.224-0.062,0.39-0.149,0.499c-0.119,0.136-0.335,0.252-0.648,0.348C164.586,89.268,162.489,89.377,158.734,89.461z"/>
	<path fill-rule="evenodd" clip-rule="evenodd" fill="#1F4731" d="M171.907,84.224c0.977,0.565,1.671,1.389,2.083,2.468
		c0.403,1.122,0.352,2.173-0.151,3.152c-0.582,1.123-1.69,1.935-3.326,2.435c-1.084,0.333-2.1,0.462-3.047,0.39
		c-1.65-0.137-2.686-0.896-3.108-2.275c-0.664-2.168-0.236-3.887,1.286-5.157c0.658-0.542,1.611-1.006,2.861-1.388
		C169.681,83.487,170.815,83.613,171.907,84.224z"/>
	<path fill-rule="evenodd" clip-rule="evenodd" fill="#84AC7B" d="M158.767,93.312c-0.025,0.108-0.187,0.208-0.482,0.298
		c-0.054,0.017-1.406-0.494-4.056-1.532c-2.739-1.072-4.542-1.806-5.408-2.205c-0.044-0.208-0.068-0.351-0.072-0.429
		c0.009-0.105,0.16-0.2,0.455-0.29c0.882-0.271,2.556,0.141,5.021,1.235c1.955,0.87,3.474,1.691,4.554,2.466
		C158.758,92.983,158.754,93.135,158.767,93.312z"/>
	<path fill-rule="evenodd" clip-rule="evenodd" fill="#1B452E" d="M158.086,97.289c-1.159-0.37-1.875-1.005-2.151-1.904
		c-0.304-0.993,0.008-1.942,0.937-2.851c0.622-0.592,1.155-0.956,1.596-1.091c0.919-0.281,1.787-0.206,2.602,0.229
		c0.731,0.418,1.249,1.024,1.551,1.816c0.328,0.805,0.329,1.568,0.008,2.289c-0.36,0.794-1.064,1.352-2.112,1.672
		C159.875,97.646,159.064,97.593,158.086,97.289z"/>
</g>
<g>
	<path fill-rule="evenodd" clip-rule="evenodd" fill="#8A9692" d="M138.434,108.636c-2.388-2.009-5.488-4.152-9.303-6.434
		c-0.375-0.218-2.005-1.018-4.894-2.398c-2.001-0.939-3.44-1.9-4.317-2.884c0.427-0.329,0.893-0.463,1.399-0.403
		c0.194,0.021,0.621,0.138,1.281,0.346c7.638,2.425,15.966,8.498,24.98,18.217c3.427,3.689,5.906,6.836,7.439,9.44
		c1.542,2.624,1.523,3.686-0.06,3.188c0.561,0.159-0.762-1.822-3.964-5.948C147.304,116.998,143.116,112.625,138.434,108.636z"/>
	<path fill-rule="evenodd" clip-rule="evenodd" fill="#8A9692" d="M161.802,120.592c-0.31,1.294-1.889,1.792-4.738,1.492
		c-1.717-0.182-3.621-0.603-5.709-1.267c-0.53-0.167-0.847-0.28-0.952-0.333c-0.332-0.226-0.477-0.565-0.435-1.015
		c0.672-0.21,2.72-0.146,6.141,0.194c3.282,0.397,4.94,0.603,4.978,0.613c0.294,0.094,0.498,0.178,0.615,0.255L161.802,120.592z"/>
	<path fill-rule="evenodd" clip-rule="evenodd" fill="#8A9692" d="M149.875,132.053c-0.109,0.025-0.3-0.005-0.577-0.093
		c-0.495-0.156-0.63-0.967-0.408-2.429c0.012-0.037,0.617-3.212,1.815-9.527c0.669-0.393,1.013-0.586,1.031-0.58
		c0.714,0.227,0.865,1.403,0.452,3.531c-0.279,1.383-0.982,4.396-2.114,9.039C150.057,131.989,149.99,132.008,149.875,132.053z"/>
	<path fill-rule="evenodd" clip-rule="evenodd" fill="#8A9692" d="M164.063,129.478c-0.206,0.077-0.565,0.034-1.078-0.13
		c-0.917-0.291-2.658-1.126-5.226-2.505c-3.362-1.794-5.46-3.286-6.291-4.477c0.524-0.319,0.798-0.484,0.823-0.496
		c0.14-0.058,0.272-0.064,0.4-0.024c0.861,0.274,2.966,1.334,6.31,3.183c1.066,0.581,2.917,1.613,5.552,3.093
		C164.596,128.881,164.432,129.334,164.063,129.478z"/>
	<path fill-rule="evenodd" clip-rule="evenodd" fill="#8A9692" d="M142.02,111.438l-0.14-0.225c-0.068-0.163-0.06-0.381,0.027-0.656
		c0.122-0.385,1.677-0.83,4.658-1.334c2.919-0.425,4.35-0.646,4.295-0.664c2.198,0.698,1.51,1.437-2.066,2.218
		c-1.781,0.401-3.806,0.717-6.078,0.944C142.26,111.576,142.027,111.483,142.02,111.438z"/>
	<path fill-rule="evenodd" clip-rule="evenodd" fill="#8A9692" d="M158.323,115.163c-0.403-0.127-1.285-0.589-2.646-1.384
		c-1.479-0.874-2.366-1.376-2.666-1.512c-0.587-0.247-1.537-0.498-2.847-0.751c-1.099-0.35-1.82-1.032-2.164-2.049
		c0.224-0.132,0.486-0.291,0.787-0.477c0.127-0.081,0.208-0.115,0.245-0.104c0.587,0.187,2.742,1.022,6.465,2.506
		c0.373,0.16,0.891,0.435,1.553,0.825c0.827,0.506,1.337,0.808,1.526,0.91c0.962,0.526,1.328,1.057,1.098,1.588
		C159.451,115.229,159.001,115.378,158.323,115.163z"/>
	<path fill-rule="evenodd" clip-rule="evenodd" fill="#8A9692" d="M149.389,110.147l-0.142-0.225
		c-0.068-0.164-0.06-0.382,0.027-0.658c0.163-0.512,2.047-1.043,5.649-1.595c3.532-0.451,5.27-0.685,5.215-0.703
		c2.382,0.756,1.467,1.575-2.747,2.456c-2.115,0.437-4.486,0.793-7.114,1.068C149.948,110.387,149.651,110.272,149.389,110.147z"/>
	<path fill-rule="evenodd" clip-rule="evenodd" fill="#8A9692" d="M148.74,110.76l-0.067-0.173
		c-0.043-0.115-0.022-0.309,0.065-0.585c0.099-0.312,0.728-1.02,1.884-2.123c1.362-1.303,2.177-2.123,2.446-2.461
		c1.024-1.449,1.758-2.426,2.202-2.932c0.729-0.835,1.369-1.167,1.917-0.993c0.294,0.094,0.48,0.173,0.56,0.238l0.047,0.044
		c-0.729,1.343-1.896,3.049-3.502,5.121c-2.184,2.815-3.774,4.235-4.771,4.262L148.74,110.76z"/>
	<path fill-rule="evenodd" clip-rule="evenodd" fill="#8A9692" d="M149.81,110.343c-0.091-0.029-0.229-0.042-0.411-0.04
		c-0.135-0.083-0.196-0.304-0.182-0.662c0.076-1.005,0.76-3.542,2.051-7.607c0.198-0.623,0.639-1.694,1.321-3.209
		c0.223-0.131,0.486-0.29,0.787-0.477c0.127-0.081,0.209-0.114,0.245-0.104c0.33,0.105,0.536,0.473,0.618,1.104l-3.316,10.443
		C150.254,110.182,149.884,110.366,149.81,110.343z"/>
	<path fill-rule="evenodd" clip-rule="evenodd" fill="#8A9692" d="M138.355,123.555c-0.108,0.026-0.3-0.004-0.575-0.091
		c-0.513-0.164-0.853-1.35-1.018-3.561c-0.126-2.903-0.24-5.087-0.34-6.55c-0.068-0.929-0.375-2.509-0.916-4.739
		c-0.278-1.095-0.538-2.116-0.783-3.06c0.123-0.386,0.402-0.63,0.837-0.732c0.28-0.054,0.511-0.049,0.694,0.008
		c0.843,0.268,1.492,3.338,1.946,9.208c0.415,5.235,0.533,8.388,0.354,9.46C138.537,123.491,138.471,123.511,138.355,123.555z"/>
	<path fill-rule="evenodd" clip-rule="evenodd" fill="#8A9692" d="M146.398,124.899c-0.108,0.026-0.3-0.004-0.576-0.092
		c-1.282-0.407-2.925-1.232-4.932-2.474c-2.079-1.264-3.37-2.28-3.873-3.044c0.374-0.226,0.832-0.333,1.372-0.321
		c0.323,0.001,0.584,0.034,0.786,0.099c1.539,0.487,3.074,1.214,4.6,2.185c2.104,1.313,3.045,2.51,2.823,3.587
		C146.58,124.835,146.514,124.854,146.398,124.899z"/>
	<path fill-rule="evenodd" clip-rule="evenodd" fill="#8A9692" d="M138.835,131.573c-0.109,0.026-0.301-0.006-0.576-0.092
		c-0.623-0.198-0.938-0.792-0.947-1.783c0.113-1.558,0.166-2.962,0.159-4.214c0.003-0.262-0.044-1.225-0.142-2.89
		c-0.085-1.318-0.093-2.086-0.023-2.306c0.093-0.293,0.191-0.536,0.292-0.726l0.151-0.192c0.037,0.013,0.088,0.008,0.155-0.012
		c0.073-0.036,0.245-0.011,0.521,0.076c0.55,0.174,0.841,1.92,0.878,5.239c0.046,2.777-0.043,5.058-0.267,6.842
		C139.017,131.508,138.95,131.528,138.835,131.573z"/>
	<path fill-rule="evenodd" clip-rule="evenodd" fill="#8A9692" d="M133.289,130.175c-0.148-0.229-0.18-0.481-0.093-0.756
		c0.123-0.385,0.384-0.795,0.785-1.234c0.443-0.443,0.791-0.999,1.042-1.664c0.78-2.073,1.303-3.722,1.57-4.947
		c0.158-0.878,0.302-1.487,0.431-1.83c0.121-0.062,0.41-0.021,0.868,0.125c0.477,0.152,0.719,0.47,0.725,0.956
		c0.046,1.063-0.552,3.132-1.79,6.208c-1.207,2.278-2.262,3.476-3.166,3.592C133.605,130.546,133.479,130.396,133.289,130.175z"/>
	<path fill-rule="evenodd" clip-rule="evenodd" fill="#8A9692" d="M138.411,118.521c1.976,0.628,1.193,1.792-2.349,3.489
		c-1.762,0.852-3.746,1.634-5.948,2.348c-0.458-0.146-0.654-0.229-0.586-0.248l-0.14-0.226c-0.069-0.164-0.061-0.383,0.027-0.657
		c0.088-0.275,1.768-1.123,5.042-2.544C137.483,119.375,138.802,118.653,138.411,118.521z"/>
	<path fill-rule="evenodd" clip-rule="evenodd" fill="#4D625B" d="M159.881,109.396c-0.446-0.626-0.557-1.296-0.33-2.01
		c0.274-0.863,0.82-1.375,1.639-1.538c0.454-0.097,0.864-0.087,1.231,0.028c1.52,0.482,1.993,1.438,1.417,2.87
		c-0.575,1.431-1.522,1.937-2.841,1.518C160.594,110.137,160.223,109.848,159.881,109.396z"/>
	<path fill-rule="evenodd" clip-rule="evenodd" fill="#4D625B" d="M155.539,100.969c0.261-0.824,0.797-1.331,1.602-1.519
		c0.497-0.104,0.921-0.101,1.267,0.01c1.428,0.454,1.938,1.421,1.527,2.905c-0.41,1.482-1.394,1.977-2.951,1.483
		c-0.402-0.128-0.775-0.418-1.116-0.869C155.417,102.373,155.306,101.701,155.539,100.969z"/>
	<path fill-rule="evenodd" clip-rule="evenodd" fill="#4D625B" d="M151.585,100.56c-0.479-0.714-0.602-1.441-0.369-2.173
		c0.273-0.861,0.818-1.374,1.636-1.537c0.456-0.098,0.866-0.088,1.232,0.028c1.558,0.495,2.135,1.534,1.732,3.12
		c-0.383,1.592-1.375,2.136-2.967,1.63C152.391,101.483,151.969,101.126,151.585,100.56z"/>
	<path fill-rule="evenodd" clip-rule="evenodd" fill="#4D625B" d="M157.414,116.69c-0.366-0.561-0.439-1.189-0.219-1.885
		c0.315-0.989,0.94-1.528,1.874-1.613l1.188,0.166c1.504,0.477,1.995,1.438,1.474,2.886c-0.501,1.454-1.477,1.952-2.924,1.493
		C158.202,117.545,157.738,117.196,157.414,116.69z"/>
	<path fill-rule="evenodd" clip-rule="evenodd" fill="#4D625B" d="M164.483,121.959c-0.574,1.43-1.521,1.936-2.841,1.518
		c-0.403-0.129-0.774-0.417-1.114-0.87c-0.454-0.606-0.564-1.276-0.331-2.008c0.262-0.826,0.795-1.333,1.601-1.521
		c0.497-0.103,0.92-0.1,1.267,0.01C164.587,119.572,165.058,120.528,164.483,121.959z"/>
	<path fill-rule="evenodd" clip-rule="evenodd" fill="#4D625B" d="M163.204,128.752c-0.479-0.716-0.601-1.441-0.369-2.174
		c0.274-0.862,0.811-1.378,1.611-1.546c0.473-0.091,0.892-0.079,1.258,0.038c1.557,0.494,2.135,1.534,1.732,3.121
		c-0.385,1.591-1.374,2.135-2.968,1.629C164.011,129.674,163.589,129.318,163.204,128.752z"/>
	<path fill-rule="evenodd" clip-rule="evenodd" fill="#4D625B" d="M153.115,130.994c-0.313-0.603-0.358-1.253-0.138-1.948
		c0.292-0.917,0.839-1.469,1.646-1.657c0.459-0.115,0.881-0.112,1.267,0.01c1.429,0.454,1.924,1.468,1.483,3.042
		c-0.439,1.574-1.438,2.115-2.994,1.621C153.811,131.882,153.389,131.525,153.115,130.994z"/>
	<path fill-rule="evenodd" clip-rule="evenodd" fill="#4D625B" d="M146.312,134.127c-0.465-0.631-0.585-1.305-0.358-2.019
		c0.273-0.862,0.82-1.374,1.638-1.537c0.454-0.098,0.865-0.088,1.232,0.028c1.52,0.482,1.992,1.438,1.417,2.87
		c-0.576,1.431-1.523,1.936-2.842,1.518C147.015,134.865,146.653,134.579,146.312,134.127z"/>
	<path fill-rule="evenodd" clip-rule="evenodd" fill="#4D625B" d="M144.008,125.379c-0.479-0.716-0.602-1.441-0.369-2.173
		c0.272-0.861,0.819-1.373,1.637-1.537c0.455-0.098,0.865-0.088,1.232,0.028c1.557,0.495,2.135,1.535,1.731,3.121
		c-0.384,1.592-1.374,2.136-2.968,1.629C144.814,126.303,144.392,125.947,144.008,125.379z"/>
	<path fill-rule="evenodd" clip-rule="evenodd" fill="#4D625B" d="M136.331,133.076c-0.453-0.608-0.563-1.278-0.33-2.011
		c0.261-0.824,0.796-1.33,1.602-1.518c0.496-0.104,0.919-0.101,1.268,0.009c1.52,0.483,1.993,1.439,1.417,2.871
		c-0.575,1.431-1.522,1.937-2.841,1.518C137.043,133.818,136.671,133.527,136.331,133.076z"/>
	<path fill-rule="evenodd" clip-rule="evenodd" fill="#4D625B" d="M131.123,132.33c-0.453-0.607-0.562-1.277-0.33-2.009
		c0.262-0.825,0.796-1.332,1.601-1.52c0.497-0.104,0.92-0.1,1.267,0.01c1.43,0.454,1.94,1.422,1.529,2.905
		c-0.41,1.482-1.394,1.977-2.951,1.483C131.835,133.071,131.463,132.781,131.123,132.33z"/>
	<path fill-rule="evenodd" clip-rule="evenodd" fill="#4D625B" d="M127.559,125.451c-0.447-0.625-0.557-1.295-0.33-2.01
		c0.274-0.861,0.82-1.374,1.637-1.537c0.455-0.097,0.866-0.088,1.232,0.028c1.52,0.482,1.993,1.439,1.417,2.87
		c-0.574,1.431-1.522,1.937-2.84,1.518C128.271,126.192,127.899,125.902,127.559,125.451z"/>
</g>
<g>
	<g>
		<path fill-rule="evenodd" clip-rule="evenodd" fill="#061917" d="M110.327,41.575c0.179-2.958-0.671-7.49-2.55-13.593
			c-1.995-6.406-3.809-9.869-5.441-10.392c-0.287-0.092-0.429-0.271-0.425-0.532l0.081-0.252c0.37-1.15,1.418-0.339,3.148,2.436
			c1.673,2.706,3.1,5.809,4.279,9.308c0.239,1.24,0.647,3.262,1.23,6.068c0.516,2.52,0.786,4.483,0.81,5.894
			c0.094,2.517,0.284,6.346,0.565,11.487c0.06,1.554,0.427,3.999,1.103,7.337c0.338,1.67,0.655,3.2,0.951,4.59
			c-0.108,0.336-0.365,0.438-0.772,0.307c-0.504-0.16-1.013-1.712-1.526-4.653c-0.376-2.291-0.644-4.598-0.797-6.922
			c-0.213-2.475-0.378-4.354-0.498-5.634C110.285,44.762,110.231,42.946,110.327,41.575z"/>
		<path fill-rule="evenodd" clip-rule="evenodd" fill="#061917" d="M103.302,17.422c-0.198,0.122-0.381,0.156-0.549,0.103
			c-0.215-0.069-0.476-0.577-0.783-1.52c-0.396-1.239-0.606-1.901-0.633-1.99c-0.391-0.76-1.499-1.881-3.324-3.366
			c-3.362-2.717-4.788-4.879-4.271-6.485c1.144-3.575,3.192-2.614,6.141,2.878c1.025,1.917,1.966,4.017,2.822,6.301
			c0.774,2.125,1.107,3.357,1,3.693C103.65,17.203,103.516,17.332,103.302,17.422z"/>
		<path fill-rule="evenodd" clip-rule="evenodd" fill="#061917" d="M102.2,16.158c0.121,0.039,0.353,0.179,0.699,0.421
			c0.449,0.329,0.684,0.592,0.702,0.781c-0.403,0.427-1.167,0.711-2.297,0.852c-1.822,0.236-4.111-0.086-6.87-0.971
			c-2.422-0.775-3.994-1.69-4.717-2.741c-0.396-0.577-0.503-1.153-0.319-1.728c0.146-0.455,0.393-0.773,0.742-0.952
			c0.332-0.133,0.612-0.175,0.835-0.13c0.249,0.053,0.778,0.21,1.594,0.471c0.896,0.261,1.395,0.434,1.5,0.521
			c0.502,0.664,0.845,1.076,1.032,1.242c0.948,0.753,2.43,1.453,4.445,2.099c0.84,0.269,1.498,0.362,1.976,0.275
			C101.767,16.27,101.994,16.223,102.2,16.158z"/>
		<path fill-rule="evenodd" clip-rule="evenodd" fill="#061917" d="M113.209,3.218c-0.007,0.183-0.148,0.706-0.425,1.57
			c-0.507,1.584-1.959,3.724-4.356,6.421c-2.375,2.704-3.85,4.917-4.427,6.636l-0.348-0.031c-0.26-0.507-0.289-1.084-0.08-1.732
			c0.303-0.696,0.487-1.232,0.554-1.607l1.026-3.203c0.522-2.292,1.172-4.32,1.948-6.082c1.504-3.459,3.217-4.88,5.136-4.266
			C112.871,1.92,113.194,2.684,113.209,3.218z"/>
		<path fill-rule="evenodd" clip-rule="evenodd" fill="#061917" d="M112.069,15.073c-1.59,0.918-3.993,2.226-7.208,3.921
			c-0.306-0.284-0.362-0.726-0.17-1.325c0.838-2.615,3.414-5.374,7.73-8.277c1.785-1.199,3.121-1.776,4.006-1.732
			c1.043,0.044,1.279,0.967,0.702,2.765C116.645,11.936,114.958,13.485,112.069,15.073z"/>
		<path fill-rule="evenodd" clip-rule="evenodd" fill="#061917" d="M116.617,17.6c-0.454,1.417-1.667,2.23-3.64,2.445
			c-2.546,0.27-4.667,1.19-6.361,2.765l-0.394-0.007c-0.283-0.356-0.302-0.916-0.056-1.685c0.677-2.11,2.271-3.703,4.784-4.776
			c2.204-0.934,4.105-1.172,5.704-0.712C116.905,16.081,116.892,16.737,116.617,17.6z"/>
		<path fill-rule="evenodd" clip-rule="evenodd" fill="#061917" d="M118.256,19.912c0.332,0.29,0.438,0.736,0.327,1.334
			c-0.015,0.128-0.142,0.564-0.379,1.307c-0.276,0.864-0.936,1.725-1.977,2.581c-1.389,1.197-2.287,2.059-2.694,2.591
			c-1.412,1.847-2.481,3.741-3.207,5.676c-0.069,0.136-0.26,0.155-0.573,0.056c-0.623-0.201-0.441-2.006,0.546-5.42
			c1.198-3.742,3.611-6.527,7.239-8.354L118.256,19.912z"/>
		<path fill-rule="evenodd" clip-rule="evenodd" fill="#061917" d="M106.357,26.218c0.116,0.38,0.421,0.914,0.915,1.602
			c0.431,0.64,0.691,1.147,0.784,1.519c0.093,0.374,0.406,0.963,0.94,1.771c0.494,0.767,0.739,1.164,0.731,1.186
			c-0.077,0.24-0.198,0.374-0.365,0.399c-0.104-0.007-0.396-0.086-0.875-0.241c-0.528-0.169-1.315-0.765-2.363-1.789
			c-1.049-1.102-1.694-1.773-1.937-2.008c-0.202-0.196-1.244-0.822-3.129-1.876c-0.946-0.513-1.262-1.262-0.947-2.247
			c0.376-1.175,1.115-1.746,2.216-1.711C103.642,22.848,104.985,23.979,106.357,26.218z"/>
		<path fill-rule="evenodd" clip-rule="evenodd" fill="#061917" d="M110.995,39.367c-0.145,0.114-0.358,0.124-0.646,0.034
			c-0.241-0.079-0.539-0.387-0.895-0.923c-0.357-0.538-1.244-1.033-2.659-1.487c-1.823-0.583-3.11-0.902-3.859-0.958
			c-0.654,0.055-1.238,0.066-1.756,0.033l-3.24-1.037c-0.433-0.298-0.559-0.734-0.374-1.31c0.699-2.183,3.256-2.198,7.672-0.043
			c1.69,0.833,3.135,1.772,4.334,2.817c1.24,1.085,1.768,1.915,1.582,2.492C111.063,39.271,111.009,39.399,110.995,39.367z"/>
		<path fill-rule="evenodd" clip-rule="evenodd" fill="#061917" d="M120.92,33.896c-0.309,0.96-0.956,1.494-1.942,1.6
			c-1.948,0.223-3.283,0.471-4.006,0.742c-0.903,0.345-1.63,0.959-2.177,1.841c-0.313,0.482-0.75,1.228-1.312,2.238
			c-0.199,0.043-0.39,0.06-0.574,0.056c-0.217-0.309-0.267-0.773-0.147-1.397c0.031-0.096,0.153-0.479,0.37-1.151
			c0.646-2.015,1.538-3.647,2.679-4.895c1.722-1.91,3.845-2.67,6.366-2.286c0.587,1.139,0.91,1.825,0.969,2.056
			C121.186,32.898,121.11,33.298,120.92,33.896z"/>
		<path fill-rule="evenodd" clip-rule="evenodd" fill="#061917" d="M118.693,39.732c-0.563,0.109-1.856,0.344-3.875,0.702
			c-0.58,0.159-1.276,0.596-2.089,1.315c-0.873,0.751-1.509,1.208-1.907,1.373c-0.137-0.23-0.198-0.54-0.178-0.931
			c-0.003-0.238,0.014-0.418,0.053-0.538c0.814-2.543,2.813-4.324,5.995-5.341c1.278-0.438,2.264-0.504,2.962-0.201
			c0.784,0.356,1.004,1.075,0.659,2.155C120.06,39.058,119.52,39.546,118.693,39.732z"/>
		<path fill-rule="evenodd" clip-rule="evenodd" fill="#061917" d="M111.221,42.497c-0.091,0.285-1.11,0.411-3.054,0.37
			c-2.208-0.047-4.198-0.354-5.975-0.922c-2.014-0.646-3.164-1.226-3.449-1.741c-0.032-0.063,0.027-0.334,0.181-0.814
			c0.2-0.625,0.482-1.01,0.847-1.158c0.365-0.147,1.3-0.258,2.806-0.331l4.856,1.556c0.651,0.446,1.55,1.024,2.697,1.736
			C110.966,41.726,111.33,42.16,111.221,42.497z"/>
	</g>
	<g>
		<path fill-rule="evenodd" clip-rule="evenodd" fill="#061917" d="M117.939,59.243c2.051-1.462,4.59-4.45,7.617-8.957
			c3.163-4.745,4.482-7.796,3.954-9.154c-0.093-0.239-0.052-0.428,0.124-0.565l0.211-0.082c0.958-0.372,0.982,0.757,0.076,3.384
			c-0.893,2.552-2.18,5.154-3.859,7.805c-0.693,0.821-1.809,2.174-3.352,4.061c-1.388,1.689-2.541,2.917-3.459,3.687
			c-1.612,1.409-4.042,3.583-7.288,6.52c-0.993,0.87-2.414,2.421-4.257,4.653c-0.92,1.117-1.763,2.146-2.523,3.083
			c-0.28,0.109-0.486-0.005-0.617-0.346c-0.164-0.42,0.591-1.584,2.259-3.498c1.311-1.474,2.691-2.884,4.146-4.229
			c1.521-1.466,2.673-2.58,3.457-3.343C115.812,60.92,116.982,59.915,117.939,59.243z"/>
		<path fill-rule="evenodd" clip-rule="evenodd" fill="#061917" d="M130.137,41.682c-0.186-0.066-0.308-0.169-0.361-0.308
			c-0.071-0.18,0.125-0.624,0.586-1.33c0.605-0.924,0.929-1.419,0.974-1.481c0.292-0.666,0.441-1.999,0.445-3.999
			c-0.003-3.674,0.664-5.771,2-6.292c2.974-1.156,3.435,0.71,1.384,5.598c-0.718,1.701-1.601,3.447-2.653,5.235
			c-0.99,1.647-1.625,2.525-1.905,2.635C130.469,41.794,130.312,41.775,130.137,41.682z"/>
		<path fill-rule="evenodd" clip-rule="evenodd" fill="#061917" d="M130.384,40.276c0.039,0.1,0.07,0.329,0.094,0.687
			c0.024,0.473-0.024,0.767-0.14,0.881c-0.496-0.037-1.094-0.391-1.791-1.062c-1.13-1.077-2.143-2.763-3.035-5.058
			c-0.785-2.015-1.021-3.543-0.713-4.583c0.168-0.57,0.493-0.95,0.972-1.137c0.379-0.146,0.722-0.152,1.027-0.018
			c0.264,0.148,0.442,0.31,0.532,0.482c0.097,0.191,0.278,0.626,0.541,1.305c0.308,0.731,0.46,1.154,0.459,1.27
			c-0.17,0.686-0.259,1.133-0.27,1.345c0.01,1.03,0.34,2.383,0.992,4.06c0.271,0.7,0.562,1.183,0.875,1.452
			C130.077,40.05,130.229,40.175,130.384,40.276z"/>
		<path fill-rule="evenodd" clip-rule="evenodd" fill="#061917" d="M144.821,40.627c-0.124,0.094-0.545,0.28-1.263,0.559
			c-1.318,0.513-3.509,0.697-6.574,0.556c-3.057-0.121-5.308,0.088-6.752,0.626l-0.164-0.247c0.194-0.443,0.562-0.769,1.101-0.979
			c0.622-0.173,1.075-0.338,1.36-0.493l2.665-1.037c1.793-0.881,3.48-1.538,5.06-1.966c3.09-0.857,4.944-0.487,5.565,1.11
			C145.498,39.709,145.167,40.332,144.821,40.627z"/>
		<path fill-rule="evenodd" clip-rule="evenodd" fill="#061917" d="M136.38,46.216c-1.458-0.558-3.608-1.447-6.447-2.664
			c0.023-0.354,0.285-0.629,0.784-0.822c2.177-0.845,5.376-0.62,9.604,0.679c1.749,0.538,2.843,1.111,3.287,1.719
			c0.531,0.714,0.047,1.361-1.45,1.942C140.9,47.561,138.976,47.275,136.38,46.216z"/>
		<path fill-rule="evenodd" clip-rule="evenodd" fill="#061917" d="M137.143,50.573c-1.178,0.456-2.365,0.092-3.562-1.097
			c-1.54-1.539-3.282-2.447-5.228-2.724l-0.207-0.264c0.083-0.379,0.443-0.69,1.083-0.938c1.756-0.682,3.662-0.481,5.715,0.605
			c1.796,0.956,2.97,2.084,3.521,3.386C138.302,49.95,137.861,50.293,137.143,50.573z"/>
		<path fill-rule="evenodd" clip-rule="evenodd" fill="#061917" d="M136.494,52.893c-0.015,0.374-0.251,0.682-0.708,0.929
			c-0.092,0.059-0.447,0.209-1.065,0.449c-0.719,0.279-1.64,0.304-2.763,0.074c-1.532-0.277-2.583-0.409-3.151-0.394
			c-1.977,0.055-3.799,0.362-5.467,0.917c-0.128,0.027-0.242-0.089-0.344-0.349c-0.202-0.518,1.09-1.365,3.873-2.54
			c3.113-1.21,6.244-1.106,9.391,0.314L136.494,52.893z"/>
		<path fill-rule="evenodd" clip-rule="evenodd" fill="#061917" d="M125.961,48.406c-0.189,0.279-0.378,0.767-0.568,1.461
			c-0.194,0.627-0.389,1.07-0.586,1.332c-0.197,0.259-0.418,0.782-0.666,1.568c-0.242,0.737-0.373,1.109-0.393,1.117
			c-0.199,0.077-0.354,0.068-0.459-0.028c-0.051-0.073-0.155-0.308-0.309-0.708c-0.171-0.438-0.199-1.278-0.083-2.518
			c0.168-1.281,0.265-2.067,0.292-2.353c0.021-0.239-0.123-1.262-0.437-3.069c-0.165-0.901,0.161-1.51,0.98-1.829
			c0.978-0.38,1.749-0.196,2.314,0.547C126.734,44.808,126.706,46.301,125.961,48.406z"/>
		<path fill-rule="evenodd" clip-rule="evenodd" fill="#061917" d="M119.755,58.503c-0.151-0.033-0.273-0.17-0.366-0.409
			c-0.078-0.2-0.034-0.562,0.13-1.085c0.164-0.523,0.017-1.374-0.44-2.551c-0.59-1.518-1.067-2.538-1.433-3.062
			c-0.385-0.401-0.706-0.782-0.961-1.143l-1.046-2.695c-0.036-0.446,0.186-0.761,0.665-0.947c1.816-0.706,3.194,0.976,4.132,5.044
			c0.354,1.562,0.507,3.02,0.459,4.371c-0.055,1.4-0.32,2.192-0.799,2.379C119.855,58.499,119.743,58.531,119.755,58.503z"/>
		<path fill-rule="evenodd" clip-rule="evenodd" fill="#061917" d="M128.679,62.133c-0.798,0.311-1.498,0.168-2.095-0.426
			c-1.189-1.169-2.067-1.919-2.634-2.25c-0.709-0.413-1.505-0.564-2.381-0.454c-0.486,0.051-1.213,0.162-2.179,0.331
			c-0.136-0.108-0.25-0.226-0.344-0.348c0.087-0.31,0.369-0.59,0.843-0.846c0.081-0.031,0.4-0.154,0.96-0.373
			c1.676-0.651,3.231-0.934,4.666-0.849c2.183,0.117,3.821,1.112,4.916,2.983c-0.439,0.998-0.718,1.577-0.84,1.739
			C129.482,61.775,129.177,61.94,128.679,62.133z"/>
		<path fill-rule="evenodd" clip-rule="evenodd" fill="#061917" d="M123.633,63.785c-0.374-0.314-1.219-1.041-2.537-2.185
			c-0.413-0.298-1.076-0.524-1.986-0.676c-0.963-0.176-1.607-0.352-1.928-0.525c0.078-0.215,0.252-0.419,0.52-0.615
			c0.157-0.131,0.284-0.215,0.385-0.253c2.115-0.822,4.359-0.454,6.735,1.104c0.972,0.609,1.544,1.227,1.718,1.848
			c0.184,0.71-0.174,1.239-1.072,1.587C124.81,64.327,124.199,64.231,123.633,63.785z"/>
		<path fill-rule="evenodd" clip-rule="evenodd" fill="#061917" d="M117.811,60.327c-0.24,0.093-0.867-0.514-1.88-1.819
			c-1.151-1.483-2.013-2.963-2.587-4.44c-0.652-1.677-0.884-2.747-0.697-3.21c0.025-0.055,0.237-0.161,0.636-0.315
			c0.52-0.203,0.926-0.221,1.218-0.06c0.292,0.162,0.865,0.72,1.719,1.674l1.571,4.042c0.053,0.669,0.152,1.573,0.295,2.712
			C118.182,59.746,118.09,60.218,117.811,60.327z"/>
	</g>
	<g>
		<path fill-rule="evenodd" clip-rule="evenodd" fill="#061917" d="M106.959,64.502c1.894,3.64,2.174,5.372,0.843,5.196
			c-0.967-2.927-1.516-4.487-1.648-4.679c-0.969-1.436-1.685-2.622-2.144-3.56c-0.958-2.041-3.173-4.758-6.649-8.153
			c-3.667-3.547-6.133-5.204-7.396-4.969c-0.227,0.047-0.406-0.01-0.537-0.172l-0.016-0.232c-0.176-0.878,0.825-0.725,3,0.459
			c2.103,1.22,4.187,2.786,6.251,4.692c0.613,0.745,1.625,1.952,3.038,3.621c1.262,1.469,2.171,2.672,2.722,3.607
			C105.039,61.366,105.882,62.761,106.959,64.502z"/>
		<path fill-rule="evenodd" clip-rule="evenodd" fill="#061917" d="M90.82,47.714c-0.087,0.155-0.197,0.244-0.328,0.27
			c-0.17,0.034-0.529-0.21-1.079-0.729c-0.718-0.682-1.101-1.045-1.15-1.096c-0.54-0.364-1.692-0.708-3.453-1.031
			c-3.238-0.583-4.979-1.506-5.224-2.767c-0.544-2.807,1.174-2.915,5.152-0.327c1.386,0.905,2.783,1.963,4.19,3.175
			c1.295,1.136,1.967,1.836,2.018,2.1C90.973,47.441,90.93,47.577,90.82,47.714z"/>
		<path fill-rule="evenodd" clip-rule="evenodd" fill="#061917" d="M89.622,47.274c0.095-0.019,0.301-0.01,0.621,0.025
			c0.42,0.055,0.672,0.143,0.754,0.265c-0.112,0.431-0.519,0.901-1.221,1.408c-1.131,0.825-2.778,1.446-4.943,1.867
			c-1.901,0.367-3.285,0.332-4.15-0.106c-0.476-0.239-0.758-0.585-0.847-1.037c-0.069-0.358-0.021-0.66,0.147-0.908
			c0.174-0.208,0.343-0.34,0.51-0.392c0.184-0.055,0.597-0.144,1.238-0.268c0.692-0.155,1.089-0.221,1.191-0.202
			c0.578,0.26,0.959,0.41,1.142,0.453c0.91,0.156,2.155,0.081,3.736-0.226c0.66-0.129,1.132-0.308,1.421-0.54
			C89.374,47.507,89.509,47.392,89.622,47.274z"/>
		<path fill-rule="evenodd" clip-rule="evenodd" fill="#061917" d="M92.238,34.607c0.062,0.125,0.159,0.525,0.291,1.203
			c0.241,1.243,0.054,3.203-0.559,5.881c-0.596,2.674-0.772,4.691-0.528,6.05l-0.244,0.105c-0.358-0.243-0.588-0.618-0.687-1.126
			c-0.053-0.577-0.125-1.002-0.218-1.277l-0.486-2.512c-0.49-1.723-0.798-3.313-0.925-4.773c-0.261-2.86,0.362-4.437,1.869-4.728
			C91.537,33.864,92.033,34.256,92.238,34.607z"/>
		<path fill-rule="evenodd" clip-rule="evenodd" fill="#061917" d="M95.814,42.939c-0.726,1.194-1.852,2.947-3.377,5.255
			c-0.307-0.078-0.506-0.352-0.599-0.823c-0.397-2.051,0.313-4.835,2.133-8.353c0.752-1.456,1.433-2.33,2.041-2.624
			c0.713-0.353,1.206,0.178,1.481,1.59C97.722,39.171,97.163,40.822,95.814,42.939z"/>
		<path fill-rule="evenodd" clip-rule="evenodd" fill="#061917" d="M99.775,42.962c0.215,1.111-0.297,2.099-1.537,2.964
			c-1.602,1.11-2.68,2.502-3.236,4.171l-0.266,0.14c-0.318-0.134-0.536-0.501-0.653-1.105c-0.321-1.655,0.161-3.302,1.446-4.938
			c1.129-1.431,2.312-2.284,3.548-2.562C99.412,41.842,99.644,42.285,99.775,42.962z"/>
		<path fill-rule="evenodd" clip-rule="evenodd" fill="#061917" d="M101.716,43.907c0.326,0.072,0.562,0.33,0.707,0.77
			c0.036,0.09,0.111,0.428,0.223,1.012c0.132,0.678,0.006,1.493-0.375,2.446c-0.49,1.306-0.774,2.21-0.852,2.714
			c-0.265,1.75-0.288,3.405-0.064,4.963c0.003,0.116-0.118,0.2-0.361,0.247c-0.49,0.094-1.031-1.178-1.619-3.818
			c-0.569-2.937,0.024-5.678,1.776-8.226L101.716,43.907z"/>
		<path fill-rule="evenodd" clip-rule="evenodd" fill="#061917" d="M96.079,52.47c0.216,0.211,0.616,0.456,1.197,0.733
			c0.522,0.271,0.88,0.515,1.079,0.729c0.197,0.217,0.624,0.495,1.276,0.837c0.612,0.333,0.918,0.507,0.922,0.525
			c0.035,0.188,0.004,0.322-0.099,0.399c-0.071,0.033-0.295,0.087-0.672,0.16c-0.415,0.08-1.158-0.03-2.231-0.33
			c-1.104-0.352-1.779-0.563-2.028-0.633c-0.207-0.057-1.132-0.093-2.776-0.106c-0.82,0.003-1.304-0.382-1.454-1.155
			c-0.179-0.921,0.106-1.572,0.853-1.952C93.032,51.214,94.344,51.476,96.079,52.47z"/>
		<path fill-rule="evenodd" clip-rule="evenodd" fill="#061917" d="M103.985,59.552c-0.054,0.128-0.193,0.214-0.419,0.256
			c-0.188,0.038-0.5-0.06-0.935-0.287c-0.435-0.228-1.208-0.235-2.318-0.02c-1.432,0.277-2.407,0.535-2.927,0.772
			c-0.414,0.275-0.802,0.497-1.161,0.664l-2.542,0.493c-0.399-0.041-0.641-0.287-0.729-0.737c-0.332-1.714,1.37-2.66,5.106-2.836
			c1.434-0.063,2.742,0.035,3.925,0.294c1.225,0.27,1.879,0.632,1.968,1.083C103.996,59.463,104.007,59.567,103.985,59.552z"/>
		<path fill-rule="evenodd" clip-rule="evenodd" fill="#061917" d="M108.609,52.269c0.146,0.753-0.09,1.346-0.71,1.777
			c-1.22,0.863-2.021,1.516-2.404,1.96c-0.478,0.561-0.738,1.238-0.779,2.027c-0.034,0.436-0.052,1.093-0.058,1.975
			c-0.118,0.099-0.238,0.181-0.364,0.246c-0.258-0.126-0.462-0.419-0.609-0.879c-0.014-0.077-0.072-0.376-0.175-0.903
			c-0.307-1.582-0.306-2.999-0.002-4.249c0.451-1.904,1.589-3.188,3.414-3.854c0.81,0.544,1.275,0.884,1.398,1.017
			C108.423,51.504,108.518,51.798,108.609,52.269z"/>
		<path fill-rule="evenodd" clip-rule="evenodd" fill="#061917" d="M109.258,56.978c-0.336,0.28-1.112,0.909-2.329,1.887
			c-0.329,0.317-0.634,0.866-0.914,1.643c-0.31,0.821-0.567,1.36-0.771,1.614c-0.176-0.102-0.329-0.289-0.458-0.556
			c-0.09-0.158-0.144-0.284-0.162-0.379c-0.387-1.995,0.298-3.916,2.049-5.759c0.693-0.759,1.328-1.165,1.903-1.219
			c0.655-0.048,1.063,0.352,1.229,1.198C109.923,56.028,109.744,56.551,109.258,56.978z"/>
		<path fill-rule="evenodd" clip-rule="evenodd" fill="#061917" d="M105.28,61.557c0.045,0.226-0.59,0.681-1.903,1.365
			c-1.491,0.776-2.932,1.301-4.324,1.571c-1.582,0.307-2.562,0.339-2.94,0.1c-0.045-0.03-0.104-0.233-0.178-0.611
			c-0.095-0.489-0.047-0.85,0.143-1.082c0.189-0.231,0.773-0.648,1.75-1.247l3.814-0.738c0.597,0.06,1.408,0.117,2.435,0.172
			C104.829,61.137,105.231,61.293,105.28,61.557z"/>
	</g>
</g>
<g>
	<path fill-rule="evenodd" clip-rule="evenodd" fill="#B6BB5B" d="M39.858,61.875c2.228-0.088,3.835-0.218,4.817-0.391
		c-0.141-0.323-0.446-0.758-0.914-1.307c-0.362-0.422-0.532-0.758-0.508-1.006c0.057-0.573,0.463-0.881,1.221-0.922
		c0.367-0.002,0.758,0.047,1.173,0.145c1.511,0.151,3.242,0.728,5.188,1.733c1.783,0.911,3.45,2.022,5,3.334
		c-0.431-0.524-0.738-0.942-0.92-1.25c-0.311-0.553-0.436-1.528-0.374-2.933c0.6-0.404,1.086-0.635,1.459-0.695
		c0.078-0.011,0.422,0.014,1.036,0.074c1.147,0.113,2.566,0.787,4.259,2.016c0.937,0.692,2.291,1.745,4.062,3.156l0.167,0.076
		c-0.166-1.254-0.175-2.123-0.029-2.61c0.289-0.011,0.684,0.009,1.181,0.058c0.727,0.072,2.119,0.635,4.177,1.689
		c2.465,1.249,4.754,2.694,6.871,4.333c6.138,4.705,8.967,9.476,8.486,14.312c-0.03,0.307-0.058,0.488-0.083,0.543
		c-0.03,0.113-0.083,0.261-0.161,0.448c-0.019-0.001-0.111-0.049-0.275-0.143c-0.165-0.095-0.391-0.156-0.678-0.184
		c-1.138,0.582-2.369,1.213-3.692,1.893c-2.703,1.354-5.197,2.168-7.486,2.444c-4.799,0.488-8.327,0.62-10.583,0.396
		c-0.784-0.077-1.365-0.164-1.742-0.259l-0.079-0.646c0.095-0.184,0.331-0.517,0.707-1.001c0.334-0.449,0.533-0.7,0.596-0.752
		c-3.347-0.139-6.595-0.78-9.745-1.923c-3.635-1.326-6.603-3.138-8.904-5.432c0.783-0.502,1.52-0.719,2.208-0.65
		c-2.654-1.654-4.352-2.75-5.09-3.287c-2.282-1.713-3.374-3.069-3.275-4.062c0.047-0.478,0.117-0.693,0.207-0.645
		c0.867,0.045,2.131,0.152,3.794,0.318c-0.385-0.406-2.076-1.568-5.072-3.488c-1.926-1.214-2.502-2.21-1.731-2.982
		C36.087,62.101,37.666,61.967,39.858,61.875z"/>
	<path fill-rule="evenodd" clip-rule="evenodd" fill="#B6BB5B" d="M40.67,117.867c-2.009-0.199-0.615-2.763,4.182-7.696
		c3.939-4.069,9.208-8.809,15.81-14.218c4.703-3.395,8.392-5.925,11.067-7.592c4.012-2.479,7.734-4.359,11.163-5.64
		c3.131-1.176,6.725-2.363,10.784-3.563c2.606-0.766,6.181-1.762,10.726-2.991c2.102-0.563,6.31-1.894,12.622-3.99
		c5.411-1.799,8.291-2.682,8.634-2.647c0.326,0.032,0.605,0.127,0.841,0.285c0.362,0.25,0.521,0.584,0.48,1.004
		c-0.089,0.9-4.595,2.605-13.516,5.119c-13.51,3.796-23.035,6.654-28.576,8.576c-3.101,1.083-6.718,2.886-10.851,5.411
		c-2.446,1.496-6.076,3.907-10.885,7.232c-1.143,0.814-2.897,2.233-5.26,4.26c-2.75,2.391-4.7,4.032-5.85,4.922
		c-2.639,2.055-5.173,4.748-7.611,8.08C42.688,116.794,41.434,117.943,40.67,117.867z"/>
	<path fill-rule="evenodd" clip-rule="evenodd" fill="#B6BB5B" d="M89.93,118.33c-0.243-1.243-0.651-3.86-1.22-7.857
		c-0.266,0.359-0.648,0.515-1.146,0.466c-1.32-0.131-1.14-3.301,0.54-9.507c1.533-5.719,2.95-9.683,4.251-11.89
		c0.037-0.189,0.596-1.041,1.673-2.555c1.145-1.607,1.844-2.734,2.103-3.384c0.726-1.86,1.352-3.208,1.879-4.043
		c0.574-0.929,1.121-1.366,1.637-1.315c0.192,0.019,1.188,1.17,2.988,3.455c2.145,2.723,3.365,4.254,3.658,4.593
		c0.609,0.679,1.578,2.668,2.913,5.968c1.349,3.339,2.088,5.624,2.216,6.853l-0.77,7.747c-0.214,2.161-0.542,3.528-0.987,4.102
		c-0.422,0.171-0.674,0.29-0.759,0.36c-0.313,2.363-1.261,5.6-2.847,9.71c-1.69,4.371-2.957,6.515-3.797,6.431
		c-0.345-0.034-0.585-0.144-0.72-0.333c-0.342-0.438-0.543-1.337-0.602-2.695l-0.086-0.588c-0.142,0.448-0.529,1.24-1.163,2.375
		c-0.422,0.75-0.845,2.292-1.27,4.624c-0.167,0.506-0.373,0.824-0.617,0.954c-0.143,0.082-0.387,0.106-0.73,0.071
		c-0.651-0.065-1.373-1.449-2.166-4.154c-0.417-1.451-0.94-3.28-1.57-5.486c-0.078,0.958-0.583,1.391-1.521,1.298
		C91.205,123.467,90.575,121.734,89.93,118.33z"/>
	<path fill-rule="evenodd" clip-rule="evenodd" fill="#A4985F" d="M61.319,103.348c-0.256-0.353-0.363-0.731-0.323-1.133
		c0.11-1.109,1.52-2.658,4.227-4.65c1.44-1.072,3.25-2.293,5.434-3.661c0.436-0.303,1.295-0.788,2.578-1.451
		c1.08-0.569,1.834-1.064,2.264-1.486c0.767-0.733,1.543-2.019,2.323-3.853c0.575-1.314,1.216-1.937,1.924-1.867
		c0.976,0.098,1.425,0.529,1.35,1.293c-0.022,0.21-0.315,0.733-0.881,1.565c-0.583,0.811-0.892,1.389-0.925,1.732
		c-0.026,0.269-0.004,0.725,0.066,1.369c0.093,1.013,0.158,1.725,0.194,2.133l-0.605,7.56c0.122,1.691,0.229,3.026,0.327,4.001
		l-0.798,8.031c-0.499,1.729-0.885,2.78-1.155,3.16c-0.223,0.307-0.631,0.428-1.224,0.369c-0.401-0.039-0.702-0.125-0.901-0.261
		c-0.379-0.27-0.739-0.827-1.08-1.673l-0.172-0.596c-0.369,0.794-1.625,2.445-3.765,4.957c-2.21,2.6-3.516,3.88-3.917,3.839
		c-0.268-0.026-0.473-0.094-0.617-0.205c-0.231-0.198-0.39-0.551-0.475-1.06c0.082-0.823,0.18-1.519,0.295-2.086
		c0.049-0.305,0.125-0.674,0.226-1.108c-1.175,0.559-2.978,1.203-5.405,1.927c-2.75,0.828-4.57,1.196-5.47,1.107
		c-0.803-0.081-1.153-0.646-1.049-1.699c0.075-0.745,0.828-2.109,2.262-4.091c0.736-1.008,1.549-2.097,2.439-3.264l-0.046-0.12
		c-0.038-0.023-0.218-0.049-0.543-0.083c-0.229-0.022-0.756,0.024-1.577,0.134c-0.822,0.111-1.359,0.155-1.605,0.13
		c-2.048-0.203-1.909-1.319,0.418-3.347c1.815-1.559,4.161-3.111,7.04-4.662C61.68,103.791,61.402,103.473,61.319,103.348z"/>
	<path fill-rule="evenodd" clip-rule="evenodd" fill="#9CB17C" d="M12.379,116.564c0.236-0.247,0.537-0.449,0.901-0.605
		c1.5-1.107,3.535-2.055,6.104-2.843c0.614-0.169,2.863-0.728,6.743-1.676l0.034-0.054c-0.199-0.136-0.516-0.351-0.949-0.645
		l-0.793-1.064c-0.21-0.407-0.174-0.78,0.112-1.119c0.085-0.088,0.306-0.259,0.658-0.513c0.752-0.562,1.881-0.953,3.392-1.169
		c0.86-0.126,2.221-0.311,4.08-0.551c0.001-0.599,0.117-1.08,0.346-1.443c0.157-0.216,0.423-0.461,0.798-0.732
		c1.562-1.159,4.468-1.236,8.713-0.236c3.333,0.78,5.646,1.619,6.936,2.514c-0.587,5.13-1.587,9.551-2.998,13.26
		c-1.912,4.87-3.754,7.951-5.525,9.244c-0.292,0.22-0.527,0.352-0.705,0.394c-0.315,0.064-0.601-0.08-0.854-0.433
		c-0.206-0.271-0.289-0.696-0.251-1.272c0.009-0.269,0.035-0.546,0.082-0.832c-2.886,2.031-5.214,3.597-6.982,4.694
		c-3.313,2.047-5.235,2.716-5.762,2.007c-0.238-0.333-0.205-0.764,0.099-1.295c0.066-0.09,0.266-0.341,0.598-0.752l-0.019-0.117
		c-1.371,0.579-3.896,1.303-7.574,2.174c-4.355,1.056-6.743,1.289-7.169,0.708c-0.39-0.541-0.313-1.025,0.232-1.455
		c0.315-0.26,0.738-0.526,1.266-0.801l0.018-0.171c-2.996,0.223-5.487,0.333-7.479,0.329c-3.937-0.007-4.875-0.766-2.813-2.28
		c0.228-0.169,0.723-0.478,1.48-0.923c0.781-0.462,1.455-0.831,2.023-1.103l2.78-2.042c-0.089-0.048-0.496-0.136-1.219-0.266
		c-0.626-0.12-1.074-0.359-1.35-0.714c-0.321-0.456-0.226-0.928,0.287-1.42c0.256-0.245,0.55-0.467,0.878-0.666
		c0.353-0.254,1.338-0.833,2.956-1.735c1.675-0.935,2.745-1.494,3.206-1.681c-0.108-0.069-0.518-0.224-1.228-0.47
		c-0.634-0.216-1.046-0.45-1.233-0.701C11.822,117.608,11.882,117.094,12.379,116.564z"/>
	<path fill-rule="evenodd" clip-rule="evenodd" fill="#554F2B" d="M14.737,127.255c-1.23,0.517-3.137,1.236-5.72,2.157
		c-3.083,1.102-4.846,1.632-5.285,1.589c-0.249-0.025-0.469-0.065-0.655-0.124c0.037-0.557,0.32-0.874,0.849-0.958
		c0.979-0.152,1.481-0.239,1.501-0.256c1.096-0.336,2.039-0.678,2.825-1.021c1.186-0.463,3.079-1.127,5.672-1.988
		c1.345-0.505,3.233-1.418,5.661-2.74c3.185-1.73,5.112-2.756,5.781-3.077c3.39-1.671,7.223-3.8,11.499-6.389
		c2.813-1.689,6.708-4.152,11.683-7.385c0.035,0.043,0.104,0.116,0.209,0.224c0.088,0.086,0.126,0.187,0.114,0.302
		c-0.054,0.554-0.894,1.32-2.517,2.299c-1.798,0.999-2.893,1.615-3.283,1.846l-5.664,3.349c-0.061,0.033-1.977,1.155-5.751,3.37
		c-2.256,1.319-4.134,2.33-5.632,3.03c-1.114,0.528-3.009,1.518-5.683,2.972C17.957,125.741,16.088,126.676,14.737,127.255z"/>
	<path fill-rule="evenodd" clip-rule="evenodd" fill="#554F2B" d="M46.654,109.221c0.115,0.031,0.156,0.169,0.132,0.419
		c-1.335,3.729-2.292,6.454-2.867,8.175c-0.479,1.903-0.853,3.322-1.12,4.262c-0.479,1.729-0.959,2.569-1.437,2.522
		c-0.076-0.007-0.171-0.036-0.282-0.085c0.036-0.151,0.76-2.784,2.175-7.896c1.503-5.026,2.532-7.512,3.087-7.458
		C46.572,109.185,46.677,109.204,46.654,109.221z"/>
	<path fill-rule="evenodd" clip-rule="evenodd" fill="#554F2B" d="M35.92,115.224c0.201,0.116,0.282,0.366,0.243,0.749
		c-0.167,1.682-1.129,4.368-2.885,8.057c-1.808,3.818-3.105,5.688-3.888,5.609c-0.153-0.015-0.286-0.047-0.397-0.096
		c0.031-0.307,0.222-0.665,0.571-1.074c0.193-0.211,0.477-0.531,0.847-0.958c0.299-0.261,0.861-1.268,1.691-3.019
		c0.809-1.735,1.381-3.02,1.715-3.857c0.571-1.468,1.077-3.147,1.515-5.036C35.605,115.376,35.802,115.25,35.92,115.224z"/>
	<path fill-rule="evenodd" clip-rule="evenodd" fill="#554F2B" d="M24.736,121.644l-0.114,1.148c-0.332,1.396-0.9,2.653-1.708,3.771
		c-0.491,0.686-1.172,1.41-2.04,2.172c-2.202,2.331-3.445,3.482-3.733,3.454c-0.686-0.069-0.376-0.762,0.931-2.081
		c0.665-0.667,1.419-1.346,2.26-2.036c1.008-0.825,1.786-1.752,2.333-2.781c0.38-0.714,0.691-1.707,0.934-2.976
		c0.136-0.799,0.387-1.179,0.75-1.144C24.427,121.179,24.555,121.337,24.736,121.644z"/>
	<path fill-rule="evenodd" clip-rule="evenodd" fill="#554F2B" d="M15.509,122.959c-1.42,0.496-2.158,0.74-2.216,0.735
		c-1.128-0.112-1.096-0.445,0.102-1.004c0.847-0.38,2.037-0.792,3.569-1.239c1.109-0.276,2.03-0.416,2.764-0.419
		c0.232,0.003,0.969,0.066,2.213,0.189c0.764,0.076,1.223,0.133,1.373,0.166c0.474,0.086,0.844,0.257,1.108,0.516
		c-0.337,0.276-0.782,0.386-1.335,0.331c-0.626-0.12-1.114-0.178-1.46-0.175c-1.56-0.058-2.466-0.07-2.72-0.037
		C18.161,122.122,17.03,122.434,15.509,122.959z"/>
	<path fill-rule="evenodd" clip-rule="evenodd" fill="#554F2B" d="M20.434,116.553c0.062-0.226,0.325-0.45,0.792-0.675
		c1.201-0.614,2.821-0.887,4.862-0.82c0.449-0.053,1.402-0.122,2.86-0.208c1.904-0.12,3.077-0.159,3.517-0.114
		c0.629,0.062,1.076,0.146,1.336,0.248c0.205,0.079,0.734,0.285,1.589,0.621c0.033,0.063,0.052,0.159,0.058,0.296
		c-0.097,0.203-0.197,0.329-0.297,0.376c-0.041,0.015-0.156,0.013-0.347-0.005c-0.191-0.019-0.567-0.135-1.125-0.344
		c-0.562-0.191-0.994-0.301-1.301-0.333c-0.171-0.016-1.054,0.013-2.644,0.086c-1.633,0.09-2.683,0.159-3.15,0.209
		c-0.469,0.049-1.531,0.244-3.187,0.582c-1.499,0.314-2.345,0.461-2.536,0.443C20.499,116.879,20.355,116.758,20.434,116.553z"/>
	<path fill-rule="evenodd" clip-rule="evenodd" fill="#554F2B" d="M45.124,110.343l-0.417,0.394
		c-0.152-0.015-0.896-0.388-2.234-1.12c-1.484-0.803-2.366-1.267-2.644-1.393c-0.552-0.266-1.349-0.509-2.389-0.729
		c-1.496-0.301-2.356-0.486-2.581-0.545c-0.076-0.415-0.012-0.658,0.188-0.735c0.061-0.033,0.244-0.034,0.549-0.003
		c1.435,0.143,3.146,0.622,5.131,1.438C42.901,108.521,44.367,109.419,45.124,110.343z"/>
	<path fill-rule="evenodd" clip-rule="evenodd" fill="#554F2B" d="M79.023,88.421c0.129,0.07,0.184,0.201,0.165,0.393
		c-0.049,0.479-0.829,2.303-2.341,5.475c-1.629,3.372-2.582,5.384-2.858,6.03c-0.781,1.835-1.652,3.614-2.617,5.333
		c-1.074,1.882-2.009,3.219-2.802,4.009c-1.513,1.626-2.646,2.826-3.399,3.601c-1.317,1.396-2.396,2.353-3.24,2.866
		c-3.599,2.404-5.704,3.577-6.316,3.515c-0.076-0.007-0.17-0.036-0.282-0.086c0.072-0.514,0.435-0.971,1.093-1.368
		c0.39-0.231,0.968-0.503,1.732-0.814c1.264-0.667,2.341-1.312,3.233-1.938c1.644-1.189,3.886-3.352,6.728-6.488
		c1.306-1.473,3.033-4.575,5.183-9.306c2.764-6.041,4.567-9.811,5.412-11.312C78.77,88.356,78.872,88.386,79.023,88.421z"/>
	<path fill-rule="evenodd" clip-rule="evenodd" fill="#554F2B" d="M75.076,96.661c-0.04,0.402-2.009,1.462-5.907,3.179l-5.866,2.46
		c-0.936-0.092-0.711-0.514,0.678-1.265c1.119-0.584,2.58-1.192,4.381-1.825c2.607-1.364,4.735-2.369,6.383-3.017
		C74.975,96.41,75.086,96.566,75.076,96.661z"/>
	<path fill-rule="evenodd" clip-rule="evenodd" fill="#554F2B" d="M73.69,103.331l0.332-4.225c-0.044-0.912-0.026-1.585,0.056-2.021
		c0.038,0.004,0.078-0.012,0.12-0.046c0.041-0.015,0.128-0.017,0.262-0.003c0.172,0.017,0.263,0.181,0.27,0.491
		c0.001,0.579,0.083,1.108,0.249,1.588l-0.384,4.452c0.003,1.7,0.142,3.133,0.412,4.299c0.402,1.777,0.626,2.843,0.668,3.196
		l-0.071,0.717l-0.445,0.389c-0.287-0.027-0.594-1.217-0.92-3.567C74,106.916,73.816,105.16,73.69,103.331z"/>
	<path fill-rule="evenodd" clip-rule="evenodd" fill="#554F2B" d="M68.845,108.354c0.095,0.01,0.186,0.077,0.271,0.201
		c0.066,0.103,0.106,0.194,0.119,0.271l-0.072,0.718c-0.633,2.101-1.192,4.516-1.676,7.251c-0.265,1.498-0.569,2.23-0.914,2.196
		c-0.342-0.033-0.34-0.747,0.011-2.141c0.805-3.242,1.401-5.945,1.79-8.108L68.845,108.354z"/>
	<path fill-rule="evenodd" clip-rule="evenodd" fill="#554F2B" d="M68.683,108.541l-0.133,0.451c0.016,0.04-0.09,0.048-0.321,0.025
		c-0.114-0.011-0.244-0.073-0.387-0.183c-0.125-0.108-0.253-0.169-0.387-0.184c-0.498-0.049-2.229,0.263-5.193,0.933
		c-2.866,0.682-4.31,1.02-4.329,1.018l-0.398-0.096c0.042-0.981,1.652-1.662,4.838-2.039c3.043-0.491,4.804-0.712,5.281-0.664
		C68.381,107.874,68.725,108.12,68.683,108.541z"/>
	<path fill-rule="evenodd" clip-rule="evenodd" fill="#554F2B" d="M48.492,66.239c5.615,1.793,9.484,3.086,11.607,3.875
		c4.96,1.786,8.777,3.401,11.455,4.847c2.345,1.275,4.562,2.586,6.649,3.932c2.869,1.831,4.28,2.995,4.229,3.492l-0.128,0.422
		c0.013,0.061-0.094,0.078-0.324,0.055c-1.006-0.757-2.223-1.641-3.647-2.65c-2.887-2.045-5.544-3.689-7.969-4.935
		c-2.59-1.339-6.527-2.918-11.812-4.737c-2.572-0.93-4.53-1.637-5.874-2.118c-2.369-0.834-4.362-1.485-5.978-1.956
		c-2.116-0.46-4.129-1.095-6.039-1.903l-2.983-0.586c-0.354-0.132-0.856-0.23-1.506-0.295c-0.264-0.45-0.249-0.719,0.05-0.806
		c0.082-0.031,0.323-0.025,0.724,0.015C38.074,63.002,41.922,64.119,48.492,66.239z"/>
	<path fill-rule="evenodd" clip-rule="evenodd" fill="#554F2B" d="M68.504,83.784c-0.076-0.587,0.165-0.873,0.723-0.855
		c0.85-0.013,1.318-0.044,1.399-0.094l2.785-0.91c0.06-0.013,1.123-0.401,3.186-1.161c1.464-0.549,2.245-0.821,2.34-0.81
		c0.23,0.022,0.381,0.057,0.455,0.103c0.057,0.005,0.074,0.134,0.049,0.381c-0.063,0.631-3.481,1.79-10.253,3.474
		C68.94,83.884,68.712,83.843,68.504,83.784z"/>
	<path fill-rule="evenodd" clip-rule="evenodd" fill="#554F2B" d="M49.994,78.815c-0.919-0.09-1.277-0.271-1.076-0.541
		c0.2-0.27,0.558-0.379,1.075-0.328l5.595,0.556c0.946-0.003,2.166-0.131,3.66-0.39c0.866-0.163,2.116-0.409,3.75-0.729
		c0.138-0.024,1.25-0.416,3.333-1.175c2.139-0.733,3.467-1.075,3.983-1.024l0.485,0.078l0.134,0.418l-0.216,0.412
		c-0.993,0.096-2.521,0.494-4.58,1.196c-2.178,0.731-3.745,1.164-4.707,1.301c-2.786,0.458-4.492,0.704-5.113,0.738
		c-0.447,0.032-1.741-0.058-3.884-0.27L49.994,78.815z"/>
	<path fill-rule="evenodd" clip-rule="evenodd" fill="#554F2B" d="M45.257,71.104c-0.785-0.08-1.3-0.139-1.548-0.183
		c-0.698-0.147-1.053-0.366-1.062-0.657c-0.002-0.172,0.398-0.24,1.206-0.198c0.421,0.042,0.955,0.105,1.603,0.188
		c1.148,0.114,2.983,0.113,5.505-0.003c0.753-0.003,1.872-0.182,3.356-0.536l2.139-0.542c0.173,0.017,0.308,0.108,0.407,0.273
		c0.083,0.144,0.121,0.263,0.11,0.358c-0.028,0.287-0.791,0.568-2.286,0.846c-1.219,0.226-2.442,0.384-3.668,0.475
		c-1.576,0.114-2.652,0.172-3.233,0.172C47.285,71.284,46.44,71.221,45.257,71.104z"/>
	<path fill-rule="evenodd" clip-rule="evenodd" fill="#554F2B" d="M51.557,64.255c2.687,2.294,4.005,3.71,3.952,4.245
		c-0.024,0.249-0.115,0.385-0.271,0.408l-0.259-0.025c-0.097-0.01-0.74-0.614-1.934-1.814c-1.458-1.478-2.299-2.324-2.529-2.54
		c-1.414-1.125-2.424-1.94-3.03-2.445c-1.07-0.899-1.156-1.304-0.257-1.214C47.534,60.9,48.977,62.028,51.557,64.255z"/>
	<path fill-rule="evenodd" clip-rule="evenodd" fill="#554F2B" d="M63.357,67.366c3.315,3.17,5.683,5.587,7.101,7.254l-0.444,0.391
		c-2.131-2.258-4.322-4.331-6.568-6.214c-1.407-1.184-2.727-2.396-3.955-3.638c-1.721-1.736-2.198-2.566-1.434-2.489
		C58.364,62.699,60.13,64.266,63.357,67.366z"/>
	<path fill-rule="evenodd" clip-rule="evenodd" fill="#554F2B" d="M69.634,64.833c0.23,0.023,1.094,0.853,2.592,2.489
		c1.447,1.572,2.348,2.619,2.703,3.136c1.216,1.724,2.031,2.964,2.438,3.719c0.896,1.672,1.434,3.358,1.614,5.056l-0.445,0.391
		c-0.095-0.009-0.488-0.917-1.177-2.725c-0.892-2.31-2.045-4.393-3.464-6.253c-0.577-0.811-1.01-1.404-1.301-1.78
		c-0.497-0.648-0.968-1.148-1.414-1.502c-1.036-0.855-1.693-1.432-1.972-1.732C68.689,65.02,68.831,64.753,69.634,64.833z"/>
	<path fill-rule="evenodd" clip-rule="evenodd" fill="#554F2B" d="M97.854,118.768c-0.096,1.922-0.111,3.147-0.047,3.675
		c0.217,1.701,0.349,2.902,0.395,3.602l-0.114,1.147c-0.276,0.263-0.425,0.392-0.444,0.39c-0.229-0.023-0.415-1.364-0.555-4.023
		c-0.103-1.883-0.158-3.561-0.167-5.028l0.469-4.734l1.375-5.657l1.073-10.816c-0.072-2.961-0.219-5.669-0.439-8.125
		c-0.23-2.726-0.397-5.437-0.495-8.132c0.277-0.263,0.444-0.391,0.501-0.383c0.248,0.023,0.564,2.884,0.943,8.581
		c0.206,3.96,0.34,6.697,0.401,8.208l-1.055,10.616l-1.353,5.745L97.854,118.768z"/>
	<path fill-rule="evenodd" clip-rule="evenodd" fill="#554F2B" d="M91.916,119.337l-0.444,0.39c-0.344-0.034-0.443-0.411-0.293-1.13
		c0.13-0.547,0.53-2.042,1.199-4.488c0.153-0.583,0.423-1.164,0.81-1.745c0.229-0.362,0.62-0.874,1.167-1.535
		c0.326-0.373,1.109-1.048,2.344-2.025c1.282-1.033,1.999-1.541,2.151-1.526c0.23,0.022,0.333,0.044,0.312,0.061
		c0.113,0.031,0.157,0.171,0.134,0.419c-0.007,0.057-0.584,0.522-1.732,1.392c-1.231,0.921-1.968,1.543-2.214,1.867
		c-0.863,0.918-1.453,1.68-1.762,2.288C93.175,114.131,92.619,116.143,91.916,119.337z"/>
	<path fill-rule="evenodd" clip-rule="evenodd" fill="#554F2B" d="M90.987,103.311c-0.513,0.49-1.015,1.271-1.508,2.343
		c-0.51,1.049-0.967,1.767-1.373,2.151l-0.309-0.087c-0.258-1.687,1.392-4.188,4.945-7.504c3.426-3.176,5.759-4.702,7.002-4.578
		c0.248,0.024,0.343,0.043,0.283,0.058c0.109,0.087,0.151,0.246,0.127,0.475c-0.006,0.058-0.823,0.604-2.451,1.64
		c-1.878,1.223-3.089,2.031-3.63,2.42c-0.438,0.323-0.937,0.796-1.501,1.417C91.663,102.615,91.134,103.171,90.987,103.311z"/>
	<path fill-rule="evenodd" clip-rule="evenodd" fill="#554F2B" d="M102.138,121.424l-0.104,0.454
		c-0.061,0.031-0.205,0.037-0.436,0.014c-0.286-0.029-0.484-0.377-0.591-1.043c-0.053-0.45-0.127-1.742-0.225-3.875
		c-0.022-0.544-0.131-1.211-0.323-2.002c-0.209-0.813-0.322-1.326-0.34-1.541c-0.051-0.45-0.333-1.704-0.841-3.763
		c-0.008-0.117-0.193-0.493-0.556-1.128c-0.233-0.583-0.061-0.846,0.514-0.788c0.305,0.03,0.648,0.663,1.027,1.898
		c0.332,1.133,0.559,2.247,0.682,3.341C101.762,118.402,102.157,121.213,102.138,121.424z"/>
	<path fill-rule="evenodd" clip-rule="evenodd" fill="#554F2B" d="M102.812,97.707c1.596,1.821,2.438,2.762,2.528,2.83
		c0.819,0.699,1.781,1.616,2.885,2.75c1.346,1.408,2.005,2.265,1.975,2.572l-0.103,0.453l-0.349,0.023
		c-0.881-1.035-2.681-2.855-5.396-5.462c-0.122-0.126-0.563-0.652-1.321-1.579c-0.673-0.801-1.145-1.302-1.415-1.501
		c-0.089-0.068-0.564-0.356-1.42-0.865c-0.405-0.214-0.595-0.437-0.571-0.665c0.004-0.232,0.176-0.331,0.521-0.297
		C100.969,96.046,101.857,96.626,102.812,97.707z"/>
</g>
<g>
	<path fill-rule="evenodd" clip-rule="evenodd" fill="#605623" d="M128.815,98.805c-0.293,0.754-0.638,2.032-1.035,3.831
		c-0.368,1.696-0.584,2.602-0.648,2.712c-0.092,0.155-0.234,0.297-0.427,0.423c-0.312,0.175-0.613,0.178-0.901,0.009
		c-0.625-0.366-0.704-1.428-0.239-3.188c0.135-0.486,0.587-1.792,1.353-3.914c1.113-3.173,1.893-5.27,2.342-6.292
		c0.644-1.505,2.458-5.596,5.446-12.272c1.28-2.896,3.078-6.653,5.397-11.271c2.642-5.324,4.845-9.488,6.603-12.489
		c1.344-2.292,2.61-4.299,3.799-6.023c1.679-2.303,3.28-4.576,4.806-6.821c1.988-2.78,3.501-4.852,4.539-6.215
		c1.326-1.853,2.061-2.902,2.203-3.145c0.209-0.355,0.447-0.607,0.709-0.75c0.458-0.271,0.871-0.058,1.241,0.638
		c-0.062,0.41-0.327,1.018-0.797,1.818c-0.144,0.245-2.206,3.1-6.187,8.565c-4.254,5.933-7.159,10.224-8.709,12.87
		c-0.392,0.668-1.23,2.149-2.515,4.442c-1.698,3.101-2.971,5.476-3.822,7.13c-1.881,3.769-3.701,7.721-5.468,11.854
		c-1.092,2.527-2.873,6.505-5.338,11.934C130.635,93.867,129.85,95.917,128.815,98.805z"/>
	<path fill-rule="evenodd" clip-rule="evenodd" fill="#605623" d="M142.44,48.338c0.228-2.226,0.39-3.417,0.48-3.574
		c0.234-0.4,0.52-0.606,0.856-0.619c0.465-0.026,0.77,0.421,0.916,1.343l-0.155,2.331c-0.062,0.92-0.229,2.479-0.502,4.681
		c-0.111,1.311-0.024,3.378,0.26,6.205c0.259,2.572,0.367,3.891,0.327,3.958c-0.104,0.178-0.268,0.304-0.492,0.382
		c-0.273,0.11-0.554,0.079-0.844-0.092c-0.935-0.547-1.333-3.769-1.193-9.664C142.104,52.25,142.22,50.6,142.44,48.338z"/>
	<path fill-rule="evenodd" clip-rule="evenodd" fill="#605623" d="M169.981,46.014c-2.774,1.062-4.974,1.879-6.594,2.453
		c-2.943,0.995-5.131,1.641-6.56,1.939c-0.714,0.147-2.704,0.789-5.969,1.923c-0.357-0.208-0.411-0.523-0.162-0.946
		c0.272-0.467,1.946-1.13,5.019-1.987c4.334-1.225,7.011-2.019,8.029-2.379l6.242-2.39c1.37-0.604,2.334-1.024,2.893-1.263
		c2.256-1.098,2.987-0.968,2.192,0.387C174.955,43.953,173.256,44.706,169.981,46.014z"/>
	<path fill-rule="evenodd" clip-rule="evenodd" fill="#605623" d="M149.509,28.858c-1.034-3.894-1.435-6.04-1.2-6.442
		c0.664-1.133,1.272-0.358,1.821,2.325c0.399,1.967,0.816,5.184,1.247,9.649c0.109,1.291,0.288,3.459,0.537,6.502
		c0.023,0.164,0.381,1.284,1.076,3.365c0.635,2.075,0.855,3.281,0.661,3.613c-0.078,0.135-0.207,0.224-0.382,0.27
		c-0.177,0.046-0.333,0.03-0.465-0.048c-0.245-0.144-0.63-1.117-1.157-2.92c-0.477-1.684-0.792-3.034-0.944-4.049
		c-0.108-0.631-0.202-1.644-0.283-3.034c-0.095-1.521-0.171-2.537-0.23-3.048C149.994,32.265,149.767,30.205,149.509,28.858z"/>
	<path fill-rule="evenodd" clip-rule="evenodd" fill="#605623" d="M157.62,25.5c0.471,0.215,0.602,0.502,0.395,0.858
		c-0.066,0.11-0.169,0.185-0.311,0.221c-0.14,0.038-0.244,0.111-0.309,0.221c-0.144,0.245-0.538,1.225-1.183,2.938
		c-0.702,1.859-1.146,2.975-1.333,3.343c-0.857,1.769-1.359,2.776-1.502,3.019c-0.184,0.371-0.414,0.909-0.679,1.62
		c-0.219,0.679-0.406,1.15-0.562,1.417c-0.248,0.422-0.549,0.53-0.906,0.322c-0.577-0.34-0.452-1.372,0.38-3.097
		c1.099-1.926,1.789-3.178,2.071-3.761c1.621-4.04,2.535-6.237,2.745-6.593C156.751,25.453,157.149,25.282,157.62,25.5z"/>
	<path fill-rule="evenodd" clip-rule="evenodd" fill="#605623" d="M163.255,60.853c-2.755,0.925-4.75,1.549-5.984,1.872
		c-7.992,2.01-12.354,2.799-13.089,2.37c-0.268-0.156-0.392-0.35-0.377-0.582c0.059-0.202,0.096-0.316,0.111-0.338
		c0.063-0.112,1.105-0.307,3.124-0.589c2.333-0.364,3.602-0.563,3.801-0.596c3.143-0.727,5.307-1.253,6.481-1.577
		c1.342-0.352,2.383-0.623,3.125-0.815c1.316-0.363,2.303-0.696,2.959-0.998c2.17-1,3.62-1.587,4.347-1.756
		c0.914-0.182,1.117,0.16,0.608,1.028C168.205,59.137,166.502,59.798,163.255,60.853z"/>
	<path fill-rule="evenodd" clip-rule="evenodd" fill="#605623" d="M170.574,67.025c-1.419,0.127-2.892,0.219-4.42,0.278
		c-0.166,0.024-1.552,0.226-4.167,0.607c-2.899,0.154-5.326-0.343-7.285-1.491c-1.645-0.963-2.625-1.688-2.939-2.171
		c-0.127-0.193-0.118-0.412,0.026-0.658c0.144-0.244,0.438-0.235,0.884,0.025c1.585,0.962,3.17,1.83,4.747,2.604
		c0.436,0.227,1.063,0.355,1.882,0.385c0.185-0.011,0.706-0.033,1.563-0.069c2.235-0.242,3.946-0.408,5.129-0.49
		c1.996-0.294,3.749-0.506,5.26-0.637c2.953-0.243,4.217-0.008,3.802,0.705C174.833,66.49,173.341,66.794,170.574,67.025z"/>
	<path fill-rule="evenodd" clip-rule="evenodd" fill="#605623" d="M130.837,42.972c0.12,0.458,0.357,1.912,0.714,4.363
		c1.014,3.673,1.649,5.928,1.907,6.766c1.109,3.459,2.103,5.969,2.981,7.53c0.312,0.541,0.636,1.209,0.977,2.007
		c0.401,0.744,1,1.557,1.796,2.442c0.795,0.885,1.314,1.503,1.557,1.854c0.386,0.616,0.481,1.089,0.286,1.424
		c-0.077,0.134-0.204,0.225-0.381,0.27c-0.178,0.046-0.333,0.03-0.465-0.048c-0.223-0.131-1.068-1.314-2.537-3.548
		c-1.501-2.287-2.463-3.88-2.888-4.787c-0.434-0.942-0.907-2.1-1.416-3.475c-0.512-1.524-0.878-2.605-1.103-3.245
		c-0.403-1.195-0.976-3.279-1.713-6.25c-0.911-3.643-1.265-5.642-1.057-5.997C130.031,41.362,130.478,41.595,130.837,42.972z"/>
	<path fill-rule="evenodd" clip-rule="evenodd" fill="#605623" d="M135.382,39.808c-0.817-2.632-1.092-4.182-0.817-4.648
		c0.522-0.89,0.902-0.8,1.143,0.266c0.156,0.601,0.315,1.53,0.472,2.789c0.127,0.551,0.688,2.27,1.686,5.156
		c0.136,0.379,0.375,1.222,0.716,2.527c0.306,1.106,0.585,1.957,0.835,2.551c0.344,0.74,1.202,1.825,2.574,3.256
		c0.994,1.061,1.345,1.835,1.058,2.327c-0.078,0.131-0.205,0.222-0.382,0.269c-0.176,0.045-0.33,0.029-0.463-0.05
		c-0.423-0.247-1.182-1.17-2.277-2.768c-0.957-1.428-1.551-2.404-1.781-2.927c-0.282-0.645-0.756-2.177-1.427-4.602
		C136.212,42.52,135.766,41.139,135.382,39.808z"/>
	<path fill-rule="evenodd" clip-rule="evenodd" fill="#605623" d="M135.195,59.779c-0.117,0.202-0.286,0.282-0.502,0.245
		c-0.482-0.044-1.298-0.386-2.445-1.03l-4.803-2.815c-1.321-0.804-2.616-2.116-3.882-3.935c-1.265-1.817-1.741-2.993-1.428-3.525
		c0.155-0.267,0.285-0.432,0.378-0.496c0.268-0.201,0.58-0.094,0.933,0.322c0.021,0.221-0.013,0.458-0.098,0.705
		c-0.016,0.231,0.113,0.544,0.385,0.945c0.792,1.151,1.335,1.903,1.637,2.258c0.756,0.952,1.619,1.802,2.584,2.547l7,3.967
		C135.246,59.286,135.326,59.558,135.195,59.779z"/>
	<path fill-rule="evenodd" clip-rule="evenodd" fill="#FDBE10" d="M164.305,18.081c0.247,0.266,0.285,0.545,0.108,0.845
		c-0.264,0.413-0.402,0.628-0.412,0.645c0.107,0.016,0.241,0.012,0.398-0.015c0.164,0.002,0.334,0.056,0.51,0.158
		c0.562,0.33,0.483,0.767-0.238,1.313l-0.058,0.039l0.776,0.489c0.158,0.376,0.195,0.635,0.113,0.776
		c-0.114,0.194-0.286,0.305-0.518,0.335c-0.358,0.048-0.898-0.079-1.619-0.382l-0.404-0.094c0.126,0.592,0.126,1.113,0.005,1.562
		c-0.063,0.271-0.251,0.669-0.56,1.196c-0.65,1.108-1.685,2.025-3.104,2.755c-1.42,0.728-2.5,0.875-3.237,0.442
		c-0.809-0.474-1.043-1.628-0.701-3.461c0.518-1.73,0.782-2.604,0.792-2.621c0.371-0.633,0.8-1.104,1.286-1.409
		c0.476-0.287,1.303-0.606,2.478-0.958c1.164-0.334,1.885-0.655,2.161-0.967C162.822,17.791,163.562,17.577,164.305,18.081z"/>
	<path fill-rule="evenodd" clip-rule="evenodd" fill="#F6A31C" d="M153.702,16.413c-0.18,0.371-0.221,0.879-0.125,1.524
		c0.128,0.854,0.184,1.325,0.172,1.413c-0.053,0.997-0.092,1.535-0.119,1.613c-0.021,0.066-0.191,0.374-0.515,0.925
		c-0.356,0.609-0.93,1.214-1.72,1.816c-1.226,0.954-2.32,1.152-3.282,0.587c-0.539-0.315-0.97-0.892-1.297-1.729
		c-0.226-0.589-0.337-1.064-0.333-1.424c-0.007-0.574,0.026-0.955,0.098-1.142c0.133-0.226,0.268-0.459,0.41-0.701
		c0.365-0.622,0.927-1.224,1.687-1.806c0.759-0.582,1.168-0.922,1.227-1.022c0.083-0.141-0.037-0.62-0.356-1.435
		c-0.321-0.815-0.389-1.379-0.207-1.69c0.075-0.127,0.149-0.207,0.225-0.238c0.105-0.053,0.252-0.024,0.436,0.084
		c0.254,0.149,0.458,0.449,0.613,0.9c0.085,0.241,0.178,0.523,0.273,0.846c0.051-0.541,0.081-0.817,0.089-0.832
		c0.011-0.051,0.115-0.247,0.315-0.586l0.259-0.447c0.144-0.145,0.32-0.154,0.534-0.03c0.142,0.083,0.25,0.385,0.326,0.904
		c0.034,0.268,0.063,0.589,0.088,0.966c0.832-1.415,1.506-1.723,2.028-0.925C154.483,14.513,154.209,15.322,153.702,16.413z"/>
	<path fill-rule="evenodd" clip-rule="evenodd" fill="#E7BE55" d="M170.677,28.701l0.013,0.042c0.304-0.155,0.604-0.278,0.897-0.369
		c0.584-0.184,1.003-0.203,1.253-0.056c0.372,0.218,0.412,0.518,0.12,0.895c-0.094,0.16-0.208,0.273-0.342,0.337
		c-0.21,0.114-0.409,0.251-0.595,0.405l-0.101,0.048c0.143,0.083,0.331,0.17,0.566,0.26c0.338,0.198,0.438,0.436,0.299,0.713
		c-0.125,0.213-0.356,0.281-0.694,0.204c-0.591-0.134-1.073-0.188-1.444-0.167c-0.094,0.445-0.329,0.989-0.705,1.631
		c-0.792,1.351-1.888,2.465-3.287,3.342c-1.534,0.943-2.78,1.133-3.74,0.57c-0.82-0.48-1.179-1.396-1.08-2.749
		c0.076-0.984,0.28-1.761,0.613-2.33c0.417-0.712,1.17-1.262,2.26-1.651c1.487-0.419,2.685-0.77,3.59-1.051
		c0.793-0.251,1.506-0.874,2.136-1.867c0.675-0.418,0.961-0.273,0.859,0.431C171.186,28.018,170.979,28.47,170.677,28.701z"/>
	<path fill-rule="evenodd" clip-rule="evenodd" fill="#E7BE55" d="M133.227,29.034c0.179,0.37,0.553,0.717,1.12,1.041
		c0.749,0.429,1.154,0.677,1.214,0.742c0.75,0.657,1.147,1.022,1.193,1.093c0.038,0.054,0.175,0.381,0.406,0.976
		c0.258,0.657,0.376,1.483,0.359,2.476c-0.01,1.554-0.535,2.533-1.574,2.939c-0.581,0.227-1.301,0.208-2.161-0.055
		c-0.601-0.188-1.042-0.393-1.324-0.619c-0.454-0.351-0.731-0.612-0.833-0.783c-0.096-0.245-0.195-0.496-0.296-0.756
		c-0.262-0.673-0.387-1.487-0.373-2.444c0.014-0.957,0-1.489-0.041-1.595c-0.061-0.154-0.51-0.356-1.35-0.61
		c-0.837-0.254-1.322-0.55-1.454-0.885c-0.054-0.137-0.07-0.246-0.048-0.326c0.026-0.115,0.137-0.21,0.336-0.288
		c0.275-0.108,0.637-0.083,1.088,0.076c0.242,0.082,0.52,0.184,0.833,0.308c-0.393-0.374-0.593-0.57-0.598-0.584
		c-0.035-0.041-0.121-0.245-0.266-0.611l-0.187-0.482c-0.025-0.201,0.077-0.346,0.305-0.436c0.154-0.059,0.458,0.042,0.913,0.305
		c0.23,0.139,0.5,0.315,0.812,0.528c-0.596-1.528-0.42-2.25,0.529-2.164C132.219,27.243,132.684,27.959,133.227,29.034z"/>
	<path fill-rule="evenodd" clip-rule="evenodd" fill="#EF4C23" d="M120.771,45.396c0.14,0.286,0.43,0.554,0.866,0.805
		c0.58,0.331,0.892,0.522,0.939,0.573c0.579,0.507,0.886,0.79,0.922,0.843c0.03,0.042,0.135,0.295,0.315,0.754
		c0.198,0.508,0.289,1.146,0.277,1.914c-0.008,1.201-0.413,1.958-1.215,2.271c-0.45,0.175-1.006,0.161-1.671-0.043
		c-0.464-0.144-0.805-0.304-1.025-0.477c-0.349-0.272-0.564-0.473-0.644-0.607c-0.073-0.188-0.15-0.383-0.227-0.584
		c-0.204-0.519-0.301-1.147-0.288-1.888c0.011-0.74,0-1.151-0.032-1.232c-0.047-0.119-0.395-0.275-1.042-0.473
		c-0.647-0.195-1.023-0.423-1.125-0.684c-0.042-0.106-0.053-0.19-0.036-0.251c0.02-0.089,0.105-0.164,0.259-0.223
		c0.213-0.083,0.492-0.063,0.84,0.061c0.188,0.062,0.401,0.142,0.645,0.238c-0.304-0.29-0.458-0.44-0.462-0.452
		c-0.025-0.032-0.095-0.189-0.205-0.473l-0.145-0.371c-0.021-0.156,0.059-0.268,0.235-0.338c0.118-0.044,0.354,0.033,0.705,0.235
		c0.176,0.108,0.387,0.245,0.629,0.408c-0.462-1.181-0.325-1.737,0.408-1.671C119.993,44.011,120.352,44.565,120.771,45.396z"/>
	<path fill-rule="evenodd" clip-rule="evenodd" fill="#F6A31C" d="M177.574,45.544c-0.313-0.038-0.696,0.059-1.144,0.292
		c-0.592,0.307-0.922,0.467-0.99,0.48c-0.74,0.211-1.144,0.317-1.209,0.317c-0.052,0.003-0.32-0.045-0.804-0.143
		c-0.535-0.109-1.121-0.375-1.757-0.802c-1.008-0.655-1.424-1.406-1.254-2.251c0.096-0.473,0.409-0.933,0.94-1.38
		c0.372-0.314,0.692-0.515,0.955-0.604c0.418-0.148,0.705-0.219,0.858-0.213c0.198,0.041,0.404,0.081,0.616,0.123
		c0.546,0.112,1.126,0.371,1.742,0.78c0.617,0.409,0.968,0.624,1.054,0.642c0.125,0.022,0.444-0.183,0.96-0.622
		c0.515-0.439,0.91-0.631,1.184-0.575c0.11,0.022,0.188,0.057,0.23,0.104c0.064,0.063,0.082,0.178,0.048,0.339
		c-0.044,0.223-0.214,0.449-0.504,0.673c-0.155,0.125-0.338,0.263-0.55,0.414c0.407-0.099,0.618-0.147,0.629-0.146
		c0.041-0.003,0.21,0.024,0.509,0.084l0.391,0.079c0.142,0.068,0.193,0.194,0.155,0.381c-0.024,0.125-0.218,0.279-0.579,0.465
		c-0.187,0.092-0.415,0.195-0.684,0.309c1.244,0.251,1.638,0.667,1.184,1.247C179.159,45.639,178.5,45.641,177.574,45.544z"/>
	<path fill-rule="evenodd" clip-rule="evenodd" fill="#FDBE10" d="M170.796,54.496l0.01,0.033c0.239-0.121,0.474-0.218,0.704-0.29
		c0.46-0.143,0.788-0.159,0.984-0.044c0.293,0.172,0.324,0.407,0.094,0.704c-0.073,0.125-0.162,0.214-0.268,0.265
		c-0.166,0.091-0.322,0.197-0.467,0.318l-0.079,0.038c0.111,0.065,0.258,0.134,0.443,0.205c0.265,0.155,0.345,0.341,0.235,0.56
		c-0.098,0.168-0.279,0.222-0.543,0.16c-0.466-0.104-0.846-0.147-1.137-0.129c-0.075,0.352-0.26,0.777-0.556,1.281
		c-0.62,1.062-1.483,1.939-2.582,2.628c-1.204,0.74-2.184,0.889-2.941,0.448c-0.643-0.378-0.925-1.097-0.846-2.162
		c0.059-0.773,0.219-1.383,0.482-1.832c0.328-0.559,0.919-0.991,1.776-1.297c1.167-0.328,2.109-0.604,2.82-0.825
		c0.625-0.198,1.185-0.688,1.68-1.468c0.529-0.327,0.755-0.214,0.674,0.34C171.195,53.959,171.033,54.316,170.796,54.496z"/>
	<path fill-rule="evenodd" clip-rule="evenodd" fill="#E7BE55" d="M182.807,68.718c-0.111,0.273-0.308,0.394-0.587,0.364
		c-0.395-0.057-0.6-0.086-0.616-0.086c0.024,0.086,0.071,0.183,0.145,0.288c0.053,0.124,0.073,0.266,0.056,0.432
		c-0.054,0.529-0.405,0.617-1.053,0.267l-0.047-0.03l-0.101,0.741c-0.226,0.244-0.403,0.359-0.535,0.345
		c-0.183-0.019-0.324-0.107-0.424-0.268c-0.158-0.25-0.245-0.692-0.264-1.327l-0.066-0.333c-0.397,0.293-0.782,0.471-1.155,0.532
		c-0.222,0.043-0.579,0.041-1.075-0.011c-1.04-0.106-2.068-0.562-3.086-1.368c-1.018-0.804-1.491-1.553-1.419-2.246
		c0.079-0.76,0.854-1.322,2.324-1.687c1.455-0.201,2.192-0.301,2.208-0.299c0.593,0.062,1.087,0.221,1.476,0.478
		c0.374,0.255,0.89,0.758,1.547,1.509c0.641,0.749,1.122,1.174,1.443,1.273C182.521,67.521,182.931,67.999,182.807,68.718z"/>
	<path fill-rule="evenodd" clip-rule="evenodd" fill="#FDBE10" d="M142.494,36.475c0.361-0.001,0.593,0.163,0.692,0.494
		c0.122,0.475,0.187,0.722,0.192,0.742c0.085-0.069,0.174-0.168,0.261-0.302c0.114-0.119,0.267-0.208,0.461-0.268
		c0.625-0.188,0.892,0.168,0.804,1.067l-0.012,0.068l0.887-0.236c0.382,0.139,0.598,0.287,0.644,0.444
		c0.067,0.214,0.032,0.416-0.103,0.606c-0.208,0.297-0.668,0.607-1.381,0.928l-0.345,0.233c0.52,0.311,0.904,0.663,1.15,1.058
		c0.156,0.229,0.321,0.638,0.498,1.222c0.373,1.231,0.343,2.613-0.087,4.149c-0.431,1.537-1.058,2.429-1.877,2.677
		c-0.897,0.27-1.902-0.342-3.015-1.835c-0.917-1.556-1.378-2.344-1.386-2.363c-0.211-0.702-0.265-1.337-0.159-1.902
		c0.113-0.545,0.439-1.367,0.98-2.469c0.546-1.082,0.8-1.828,0.76-2.243C141.271,37.367,141.618,36.678,142.494,36.475z"/>
	<path fill-rule="evenodd" clip-rule="evenodd" fill="#F6A31C" d="M125.812,38.399l0.041-0.013
		c-0.164-0.302-0.295-0.598-0.394-0.888c-0.2-0.58-0.229-0.997-0.089-1.25c0.208-0.38,0.506-0.427,0.891-0.143
		c0.163,0.088,0.279,0.198,0.347,0.331c0.122,0.208,0.261,0.402,0.42,0.585l0.052,0.097c0.079-0.145,0.161-0.334,0.244-0.57
		c0.189-0.345,0.424-0.449,0.704-0.319c0.218,0.119,0.292,0.348,0.223,0.687c-0.115,0.596-0.159,1.078-0.127,1.449
		c0.45,0.082,1,0.303,1.649,0.661c1.373,0.755,2.518,1.822,3.431,3.197c0.983,1.506,1.207,2.747,0.669,3.722
		c-0.457,0.831-1.365,1.215-2.718,1.152c-0.985-0.049-1.767-0.232-2.346-0.55c-0.723-0.398-1.293-1.135-1.712-2.214
		c-0.458-1.476-0.841-2.664-1.146-3.561c-0.273-0.788-0.915-1.48-1.924-2.085c-0.435-0.664-0.299-0.954,0.408-0.87
		C125.114,37.91,125.571,38.104,125.812,38.399z"/>
</g>
<g>
	<path fill-rule="evenodd" clip-rule="evenodd" fill="#E7BE55" d="M107.77,108.041c-0.959-0.377-2.027-0.791-3.202-1.244
		c-1.464-0.436-3.101-0.727-4.905-0.876c-1.857-0.125-3.755-0.469-5.7-1.03c-2.377-0.714-4.012-1.409-4.904-2.085
		c-1.609-1.173-2.828-3.116-3.652-5.83c-0.53-1.72-0.831-3.564-0.907-5.531c0.007-1.977-0.031-3.425-0.113-4.343
		c-0.032-0.375-0.335-1.574-0.918-3.597c-0.636-1.879-0.92-3.131-0.863-3.758l0.691-2.485c2.394-1.18,5.146-1.427,8.26-0.737
		c3.516,1.029,6.8,0.978,9.843-0.15c3.045-1.121,6.62-1.17,10.719-0.148c4.1,1.023,6.016,2.333,5.744,3.927
		c-0.272,1.585,0.318,4.794,1.773,9.625c1.393,4.893,1.636,8.918,0.731,12.077l0.162,0.056c-0.948,5.003-3.585,7.391-7.912,7.165
		C111.232,108.993,109.617,108.648,107.77,108.041z"/>
	<path fill-rule="evenodd" clip-rule="evenodd" fill="#FDBE10" d="M111.547,81.061c-0.213-0.075-0.328-0.216-0.336-0.421
		c-0.009-0.205-0.14-0.351-0.392-0.44c-0.034-0.013-2.541-0.124-7.519-0.337c-5.503-0.437-9.659-1.148-12.467-2.133
		c-2.085-0.732-3.425-1.466-4.017-2.2c-1.538-1.953-1.534-5.125,0.006-9.514c0.669-1.908,2.018-3.615,4.045-5.125
		c2.071-1.296,3.357-2.197,3.856-2.708c0.126-0.117,1.28-1.734,3.463-4.846c2.206-3.065,3.819-5.125,4.839-6.183
		c2.168-2.269,4.451-3.468,6.84-3.6c1.532-0.109,3.575,0.286,6.13,1.184c6.945,2.438,8.004,11.498,3.185,27.184
		c-0.439,3.441-1.723,6.002-3.848,7.68C113.747,80.903,112.482,81.389,111.547,81.061z"/>
	<path fill-rule="evenodd" clip-rule="evenodd" fill="#E7BE55" d="M142.433,61.301c1.021,3.309,1.553,5.012,1.6,5.108
		c1.743,2.632,2.968,4.497,3.673,5.594c1.129,1.852,0.823,3.765-0.923,5.738c-4.179,2.695-9.654,3.441-16.424,2.236
		c-3.702-0.615-8.622-1.795-14.754-3.545l-1.836-0.644c-0.216-0.076-0.248-0.328-0.095-0.761c0.101-0.289,0.175-0.445,0.223-0.467
		l0.034,0.071c0.218-0.044,0.429-0.012,0.632,0.102c0.19,0.148,0.34,0.24,0.447,0.278l0.162,0.057c0.036-0.795,0.184-3.23,0.442-7.3
		c0.338-4.529,0.592-7.613,0.76-9.251l2.749-7.825c2.17-2.955,3.975-4.585,5.414-4.888c0.534-0.137,1.788,0.143,3.768,0.836
		c2.733,0.961,4.826,2.08,6.277,3.357c1.106,0.993,3.108,3.354,6.001,7.077C141.207,57.941,141.824,59.35,142.433,61.301z"/>
	<path fill-rule="evenodd" clip-rule="evenodd" fill="#E7A95F" d="M136.78,80.667c1.497,0.688,2.93,1.958,4.299,3.812
		c1.216,1.719,1.9,3.051,2.053,3.992c0.255,1.345-0.176,2.808-1.3,4.394c-0.748,0.749-1.662,1.336-2.741,1.766
		c-0.655,0.256-1.608,0.608-2.858,1.06c-1.383,0.604-3.43,2.918-6.132,6.938c-2.434,3.59-4.536,5.378-6.309,5.363
		c-1.132,0.006-2.746-0.115-4.841-0.366c-2.395-0.315-4.149-0.669-5.265-1.061c-2.017-0.708-3.241-1.3-3.68-1.776
		c-1.402-1.422-1.58-3.849-0.535-7.28l3.796-11.335c0.015-0.157,0.19-0.885,0.522-2.182c0.324-1.261,0.546-2.072,0.673-2.431
		c0.886-2.519,2.125-4.043,3.728-4.572c1.115-0.417,3.018-0.374,5.713,0.126c3.5,0.623,6.239,1.282,8.216,1.976
		C134.329,79.704,135.883,80.231,136.78,80.667z"/>
	<path fill-rule="evenodd" clip-rule="evenodd" fill="#D87E63" d="M119.548,64.65l-0.052-0.2c0.394-1.355,0.581-2.057,0.558-2.106
		l1.554-4.425c1.167-2.864,2.416-5.093,3.742-6.688c0.921-1.131,2.054-2.108,3.394-2.93c0.079,0.229-0.088,0.535-0.504,0.913
		c-0.267,0.19-0.59,0.419-0.97,0.689c-0.781,0.736-1.315,1.276-1.597,1.622c-1.001,1.348-1.522,2.091-1.575,2.235
		c-0.532,0.825-1.205,2.224-2.02,4.2l-1.63,4.642c-0.203,0.698-0.394,1.64-0.568,2.832c-0.161,0.914-0.416,1.875-0.77,2.882
		c-0.152,0.432-0.521,1.191-1.101,2.28c-0.664,1.304-1.1,1.917-1.315,1.843c-0.182-0.064-0.245-0.167-0.194-0.313
		c1.087-1.718,1.726-2.787,1.912-3.206l0.743-2.286l-0.052-0.199L119.548,64.65z"/>
	<path fill-rule="evenodd" clip-rule="evenodd" fill="#D87E63" d="M128.042,60.48c0.96-0.552,1.754-1.082,2.378-1.59
		c2.172-1.701,3.791-3.315,4.851-4.844l0.181,0.003c0.182,0.065,0.203,0.233,0.065,0.508c-0.137,0.274-0.348,0.525-0.628,0.75
		l-1.362,1.461c-0.566,0.69-1.39,1.43-2.476,2.222c-0.391,0.307-1.197,0.873-2.414,1.699c-1.084,0.668-1.983,1.325-2.691,1.964
		c-1.359,1.22-2.958,2.901-4.801,5.042c-0.258,0.273-1.146,1.478-2.663,3.613c-1.024,1.418-1.832,2.286-2.428,2.602
		c-0.095-0.075-0.119-0.184-0.068-0.326l2.546-3.108c1.158-1.574,1.947-2.608,2.363-3.109c0.839-0.999,1.494-1.779,1.974-2.338
		c0.933-1.047,1.796-1.895,2.591-2.545L128.042,60.48z"/>
	<path fill-rule="evenodd" clip-rule="evenodd" fill="#D87E63" d="M138.795,64.559l-3.062,1.47
		c-0.487,0.234-1.564,0.826-3.232,1.775c-1.483,0.895-2.553,1.468-3.21,1.724c-0.475,0.196-1.517,0.698-3.134,1.505
		c-1.422,0.713-2.5,1.182-3.224,1.414c-0.594,0.195-1.619,0.583-3.074,1.164c-0.376,0.03-1.324,0.201-2.849,0.515l-0.194-0.31
		c2.532-0.646,4.493-1.231,5.888-1.752c0.593-0.196,1.578-0.639,2.951-1.328c1.422-0.713,2.479-1.192,3.171-1.433
		c0.703-0.28,1.719-0.811,3.046-1.598c1.79-1.069,2.854-1.686,3.193-1.849c1.679-0.866,2.695-1.399,3.047-1.599
		c1.226-0.499,2.219-0.735,2.977-0.711l0.431,0.151c-0.028,0.312-0.198,0.455-0.511,0.426c-0.387-0.055-0.604-0.07-0.65-0.046
		C139.899,64.119,139.377,64.279,138.795,64.559z"/>
	<path fill-rule="evenodd" clip-rule="evenodd" fill="#D87E63" d="M142.674,73.195l-5.321,1.164
		c-2.505,0.576-4.844,0.906-7.014,0.99c-0.603-0.008-1.726,0.021-3.367,0.093c-1.698-0.112-2.802-0.135-3.309-0.071l-3.325-0.198
		c-0.315-0.029-0.887-0.007-1.72,0.065c-0.038-0.013-0.295-0.025-0.779-0.032c-0.071-0.025-0.366,0.013-0.888,0.112l-0.141-0.11
		l0.001-0.181c0.088-0.251,0.573-0.365,1.453-0.338c0.951,0.049,1.574,0.067,1.861,0.046c0.46-0.039,1.143-0.022,2.043,0.052
		l7.831,0.143c2.801-0.147,5.109-0.449,6.923-0.905c0.049-0.022,1.205-0.262,3.468-0.72c1.427-0.269,2.626-0.634,3.599-1.102
		l0.271,0.094c-0.054,0.264-0.286,0.466-0.699,0.604C143.018,73.073,142.72,73.172,142.674,73.195z"/>
	<path fill-rule="evenodd" clip-rule="evenodd" fill="#D87E63" d="M138.014,89.744c-0.114-0.363-0.231-0.608-0.349-0.729
		l-0.547-0.859c-0.256-0.413-0.684-0.925-1.279-1.539c-0.791-0.964-1.712-1.795-2.762-2.486c-2.11-1.468-4.14-2.543-6.083-3.226
		c-1.042-0.365-2.445-0.797-4.212-1.296c-0.249-0.088-1.424-0.603-3.52-1.54l-2.581-1.452c-0.3-0.187-0.506-0.4-0.623-0.642
		c0.123-0.12,0.255-0.153,0.398-0.103c0.31,0.27,0.574,0.443,0.789,0.519c0.43,0.272,0.693,0.444,0.787,0.519
		c0.862,0.423,1.387,0.709,1.579,0.856c0.647,0.228,1.246,0.478,1.797,0.752c0.549,0.274,1.058,0.492,1.527,0.656
		c1.798,0.512,3.204,0.944,4.209,1.297c1.475,0.519,3.603,1.649,6.386,3.395c0.407,0.224,0.871,0.628,1.393,1.215
		c0.83,0.858,1.292,1.324,1.388,1.397l1.226,1.522c0.258,0.292,0.465,0.567,0.619,0.823c0.258,0.414,0.316,0.88,0.178,1.396
		l-0.181-0.002L138.014,89.744z"/>
	<path fill-rule="evenodd" clip-rule="evenodd" fill="#D87E63" d="M132.07,95.963c-0.535-0.188-2.029-1.461-4.476-3.815
		c-0.45-0.562-1.162-1.297-2.135-2.205c-0.425-0.633-1.1-1.417-2.026-2.347l-3.903-4.767l-3.531-5.481
		c0.014-0.038,0.093-0.09,0.238-0.16l0.108,0.039c0.143,0.049,1.427,1.977,3.851,5.775c0.521,0.709,1.212,1.557,2.077,2.548
		c1.384,1.577,2.089,2.389,2.114,2.439l6.479,6.58c0.716,0.492,1.094,0.788,1.144,0.885c0.466,0.165,0.694,0.324,0.679,0.482
		C132.673,96.093,132.469,96.104,132.07,95.963z"/>
	<path fill-rule="evenodd" clip-rule="evenodd" fill="#D87E63" d="M123.309,102.281l0.413,0.206c0.203,0.111,0.28,0.239,0.229,0.384
		l-0.292,0.14c-0.251-0.087-0.858-0.604-1.821-1.548l-1.446-2.265c-0.588-0.975-1.333-2.994-2.237-6.059
		c-0.422-1.563-1.005-3.93-1.751-7.102c-0.281-1.15-0.641-2.204-1.071-3.164c-0.093-0.316-0.3-0.813-0.627-1.494
		c-0.397-0.827-0.591-1.258-0.578-1.295c0.05-0.143,0.112-0.202,0.186-0.178l0.162,0.058c0.179,0.063,0.456,0.604,0.822,1.624
		c0.302,0.752,0.549,1.323,0.734,1.713c0.054,0.422,0.185,0.912,0.393,1.47c0.241,0.691,0.403,1.152,0.484,1.382
		c0.414,1.236,0.652,2.229,0.712,2.978c0.069,0.266,0.199,0.757,0.396,1.473l0.371,1.524c0.438,1.285,0.718,2.272,0.838,2.96
		c0.217,0.885,0.534,1.766,0.954,2.639c0.48,0.936,0.843,1.629,1.088,2.081l1.312,1.793
		C123.007,101.873,123.249,102.098,123.309,102.281z"/>
	<path fill-rule="evenodd" clip-rule="evenodd" fill="#D87E63" d="M99.85,103.138l-0.196-0.127l0.023-0.235
		c1.523-0.881,2.375-1.412,2.558-1.588c1.063-0.961,1.831-1.762,2.3-2.407c0.796-0.891,1.431-1.719,1.903-2.483
		c0.815-1.289,2.084-4.036,3.803-8.241l1.611-4.588l0.242-0.521l0.165-0.124c0.465-1.211,0.879-1.754,1.235-1.628
		c-0.012,0.037-0.02,0.116-0.021,0.236c-0.049,0.143-0.118,0.221-0.202,0.231c-0.076,0.216-0.132,0.317-0.167,0.306l-0.433,1.06
		l-0.167,0.124c-0.101,0.289-0.176,0.444-0.223,0.467l-1.554,4.426c-0.529,1.39-1.485,3.538-2.87,6.45
		c-0.689,1.494-1.369,2.629-2.044,3.404c-0.357,0.439-0.946,1.142-1.77,2.105c-0.186,0.299-0.839,0.897-1.964,1.796
		C100.846,102.78,100.105,103.228,99.85,103.138z"/>
	<path fill-rule="evenodd" clip-rule="evenodd" fill="#D87E63" d="M111.31,81.035l-2.23,2.552c-0.833,0.998-1.927,2.09-3.272,3.275
		c-1.69,1.589-3.691,3.029-6.002,4.319c-1.009,0.575-2.862,1.54-5.564,2.896c-1.229,0.74-2.244,1.616-3.042,2.63l-1.257,1.499
		c-0.082,0.13-0.252,0.436-0.5,0.914c-0.262,0.394-0.48,0.619-0.665,0.676c-0.103-0.157-0.139-0.292-0.1-0.398
		c0.164-0.468,0.649-1.167,1.46-2.096c0.737-0.83,1.128-1.259,1.181-1.281c0.895-1.059,1.921-1.913,3.077-2.558l5.418-2.825
		c1.615-0.807,3.617-2.245,6-4.317c0.891-0.697,1.904-1.738,3.034-3.118c1.463-1.75,2.396-2.675,2.796-2.777
		C111.711,80.692,111.602,80.897,111.31,81.035z"/>
	<path fill-rule="evenodd" clip-rule="evenodd" fill="#D87E63" d="M112.281,79.133c-0.27,0.189-0.479,0.277-0.636,0.261
		c-0.33,0.129-0.723,0.272-1.187,0.433l-2.459,1.318c-2.011,1.355-3.724,2.43-5.135,3.229c-1.215,0.583-2.676,1.06-4.383,1.431
		c-0.967,0.225-2.384,0.516-4.248,0.873c-2.092,0.438-3.471,0.68-4.134,0.731c-0.084,0.011-0.702,0.036-1.846,0.078
		c-1.16,0.079-1.847,0.081-2.063,0.003c-0.143-0.049-0.228-0.161-0.247-0.329c0.119-0.118,0.262-0.17,0.419-0.156
		c0.178,0.063,0.311,0.088,0.396,0.08l2.278-0.109c1.523-0.072,2.543-0.158,3.062-0.26l6.208-1.275
		c2.178-0.447,4.491-1.454,6.939-3.017c1.707-1.179,2.932-1.963,3.673-2.35l3.406-1.41C112.577,78.752,112.562,78.91,112.281,79.133
		z"/>
	<path fill-rule="evenodd" clip-rule="evenodd" fill="#D87E63" d="M102.24,73.548c2.095,1.059,3.427,1.688,4.002,1.89
		c0.109,0.039,0.909,0.238,2.399,0.599l1.205,0.363l1.23,0.129c-0.052,0.145-0.005,0.24,0.138,0.292
		c-0.327,0.128-0.774,0.131-1.339,0.014c-0.3-0.064-0.709-0.167-1.224-0.31c-1.167-0.247-2.019-0.465-2.561-0.655
		c-2.338-0.821-5.021-2.328-8.047-4.523c-0.859-0.667-2.077-1.68-3.66-3.043l-1.968-1.479c-0.296-0.306-0.625-0.521-0.985-0.648
		c-0.108-0.037-0.31-0.091-0.611-0.154c-0.29-0.102-0.396-0.261-0.32-0.477l0.132-0.197l0.233,0.023
		c1.254,0.804,1.899,1.21,1.934,1.224l0.412,0.387l0.502,0.298l4.644,3.691C98.452,71.045,99.744,71.902,102.24,73.548z"/>
	<path fill-rule="evenodd" clip-rule="evenodd" fill="#D87E63" d="M112.005,73.701l-0.18-0.002c-0.11-0.039-0.444-0.458-1.013-1.264
		c-0.236-0.245-0.562-0.642-0.975-1.19l-1.015-1.085c-0.141-0.17-0.448-0.561-0.92-1.171c-1.057-1.138-1.737-1.842-2.047-2.113
		c-0.391-0.38-1.114-0.976-2.161-1.79c-0.485-0.453-1.225-1.056-2.214-1.807c-0.799-0.604-1.555-1.093-2.275-1.466
		c-0.392-0.26-1.206-0.645-2.439-1.159L95.471,60.2c-0.109-0.039-0.29-0.103-0.542-0.191c-0.24-0.125-0.422-0.29-0.55-0.497
		c0.121-0.119,0.382-0.109,0.775,0.03c1.657,0.582,3.234,1.318,4.74,2.211c0.637,0.264,1.387,0.769,2.256,1.519
		c0.927,0.811,1.648,1.407,2.161,1.79c1.095,0.789,2.445,2.07,4.043,3.844c1.019,1.125,1.652,1.853,1.903,2.184
		c0.556,0.6,0.97,1.027,1.243,1.286C111.927,72.888,112.096,73.33,112.005,73.701z"/>
	<path fill-rule="evenodd" clip-rule="evenodd" fill="#D87E63" d="M111.537,69.172l-1.894-1.693
		c-0.392-0.381-1.029-0.929-1.908-1.641c-1.42-1.832-2.372-3.661-2.863-5.491c-0.182-0.75-0.484-2.07-0.913-3.957
		c-0.323-1.73-0.401-3.232-0.236-4.509l0.288-1.169l-0.049-0.201l0.419-1.367c0.101-0.168,0.257-0.215,0.472-0.138
		c0.022,0.169-0.114,0.787-0.41,1.857c-0.03,0.433-0.162,1.095-0.393,1.983c-0.042,0.47,0.01,1.296,0.161,2.481l0.893,4.193
		c0.401,1.96,1.346,3.927,2.834,5.907c0.227,0.281,0.558,0.599,0.999,0.955c0.642,0.468,0.977,0.729,1,0.777
		c1.131,0.921,1.767,1.467,1.907,1.64c0.782,0.881,1.363,1.65,1.738,2.306c0.482,0.697,0.77,1.141,0.865,1.336
		c0.304,0.631,0.391,1.188,0.263,1.668l-0.181-0.004c-0.036-0.013-0.157-0.357-0.364-1.037c-0.289-0.79-0.593-1.361-0.913-1.716
		c-0.202-0.231-0.472-0.61-0.814-1.134C112.146,69.791,111.845,69.442,111.537,69.172z"/>
	<path fill-rule="evenodd" clip-rule="evenodd" fill="#D87E63" d="M115.57,71.316l-0.647-1.256
		c-0.483-0.938-0.785-1.629-0.909-2.077c-0.148-0.498-0.342-1.213-0.582-2.145c-0.202-0.92-0.274-1.976-0.219-3.17
		c-0.095-0.879,0.166-2.83,0.779-5.847l-0.05-0.199c0.101-0.288,0.139-0.457,0.116-0.504c0.373-1.406,0.608-2.597,0.708-3.571
		c0.003-0.929,0.051-1.7,0.146-2.313c0.09-0.371,0.062-1.212-0.087-2.516c-0.002-0.568-0.027-0.898-0.076-0.997l-0.109-1.069
		l0.112-0.143l0.18,0.002c0.18,0.064,0.317,0.941,0.409,2.63c0.062,1.555,0.057,2.606-0.014,3.147
		c-0.046,0.711-0.543,3.627-1.494,8.75c-0.363,3.105-0.263,5.404,0.308,6.895l0.883,2.313c0.27,0.379,0.442,0.699,0.509,0.966
		c0.165,0.221,0.296,0.368,0.393,0.442c0.117,0.121,0.076,0.35-0.122,0.685L115.57,71.316z"/>
	<g>
		<path fill-rule="evenodd" clip-rule="evenodd" fill="#60381B" d="M117.468,69.029c1.979,0.695,3.302,1.991,3.971,3.881
			c0.613,1.709,0.59,3.5-0.065,5.372c-0.705,1.892-1.862,3.285-3.468,4.177c-1.813,1.02-3.834,1.139-6.066,0.355
			c-1.401-0.492-2.31-1.013-2.723-1.561c-0.957-1.308-0.923-3.416,0.102-6.331c1.287-3.67,2.936-5.778,4.946-6.326
			C114.964,68.394,116.065,68.538,117.468,69.029z"/>
		<path fill-rule="evenodd" clip-rule="evenodd" fill="#60381B" d="M125.1,72.5c0.323,0.112,0.346,0.281,0.064,0.506
			c-0.27,0.188-0.528,0.299-0.784,0.33c-0.533,0.259-0.994,0.419-1.383,0.486c-0.287,0.02-0.661,0.05-1.123,0.09
			c-0.734,0.024-1.228-0.008-1.48-0.096l-0.144-0.11l0.001-0.181c0.051-0.145,0.397-0.205,1.035-0.182
			c0.663,0.071,1.097,0.102,1.303,0.093c0.375-0.03,0.803-0.163,1.29-0.396C124.449,72.793,124.857,72.615,125.1,72.5z"/>
		<path fill-rule="evenodd" clip-rule="evenodd" fill="#60381B" d="M124.635,76.759l-3.669-1.288
			c-0.099,0.046-0.166,0.063-0.201,0.05l-0.143-0.111l0.002-0.18c0.05-0.145,0.153-0.21,0.309-0.193
			c0.112,0.037,0.188,0.045,0.237,0.02l3.67,1.29l0.125-0.016c0.18,0.062,0.228,0.159,0.139,0.292
			C125.055,76.766,124.9,76.813,124.635,76.759z"/>
		<path fill-rule="evenodd" clip-rule="evenodd" fill="#60381B" d="M123.85,79.515c-0.144-0.05-0.645-0.468-1.5-1.255
			c-0.811-0.566-1.326-0.89-1.539-0.965l-0.382,0.048l-0.196-0.128l0.057-0.344c0.051-0.144,0.149-0.189,0.293-0.139l0.215,0.075
			c0.504,0.177,1.232,0.633,2.187,1.375c1.01,0.798,1.361,1.245,1.046,1.335L123.85,79.515z"/>
		<path fill-rule="evenodd" clip-rule="evenodd" fill="#60381B" d="M122.799,81.813c-0.181-0.061-0.642-0.529-1.387-1.396
			c-0.781-0.881-1.283-1.36-1.498-1.435c-0.109-0.038-0.209-0.034-0.307,0.013c-0.037-0.014-0.089-0.091-0.158-0.238
			c-0.036-0.133-0.047-0.219-0.034-0.253c0.064-0.181,0.185-0.238,0.363-0.176c0.326,0.114,0.955,0.677,1.893,1.696
			c0.855,0.906,1.327,1.454,1.419,1.648L122.799,81.813z"/>
		<path fill-rule="evenodd" clip-rule="evenodd" fill="#60381B" d="M121,83.485c-0.108-0.038-0.444-0.459-1.012-1.265
			c-0.599-0.816-0.991-1.258-1.172-1.321c-0.072-0.025-0.188,0.015-0.346,0.121c-0.036-0.013-0.105-0.099-0.213-0.256l-0.01-0.308
			c0.048-0.146,0.151-0.209,0.308-0.193l0.216,0.076c0.252,0.088,0.756,0.609,1.513,1.56c0.684,0.927,1.021,1.41,1.009,1.446
			L121,83.485z"/>
		<path fill-rule="evenodd" clip-rule="evenodd" fill="#60381B" d="M119.521,84.42c-0.036-0.012-0.56-0.539-1.566-1.581
			c-0.121-0.122-0.374-0.373-0.767-0.754c-0.33-0.317-0.562-0.58-0.692-0.787c0.156-0.106,0.275-0.146,0.346-0.121
			c0.181,0.062,0.638,0.486,1.373,1.27c0.843,0.82,1.376,1.432,1.598,1.834L119.521,84.42z"/>
		<path fill-rule="evenodd" clip-rule="evenodd" fill="#60381B" d="M119.338,73.022l-0.034-0.074l2.14-2.463l0.325-0.066
			c0.361,0.126,0.375,0.312,0.047,0.562c-0.173,0.141-0.476,0.377-0.919,0.708c-0.763,1.026-1.219,1.512-1.36,1.463L119.338,73.022z
			"/>
		<path fill-rule="evenodd" clip-rule="evenodd" fill="#60381B" d="M117.19,71.72c-0.074-0.025-0.119-0.12-0.142-0.292l1.092-3.799
			l0.292-0.138c0.074,0.024,0.119,0.122,0.141,0.29c-0.305,0.864-0.507,1.561-0.612,2.088c-0.143,0.638-0.302,1.209-0.479,1.711
			L117.19,71.72z"/>
		<path fill-rule="evenodd" clip-rule="evenodd" fill="#60381B" d="M115.706,70.593l-0.18-0.001
			c-0.179-0.063-0.303-0.229-0.372-0.496l-0.391-0.439l-0.75-0.627c-0.189-0.268-0.637-0.771-1.352-1.504l0.129-0.197l0.181,0.002
			c0.217,0.076,0.709,0.57,1.478,1.488c0.382,0.297,0.668,0.518,0.858,0.666C115.605,69.791,115.737,70.161,115.706,70.593z"/>
		<path fill-rule="evenodd" clip-rule="evenodd" fill="#60381B" d="M113.021,72.378c-0.073-0.026-0.287-0.222-0.644-0.588
			c-0.176-0.186-0.409-0.327-0.696-0.428l-1.475-0.638l-0.794-0.158l-0.143-0.109l0.003-0.183c0.064-0.179,0.245-0.237,0.546-0.172
			l0.431,0.153c0.648,0.227,1.326,0.544,2.028,0.953c1.004,0.596,1.313,0.988,0.923,1.174L113.021,72.378z"/>
		<path fill-rule="evenodd" clip-rule="evenodd" fill="#60381B" d="M110.704,72.415c0.216,0.075,0.527,0.225,0.933,0.448
			c0.463,0.285,0.709,0.511,0.731,0.681l-0.293,0.14c-0.109-0.038-0.615-0.317-1.523-0.84l-0.632-0.098
			c-0.158-0.015-0.283,0-0.382,0.047c-0.133,0.034-0.235,0.038-0.307,0.013c-0.082-0.108-0.112-0.201-0.086-0.272
			c0.074-0.217,0.347-0.301,0.817-0.261C110.421,72.355,110.668,72.401,110.704,72.415z"/>
		<path fill-rule="evenodd" clip-rule="evenodd" fill="#60381B" d="M110.118,75.119c-0.54-0.191-1.035-0.222-1.482-0.097
			l-0.144-0.111l0.004-0.18c0.088-0.253,0.404-0.345,0.945-0.275l0.774,0.211c0.43,0.15,1.035,0.444,1.814,0.878
			c-0.077,0.218-0.297,0.26-0.655,0.135L110.118,75.119z"/>
		<path fill-rule="evenodd" clip-rule="evenodd" fill="#60381B" d="M109.383,77.044c-0.638-0.144-1.15-0.184-1.537-0.118
			c-0.094-0.193-0.133-0.308-0.121-0.344c0.089-0.252,0.625-0.287,1.613-0.102c0.972,0.22,1.476,0.337,1.512,0.35
			c-0.051,0.144-0.001,0.241,0.139,0.29C110.554,77.209,110.02,77.185,109.383,77.044z"/>
		<path fill-rule="evenodd" clip-rule="evenodd" fill="#60381B" d="M109.485,79.685l-2.024-0.104
			c-0.084,0.011-0.448,0.126-1.091,0.346c-0.083-0.11-0.113-0.203-0.086-0.274c0.15-0.433,0.78-0.616,1.889-0.549
			c0.832,0.049,1.409,0.131,1.732,0.244c0.324,0.114,0.516,0.261,0.571,0.442c-0.122,0.119-0.292,0.142-0.507,0.066
			C109.863,79.817,109.701,79.76,109.485,79.685z"/>
		<path fill-rule="evenodd" clip-rule="evenodd" fill="#60381B" d="M109.195,81.887c-0.751,0.18-1.355,0.413-1.818,0.694
			c-0.167-0.1-0.228-0.221-0.18-0.364c0.129-0.36,1.348-0.721,3.656-1.083c-0.015,0.157,0.049,0.26,0.194,0.311
			C110.637,81.585,110.019,81.732,109.195,81.887z"/>
		<path fill-rule="evenodd" clip-rule="evenodd" fill="#60381B" d="M113.531,81.106l0.293-0.141c0.106,0.039,0.142,0.11,0.103,0.218
			c-0.054,0.385-0.081,0.638-0.082,0.758l-0.053,1.012c-0.001,0.809-0.137,1.71-0.403,2.707l-0.184-0.004
			c-0.107-0.038-0.093-0.598,0.045-1.682c0.141-1.323,0.196-2.173,0.167-2.546L113.531,81.106z"/>
		<path fill-rule="evenodd" clip-rule="evenodd" fill="#60381B" d="M117.479,86.431c-0.036-0.011-0.149-0.779-0.342-2.301
			c-0.455-1.008-0.629-1.657-0.529-1.945l0.129-0.197l0.288,0.041l0.026,0.615c0.658,1.122,0.859,2.383,0.612,3.79L117.479,86.431z"
			/>
		<path fill-rule="evenodd" clip-rule="evenodd" fill="#60381B" d="M115.795,70.687c-0.636-3.134-0.842-5.025-0.616-5.673
			l0.111-0.143l0.237,0.021c0.178,0.063,0.217,0.24,0.117,0.527c-0.093,0.494-0.141,0.802-0.142,0.922
			c0.035,0.819,0.086,1.364,0.155,1.629c0.392,1.069,0.499,1.974,0.318,2.719L115.795,70.687z"/>
	</g>
</g>
<path fill-rule="evenodd" clip-rule="evenodd" fill="#A4985F" d="M61.319,103.348c-0.256-0.353-0.363-0.731-0.323-1.133
	c0.11-1.109,1.52-2.658,4.227-4.65c1.44-1.072,3.25-2.293,5.434-3.661c0.436-0.303,1.295-0.788,2.578-1.451
	c1.08-0.569,1.834-1.064,2.264-1.486c0.767-0.733,1.543-2.019,2.323-3.853c0.575-1.314,1.216-1.937,1.924-1.867
	c0.976,0.098,1.425,0.529,1.35,1.293c-0.022,0.21-0.315,0.733-0.881,1.565c-0.583,0.811-0.892,1.389-0.925,1.732
	c-0.026,0.269-0.004,0.725,0.066,1.369c0.093,1.013,0.158,1.725,0.194,2.133l-0.605,7.56c0.122,1.691,0.229,3.026,0.327,4.001
	l-0.798,8.031c-0.499,1.729-0.885,2.78-1.155,3.16c-0.223,0.307-0.631,0.428-1.224,0.369c-0.401-0.039-0.702-0.125-0.901-0.261
	c-0.379-0.27-0.739-0.827-1.08-1.673l-0.172-0.596c-0.369,0.794-1.625,2.445-3.765,4.957c-2.21,2.6-3.516,3.88-3.917,3.839
	c-0.268-0.026-0.473-0.094-0.617-0.205c-0.231-0.198-0.39-0.551-0.475-1.06c0.082-0.823,0.18-1.519,0.295-2.086
	c0.049-0.305,0.125-0.674,0.226-1.108c-1.175,0.559-2.978,1.203-5.405,1.927c-2.75,0.828-4.57,1.196-5.47,1.107
	c-0.803-0.081-1.153-0.646-1.049-1.699c0.075-0.745,0.828-2.109,2.262-4.091c0.736-1.008,1.549-2.097,2.439-3.264l-0.046-0.12
	c-0.038-0.023-0.218-0.049-0.543-0.083c-0.229-0.022-0.756,0.024-1.577,0.134c-0.822,0.111-1.359,0.155-1.605,0.13
	c-2.048-0.203-1.909-1.319,0.418-3.347c1.815-1.559,4.161-3.111,7.04-4.662C61.68,103.791,61.402,103.473,61.319,103.348z"/>
<path fill-rule="evenodd" clip-rule="evenodd" fill="#554F2B" d="M79.023,88.421c0.129,0.07,0.184,0.201,0.165,0.393
	c-0.049,0.479-0.829,2.303-2.341,5.475c-1.629,3.372-2.582,5.384-2.858,6.03c-0.781,1.835-1.652,3.614-2.617,5.333
	c-1.074,1.882-2.009,3.219-2.802,4.009c-1.513,1.626-2.646,2.826-3.399,3.601c-1.317,1.396-2.396,2.353-3.24,2.866
	c-3.599,2.404-5.704,3.577-6.316,3.515c-0.076-0.007-0.17-0.036-0.282-0.086c0.072-0.514,0.435-0.971,1.093-1.368
	c0.39-0.231,0.968-0.503,1.732-0.814c1.264-0.667,2.341-1.312,3.233-1.938c1.644-1.189,3.886-3.352,6.728-6.488
	c1.306-1.473,3.033-4.575,5.183-9.306c2.764-6.041,4.567-9.811,5.412-11.312C78.77,88.356,78.872,88.386,79.023,88.421z"/>
<path fill-rule="evenodd" clip-rule="evenodd" fill="#554F2B" d="M75.076,96.661c-0.04,0.402-2.009,1.462-5.907,3.179l-5.866,2.46
	c-0.936-0.092-0.711-0.514,0.678-1.265c1.119-0.584,2.58-1.192,4.381-1.825c2.607-1.364,4.735-2.369,6.383-3.017
	C74.975,96.41,75.086,96.566,75.076,96.661z"/>
<path fill-rule="evenodd" clip-rule="evenodd" fill="#554F2B" d="M73.69,103.331l0.332-4.225c-0.044-0.912-0.026-1.585,0.056-2.021
	c0.038,0.004,0.078-0.012,0.12-0.046c0.041-0.015,0.128-0.017,0.262-0.003c0.172,0.017,0.263,0.181,0.27,0.491
	c0.001,0.579,0.083,1.108,0.249,1.588l-0.384,4.452c0.003,1.7,0.142,3.133,0.412,4.299c0.402,1.777,0.626,2.843,0.668,3.196
	l-0.071,0.717l-0.445,0.389c-0.287-0.027-0.594-1.217-0.92-3.567C74,106.916,73.816,105.16,73.69,103.331z"/>
<path fill-rule="evenodd" clip-rule="evenodd" fill="#554F2B" d="M68.845,108.354c0.095,0.01,0.186,0.077,0.271,0.201
	c0.066,0.103,0.106,0.194,0.119,0.271l-0.072,0.718c-0.633,2.101-1.192,4.516-1.676,7.251c-0.265,1.498-0.569,2.23-0.914,2.196
	c-0.342-0.033-0.34-0.747,0.011-2.141c0.805-3.242,1.401-5.945,1.79-8.108L68.845,108.354z"/>
<path fill-rule="evenodd" clip-rule="evenodd" fill="#554F2B" d="M68.683,108.541l-0.133,0.451c0.016,0.04-0.09,0.048-0.321,0.025
	c-0.114-0.011-0.244-0.073-0.387-0.183c-0.125-0.108-0.253-0.169-0.387-0.184c-0.498-0.049-2.229,0.263-5.193,0.933
	c-2.866,0.682-4.31,1.02-4.329,1.018l-0.398-0.096c0.042-0.981,1.652-1.662,4.838-2.039c3.043-0.491,4.804-0.712,5.281-0.664
	C68.381,107.874,68.725,108.12,68.683,108.541z"/>
</svg>
