<?xml version="1.0" encoding="utf-8"?>
<!-- Generator: Adobe Illustrator 16.0.0, SVG Export Plug-In . SVG Version: 6.00 Build 0)  -->
<!DOCTYPE svg PUBLIC "-//W3C//DTD SVG 1.1//EN" "http://www.w3.org/Graphics/SVG/1.1/DTD/svg11.dtd">
<svg version="1.1" id="Layer_1" xmlns="http://www.w3.org/2000/svg" xmlns:xlink="http://www.w3.org/1999/xlink" x="0px" y="0px"
	 width="217.629px" height="176.36px" viewBox="0 0 217.629 176.36" enable-background="new 0 0 217.629 176.36"
	 xml:space="preserve">
<g>
	<path fill-rule="evenodd" clip-rule="evenodd" fill="#E7BE55" d="M110.206,103.719c0.723,0.54,0.96,1.64,0.712,3.291
		c-0.292,1.554-0.248,3.205,0.119,4.953c0.389,1.802-4.446,1.781-14.503-0.054c-10.154-1.705-18.193-2.708-24.117-3.021
		c-6.081-0.27-10.306-0.507-12.685-0.712c-3.933-0.399-12.226-0.723-24.851-0.982c-2.088-0.054-12.081,0.658-29.982,2.147
		c-8.8-0.086-0.416-4.532,25.143-13.316L2.805,87.012c-9.118-3.329,1.894-4.219,33.042-2.627
		c-9.075-4.025-15.042-7.715-17.891-11.087c-2.606-2.924-4.468-5.412-5.579-7.457c-2.028-3.55-0.809-4.37,3.658-2.46
		c2.708,1.468,7.564,4.166,14.535,8.077c6.07,3.431,11.044,6.097,14.924,8.007c8.007,3.831,18.62,8.201,31.876,13.119
		c0.243,0.086,2.908,1.058,8.007,2.871c3.248,1.133,5.946,2.169,8.083,3.097C96.167,99.727,101.756,101.453,110.206,103.719z"/>
	<path fill-rule="evenodd" clip-rule="evenodd" fill="#6F8F98" d="M75.211,102.564c22.801,3.755,34.757,6.086,35.891,6.971
		c0.199,0.162,0.313,0.291,0.329,0.377c-0.124,0.162-0.2,0.302-0.232,0.442c-16.402-3.453-29.243-5.967-38.545-7.564
		c-3.647-0.626-10.349-1.457-20.093-2.493l-20.88-1.5c-0.259-0.205-0.394-0.356-0.41-0.442l0.248-0.302
		C36.618,97.169,51.18,98.68,75.211,102.564z"/>
	<path fill-rule="evenodd" clip-rule="evenodd" fill="#6F8F98" d="M64.539,95.529c4.397,0.971,11.848,2.903,22.38,5.784
		c9.572,2.73,17.174,4.619,22.828,5.665l0.189,0.399c0.313-0.173,0.302-0.065-0.021,0.345c-0.367,0.464-5.428-0.658-15.183-3.356
		c-13.839-3.841-23.983-6.485-30.43-7.91c-2.05-0.442-5.968-1.166-11.751-2.147c-5.125-0.885-9.032-1.683-11.713-2.385l-11.374-2.97
		c-0.361,0.043-2.217-0.14-5.568-0.523c-3.815-0.437-5.984-0.857-6.491-1.257c-0.259-0.205-0.389-0.356-0.405-0.437
		c-0.016-0.103,0.038-0.216,0.167-0.373C32.803,88.885,48.59,91.936,64.539,95.529z"/>
	<path fill-rule="evenodd" clip-rule="evenodd" fill="#6F8F98" d="M67.722,92.917c-2.406-1.057-5.644-2.32-9.723-3.79
		c-5.287-1.834-8.687-3.059-10.197-3.674c-3.987-1.899-7.149-3.264-9.474-4.106c-5.914-1.991-9.221-3.275-9.938-3.841
		c-0.313-0.243-0.442-0.551-0.394-0.928c5.331,1.457,11.983,3.831,19.947,7.117c10.758,4.489,17.33,7.173,19.715,8.058
		c8.104,2.892,15.015,4.975,20.745,6.248c1.624,0.367,5.072,1.424,10.343,3.173c1.942,0.604,5.546,1.457,10.829,2.546
		c0.361,0.281,0.523,0.453,0.475,0.497l-0.178,0.227c-3.194,0.064-6.831-0.55-10.888-1.834c-4.521-1.662-7.969-2.806-10.37-3.442
		c-4.802-1.295-8.384-2.245-10.726-2.838C73.652,95.151,70.269,94.019,67.722,92.917z"/>
	<path fill-rule="evenodd" clip-rule="evenodd" fill="#E7BE55" d="M37.864,24.318c1.402,1.98,4.176,4.079,8.341,6.291l0.361,0.156
		c0.75-3.307,0.664-6.555-0.265-9.76c-0.523-1.872-1.403-4.408-2.627-7.591c0.691-0.41,1.808-0.275,3.351,0.416
		c5.374,2.39,11.352,9.339,17.945,20.848c6.928,13.3,11.794,22.289,14.567,26.961c2.838,4.688,8.304,12.41,16.38,23.152
		c1.926,2.574,3.399,4.556,4.435,5.938c1.802,2.374,3.27,4.036,4.424,4.975c0.523,0.442,2.202,1.867,5.061,4.295
		c2.53,2.331,3.572,4.003,3.119,5.018c-0.184,0.421-1.273,0.863-3.27,1.327c-1.878,0.378-2.914,0.529-3.092,0.453
		C92.994,100.741,76.414,90.5,56.829,76.06C34.562,59.642,22.304,47.227,20.054,38.793c2.169-0.038,5.012,0.626,8.546,1.98
		c4.338,1.651,7.289,2.639,8.854,2.979c-0.334-3.723-2.072-8.174-5.196-13.348c-2.903-4.727-4.203-8.698-3.906-11.929l2.725,1.106
		C34.352,21.042,36.612,22.618,37.864,24.318z"/>
	<path fill-rule="evenodd" clip-rule="evenodd" fill="#6E8F99" d="M35.706,52.908c24.398,24.306,48.03,41.445,70.885,51.405
		l-0.194,0.442c-1.251-0.41-3.038-1.133-5.363-2.169c-10.856-4.824-23.211-12.518-37.099-23.058
		C49.993,68.965,40.578,60.095,35.706,52.908z"/>
	<path fill-rule="evenodd" clip-rule="evenodd" fill="#6E8F99" d="M43.81,43.131l-0.011-0.216c0.081-0.032,0.334,0.043,0.755,0.227
		c0.302,0.13,1.387,1.549,3.259,4.235c2.056,2.919,3.329,4.624,3.826,5.137c1.127,1.138,2.379,2.665,3.75,4.559
		c1.306,1.727,2.407,3.038,3.292,3.928c1.77,1.646,4.333,4.327,7.683,8.034c3.501,3.836,5.962,6.48,7.408,7.904
		c2.196,2.126,7.602,6.496,16.235,13.119c1.991,1.468,4.597,3.874,7.812,7.241c3.464,3.604,6.048,6.075,7.748,7.402l-0.017,0.755
		c-0.14,0-0.232,0.032-0.259,0.097c-0.065-0.032-0.302-0.14-0.712-0.324c-0.302-0.119-2.52-2.223-6.636-6.28
		c-4.559-4.532-7.597-7.413-9.113-8.654c-1.063-0.984-3.771-3.083-8.131-6.299c-3.75-2.816-6.448-5.093-8.109-6.825
		c-6.874-6.852-12.005-12.102-15.377-15.754C51.245,55.055,46.783,48.964,43.81,43.131z"/>
	<path fill-rule="evenodd" clip-rule="evenodd" fill="#6E8F99" d="M54.66,37.375c0.178-0.076,0.243-0.146,0.21-0.232l0.712,0.324
		c0.545,0.227,2.369,2.627,5.493,7.154c3.653,5.271,5.978,8.487,6.96,9.642c0.896,1.042,2.946,3.733,6.146,8.093
		c2.212,2.914,4.365,5.223,6.453,6.944c3.69,2.93,7.926,8.028,12.69,15.296c5.163,8.301,8.918,14.149,11.271,17.549
		c0.205,0.809-0.081,1.046-0.853,0.712c-0.184-0.086-3.021-4.284-8.541-12.604c-6.199-9.337-11.433-16.2-15.695-20.597
		c-3.151-3.334-7.3-8.395-12.42-15.172C59.726,44.847,55.491,39.349,54.374,38L54.66,37.375z"/>
	<path fill-rule="evenodd" clip-rule="evenodd" fill="#E7BE55" d="M108.274,112.104c-1.425,1.058-3.561-3.302-6.437-13.078
		c-2.924-9.833-5.562-17.468-7.926-22.928c-2.45-5.601-4.111-9.496-4.975-11.687c-1.451-3.75-4.84-11.347-10.192-22.785
		c-0.869-1.899-5.935-10.5-15.199-25.806c-3.81-7.937,3.949-2.433,23.254,16.504L82.625,3.95
		c-1.079-9.685,4.613-0.178,17.082,28.499c-0.442-9.96,0.194-16.985,1.91-21.064c1.479-3.636,2.871-6.345,4.192-8.142
		c2.347-3.345,3.631-2.66,3.852,2.056c-0.059,3.011-0.329,8.573-0.793,16.693c-0.377,6.944-0.518,12.566-0.437,16.834
		c0.103,8.945,0.836,20.421,2.185,34.422c0.054,0.243,0.426,3.07,1.128,8.471c0.383,3.394,0.609,6.27,0.701,8.598
		c0.184,2.968,1.127,8.751,2.843,17.363c-0.103,0.874-0.955,1.554-2.562,2.028C111.166,110.194,109.688,110.981,108.274,112.104z"/>
	<path fill-rule="evenodd" clip-rule="evenodd" fill="#6F8F98" d="M97.548,73.896c6.733,22.097,9.949,33.848,9.652,35.251
		c-0.049,0.259-0.113,0.41-0.194,0.464c-0.189-0.043-0.356-0.043-0.497-0.011c-4.17-16.218-7.613-28.841-10.305-37.878
		c-1.042-3.561-3.259-9.933-6.663-19.116l-7.904-19.38c0.064-0.318,0.135-0.502,0.21-0.55l0.388,0.075
		C85.29,36.927,90.394,50.653,97.548,73.896z"/>
	<path fill-rule="evenodd" clip-rule="evenodd" fill="#6F8F98" d="M99.124,61.228c1.079,4.365,2.655,11.902,4.737,22.607
		c1.791,9.785,3.475,17.435,5.039,22.971l-0.27,0.345c0.292,0.194,0.184,0.237-0.329,0.129c-0.578-0.129-1.818-5.147-3.718-15.085
		c-2.687-14.106-4.823-24.363-6.404-30.762c-0.491-2.045-1.591-5.87-3.27-11.498c-1.478-4.98-2.503-8.832-3.059-11.552
		l-2.374-11.508c-0.205-0.302-0.869-2.045-1.996-5.217c-1.306-3.609-1.894-5.73-1.749-6.377c0.065-0.313,0.135-0.501,0.21-0.545
		c0.076-0.059,0.21-0.059,0.405-0.021C91.02,29.843,95.282,45.338,99.124,61.228z"/>
	<path fill-rule="evenodd" clip-rule="evenodd" fill="#6F8F98" d="M102.868,62.922c-0.108-2.627-0.41-6.091-0.907-10.397
		c-0.69-5.546-1.101-9.14-1.225-10.758c-0.07-4.419-0.232-7.856-0.518-10.311c-0.831-6.183-1.154-9.717-0.966-10.613
		c0.081-0.383,0.308-0.636,0.664-0.755c1.052,5.422,1.873,12.425,2.455,21.026c0.745,11.622,1.252,18.695,1.521,21.22
		c0.993,8.551,2.196,15.668,3.593,21.36c0.389,1.624,0.971,5.18,1.737,10.68c0.313,1.996,1.155,5.611,2.515,10.834
		c-0.086,0.453-0.173,0.658-0.227,0.647l-0.296-0.065c-1.468-2.838-2.52-6.367-3.167-10.564c-0.528-4.78-1.036-8.387-1.521-10.821
		c-0.966-4.877-1.694-8.498-2.201-10.872C103.505,69.229,103.019,65.689,102.868,62.922z"/>
	<path fill-rule="evenodd" clip-rule="evenodd" fill="#52796E" d="M83.552,93.565c3.518,0.27,7.014,0.421,10.5,0.421l-3.388-8.662
		c2.083,0.734,4.969,1.92,8.649,3.577c-0.021-0.184-0.21-1.414-0.578-3.696c-0.275-1.964-0.307-3.61-0.097-4.937
		c1.316,0.863,3.431,2.282,6.355,4.268c-0.075-1.062,0.297-2.687,1.106-4.872c0.448-1.306,1.36-3.739,2.757-7.306l0.216-0.583
		c0.194-0.249,0.426-0.275,0.68-0.076c0.566,0.442,1.02,2.509,1.36,6.183c0.41,4.225,0.885,7.052,1.424,8.471
		c0.55,1.527,1.521,3.24,2.914,5.172c0.766,1.014,1.899,2.493,3.383,4.402c1.462,2.158,4.084,4.716,7.883,7.715
		c3.016,3.129,4.375,7.101,4.068,11.924c-1.241,5.806-4.241,9.561-8.994,11.244c-4.829,2.428-10.154,1.349-15.997-3.259
		c-1.694-1.327-3.162-2.903-4.403-4.715c-1.268-1.749-2.725-3.27-4.37-4.565c-2.245-1.78-4.861-2.794-7.818-3.054
		c-5.266-0.485-8.881-0.96-10.839-1.435c2.094-1.91,4.273-3.453,6.496-4.597c1.975-1.025,3.766-1.608,5.369-1.759
		c-0.437-1.014-1.7-2.622-3.777-4.845C84.729,96.641,83.763,94.979,83.552,93.565z"/>
	<path fill-rule="evenodd" clip-rule="evenodd" fill="#51786F" d="M124.271,118.298c1.074,0.853,2.617,2.471,4.619,4.888
		c2.012,2.406,3.599,4.079,4.786,5.007l10.451,8.255c7.85,6.172,12.528,9.776,14.044,10.802c3.95,2.784,10.1,6.388,18.425,10.791
		c4.516,2.396,12.28,5.19,23.303,8.395c10.446,2.989,15.739,4.543,15.895,4.672c0.464,0.367,0.782,0.95,0.971,1.759
		c0.308,0.993,0.2,1.813-0.334,2.482c-1.084,1.381-4.511,1.349-10.262-0.108c-1.381-0.356-5.649-1.629-12.792-3.841
		c-7.958-2.46-14.368-5.137-19.218-8.05c-12.739-7.554-19.272-11.449-19.58-11.697c-2.115-1.328-6.885-4.921-14.309-10.78
		c-5.87-4.791-10.386-8.341-13.532-10.672c-0.621-0.475-2.547-2.612-5.789-6.421c-1.98-2.546-2.32-4.435-1.02-5.665
		C121.186,116.938,122.631,117.003,124.271,118.298z"/>
</g>
</svg>
