<?xml version="1.0" encoding="utf-8"?>
<!-- Generator: Adobe Illustrator 16.0.0, SVG Export Plug-In . SVG Version: 6.00 Build 0)  -->
<!DOCTYPE svg PUBLIC "-//W3C//DTD SVG 1.1//EN" "http://www.w3.org/Graphics/SVG/1.1/DTD/svg11.dtd">
<svg version="1.1" id="Layer_1" xmlns="http://www.w3.org/2000/svg" xmlns:xlink="http://www.w3.org/1999/xlink" x="0px" y="0px"
	 width="497.693px" height="436.518px" viewBox="0 0 497.693 436.518" enable-background="new 0 0 497.693 436.518"
	 xml:space="preserve">
<g>
	<path fill-rule="evenodd" clip-rule="evenodd" fill="#8B9793" d="M312.881,266.203c28.751,17.445,61.351,41.719,97.811,72.81
		c3.522,3.065,17.324,16.963,41.398,41.707c16.488,17.193,31.279,28.584,44.348,34.146c1.883-5.503,1.65-10.721-0.708-15.683
		c-0.888-1.904-3.55-5.881-7.956-11.881c-51.141-69.657-141.898-133.754-272.278-192.277c-49.501-22.27-90.194-36.73-122.092-43.396
		c-32.117-6.696-42.889-2.841-32.35,11.605c-3.576-5.164,21.231,1.501,74.435,19.965
		C196.858,204.469,255.981,232.138,312.881,266.203z"/>
	<path fill-rule="evenodd" clip-rule="evenodd" fill="#8B9793" d="M110.111,68.789c-12.135,7.626-11.773,25.483,1.127,53.55
		c7.781,16.905,18.652,34.888,32.64,53.93c3.562,4.837,5.793,7.693,6.693,8.581c3.446,2.608,7.42,2.913,11.859,0.935
		c-0.159-7.592-7.896-28.278-23.172-62.04c-15.384-32.156-23.195-48.394-23.437-48.733c-1.964-2.678-3.548-4.467-4.731-5.393
		L110.111,68.789z"/>
	<path fill-rule="evenodd" clip-rule="evenodd" fill="#8B9793" d="M34.218,230.165c0.119,1.205,1.093,3.059,2.938,5.572
		c3.308,4.508,12.061,3.092,26.224-4.217c0.329-0.247,30.672-17.386,91.034-51.418c1.7-8.193,2.484-12.367,2.364-12.531
		c-4.79-6.508-17.33-3.996-37.639,7.571c-13.156,7.613-41.506,25.209-85.009,52.787C34.25,228.092,34.278,228.836,34.218,230.165z"
		/>
	<path fill-rule="evenodd" clip-rule="evenodd" fill="#8B9793" d="M11.559,76.364c-0.075,2.366,1.604,5.892,5.045,10.563
		c6.123,8.353,20.671,23.258,43.623,44.718c29.931,28.149,52.408,44.432,67.455,48.805c1.443-6.456,2.166-9.825,2.213-10.11
		c0.104-1.62-0.281-3.005-1.138-4.176c-5.764-7.853-23.849-25.684-54.289-53.466c-9.616-8.88-26.515-24.224-50.754-46.027
		C15.822,68.865,11.746,72.108,11.559,76.364z"/>
	<path fill-rule="evenodd" clip-rule="evenodd" fill="#8B9793" d="M271.884,239.239l2.778,0.649c1.914,0.15,4.111-0.7,6.613-2.542
		c3.512-2.577,2.693-19.977-2.446-52.178c-5.735-31.28-8.418-46.657-8.043-46.156c-14.721-20.041-19.886-10.46-15.524,28.759
		c2.042,19.58,5.812,41.346,11.328,65.326C269.654,237.261,271.414,239.332,271.884,239.239z"/>
	<path fill-rule="evenodd" clip-rule="evenodd" fill="#8B9793" d="M177.574,85.588c2.695,3.67,10.456,11.091,23.273,22.249
		c14.024,12.076,22.224,19.411,24.646,22.014c4.551,5.137,10.383,13.968,17.502,26.473c7.361,10.028,16.82,15.021,28.386,15.032
		c0.577-2.741,1.291-5.969,2.167-9.682c0.38-1.579,0.442-2.528,0.203-2.859c-3.931-5.346-19.896-24.469-47.907-57.381
		c-2.913-3.264-7.513-7.599-13.789-13.013c-8.016-6.708-12.864-10.866-14.555-12.453c-8.688-8.003-15.374-9.916-20.009-5.733
		C173.006,74.29,173.036,79.401,177.574,85.588z"/>
	<path fill-rule="evenodd" clip-rule="evenodd" fill="#8B9793" d="M259.643,159.533l2.782,0.659
		c1.908,0.133,4.108-0.701,6.621-2.546c4.675-3.427,3.593-24.506-3.206-63.197c-7.586-37.628-11.191-56.192-10.816-55.69
		c-15.951-21.72-21.146-9.547-15.607,36.524c2.836,23.112,7.387,48.565,13.645,76.355
		C255.27,154.646,257.455,157.28,259.643,159.533z"/>
	<path fill-rule="evenodd" clip-rule="evenodd" fill="#8B9793" d="M255.625,168.268l1.994,0.081c1.317,0.05,3.232-0.834,5.743-2.679
		c2.85-2.089,7.909-10.953,15.189-26.574c8.604-18.404,14.171-29.554,16.698-33.475c11.26-15.459,18.707-26.324,22.344-32.599
		c6.022-10.338,7.2-18.012,3.518-23.014c-1.965-2.685-3.416-4.313-4.36-4.9l-0.608-0.326c-11.201,12.08-24.598,29.884-40.217,53.44
		c-21.223,32.024-30.237,53.167-27.073,63.443L255.625,168.268z"/>
	<path fill-rule="evenodd" clip-rule="evenodd" fill="#8B9793" d="M256.189,155.898c0.605,0.833,1.221,2.189,1.826,4.054
		c1.318,1.095,3.779,0.958,7.396-0.426c10-4.245,33.538-19.98,70.615-47.204c5.678-4.171,15.095-12.367,28.225-24.572
		c0.571-2.737,1.287-5.96,2.151-9.683c0.39-1.575,0.452-2.525,0.213-2.855c-2.209-3.008-6.68-3.851-13.402-2.5l-95.212,69.903
		C256.301,150.801,255.695,155.224,256.189,155.898z"/>
	<path fill-rule="evenodd" clip-rule="evenodd" fill="#8B9793" d="M160.77,318.491c0.115,1.197,1.092,3.057,2.925,5.58
		c3.439,4.664,16.743,4.042,39.894-1.905c30.083-8.728,52.779-15.111,68.071-19.129c9.726-2.513,26.915-4.854,51.556-7.007
		c12.154-0.949,23.475-1.809,33.961-2.574c3.517-2.58,5.045-6.266,4.592-11.077c-0.422-3.048-1.256-5.382-2.475-7.049
		c-5.646-7.679-39.241-3.737-100.773,11.892c-54.895,13.837-87.513,23.51-97.838,29.03
		C160.801,316.418,160.832,317.169,160.77,318.491z"/>
	<path fill-rule="evenodd" clip-rule="evenodd" fill="#8B9793" d="M119.295,240.984c0.102,1.195,1.074,3.056,2.919,5.567
		c8.581,11.688,22.688,25.63,42.288,41.835c20.087,16.855,34.912,26.555,44.458,29.052c1.023-4.593,0.516-9.639-1.454-15.115
		c-1.125-3.302-2.369-5.865-3.729-7.689c-10.291-14.047-23.008-27.198-38.197-39.437c-20.66-16.958-36.13-22.443-46.389-16.454
		C119.309,238.908,119.339,239.654,119.295,240.984z"/>
	<path fill-rule="evenodd" clip-rule="evenodd" fill="#8B9793" d="M77.241,341.264c0.104,1.201,1.093,3.059,2.92,5.567
		c4.161,5.673,11.34,6.843,21.481,3.511c15.52-6.523,29.683-11.89,42.488-16.169c2.667-0.926,12.661-3.75,30.011-8.511
		c13.749-3.675,21.635-6.261,23.631-7.728c2.676-1.945,4.804-3.773,6.406-5.47l1.429-2.208c-0.238-0.334-0.377-0.891-0.395-1.644
		c0.122-0.865-0.729-2.546-2.566-5.037c-3.687-5.023-22.531-1.968-56.552,9.097c-28.522,9.12-51.515,17.904-68.944,26.338
		C77.273,339.192,77.29,339.947,77.241,341.264z"/>
	<path fill-rule="evenodd" clip-rule="evenodd" fill="#8B9793" d="M110.659,393.077c2.849,0.737,5.519,0.188,8.022-1.654
		c3.525-2.581,6.812-6.669,9.905-12.275c2.992-6.051,7.464-11.519,13.393-16.386c18.481-15.116,33.514-26.151,45.099-33.107
		c8.427-4.644,14.168-8.226,17.205-10.706c0.233-1.473-1.182-4.267-4.264-8.432c-3.179-4.354-7.275-5.734-12.266-4.118
		c-11.009,3.195-30.091,16.435-57.215,39.708c-19.118,20.197-27.71,35.11-25.77,44.733
		C105.759,391.141,107.728,391.904,110.659,393.077z"/>
	<path fill-rule="evenodd" clip-rule="evenodd" fill="#8B9793" d="M211.99,300.562c-13.228-18.009-22.416-6.004-27.527,36.029
		c-2.604,20.922-3.756,43.895-3.449,68.849c3.082,4.165,4.6,5.89,4.548,5.13l2.804,0.643c1.904,0.152,4.115-0.687,6.616-2.544
		c2.507-1.826,5.359-21.911,8.584-60.265C206.491,312.973,209.309,297.022,211.99,300.562z"/>
	<path fill-rule="evenodd" clip-rule="evenodd" fill="#4E625C" d="M231.101,49.763c7.929,2.399,15.157,1.213,21.663-3.562
		c7.863-5.776,11.208-13.117,10.053-22.04c-0.572-4.977-2.09-9.136-4.538-12.477C248.104-2.179,236.701-3.71,224.069,7.112
		c-12.627,10.805-14.525,22.23-5.695,34.26C221.075,45.041,225.309,47.844,231.101,49.763z"/>
	<path fill-rule="evenodd" clip-rule="evenodd" fill="#4E625C" d="M332.156,65.039c7.517-5.517,10.84-12.728,9.986-21.606
		c-0.655-5.434-2.152-9.742-4.479-12.909c-9.56-13.023-21.207-14.884-34.942-5.577c-13.729,9.304-15.383,21.066-4.965,35.259
		c2.705,3.673,6.938,6.476,12.73,8.396C318.242,71.13,325.486,69.938,332.156,65.039z"/>
	<path fill-rule="evenodd" clip-rule="evenodd" fill="#4E625C" d="M349.981,104.002c8.95,2.421,16.794,1.168,23.469-3.732
		c7.854-5.768,11.204-13.111,10.046-22.022c-0.571-4.995-2.088-9.146-4.541-12.484c-10.423-14.2-23.04-16.514-37.845-6.917
		c-14.937,9.417-17.07,21.404-6.402,35.934C337.771,98.96,342.865,102.035,349.981,104.002z"/>
	<path fill-rule="evenodd" clip-rule="evenodd" fill="#4E625C" d="M165.113,100.138c6.996,1.802,13.664,0.383,20.004-4.272
		c9.022-6.628,12.365-14.865,10.017-24.699l-5.794-11.564c-10.06-13.703-21.583-15.401-34.567-5.077
		c-13.124,10.139-14.843,21.812-5.151,35.012C153.661,95.046,158.832,98.579,165.113,100.138z"/>
	<path fill-rule="evenodd" clip-rule="evenodd" fill="#4E625C" d="M86.897,46.126c-12.637,10.801-14.536,22.226-5.698,34.253
		c2.695,3.676,6.936,6.477,12.72,8.393c7.768,2.534,14.993,1.339,21.67-3.564c7.53-5.521,10.849-12.72,9.987-21.596
		c-0.652-5.435-2.138-9.75-4.47-12.914C110.921,36.83,99.528,35.303,86.897,46.126z"/>
	<path fill-rule="evenodd" clip-rule="evenodd" fill="#4E625C" d="M21.943,82.626c8.965,2.414,16.792,1.17,23.459-3.722
		c7.854-5.775,11.279-13.042,10.236-21.794c-0.7-5.148-2.268-9.386-4.724-12.723c-10.425-14.2-23.034-16.516-37.852-6.916
		C-1.863,46.886-4,58.865,6.662,73.405C9.731,77.574,14.826,80.651,21.943,82.626z"/>
	<path fill-rule="evenodd" clip-rule="evenodd" fill="#4E625C" d="M33.872,193.408c7.228,1.121,14.022-0.656,20.368-5.314
		c8.355-6.133,12.109-13.645,11.245-22.529c-0.411-5.085-1.906-9.388-4.481-12.899c-9.571-13.028-21.64-14.582-36.19-4.659
		c-14.565,9.92-16.643,21.989-6.222,36.183C22.398,189.372,27.49,192.447,33.872,193.408z"/>
	<path fill-rule="evenodd" clip-rule="evenodd" fill="#4E625C" d="M25.333,273.713c8.053,2.573,15.34,1.469,21.849-3.312
		c7.861-5.77,11.197-13.108,10.051-22.032c-0.579-4.975-2.08-9.151-4.534-12.486c-10.185-13.86-21.577-15.388-34.209-4.573
		c-12.632,10.816-14.529,22.238-5.694,34.26C15.37,269.08,19.548,271.792,25.333,273.713z"/>
	<path fill-rule="evenodd" clip-rule="evenodd" fill="#4E625C" d="M122.627,267.06c8.966,2.416,16.793,1.17,23.482-3.736
		c7.861-5.769,11.197-13.106,10.036-22.026c-0.567-4.98-2.079-9.15-4.521-12.492c-10.437-14.196-23.058-16.5-37.861-6.902
		c-14.927,9.414-17.063,21.401-6.389,35.93C110.428,262.007,115.521,265.081,122.627,267.06z"/>
	<path fill-rule="evenodd" clip-rule="evenodd" fill="#4E625C" d="M70.529,372.036c7.766,2.524,14.979,1.339,21.667-3.579
		c7.503-5.506,10.834-12.716,9.973-21.591c-0.651-5.429-2.151-9.743-4.472-12.912c-10.166-13.866-21.581-15.403-34.207-4.573
		c-12.624,10.796-14.517,22.233-5.698,34.253C60.487,367.311,64.746,370.113,70.529,372.036z"/>
	<path fill-rule="evenodd" clip-rule="evenodd" fill="#4E625C" d="M96.119,422.645c7.765,2.526,14.977,1.336,21.657-3.56
		c7.514-5.525,10.849-12.721,10.001-21.603c-0.657-5.44-2.167-9.736-4.484-12.909c-9.567-13.021-21.207-14.906-34.943-5.576
		c-13.73,9.299-15.37,21.062-4.961,35.26C86.096,417.93,90.337,420.724,96.119,422.645z"/>
	<path fill-rule="evenodd" clip-rule="evenodd" fill="#4E625C" d="M178.679,435.312c7.929,2.404,15.142,1.215,21.65-3.573
		c7.86-5.771,11.225-13.12,10.064-22.037c-0.58-4.975-2.089-9.131-4.543-12.461c-10.184-13.862-21.581-15.401-34.207-4.571
		c-12.625,10.796-14.521,22.22-5.704,34.237C168.641,430.599,172.876,433.393,178.679,435.312z"/>
</g>
</svg>
