<?xml version="1.0" encoding="utf-8"?>
<!-- Generator: Adobe Illustrator 16.0.0, SVG Export Plug-In . SVG Version: 6.00 Build 0)  -->
<!DOCTYPE svg PUBLIC "-//W3C//DTD SVG 1.1//EN" "http://www.w3.org/Graphics/SVG/1.1/DTD/svg11.dtd">
<svg version="1.1" id="Layer_1" xmlns="http://www.w3.org/2000/svg" xmlns:xlink="http://www.w3.org/1999/xlink" x="0px" y="0px"
	 width="497.693px" height="436.518px" viewBox="0 0 497.693 436.518" enable-background="new 0 0 497.693 436.518"
	 xml:space="preserve">
<g>
	<path fill-rule="evenodd" clip-rule="evenodd" fill="#8B9793" d="M184.812,266.203c-28.751,17.445-61.351,41.719-97.811,72.81
		c-3.522,3.065-17.323,16.963-41.397,41.707c-16.489,17.193-31.28,28.584-44.348,34.146c-1.883-5.503-1.651-10.721,0.708-15.683
		c0.888-1.904,3.55-5.881,7.956-11.881c51.141-69.657,141.898-133.754,272.278-192.277c49.501-22.27,90.194-36.73,122.092-43.396
		c32.117-6.696,42.889-2.841,32.35,11.605c3.576-5.164-21.231,1.501-74.435,19.965C300.835,204.469,241.712,232.138,184.812,266.203
		z"/>
	<path fill-rule="evenodd" clip-rule="evenodd" fill="#8B9793" d="M387.582,68.789c12.135,7.626,11.773,25.483-1.127,53.55
		c-7.781,16.905-18.652,34.888-32.64,53.93c-3.562,4.837-5.793,7.693-6.693,8.581c-3.446,2.608-7.42,2.913-11.859,0.935
		c0.159-7.592,7.896-28.278,23.172-62.04c15.384-32.156,23.195-48.394,23.437-48.733c1.964-2.678,3.548-4.467,4.731-5.393
		L387.582,68.789z"/>
	<path fill-rule="evenodd" clip-rule="evenodd" fill="#8B9793" d="M463.476,230.165c-0.119,1.205-1.093,3.059-2.938,5.572
		c-3.308,4.508-12.061,3.092-26.224-4.217c-0.329-0.247-30.672-17.386-91.034-51.418c-1.7-8.193-2.484-12.367-2.364-12.531
		c4.79-6.508,17.33-3.996,37.639,7.571c13.156,7.613,41.506,25.209,85.009,52.787C463.443,228.092,463.415,228.836,463.476,230.165z
		"/>
	<path fill-rule="evenodd" clip-rule="evenodd" fill="#8B9793" d="M486.135,76.364c0.075,2.366-1.604,5.892-5.045,10.563
		c-6.123,8.353-20.671,23.258-43.623,44.718c-29.931,28.149-52.408,44.432-67.455,48.805c-1.443-6.456-2.166-9.825-2.213-10.11
		c-0.104-1.62,0.281-3.005,1.138-4.176c5.764-7.853,23.849-25.684,54.289-53.466c9.616-8.88,26.515-24.224,50.754-46.027
		C481.871,68.865,485.947,72.108,486.135,76.364z"/>
	<path fill-rule="evenodd" clip-rule="evenodd" fill="#8B9793" d="M225.81,239.239l-2.779,0.649c-1.914,0.15-4.111-0.7-6.613-2.542
		c-3.511-2.577-2.693-19.977,2.447-52.178c5.735-31.28,8.418-46.657,8.043-46.156c14.721-20.041,19.886-10.46,15.524,28.759
		c-2.042,19.58-5.813,41.346-11.328,65.326C228.039,237.261,226.279,239.332,225.81,239.239z"/>
	<path fill-rule="evenodd" clip-rule="evenodd" fill="#8B9793" d="M320.119,85.588c-2.695,3.67-10.456,11.091-23.273,22.249
		c-14.024,12.076-22.224,19.411-24.646,22.014c-4.551,5.137-10.383,13.968-17.502,26.473c-7.361,10.028-16.82,15.021-28.386,15.032
		c-0.577-2.741-1.291-5.969-2.167-9.682c-0.38-1.579-0.443-2.528-0.203-2.859c3.93-5.346,19.896-24.469,47.907-57.381
		c2.913-3.264,7.513-7.599,13.789-13.013c8.016-6.708,12.864-10.866,14.555-12.453c8.688-8.003,15.374-9.916,20.009-5.733
		C324.688,74.29,324.657,79.401,320.119,85.588z"/>
	<path fill-rule="evenodd" clip-rule="evenodd" fill="#8B9793" d="M238.051,159.533l-2.782,0.659
		c-1.908,0.133-4.108-0.701-6.621-2.546c-4.674-3.427-3.593-24.506,3.206-63.197c7.586-37.628,11.191-56.192,10.817-55.69
		c15.951-21.72,21.146-9.547,15.607,36.524c-2.836,23.112-7.387,48.565-13.645,76.355
		C242.424,154.646,240.238,157.28,238.051,159.533z"/>
	<path fill-rule="evenodd" clip-rule="evenodd" fill="#8B9793" d="M242.068,168.268l-1.994,0.081
		c-1.317,0.05-3.233-0.834-5.743-2.679c-2.85-2.089-7.909-10.953-15.189-26.574c-8.605-18.404-14.171-29.554-16.698-33.475
		c-11.26-15.459-18.707-26.324-22.345-32.599c-6.022-10.338-7.2-18.012-3.518-23.014c1.965-2.685,3.417-4.313,4.361-4.9l0.608-0.326
		c11.201,12.08,24.598,29.884,40.217,53.44c21.222,32.024,30.237,53.167,27.073,63.443L242.068,168.268z"/>
	<path fill-rule="evenodd" clip-rule="evenodd" fill="#8B9793" d="M241.503,155.898c-0.605,0.833-1.221,2.189-1.825,4.054
		c-1.319,1.095-3.78,0.958-7.396-0.426c-10-4.245-33.538-19.98-70.615-47.204c-5.678-4.171-15.094-12.367-28.225-24.572
		c-0.571-2.737-1.287-5.96-2.151-9.683c-0.39-1.575-0.452-2.525-0.213-2.855c2.209-3.008,6.679-3.851,13.402-2.5l95.212,69.903
		C241.393,150.801,241.998,155.224,241.503,155.898z"/>
	<path fill-rule="evenodd" clip-rule="evenodd" fill="#8B9793" d="M336.924,318.491c-0.115,1.197-1.092,3.057-2.925,5.58
		c-3.439,4.664-16.743,4.042-39.894-1.905c-30.083-8.728-52.78-15.111-68.071-19.129c-9.726-2.513-26.915-4.854-51.556-7.007
		c-12.154-0.949-23.475-1.809-33.961-2.574c-3.516-2.58-5.044-6.266-4.591-11.077c0.422-3.048,1.256-5.382,2.475-7.049
		c5.645-7.679,39.241-3.737,100.773,11.892c54.894,13.837,87.512,23.51,97.837,29.03
		C336.893,316.418,336.861,317.169,336.924,318.491z"/>
	<path fill-rule="evenodd" clip-rule="evenodd" fill="#8B9793" d="M378.398,240.984c-0.102,1.195-1.074,3.056-2.919,5.567
		c-8.581,11.688-22.688,25.63-42.288,41.835c-20.087,16.855-34.912,26.555-44.458,29.052c-1.023-4.593-0.516-9.639,1.454-15.115
		c1.125-3.302,2.369-5.865,3.729-7.689c10.291-14.047,23.008-27.198,38.197-39.437c20.66-16.958,36.13-22.443,46.389-16.454
		C378.385,238.908,378.354,239.654,378.398,240.984z"/>
	<path fill-rule="evenodd" clip-rule="evenodd" fill="#8B9793" d="M420.452,341.264c-0.104,1.201-1.093,3.059-2.92,5.567
		c-4.161,5.673-11.34,6.843-21.481,3.511c-15.52-6.523-29.683-11.89-42.488-16.169c-2.667-0.926-12.661-3.75-30.011-8.511
		c-13.749-3.675-21.635-6.261-23.631-7.728c-2.676-1.945-4.804-3.773-6.406-5.47l-1.429-2.208c0.238-0.334,0.377-0.891,0.395-1.644
		c-0.122-0.865,0.729-2.546,2.566-5.037c3.687-5.023,22.531-1.968,56.552,9.097c28.522,9.12,51.515,17.904,68.944,26.338
		C420.42,339.192,420.403,339.947,420.452,341.264z"/>
	<path fill-rule="evenodd" clip-rule="evenodd" fill="#8B9793" d="M387.034,393.077c-2.849,0.737-5.519,0.188-8.022-1.654
		c-3.525-2.581-6.812-6.669-9.905-12.275c-2.992-6.051-7.464-11.519-13.393-16.386c-18.481-15.116-33.514-26.151-45.099-33.107
		c-8.427-4.644-14.168-8.226-17.205-10.706c-0.233-1.473,1.182-4.267,4.264-8.432c3.179-4.354,7.275-5.734,12.266-4.118
		c11.009,3.195,30.091,16.435,57.215,39.708c19.118,20.197,27.71,35.11,25.77,44.733
		C391.935,391.141,389.966,391.904,387.034,393.077z"/>
	<path fill-rule="evenodd" clip-rule="evenodd" fill="#8B9793" d="M285.703,300.562c13.228-18.009,22.416-6.004,27.527,36.029
		c2.604,20.922,3.756,43.895,3.449,68.849c-3.082,4.165-4.6,5.89-4.548,5.13l-2.804,0.643c-1.904,0.152-4.115-0.687-6.616-2.544
		c-2.507-1.826-5.359-21.911-8.584-60.265C291.202,312.973,288.385,297.022,285.703,300.562z"/>
	<path fill-rule="evenodd" clip-rule="evenodd" fill="#4E625C" d="M266.593,49.763c-7.929,2.399-15.157,1.213-21.663-3.562
		c-7.864-5.776-11.208-13.117-10.052-22.04c0.572-4.977,2.089-9.136,4.538-12.477C249.59-2.179,260.992-3.71,273.624,7.112
		c12.627,10.805,14.525,22.23,5.695,34.26C276.618,45.041,272.385,47.844,266.593,49.763z"/>
	<path fill-rule="evenodd" clip-rule="evenodd" fill="#4E625C" d="M165.537,65.039c-7.517-5.517-10.84-12.728-9.986-21.606
		c0.655-5.434,2.152-9.742,4.479-12.909c9.56-13.023,21.207-14.884,34.942-5.577c13.729,9.304,15.383,21.066,4.966,35.259
		c-2.705,3.673-6.938,6.476-12.731,8.396C179.451,71.13,172.207,69.938,165.537,65.039z"/>
	<path fill-rule="evenodd" clip-rule="evenodd" fill="#4E625C" d="M147.712,104.002c-8.95,2.421-16.794,1.168-23.469-3.732
		c-7.854-5.768-11.204-13.111-10.046-22.022c0.571-4.995,2.088-9.146,4.542-12.484c10.422-14.2,23.04-16.514,37.844-6.917
		c14.936,9.417,17.07,21.404,6.402,35.934C159.922,98.96,154.828,102.035,147.712,104.002z"/>
	<path fill-rule="evenodd" clip-rule="evenodd" fill="#4E625C" d="M332.58,100.138c-6.996,1.802-13.664,0.383-20.004-4.272
		c-9.022-6.628-12.365-14.865-10.017-24.699l5.794-11.564c10.06-13.703,21.583-15.401,34.567-5.077
		c13.124,10.139,14.843,21.812,5.151,35.012C344.032,95.046,338.861,98.579,332.58,100.138z"/>
	<path fill-rule="evenodd" clip-rule="evenodd" fill="#4E625C" d="M410.796,46.126c12.637,10.801,14.536,22.226,5.698,34.253
		c-2.695,3.676-6.936,6.477-12.72,8.393c-7.768,2.534-14.993,1.339-21.67-3.564c-7.53-5.521-10.849-12.72-9.987-21.596
		c0.652-5.435,2.138-9.75,4.47-12.914C386.772,36.83,398.165,35.303,410.796,46.126z"/>
	<path fill-rule="evenodd" clip-rule="evenodd" fill="#4E625C" d="M475.75,82.626c-8.965,2.414-16.792,1.17-23.459-3.722
		c-7.854-5.775-11.279-13.042-10.236-21.794c0.7-5.148,2.268-9.386,4.724-12.723c10.425-14.2,23.034-16.516,37.852-6.916
		c14.927,9.415,17.063,21.394,6.401,35.934C487.962,77.574,482.867,80.651,475.75,82.626z"/>
	<path fill-rule="evenodd" clip-rule="evenodd" fill="#4E625C" d="M463.821,193.408c-7.228,1.121-14.022-0.656-20.368-5.314
		c-8.355-6.133-12.109-13.645-11.245-22.529c0.411-5.085,1.906-9.388,4.481-12.899c9.571-13.028,21.64-14.582,36.19-4.659
		c14.565,9.92,16.643,21.989,6.222,36.183C475.295,189.372,470.203,192.447,463.821,193.408z"/>
	<path fill-rule="evenodd" clip-rule="evenodd" fill="#4E625C" d="M472.36,273.713c-8.053,2.573-15.34,1.469-21.849-3.312
		c-7.861-5.77-11.197-13.108-10.051-22.032c0.579-4.975,2.08-9.151,4.534-12.486c10.185-13.86,21.577-15.388,34.209-4.573
		c12.632,10.816,14.529,22.238,5.694,34.26C482.323,269.08,478.146,271.792,472.36,273.713z"/>
	<path fill-rule="evenodd" clip-rule="evenodd" fill="#4E625C" d="M375.066,267.06c-8.966,2.416-16.793,1.17-23.482-3.736
		c-7.861-5.769-11.197-13.106-10.036-22.026c0.567-4.98,2.079-9.15,4.521-12.492c10.437-14.196,23.058-16.5,37.861-6.902
		c14.927,9.414,17.063,21.401,6.389,35.93C387.266,262.007,382.172,265.081,375.066,267.06z"/>
	<path fill-rule="evenodd" clip-rule="evenodd" fill="#4E625C" d="M427.164,372.036c-7.766,2.524-14.979,1.339-21.667-3.579
		c-7.503-5.506-10.834-12.716-9.973-21.591c0.651-5.429,2.151-9.743,4.472-12.912c10.166-13.866,21.581-15.403,34.207-4.573
		c12.624,10.796,14.517,22.233,5.698,34.253C437.206,367.311,432.947,370.113,427.164,372.036z"/>
	<path fill-rule="evenodd" clip-rule="evenodd" fill="#4E625C" d="M401.574,422.645c-7.765,2.526-14.977,1.336-21.657-3.56
		c-7.514-5.525-10.849-12.721-10.001-21.603c0.657-5.44,2.167-9.736,4.484-12.909c9.567-13.021,21.207-14.906,34.943-5.576
		c13.73,9.299,15.37,21.062,4.961,35.26C411.598,417.93,407.356,420.724,401.574,422.645z"/>
	<path fill-rule="evenodd" clip-rule="evenodd" fill="#4E625C" d="M319.015,435.312c-7.929,2.404-15.142,1.215-21.65-3.573
		c-7.86-5.771-11.225-13.12-10.064-22.037c0.58-4.975,2.089-9.131,4.543-12.461c10.184-13.862,21.581-15.401,34.207-4.571
		c12.625,10.796,14.521,22.22,5.704,34.237C329.053,430.599,324.817,433.393,319.015,435.312z"/>
</g>
</svg>
